<svg width="179" height="51" viewBox="0 0 179 51" fill="none" xmlns="http://www.w3.org/2000/svg">
<path d="M-9.38773e-07 14.56C-9.38773e-07 9.84666 1.30667 6.25333 3.92 3.77999C6.58 1.25999 10.22 -6.31809e-06 14.84 -6.31809e-06C19.46 -6.31809e-06 23.0533 1.30666 25.62 3.91999C28.1867 6.48666 29.47 10.0567 29.47 14.63V37.1C29.47 39.9467 28.84 42.3967 27.58 44.45C26.3667 46.5033 24.6633 48.09 22.47 49.21C20.2767 50.33 17.71 50.89 14.77 50.89C12.0633 50.89 9.59 50.3767 7.35 49.35C5.11 48.3233 3.31333 46.7833 1.96 44.73C0.653332 42.6767 -9.38773e-07 40.1333 -9.38773e-07 37.1V14.56ZM3.08 37.1C3.08 39.48 3.59333 41.4867 4.62 43.12C5.64667 44.7067 7.02333 45.92 8.75 46.76C10.5233 47.5533 12.5067 47.95 14.7 47.95C16.9867 47.95 18.9933 47.5767 20.72 46.83C22.4933 46.0367 23.87 44.8233 24.85 43.19C25.8767 41.5567 26.39 39.5267 26.39 37.1V14.07C26.39 11.69 25.9233 9.68333 24.99 8.04999C24.1033 6.36999 22.7733 5.10999 21 4.26999C19.2733 3.38333 17.1733 2.93999 14.7 2.93999C12.32 2.93999 10.2433 3.38333 8.47 4.26999C6.74333 5.10999 5.41333 6.36999 4.48 8.04999C3.54667 9.68333 3.08 11.7133 3.08 14.14V37.1ZM39.2536 50.12H35.8936L59.0636 4.26999H35.1236V1.11999H62.5636V4.12999L39.2536 50.12ZM68.4655 47.18C68.8855 47.04 69.2821 47.0867 69.6555 47.32C70.0755 47.5533 70.3555 47.88 70.4955 48.3C70.5888 48.72 70.4955 49.1167 70.2155 49.49C69.9821 49.8633 69.6555 50.12 69.2355 50.26C68.8155 50.3533 68.4188 50.2833 68.0455 50.05C67.6721 49.8167 67.4155 49.49 67.2755 49.07C67.1821 48.65 67.2521 48.2533 67.4855 47.88C67.7188 47.5067 68.0455 47.2733 68.4655 47.18ZM74.0638 6.92999C74.3438 6.83666 74.8338 6.64999 75.5338 6.37C76.2338 6.08999 77.0505 5.71666 77.9838 5.24999C78.9172 4.78333 79.8272 4.19999 80.7138 3.49999C81.6472 2.79999 82.4405 2.00666 83.0938 1.11999H86.1038V50.12H83.1638V4.96999C82.6505 5.38999 82.0672 5.80999 81.4138 6.22999C80.7605 6.64999 80.0605 7.06999 79.3138 7.48999C78.5672 7.86333 77.7972 8.18999 77.0038 8.46999C76.2572 8.74999 75.5338 8.95999 74.8338 9.09999L74.0638 6.92999ZM91.1537 6.92999C91.4337 6.83666 91.9237 6.64999 92.6237 6.37C93.3237 6.08999 94.1403 5.71666 95.0737 5.24999C96.007 4.78333 96.917 4.19999 97.8037 3.49999C98.737 2.79999 99.5303 2.00666 100.184 1.11999H103.194V50.12H100.254V4.96999C99.7403 5.38999 99.157 5.80999 98.5037 6.22999C97.8503 6.64999 97.1503 7.06999 96.4037 7.48999C95.657 7.86333 94.887 8.18999 94.0937 8.46999C93.347 8.74999 92.6237 8.95999 91.9237 9.09999L91.1537 6.92999ZM111.053 47.18C111.473 47.04 111.87 47.0867 112.243 47.32C112.663 47.5533 112.943 47.88 113.083 48.3C113.177 48.72 113.083 49.1167 112.803 49.49C112.57 49.8633 112.243 50.12 111.823 50.26C111.403 50.3533 111.007 50.2833 110.633 50.05C110.26 49.8167 110.003 49.49 109.863 49.07C109.77 48.65 109.84 48.2533 110.073 47.88C110.307 47.5067 110.633 47.2733 111.053 47.18ZM118.752 8.81999C119.498 6.90666 120.455 5.34333 121.622 4.12999C122.835 2.86999 124.212 1.93666 125.752 1.32999C127.338 0.723326 128.995 0.419992 130.722 0.419992C132.682 0.373326 134.548 0.81666 136.322 1.74999C138.095 2.68333 139.542 3.98999 140.662 5.66999C141.828 7.34999 142.412 9.33333 142.412 11.62C142.365 13.0667 142.085 14.63 141.572 16.31C141.058 17.9433 140.102 19.8567 138.702 22.05L121.482 47.18H142.412V50.12H117.912V47.18L136.112 20.37C136.998 19.0633 137.652 17.9433 138.072 17.01C138.492 16.03 138.772 15.1667 138.912 14.42C139.098 13.6267 139.192 12.8567 139.192 12.11C139.192 10.29 138.795 8.74999 138.002 7.48999C137.208 6.18333 136.135 5.17999 134.782 4.47999C133.475 3.73333 132.052 3.35999 130.512 3.35999C129.112 3.35999 127.828 3.61666 126.662 4.12999C125.542 4.64333 124.562 5.38999 123.722 6.37C122.882 7.30333 122.205 8.46999 121.692 9.86999L118.752 8.81999ZM165.207 3.98999C162.313 3.98999 159.817 4.57333 157.717 5.73999C155.663 6.90666 154.077 8.56333 152.957 10.71C151.837 12.8567 151.277 15.3533 151.277 18.2V27.16C152.303 25.76 153.423 24.6167 154.637 23.73C155.85 22.8433 157.157 22.19 158.557 21.77C160.003 21.3033 161.497 21.07 163.037 21.07C165.837 21.07 168.38 21.7233 170.667 23.03C172.953 24.3367 174.773 26.11 176.127 28.35C177.48 30.59 178.157 33.11 178.157 35.91C178.157 37.9633 177.76 39.9 176.967 41.72C176.173 43.4933 175.077 45.08 173.677 46.48C172.323 47.8333 170.737 48.9067 168.917 49.7C167.143 50.4467 165.23 50.82 163.177 50.82C160.47 50.82 157.973 50.1667 155.687 48.86C153.447 47.5067 151.65 45.71 150.297 43.47C148.943 41.1833 148.267 38.6633 148.267 35.91V17.71C148.267 14.35 148.99 11.4333 150.437 8.96C151.883 6.48666 153.89 4.57333 156.457 3.21999C159.07 1.81999 162.057 1.11999 165.417 1.11999H167.797V3.98999H165.207ZM163.177 24.08C161.59 24.08 160.073 24.4067 158.627 25.06C157.18 25.6667 155.897 26.5067 154.777 27.58C153.703 28.6533 152.84 29.9133 152.187 31.36C151.58 32.76 151.277 34.2767 151.277 35.91C151.277 38.0567 151.813 40.04 152.887 41.86C154.007 43.68 155.453 45.1267 157.227 46.2C159.047 47.2733 161.03 47.81 163.177 47.81C164.81 47.81 166.327 47.5067 167.727 46.9C169.173 46.2467 170.433 45.3833 171.507 44.31C172.627 43.19 173.49 41.93 174.097 40.53C174.703 39.0833 175.007 37.5433 175.007 35.91C175.007 34.2767 174.703 32.76 174.097 31.36C173.49 29.9133 172.627 28.6533 171.507 27.58C170.433 26.5067 169.173 25.6667 167.727 25.06C166.327 24.4067 164.81 24.08 163.177 24.08Z" fill="#FFF5D1"/>
</svg>
