<svg width="225" height="23" viewBox="0 0 225 23" fill="none" xmlns="http://www.w3.org/2000/svg">
<path d="M2.04891e-07 22.458L5.738 7.03335e-06H6.232L11.97 22.458H11.324L9.804 16.378H2.128L0.646 22.458H2.04891e-07ZM2.28 15.77H9.652L6.156 2.24201L6.004 1.59601L5.852 2.24201L2.28 15.77ZM13.7649 22.458V21.85C14.2716 21.85 14.6516 21.622 14.9049 21.166C15.1836 20.71 15.3736 19.95 15.4749 18.886L16.8049 3.64801H24.5569V22.42H23.9489V4.25601H17.4129L16.0829 18.962C16.0576 19.2407 15.9942 19.6587 15.8929 20.216C15.8169 20.7733 15.6142 21.2927 15.2849 21.774C14.9809 22.23 14.4742 22.458 13.7649 22.458ZM33.9438 22.724C32.8545 22.724 31.9931 22.5847 31.3598 22.306C30.7518 22.002 30.3085 21.6093 30.0298 21.128C29.7511 20.6467 29.5738 20.1147 29.4978 19.532C29.4218 18.924 29.3838 18.3287 29.3838 17.746V8.32201C29.3838 7.53667 29.4725 6.76401 29.6498 6.00401C29.8271 5.24401 30.2325 4.61067 30.8658 4.10401C31.5245 3.59734 32.5505 3.34401 33.9438 3.34401C35.3625 3.34401 36.3885 3.58467 37.0218 4.06601C37.6551 4.54734 38.0478 5.16801 38.1998 5.92801C38.3771 6.68801 38.4658 7.48601 38.4658 8.32201V12.464H29.9918V17.632C29.9918 18.3667 30.0551 19.0887 30.1818 19.798C30.3338 20.482 30.6885 21.0393 31.2458 21.47C31.8031 21.9007 32.7025 22.116 33.9438 22.116C35.1851 22.116 36.0718 21.9007 36.6038 21.47C37.1611 21.0393 37.5031 20.482 37.6298 19.798C37.7818 19.114 37.8578 18.392 37.8578 17.632V16.112H38.4658V17.746C38.4658 18.5313 38.3898 19.304 38.2378 20.064C38.0858 20.824 37.6931 21.4573 37.0598 21.964C36.4265 22.4707 35.3878 22.724 33.9438 22.724ZM29.9918 11.856H37.8578V8.66401C37.8578 7.77734 37.7945 6.97934 37.6678 6.27001C37.5411 5.56067 37.1991 5.00334 36.6418 4.59801C36.1098 4.16734 35.2105 3.95201 33.9438 3.95201C32.8291 3.95201 31.9805 4.15467 31.3978 4.56001C30.8405 4.94001 30.4605 5.48467 30.2578 6.19401C30.0805 6.87801 29.9918 7.70134 29.9918 8.66401V11.856ZM43.2336 22.458V3.64801H49.4276C50.5929 3.64801 51.5683 3.92667 52.3536 4.48401C53.1643 5.01601 53.5696 5.96601 53.5696 7.33401V7.98001C53.5696 9.19601 53.2783 10.184 52.6956 10.944C52.1129 11.704 51.3783 12.1727 50.4916 12.35C51.4036 12.35 52.1763 12.7173 52.8096 13.452C53.4429 14.1867 53.7596 15.124 53.7596 16.264V17.898C53.7596 19.2153 53.5569 20.2033 53.1516 20.862C52.7716 21.4953 52.2269 21.926 51.5176 22.154C50.8336 22.3567 50.0229 22.458 49.0856 22.458H43.2336ZM43.8416 12.084H48.6296C50.0483 12.084 51.1249 11.742 51.8596 11.058C52.5943 10.3487 52.9616 9.33534 52.9616 8.01801V7.25801C52.9616 6.27001 52.6196 5.52267 51.9356 5.01601C51.2769 4.50934 50.4409 4.25601 49.4276 4.25601H43.8416V12.084ZM43.8416 21.85H48.9716C49.8583 21.85 50.6056 21.7613 51.2136 21.584C51.8469 21.3813 52.3283 20.9887 52.6576 20.406C52.9869 19.798 53.1516 18.8987 53.1516 17.708V16.758C53.1516 15.6433 52.9616 14.7947 52.5816 14.212C52.2016 13.6293 51.6823 13.2367 51.0236 13.034C50.3649 12.806 49.6303 12.692 48.8196 12.692H43.8416V21.85ZM60.5782 22.458V4.25601H56.3602V3.64801H65.4422V4.25601H61.1862V22.458H60.5782ZM68.5793 22.458V3.64801H69.1873V21.546L76.8633 3.64801H77.7753V22.458H77.1673V4.48401L69.4533 22.458H68.5793ZM82.9406 22.458V3.64801H83.5486V12.16H91.6806V3.64801H92.2886V22.458H91.6806V12.768H83.5486V22.458H82.9406ZM100.946 22.61C100.364 22.61 99.7557 22.5087 99.1224 22.306C98.5144 22.1033 97.9951 21.698 97.5644 21.09C97.1337 20.4567 96.9184 19.494 96.9184 18.202V16.91C96.9184 16.0993 97.0957 15.39 97.4504 14.782C97.8304 14.174 98.2737 13.6673 98.7804 13.262C99.3124 12.8313 99.8191 12.4893 100.3 12.236C100.807 11.9573 101.174 11.7547 101.402 11.628C102.416 11.0707 103.201 10.5893 103.758 10.184C104.341 9.75334 104.759 9.32267 105.012 8.89201C105.266 8.43601 105.392 7.89134 105.392 7.25801V6.72601C105.392 5.86467 105.202 5.24401 104.822 4.86401C104.468 4.48401 104.012 4.24334 103.454 4.14201C102.897 4.04067 102.327 3.99001 101.744 3.99001C100.63 3.99001 99.7937 4.18001 99.2364 4.56001C98.7044 4.94001 98.3497 5.44667 98.1724 6.08001C98.0204 6.71334 97.9444 7.42267 97.9444 8.20801V9.76601H97.3364V8.13201C97.3364 6.66267 97.6277 5.51001 98.2104 4.67401C98.7931 3.81267 99.9711 3.38201 101.744 3.38201C103.112 3.38201 104.088 3.55934 104.67 3.91401C105.278 4.26867 105.646 4.73734 105.772 5.32001C105.924 5.87734 106 6.49801 106 7.18201V22.458H105.43V19.684C105.126 20.5707 104.582 21.28 103.796 21.812C103.036 22.344 102.086 22.61 100.946 22.61ZM101.06 22.002C102.175 22.002 103.036 21.7613 103.644 21.28C104.278 20.7987 104.721 20.14 104.974 19.304C105.253 18.468 105.392 17.5307 105.392 16.492V9.50001C104.987 10.0573 104.43 10.5513 103.72 10.982C103.036 11.3873 102.327 11.8053 101.592 12.236C100.959 12.5907 100.326 12.9707 99.6924 13.376C99.0844 13.756 98.5651 14.25 98.1344 14.858C97.7291 15.466 97.5264 16.2513 97.5264 17.214V18.202C97.5264 19.3927 97.7164 20.254 98.0964 20.786C98.4764 21.318 98.9451 21.66 99.5024 21.812C100.06 21.9387 100.579 22.002 101.06 22.002ZM122.408 22.686C121.04 22.686 119.951 22.4453 119.14 21.964C118.33 21.4573 117.747 20.786 117.392 19.95C117.038 19.114 116.86 18.202 116.86 17.214V15.694C116.86 14.4527 117.24 13.338 118 12.35C118.786 11.3367 119.824 10.7287 121.116 10.526C120.711 10.0193 120.394 9.50001 120.166 8.96801C119.964 8.41067 119.862 7.77734 119.862 7.06801C119.862 5.85201 120.204 4.91467 120.888 4.25601C121.598 3.57201 122.712 3.23001 124.232 3.23001C125.119 3.23001 125.93 3.31867 126.664 3.49601C127.399 3.67334 127.906 3.82534 128.184 3.95201V4.63601C127.855 4.48401 127.31 4.31934 126.55 4.14201C125.816 3.93934 125.043 3.83801 124.232 3.83801C122.94 3.83801 122.003 4.10401 121.42 4.63601C120.838 5.14267 120.546 5.85201 120.546 6.76401V7.03001C120.546 7.81534 120.686 8.47401 120.964 9.00601C121.243 9.53801 121.547 10.0193 121.876 10.45C122.763 11.514 123.65 12.5907 124.536 13.68C125.448 14.744 126.36 15.808 127.272 16.872V10.412H132.136V11.02H127.88V17.632C128.134 17.936 128.476 18.3287 128.906 18.81C129.337 19.266 129.78 19.7347 130.236 20.216C130.718 20.6973 131.161 21.1153 131.566 21.47C131.972 21.7993 132.263 21.9767 132.44 22.002V22.61C131.934 22.4833 131.25 22.002 130.388 21.166C129.552 20.33 128.691 19.4307 127.804 18.468C127.804 19.1013 127.589 19.7473 127.158 20.406C126.753 21.0647 126.145 21.6093 125.334 22.04C124.549 22.4707 123.574 22.686 122.408 22.686ZM122.408 22.078C123.928 22.078 125.119 21.6727 125.98 20.862C126.842 20.0513 127.272 19.0253 127.272 17.784C126.284 16.6187 125.296 15.4787 124.308 14.364C123.346 13.224 122.421 12.1093 121.534 11.02C120.926 10.9693 120.306 11.1593 119.672 11.59C119.064 11.9953 118.545 12.5653 118.114 13.3C117.684 14.0093 117.468 14.8073 117.468 15.694V17.366C117.468 18.9113 117.886 20.0893 118.722 20.9C119.584 21.6853 120.812 22.078 122.408 22.078ZM142.731 22.458V7.03335e-06H143.377L149.837 21.242L156.335 7.03335e-06H156.943V22.458H156.335V2.05201L150.103 22.458H149.571L143.339 2.05201V22.458H142.731ZM162.429 22.458V3.64801H163.037V21.546L170.713 3.64801H171.625V22.458H171.017V4.48401L163.303 22.458H162.429ZM174.928 22.458L178.804 12.464L175.536 3.64801H176.182L179.374 12.16H180.362L183.82 3.64801H184.466L180.894 12.426L184.846 22.458H184.124L180.4 12.768H179.336L175.612 22.458H174.928ZM191.271 22.61C190.688 22.61 190.08 22.5087 189.447 22.306C188.839 22.1033 188.319 21.698 187.889 21.09C187.458 20.4567 187.243 19.494 187.243 18.202V16.91C187.243 16.0993 187.42 15.39 187.775 14.782C188.155 14.174 188.598 13.6673 189.105 13.262C189.637 12.8313 190.143 12.4893 190.625 12.236C191.131 11.9573 191.499 11.7547 191.727 11.628C192.74 11.0707 193.525 10.5893 194.083 10.184C194.665 9.75334 195.083 9.32267 195.337 8.89201C195.59 8.43601 195.717 7.89134 195.717 7.25801V6.72601C195.717 5.86467 195.527 5.24401 195.147 4.86401C194.792 4.48401 194.336 4.24334 193.779 4.14201C193.221 4.04067 192.651 3.99001 192.069 3.99001C190.954 3.99001 190.118 4.18001 189.561 4.56001C189.029 4.94001 188.674 5.44667 188.497 6.08001C188.345 6.71334 188.269 7.42267 188.269 8.20801V9.76601H187.661V8.13201C187.661 6.66267 187.952 5.51001 188.535 4.67401C189.117 3.81267 190.295 3.38201 192.069 3.38201C193.437 3.38201 194.412 3.55934 194.995 3.91401C195.603 4.26867 195.97 4.73734 196.097 5.32001C196.249 5.87734 196.325 6.49801 196.325 7.18201V22.458H195.755V19.684C195.451 20.5707 194.906 21.28 194.121 21.812C193.361 22.344 192.411 22.61 191.271 22.61ZM191.385 22.002C192.499 22.002 193.361 21.7613 193.969 21.28C194.602 20.7987 195.045 20.14 195.299 19.304C195.577 18.468 195.717 17.5307 195.717 16.492V9.50001C195.311 10.0573 194.754 10.5513 194.045 10.982C193.361 11.3873 192.651 11.8053 191.917 12.236C191.283 12.5907 190.65 12.9707 190.017 13.376C189.409 13.756 188.889 14.25 188.459 14.858C188.053 15.466 187.851 16.2513 187.851 17.214V18.202C187.851 19.3927 188.041 20.254 188.421 20.786C188.801 21.318 189.269 21.66 189.827 21.812C190.384 21.9387 190.903 22.002 191.385 22.002ZM201.208 22.458V3.64801H201.816V21.546L209.492 3.64801H210.404V22.458H209.796V4.48401L202.082 22.458H201.208ZM213.822 22.458V21.85C214.328 21.85 214.708 21.622 214.962 21.166C215.24 20.71 215.43 19.95 215.532 18.886L216.862 3.64801H224.614V22.42H224.006V4.25601H217.47L216.14 18.962C216.114 19.2407 216.051 19.6587 215.95 20.216C215.874 20.7733 215.671 21.2927 215.342 21.774C215.038 22.23 214.531 22.458 213.822 22.458Z" fill="black"/>
</svg>
