<svg width="402" height="43" viewBox="0 0 402 43" fill="none" xmlns="http://www.w3.org/2000/svg">
<rect width="402" height="42" fill="#3E2723"/>
<path d="M6.78 14V3.8H0.915V14H0.615V3.5H7.08V14H6.78ZM12.0847 3.5C12.5647 3.5 12.9747 3.57 13.3147 3.71C13.6647 3.85 13.9547 4.055 14.1847 4.325C14.4147 4.585 14.5847 4.91 14.6947 5.3C14.8047 5.68 14.8597 6.11 14.8597 6.59C14.8597 7.11 14.8047 7.57 14.6947 7.97C14.5847 8.37 14.4097 8.705 14.1697 8.975C13.9397 9.245 13.6447 9.45 13.2847 9.59C12.9247 9.72 12.4897 9.785 11.9797 9.785H8.61973V14H8.33473V3.5H12.0847ZM8.61973 9.5H11.9647C12.4247 9.5 12.8197 9.44 13.1497 9.32C13.4797 9.19 13.7497 9.005 13.9597 8.765C14.1697 8.515 14.3247 8.21 14.4247 7.85C14.5247 7.48 14.5747 7.06 14.5747 6.59C14.5747 6.15 14.5247 5.76 14.4247 5.42C14.3347 5.07 14.1897 4.775 13.9897 4.535C13.7897 4.295 13.5347 4.115 13.2247 3.995C12.9147 3.865 12.5397 3.8 12.0997 3.8H8.61973V9.5ZM15.8933 3.5H16.1483V13.52L23.0183 3.5H23.2883V14H23.0183V3.95L16.1483 14H15.8933V3.5ZM24.5505 14V3.5H29.5605V3.8H24.8355V14H24.5505ZM35.7217 3.5H37.2817V14.015H37.0117V3.755H35.7817C35.3117 3.755 34.9467 3.845 34.6867 4.025C34.4267 4.205 34.2317 4.42 34.1017 4.67C33.9817 4.91 33.8917 5.13 33.8317 5.33L31.7167 12.32C31.6167 12.64 31.5117 12.91 31.4017 13.13C31.3017 13.35 31.1667 13.54 30.9967 13.7C30.8367 13.85 30.6167 13.99 30.3367 14.12L30.1717 13.925C30.4817 13.775 30.7167 13.61 30.8767 13.43C31.0367 13.25 31.1567 13.06 31.2367 12.86C31.3167 12.65 31.3867 12.445 31.4467 12.245L33.5917 5.15C33.6417 4.98 33.7167 4.8 33.8167 4.61C33.9167 4.42 34.0467 4.245 34.2067 4.085C34.3667 3.915 34.5717 3.775 34.8217 3.665C35.0717 3.555 35.3717 3.5 35.7217 3.5ZM45.639 14H45.324L43.839 9.785H39.834L38.349 14H38.049L41.739 3.5H41.949L45.639 14ZM39.954 9.5H43.749L41.844 4.1L39.954 9.5ZM54.6232 3.5H54.9082V14H46.5682V3.5H46.8532V13.73H50.5882V3.5H50.8732V13.73H54.6232V3.5ZM56.1326 14V3.5H61.1426V3.785H56.4176V7.82H59.8376L59.7476 8.09H56.4176V13.715H61.1126V14H56.1326ZM68.3624 7.82V3.5H68.6324V14H68.3624V8.09H62.4524V14H62.1824V3.5H62.4524V7.82H68.3624ZM69.9021 3.5H70.1571V13.52L77.0271 3.5H77.2971V14H77.0271V3.95L70.1571 14H69.9021V3.5ZM78.5593 14V3.5H83.5693V3.785H78.8443V7.82H82.2643L82.1743 8.09H78.8443V13.715H83.5393V14H78.5593ZM94.9932 7.82V3.5H95.2632V14H94.9932V8.09H89.0832V14H88.8132V3.5H89.0832V7.82H94.9932ZM103.808 14H103.493L102.008 9.785H98.003L96.518 14H96.218L99.908 3.5H100.118L103.808 14ZM98.123 9.5H101.918L100.013 4.1L98.123 9.5ZM113.726 4.1C113.396 3.93 113.066 3.81 112.736 3.74C112.406 3.67 112.081 3.635 111.761 3.635C111.181 3.635 110.691 3.735 110.291 3.935C109.891 4.125 109.586 4.42 109.376 4.82C109.176 5.21 109.076 5.7 109.076 6.29V11.21C109.076 11.86 109.196 12.385 109.436 12.785C109.676 13.175 110.006 13.455 110.426 13.625C110.846 13.795 111.321 13.88 111.851 13.88C112.051 13.88 112.271 13.865 112.511 13.835C112.761 13.795 113.021 13.74 113.291 13.67C113.571 13.59 113.851 13.495 114.131 13.385L114.221 13.655C113.801 13.815 113.386 13.935 112.976 14.015C112.576 14.105 112.181 14.15 111.791 14.15C111.161 14.15 110.621 14.045 110.171 13.835C109.731 13.625 109.391 13.31 109.151 12.89C108.911 12.46 108.791 11.91 108.791 11.24V6.29C108.791 5.56 108.931 4.98 109.211 4.55C109.491 4.12 109.851 3.815 110.291 3.635C110.741 3.445 111.216 3.35 111.716 3.35C112.126 3.35 112.506 3.39 112.856 3.47C113.216 3.55 113.546 3.675 113.846 3.845L113.726 4.1ZM118.495 3.5C119.045 3.5 119.52 3.59 119.92 3.77C120.32 3.95 120.625 4.22 120.835 4.58C121.055 4.93 121.165 5.37 121.165 5.9C121.165 6.18 121.105 6.465 120.985 6.755C120.865 7.035 120.69 7.285 120.46 7.505C120.24 7.725 119.975 7.88 119.665 7.97C120.135 8.08 120.52 8.28 120.82 8.57C121.12 8.86 121.345 9.205 121.495 9.605C121.645 9.995 121.72 10.415 121.72 10.865C121.72 11.495 121.6 12.045 121.36 12.515C121.13 12.985 120.785 13.35 120.325 13.61C119.875 13.87 119.315 14 118.645 14H115.21V3.5H118.495ZM119.065 7.82C119.415 7.82 119.725 7.735 119.995 7.565C120.265 7.395 120.48 7.165 120.64 6.875C120.8 6.575 120.88 6.24 120.88 5.87C120.88 5.46 120.795 5.1 120.625 4.79C120.455 4.48 120.19 4.235 119.83 4.055C119.48 3.875 119.015 3.785 118.435 3.785H115.495V7.82H119.065ZM118.66 13.715C119.27 13.715 119.78 13.6 120.19 13.37C120.6 13.13 120.91 12.795 121.12 12.365C121.33 11.935 121.435 11.435 121.435 10.865C121.435 10.315 121.325 9.835 121.105 9.425C120.885 9.005 120.57 8.68 120.16 8.45C119.76 8.21 119.27 8.09 118.69 8.09H115.495V13.715H118.66ZM130.043 14H129.728L128.243 9.785H124.238L122.753 14H122.453L126.143 3.5H126.353L130.043 14ZM124.358 9.5H128.153L126.248 4.1L124.358 9.5ZM137.558 13.745H138.488V15.32H138.248L138.203 14.015H130.778L130.733 15.32H130.493V13.745H131.273L133.883 5.15C133.933 4.98 134.008 4.8 134.108 4.61C134.208 4.42 134.338 4.245 134.498 4.085C134.668 3.915 134.878 3.775 135.128 3.665C135.378 3.555 135.678 3.5 136.028 3.5H137.558V13.745ZM137.288 13.745V3.77H136.088C135.618 3.77 135.248 3.86 134.978 4.04C134.718 4.22 134.523 4.43 134.393 4.67C134.273 4.91 134.183 5.13 134.123 5.33L131.573 13.745H137.288ZM142.623 7.835C143.133 7.835 143.543 7.915 143.853 8.075C144.173 8.225 144.418 8.425 144.588 8.675C144.768 8.925 144.888 9.19 144.948 9.47C145.018 9.74 145.053 9.995 145.053 10.235V11.48C145.053 11.93 144.993 12.325 144.873 12.665C144.763 12.995 144.583 13.275 144.333 13.505C144.083 13.725 143.763 13.89 143.373 14C142.983 14.11 142.518 14.165 141.978 14.165C141.868 14.165 141.703 14.16 141.483 14.15C141.263 14.14 141.028 14.125 140.778 14.105C140.528 14.095 140.288 14.08 140.058 14.06C139.828 14.05 139.638 14.04 139.488 14.03C139.338 14.02 139.263 14.015 139.263 14.015V3.5H139.533V7.835H142.623ZM144.783 11.57V10.265C144.783 9.985 144.743 9.72 144.663 9.47C144.583 9.21 144.458 8.98 144.288 8.78C144.128 8.58 143.908 8.42 143.628 8.3C143.358 8.18 143.028 8.12 142.638 8.12H139.533V13.745C139.543 13.745 139.608 13.75 139.728 13.76C139.858 13.77 140.023 13.785 140.223 13.805C140.423 13.815 140.633 13.83 140.853 13.85C141.073 13.86 141.283 13.87 141.483 13.88C141.683 13.89 141.848 13.895 141.978 13.895C142.568 13.895 143.048 13.83 143.418 13.7C143.788 13.56 144.068 13.375 144.258 13.145C144.458 12.915 144.593 12.665 144.663 12.395C144.743 12.115 144.783 11.84 144.783 11.57ZM146.089 3.8V3.5H151.099V3.8H146.089ZM149.449 7.835C149.959 7.835 150.369 7.915 150.679 8.075C150.999 8.225 151.244 8.425 151.414 8.675C151.594 8.925 151.714 9.19 151.774 9.47C151.844 9.74 151.879 9.995 151.879 10.235V11.48C151.879 11.93 151.819 12.325 151.699 12.665C151.589 12.995 151.409 13.275 151.159 13.505C150.909 13.725 150.589 13.89 150.199 14C149.809 14.11 149.344 14.165 148.804 14.165C148.694 14.165 148.529 14.16 148.309 14.15C148.089 14.14 147.854 14.125 147.604 14.105C147.354 14.095 147.114 14.08 146.884 14.06C146.654 14.05 146.464 14.04 146.314 14.03C146.164 14.02 146.089 14.015 146.089 14.015V3.5H146.359V7.835H149.449ZM151.609 11.57V10.265C151.609 9.985 151.569 9.72 151.489 9.47C151.409 9.21 151.284 8.98 151.114 8.78C150.954 8.58 150.734 8.42 150.454 8.3C150.184 8.18 149.854 8.12 149.464 8.12H146.359V13.745C146.369 13.745 146.434 13.75 146.554 13.76C146.684 13.77 146.849 13.785 147.049 13.805C147.249 13.815 147.459 13.83 147.679 13.85C147.899 13.86 148.109 13.87 148.309 13.88C148.509 13.89 148.674 13.895 148.804 13.895C149.394 13.895 149.874 13.83 150.244 13.7C150.614 13.56 150.894 13.375 151.084 13.145C151.284 12.915 151.419 12.665 151.489 12.395C151.569 12.115 151.609 11.84 151.609 11.57ZM159.169 3.5H159.454L155.119 12.335C154.999 12.575 154.884 12.79 154.774 12.98C154.664 13.16 154.544 13.32 154.414 13.46C154.284 13.59 154.139 13.71 153.979 13.82C153.819 13.93 153.624 14.035 153.394 14.135L153.274 13.94C153.614 13.79 153.879 13.625 154.069 13.445C154.269 13.255 154.424 13.06 154.534 12.86C154.654 12.66 154.764 12.46 154.864 12.26L155.884 10.175L152.434 3.5H152.719L156.034 9.89L159.169 3.5Z" fill="#FFF5D1"/>
<path d="M37.78 27V16.8H31.915V27H31.615V16.5H38.08V27H37.78ZM43.0847 16.5C43.5647 16.5 43.9747 16.57 44.3147 16.71C44.6647 16.85 44.9547 17.055 45.1847 17.325C45.4147 17.585 45.5847 17.91 45.6947 18.3C45.8047 18.68 45.8597 19.11 45.8597 19.59C45.8597 20.11 45.8047 20.57 45.6947 20.97C45.5847 21.37 45.4097 21.705 45.1697 21.975C44.9397 22.245 44.6447 22.45 44.2847 22.59C43.9247 22.72 43.4897 22.785 42.9797 22.785H39.6197V27H39.3347V16.5H43.0847ZM39.6197 22.5H42.9647C43.4247 22.5 43.8197 22.44 44.1497 22.32C44.4797 22.19 44.7497 22.005 44.9597 21.765C45.1697 21.515 45.3247 21.21 45.4247 20.85C45.5247 20.48 45.5747 20.06 45.5747 19.59C45.5747 19.15 45.5247 18.76 45.4247 18.42C45.3347 18.07 45.1897 17.775 44.9897 17.535C44.7897 17.295 44.5347 17.115 44.2247 16.995C43.9147 16.865 43.5397 16.8 43.0997 16.8H39.6197V22.5ZM46.8933 16.5H47.1483V26.52L54.0183 16.5H54.2883V27H54.0183V16.95L47.1483 27H46.8933V16.5ZM55.5505 27V16.5H60.5605V16.8H55.8355V27H55.5505ZM66.7217 16.5H68.2817V27.015H68.0117V16.755H66.7817C66.3117 16.755 65.9467 16.845 65.6867 17.025C65.4267 17.205 65.2317 17.42 65.1017 17.67C64.9817 17.91 64.8917 18.13 64.8317 18.33L62.7167 25.32C62.6167 25.64 62.5117 25.91 62.4017 26.13C62.3017 26.35 62.1667 26.54 61.9967 26.7C61.8367 26.85 61.6167 26.99 61.3367 27.12L61.1717 26.925C61.4817 26.775 61.7167 26.61 61.8767 26.43C62.0367 26.25 62.1567 26.06 62.2367 25.86C62.3167 25.65 62.3867 25.445 62.4467 25.245L64.5917 18.15C64.6417 17.98 64.7167 17.8 64.8167 17.61C64.9167 17.42 65.0467 17.245 65.2067 17.085C65.3667 16.915 65.5717 16.775 65.8217 16.665C66.0717 16.555 66.3717 16.5 66.7217 16.5ZM76.639 27H76.324L74.839 22.785H70.834L69.349 27H69.049L72.739 16.5H72.949L76.639 27ZM70.954 22.5H74.749L72.844 17.1L70.954 22.5ZM85.6232 16.5H85.9082V27H77.5682V16.5H77.8532V26.73H81.5882V16.5H81.8732V26.73H85.6232V16.5ZM87.1326 27V16.5H92.1426V16.785H87.4176V20.82H90.8376L90.7476 21.09H87.4176V26.715H92.1126V27H87.1326ZM99.3624 20.82V16.5H99.6324V27H99.3624V21.09H93.4524V27H93.1824V16.5H93.4524V20.82H99.3624ZM100.902 16.5H101.157V26.52L108.027 16.5H108.297V27H108.027V16.95L101.157 27H100.902V16.5ZM109.559 27V16.5H114.569V16.785H109.844V20.82H113.264L113.174 21.09H109.844V26.715H114.539V27H109.559ZM125.993 20.82V16.5H126.263V27H125.993V21.09H120.083V27H119.813V16.5H120.083V20.82H125.993ZM134.808 27H134.493L133.008 22.785H129.003L127.518 27H127.218L130.908 16.5H131.118L134.808 27ZM129.123 22.5H132.918L131.013 17.1L129.123 22.5ZM144.726 17.1C144.396 16.93 144.066 16.81 143.736 16.74C143.406 16.67 143.081 16.635 142.761 16.635C142.181 16.635 141.691 16.735 141.291 16.935C140.891 17.125 140.586 17.42 140.376 17.82C140.176 18.21 140.076 18.7 140.076 19.29V24.21C140.076 24.86 140.196 25.385 140.436 25.785C140.676 26.175 141.006 26.455 141.426 26.625C141.846 26.795 142.321 26.88 142.851 26.88C143.051 26.88 143.271 26.865 143.511 26.835C143.761 26.795 144.021 26.74 144.291 26.67C144.571 26.59 144.851 26.495 145.131 26.385L145.221 26.655C144.801 26.815 144.386 26.935 143.976 27.015C143.576 27.105 143.181 27.15 142.791 27.15C142.161 27.15 141.621 27.045 141.171 26.835C140.731 26.625 140.391 26.31 140.151 25.89C139.911 25.46 139.791 24.91 139.791 24.24V19.29C139.791 18.56 139.931 17.98 140.211 17.55C140.491 17.12 140.851 16.815 141.291 16.635C141.741 16.445 142.216 16.35 142.716 16.35C143.126 16.35 143.506 16.39 143.856 16.47C144.216 16.55 144.546 16.675 144.846 16.845L144.726 17.1ZM149.495 16.5C150.045 16.5 150.52 16.59 150.92 16.77C151.32 16.95 151.625 17.22 151.835 17.58C152.055 17.93 152.165 18.37 152.165 18.9C152.165 19.18 152.105 19.465 151.985 19.755C151.865 20.035 151.69 20.285 151.46 20.505C151.24 20.725 150.975 20.88 150.665 20.97C151.135 21.08 151.52 21.28 151.82 21.57C152.12 21.86 152.345 22.205 152.495 22.605C152.645 22.995 152.72 23.415 152.72 23.865C152.72 24.495 152.6 25.045 152.36 25.515C152.13 25.985 151.785 26.35 151.325 26.61C150.875 26.87 150.315 27 149.645 27H146.21V16.5H149.495ZM150.065 20.82C150.415 20.82 150.725 20.735 150.995 20.565C151.265 20.395 151.48 20.165 151.64 19.875C151.8 19.575 151.88 19.24 151.88 18.87C151.88 18.46 151.795 18.1 151.625 17.79C151.455 17.48 151.19 17.235 150.83 17.055C150.48 16.875 150.015 16.785 149.435 16.785H146.495V20.82H150.065ZM149.66 26.715C150.27 26.715 150.78 26.6 151.19 26.37C151.6 26.13 151.91 25.795 152.12 25.365C152.33 24.935 152.435 24.435 152.435 23.865C152.435 23.315 152.325 22.835 152.105 22.425C151.885 22.005 151.57 21.68 151.16 21.45C150.76 21.21 150.27 21.09 149.69 21.09H146.495V26.715H149.66ZM161.043 27H160.728L159.243 22.785H155.238L153.753 27H153.453L157.143 16.5H157.353L161.043 27ZM155.358 22.5H159.153L157.248 17.1L155.358 22.5ZM168.558 26.745H169.488V28.32H169.248L169.203 27.015H161.778L161.733 28.32H161.493V26.745H162.273L164.883 18.15C164.933 17.98 165.008 17.8 165.108 17.61C165.208 17.42 165.338 17.245 165.498 17.085C165.668 16.915 165.878 16.775 166.128 16.665C166.378 16.555 166.678 16.5 167.028 16.5H168.558V26.745ZM168.288 26.745V16.77H167.088C166.618 16.77 166.248 16.86 165.978 17.04C165.718 17.22 165.523 17.43 165.393 17.67C165.273 17.91 165.183 18.13 165.123 18.33L162.573 26.745H168.288ZM173.623 20.835C174.133 20.835 174.543 20.915 174.853 21.075C175.173 21.225 175.418 21.425 175.588 21.675C175.768 21.925 175.888 22.19 175.948 22.47C176.018 22.74 176.053 22.995 176.053 23.235V24.48C176.053 24.93 175.993 25.325 175.873 25.665C175.763 25.995 175.583 26.275 175.333 26.505C175.083 26.725 174.763 26.89 174.373 27C173.983 27.11 173.518 27.165 172.978 27.165C172.868 27.165 172.703 27.16 172.483 27.15C172.263 27.14 172.028 27.125 171.778 27.105C171.528 27.095 171.288 27.08 171.058 27.06C170.828 27.05 170.638 27.04 170.488 27.03C170.338 27.02 170.263 27.015 170.263 27.015V16.5H170.533V20.835H173.623ZM175.783 24.57V23.265C175.783 22.985 175.743 22.72 175.663 22.47C175.583 22.21 175.458 21.98 175.288 21.78C175.128 21.58 174.908 21.42 174.628 21.3C174.358 21.18 174.028 21.12 173.638 21.12H170.533V26.745C170.543 26.745 170.608 26.75 170.728 26.76C170.858 26.77 171.023 26.785 171.223 26.805C171.423 26.815 171.633 26.83 171.853 26.85C172.073 26.86 172.283 26.87 172.483 26.88C172.683 26.89 172.848 26.895 172.978 26.895C173.568 26.895 174.048 26.83 174.418 26.7C174.788 26.56 175.068 26.375 175.258 26.145C175.458 25.915 175.593 25.665 175.663 25.395C175.743 25.115 175.783 24.84 175.783 24.57ZM177.089 16.8V16.5H182.099V16.8H177.089ZM180.449 20.835C180.959 20.835 181.369 20.915 181.679 21.075C181.999 21.225 182.244 21.425 182.414 21.675C182.594 21.925 182.714 22.19 182.774 22.47C182.844 22.74 182.879 22.995 182.879 23.235V24.48C182.879 24.93 182.819 25.325 182.699 25.665C182.589 25.995 182.409 26.275 182.159 26.505C181.909 26.725 181.589 26.89 181.199 27C180.809 27.11 180.344 27.165 179.804 27.165C179.694 27.165 179.529 27.16 179.309 27.15C179.089 27.14 178.854 27.125 178.604 27.105C178.354 27.095 178.114 27.08 177.884 27.06C177.654 27.05 177.464 27.04 177.314 27.03C177.164 27.02 177.089 27.015 177.089 27.015V16.5H177.359V20.835H180.449ZM182.609 24.57V23.265C182.609 22.985 182.569 22.72 182.489 22.47C182.409 22.21 182.284 21.98 182.114 21.78C181.954 21.58 181.734 21.42 181.454 21.3C181.184 21.18 180.854 21.12 180.464 21.12H177.359V26.745C177.369 26.745 177.434 26.75 177.554 26.76C177.684 26.77 177.849 26.785 178.049 26.805C178.249 26.815 178.459 26.83 178.679 26.85C178.899 26.86 179.109 26.87 179.309 26.88C179.509 26.89 179.674 26.895 179.804 26.895C180.394 26.895 180.874 26.83 181.244 26.7C181.614 26.56 181.894 26.375 182.084 26.145C182.284 25.915 182.419 25.665 182.489 25.395C182.569 25.115 182.609 24.84 182.609 24.57ZM190.169 16.5H190.454L186.119 25.335C185.999 25.575 185.884 25.79 185.774 25.98C185.664 26.16 185.544 26.32 185.414 26.46C185.284 26.59 185.139 26.71 184.979 26.82C184.819 26.93 184.624 27.035 184.394 27.135L184.274 26.94C184.614 26.79 184.879 26.625 185.069 26.445C185.269 26.255 185.424 26.06 185.534 25.86C185.654 25.66 185.764 25.46 185.864 25.26L186.884 23.175L183.434 16.5H183.719L187.034 22.89L190.169 16.5Z" fill="#FFF5D1"/>
<path d="M-129.22 27V16.8H-135.085V27H-135.385V16.5H-128.92V27H-129.22ZM-123.915 16.5C-123.435 16.5 -123.025 16.57 -122.685 16.71C-122.335 16.85 -122.045 17.055 -121.815 17.325C-121.585 17.585 -121.415 17.91 -121.305 18.3C-121.195 18.68 -121.14 19.11 -121.14 19.59C-121.14 20.11 -121.195 20.57 -121.305 20.97C-121.415 21.37 -121.59 21.705 -121.83 21.975C-122.06 22.245 -122.355 22.45 -122.715 22.59C-123.075 22.72 -123.51 22.785 -124.02 22.785H-127.38V27H-127.665V16.5H-123.915ZM-127.38 22.5H-124.035C-123.575 22.5 -123.18 22.44 -122.85 22.32C-122.52 22.19 -122.25 22.005 -122.04 21.765C-121.83 21.515 -121.675 21.21 -121.575 20.85C-121.475 20.48 -121.425 20.06 -121.425 19.59C-121.425 19.15 -121.475 18.76 -121.575 18.42C-121.665 18.07 -121.81 17.775 -122.01 17.535C-122.21 17.295 -122.465 17.115 -122.775 16.995C-123.085 16.865 -123.46 16.8 -123.9 16.8H-127.38V22.5ZM-120.107 16.5H-119.852V26.52L-112.982 16.5H-112.712V27H-112.982V16.95L-119.852 27H-120.107V16.5ZM-111.449 27V16.5H-106.439V16.8H-111.164V27H-111.449ZM-100.278 16.5H-98.7183V27.015H-98.9883V16.755H-100.218C-100.688 16.755 -101.053 16.845 -101.313 17.025C-101.573 17.205 -101.768 17.42 -101.898 17.67C-102.018 17.91 -102.108 18.13 -102.168 18.33L-104.283 25.32C-104.383 25.64 -104.488 25.91 -104.598 26.13C-104.698 26.35 -104.833 26.54 -105.003 26.7C-105.163 26.85 -105.383 26.99 -105.663 27.12L-105.828 26.925C-105.518 26.775 -105.283 26.61 -105.123 26.43C-104.963 26.25 -104.843 26.06 -104.763 25.86C-104.683 25.65 -104.613 25.445 -104.553 25.245L-102.408 18.15C-102.358 17.98 -102.283 17.8 -102.183 17.61C-102.083 17.42 -101.953 17.245 -101.793 17.085C-101.633 16.915 -101.428 16.775 -101.178 16.665C-100.928 16.555 -100.628 16.5 -100.278 16.5ZM-90.361 27H-90.676L-92.161 22.785H-96.166L-97.651 27H-97.951L-94.261 16.5H-94.051L-90.361 27ZM-96.046 22.5H-92.251L-94.156 17.1L-96.046 22.5ZM-81.3768 16.5H-81.0918V27H-89.4318V16.5H-89.1468V26.73H-85.4118V16.5H-85.1268V26.73H-81.3768V16.5ZM-79.8674 27V16.5H-74.8574V16.785H-79.5824V20.82H-76.1624L-76.2524 21.09H-79.5824V26.715H-74.8874V27H-79.8674ZM-67.6376 20.82V16.5H-67.3676V27H-67.6376V21.09H-73.5476V27H-73.8176V16.5H-73.5476V20.82H-67.6376ZM-66.0979 16.5H-65.8429V26.52L-58.9729 16.5H-58.7029V27H-58.9729V16.95L-65.8429 27H-66.0979V16.5ZM-57.4407 27V16.5H-52.4307V16.785H-57.1557V20.82H-53.7357L-53.8257 21.09H-57.1557V26.715H-52.4607V27H-57.4407ZM-41.0068 20.82V16.5H-40.7368V27H-41.0068V21.09H-46.9168V27H-47.1868V16.5H-46.9168V20.82H-41.0068ZM-32.192 27H-32.507L-33.992 22.785H-37.997L-39.482 27H-39.782L-36.092 16.5H-35.882L-32.192 27ZM-37.877 22.5H-34.082L-35.987 17.1L-37.877 22.5ZM-22.2737 17.1C-22.6037 16.93 -22.9337 16.81 -23.2637 16.74C-23.5937 16.67 -23.9187 16.635 -24.2387 16.635C-24.8187 16.635 -25.3087 16.735 -25.7087 16.935C-26.1087 17.125 -26.4137 17.42 -26.6237 17.82C-26.8237 18.21 -26.9237 18.7 -26.9237 19.29V24.21C-26.9237 24.86 -26.8037 25.385 -26.5637 25.785C-26.3237 26.175 -25.9937 26.455 -25.5737 26.625C-25.1537 26.795 -24.6787 26.88 -24.1487 26.88C-23.9487 26.88 -23.7287 26.865 -23.4887 26.835C-23.2387 26.795 -22.9787 26.74 -22.7087 26.67C-22.4287 26.59 -22.1487 26.495 -21.8687 26.385L-21.7787 26.655C-22.1987 26.815 -22.6137 26.935 -23.0237 27.015C-23.4237 27.105 -23.8187 27.15 -24.2087 27.15C-24.8387 27.15 -25.3787 27.045 -25.8287 26.835C-26.2687 26.625 -26.6087 26.31 -26.8487 25.89C-27.0887 25.46 -27.2087 24.91 -27.2087 24.24V19.29C-27.2087 18.56 -27.0687 17.98 -26.7887 17.55C-26.5087 17.12 -26.1487 16.815 -25.7087 16.635C-25.2587 16.445 -24.7837 16.35 -24.2837 16.35C-23.8737 16.35 -23.4937 16.39 -23.1437 16.47C-22.7837 16.55 -22.4537 16.675 -22.1537 16.845L-22.2737 17.1ZM-17.5053 16.5C-16.9553 16.5 -16.4803 16.59 -16.0803 16.77C-15.6803 16.95 -15.3753 17.22 -15.1653 17.58C-14.9453 17.93 -14.8353 18.37 -14.8353 18.9C-14.8353 19.18 -14.8953 19.465 -15.0153 19.755C-15.1353 20.035 -15.3103 20.285 -15.5403 20.505C-15.7603 20.725 -16.0253 20.88 -16.3353 20.97C-15.8653 21.08 -15.4803 21.28 -15.1803 21.57C-14.8803 21.86 -14.6553 22.205 -14.5053 22.605C-14.3553 22.995 -14.2803 23.415 -14.2803 23.865C-14.2803 24.495 -14.4003 25.045 -14.6403 25.515C-14.8703 25.985 -15.2153 26.35 -15.6753 26.61C-16.1253 26.87 -16.6853 27 -17.3553 27H-20.7903V16.5H-17.5053ZM-16.9353 20.82C-16.5853 20.82 -16.2753 20.735 -16.0053 20.565C-15.7353 20.395 -15.5203 20.165 -15.3603 19.875C-15.2003 19.575 -15.1203 19.24 -15.1203 18.87C-15.1203 18.46 -15.2053 18.1 -15.3753 17.79C-15.5453 17.48 -15.8103 17.235 -16.1703 17.055C-16.5203 16.875 -16.9853 16.785 -17.5653 16.785H-20.5053V20.82H-16.9353ZM-17.3403 26.715C-16.7303 26.715 -16.2203 26.6 -15.8103 26.37C-15.4003 26.13 -15.0903 25.795 -14.8803 25.365C-14.6703 24.935 -14.5653 24.435 -14.5653 23.865C-14.5653 23.315 -14.6753 22.835 -14.8953 22.425C-15.1153 22.005 -15.4303 21.68 -15.8403 21.45C-16.2403 21.21 -16.7303 21.09 -17.3103 21.09H-20.5053V26.715H-17.3403ZM-5.95668 27H-6.27168L-7.75668 22.785H-11.7617L-13.2467 27H-13.5467L-9.85668 16.5H-9.64668L-5.95668 27ZM-11.6417 22.5H-7.84668L-9.75168 17.1L-11.6417 22.5ZM1.5575 26.745H2.4875V28.32H2.2475L2.2025 27.015H-5.2225L-5.2675 28.32H-5.5075V26.745H-4.7275L-2.1175 18.15C-2.0675 17.98 -1.9925 17.8 -1.8925 17.61C-1.7925 17.42 -1.6625 17.245 -1.5025 17.085C-1.3325 16.915 -1.1225 16.775 -0.8725 16.665C-0.6225 16.555 -0.3225 16.5 0.0275002 16.5H1.5575V26.745ZM1.2875 26.745V16.77H0.0875003C-0.3825 16.77 -0.7525 16.86 -1.0225 17.04C-1.2825 17.22 -1.4775 17.43 -1.6075 17.67C-1.7275 17.91 -1.8175 18.13 -1.8775 18.33L-4.4275 26.745H1.2875ZM6.62281 20.835C7.13281 20.835 7.54281 20.915 7.85281 21.075C8.17281 21.225 8.41781 21.425 8.58781 21.675C8.76781 21.925 8.88781 22.19 8.94781 22.47C9.01781 22.74 9.05281 22.995 9.05281 23.235V24.48C9.05281 24.93 8.99281 25.325 8.87281 25.665C8.76281 25.995 8.58281 26.275 8.33281 26.505C8.08281 26.725 7.76281 26.89 7.37281 27C6.98281 27.11 6.51781 27.165 5.97781 27.165C5.86781 27.165 5.70281 27.16 5.48281 27.15C5.26281 27.14 5.02781 27.125 4.77781 27.105C4.52781 27.095 4.28781 27.08 4.05781 27.06C3.82781 27.05 3.63781 27.04 3.48781 27.03C3.33781 27.02 3.26281 27.015 3.26281 27.015V16.5H3.53281V20.835H6.62281ZM8.78281 24.57V23.265C8.78281 22.985 8.74281 22.72 8.66281 22.47C8.58281 22.21 8.45781 21.98 8.28781 21.78C8.12781 21.58 7.90781 21.42 7.62781 21.3C7.35781 21.18 7.02781 21.12 6.63781 21.12H3.53281V26.745C3.54281 26.745 3.60781 26.75 3.72781 26.76C3.85781 26.77 4.02281 26.785 4.22281 26.805C4.42281 26.815 4.63281 26.83 4.85281 26.85C5.07281 26.86 5.28281 26.87 5.48281 26.88C5.68281 26.89 5.84781 26.895 5.97781 26.895C6.56781 26.895 7.04781 26.83 7.41781 26.7C7.78781 26.56 8.06781 26.375 8.25781 26.145C8.45781 25.915 8.59281 25.665 8.66281 25.395C8.74281 25.115 8.78281 24.84 8.78281 24.57ZM10.089 16.8V16.5H15.099V16.8H10.089ZM13.449 20.835C13.959 20.835 14.369 20.915 14.679 21.075C14.999 21.225 15.244 21.425 15.414 21.675C15.594 21.925 15.714 22.19 15.774 22.47C15.844 22.74 15.879 22.995 15.879 23.235V24.48C15.879 24.93 15.819 25.325 15.699 25.665C15.589 25.995 15.409 26.275 15.159 26.505C14.909 26.725 14.589 26.89 14.199 27C13.809 27.11 13.344 27.165 12.804 27.165C12.694 27.165 12.529 27.16 12.309 27.15C12.089 27.14 11.854 27.125 11.604 27.105C11.354 27.095 11.114 27.08 10.884 27.06C10.654 27.05 10.464 27.04 10.314 27.03C10.164 27.02 10.089 27.015 10.089 27.015V16.5H10.359V20.835H13.449ZM15.609 24.57V23.265C15.609 22.985 15.569 22.72 15.489 22.47C15.409 22.21 15.284 21.98 15.114 21.78C14.954 21.58 14.734 21.42 14.454 21.3C14.184 21.18 13.854 21.12 13.464 21.12H10.359V26.745C10.369 26.745 10.434 26.75 10.554 26.76C10.684 26.77 10.849 26.785 11.049 26.805C11.249 26.815 11.459 26.83 11.679 26.85C11.899 26.86 12.109 26.87 12.309 26.88C12.509 26.89 12.674 26.895 12.804 26.895C13.394 26.895 13.874 26.83 14.244 26.7C14.614 26.56 14.894 26.375 15.084 26.145C15.284 25.915 15.419 25.665 15.489 25.395C15.569 25.115 15.609 24.84 15.609 24.57ZM23.1691 16.5H23.4541L19.1191 25.335C18.9991 25.575 18.8841 25.79 18.7741 25.98C18.6641 26.16 18.5441 26.32 18.4141 26.46C18.2841 26.59 18.1391 26.71 17.9791 26.82C17.8191 26.93 17.6241 27.035 17.3941 27.135L17.2741 26.94C17.6141 26.79 17.8791 26.625 18.0691 26.445C18.2691 26.255 18.4241 26.06 18.5341 25.86C18.6541 25.66 18.7641 25.46 18.8641 25.26L19.8841 23.175L16.4341 16.5H16.7191L20.0341 22.89L23.1691 16.5Z" fill="#FFF5D1"/>
<path d="M6.78 39V28.8H0.915V39H0.615V28.5H7.08V39H6.78ZM12.0847 28.5C12.5647 28.5 12.9747 28.57 13.3147 28.71C13.6647 28.85 13.9547 29.055 14.1847 29.325C14.4147 29.585 14.5847 29.91 14.6947 30.3C14.8047 30.68 14.8597 31.11 14.8597 31.59C14.8597 32.11 14.8047 32.57 14.6947 32.97C14.5847 33.37 14.4097 33.705 14.1697 33.975C13.9397 34.245 13.6447 34.45 13.2847 34.59C12.9247 34.72 12.4897 34.785 11.9797 34.785H8.61973V39H8.33473V28.5H12.0847ZM8.61973 34.5H11.9647C12.4247 34.5 12.8197 34.44 13.1497 34.32C13.4797 34.19 13.7497 34.005 13.9597 33.765C14.1697 33.515 14.3247 33.21 14.4247 32.85C14.5247 32.48 14.5747 32.06 14.5747 31.59C14.5747 31.15 14.5247 30.76 14.4247 30.42C14.3347 30.07 14.1897 29.775 13.9897 29.535C13.7897 29.295 13.5347 29.115 13.2247 28.995C12.9147 28.865 12.5397 28.8 12.0997 28.8H8.61973V34.5ZM15.8933 28.5H16.1483V38.52L23.0183 28.5H23.2883V39H23.0183V28.95L16.1483 39H15.8933V28.5ZM24.5505 39V28.5H29.5605V28.8H24.8355V39H24.5505ZM35.7217 28.5H37.2817V39.015H37.0117V28.755H35.7817C35.3117 28.755 34.9467 28.845 34.6867 29.025C34.4267 29.205 34.2317 29.42 34.1017 29.67C33.9817 29.91 33.8917 30.13 33.8317 30.33L31.7167 37.32C31.6167 37.64 31.5117 37.91 31.4017 38.13C31.3017 38.35 31.1667 38.54 30.9967 38.7C30.8367 38.85 30.6167 38.99 30.3367 39.12L30.1717 38.925C30.4817 38.775 30.7167 38.61 30.8767 38.43C31.0367 38.25 31.1567 38.06 31.2367 37.86C31.3167 37.65 31.3867 37.445 31.4467 37.245L33.5917 30.15C33.6417 29.98 33.7167 29.8 33.8167 29.61C33.9167 29.42 34.0467 29.245 34.2067 29.085C34.3667 28.915 34.5717 28.775 34.8217 28.665C35.0717 28.555 35.3717 28.5 35.7217 28.5ZM45.639 39H45.324L43.839 34.785H39.834L38.349 39H38.049L41.739 28.5H41.949L45.639 39ZM39.954 34.5H43.749L41.844 29.1L39.954 34.5ZM54.6232 28.5H54.9082V39H46.5682V28.5H46.8532V38.73H50.5882V28.5H50.8732V38.73H54.6232V28.5ZM56.1326 39V28.5H61.1426V28.785H56.4176V32.82H59.8376L59.7476 33.09H56.4176V38.715H61.1126V39H56.1326ZM68.3624 32.82V28.5H68.6324V39H68.3624V33.09H62.4524V39H62.1824V28.5H62.4524V32.82H68.3624ZM69.9021 28.5H70.1571V38.52L77.0271 28.5H77.2971V39H77.0271V28.95L70.1571 39H69.9021V28.5ZM78.5593 39V28.5H83.5693V28.785H78.8443V32.82H82.2643L82.1743 33.09H78.8443V38.715H83.5393V39H78.5593ZM94.9932 32.82V28.5H95.2632V39H94.9932V33.09H89.0832V39H88.8132V28.5H89.0832V32.82H94.9932ZM103.808 39H103.493L102.008 34.785H98.003L96.518 39H96.218L99.908 28.5H100.118L103.808 39ZM98.123 34.5H101.918L100.013 29.1L98.123 34.5ZM113.726 29.1C113.396 28.93 113.066 28.81 112.736 28.74C112.406 28.67 112.081 28.635 111.761 28.635C111.181 28.635 110.691 28.735 110.291 28.935C109.891 29.125 109.586 29.42 109.376 29.82C109.176 30.21 109.076 30.7 109.076 31.29V36.21C109.076 36.86 109.196 37.385 109.436 37.785C109.676 38.175 110.006 38.455 110.426 38.625C110.846 38.795 111.321 38.88 111.851 38.88C112.051 38.88 112.271 38.865 112.511 38.835C112.761 38.795 113.021 38.74 113.291 38.67C113.571 38.59 113.851 38.495 114.131 38.385L114.221 38.655C113.801 38.815 113.386 38.935 112.976 39.015C112.576 39.105 112.181 39.15 111.791 39.15C111.161 39.15 110.621 39.045 110.171 38.835C109.731 38.625 109.391 38.31 109.151 37.89C108.911 37.46 108.791 36.91 108.791 36.24V31.29C108.791 30.56 108.931 29.98 109.211 29.55C109.491 29.12 109.851 28.815 110.291 28.635C110.741 28.445 111.216 28.35 111.716 28.35C112.126 28.35 112.506 28.39 112.856 28.47C113.216 28.55 113.546 28.675 113.846 28.845L113.726 29.1ZM118.495 28.5C119.045 28.5 119.52 28.59 119.92 28.77C120.32 28.95 120.625 29.22 120.835 29.58C121.055 29.93 121.165 30.37 121.165 30.9C121.165 31.18 121.105 31.465 120.985 31.755C120.865 32.035 120.69 32.285 120.46 32.505C120.24 32.725 119.975 32.88 119.665 32.97C120.135 33.08 120.52 33.28 120.82 33.57C121.12 33.86 121.345 34.205 121.495 34.605C121.645 34.995 121.72 35.415 121.72 35.865C121.72 36.495 121.6 37.045 121.36 37.515C121.13 37.985 120.785 38.35 120.325 38.61C119.875 38.87 119.315 39 118.645 39H115.21V28.5H118.495ZM119.065 32.82C119.415 32.82 119.725 32.735 119.995 32.565C120.265 32.395 120.48 32.165 120.64 31.875C120.8 31.575 120.88 31.24 120.88 30.87C120.88 30.46 120.795 30.1 120.625 29.79C120.455 29.48 120.19 29.235 119.83 29.055C119.48 28.875 119.015 28.785 118.435 28.785H115.495V32.82H119.065ZM118.66 38.715C119.27 38.715 119.78 38.6 120.19 38.37C120.6 38.13 120.91 37.795 121.12 37.365C121.33 36.935 121.435 36.435 121.435 35.865C121.435 35.315 121.325 34.835 121.105 34.425C120.885 34.005 120.57 33.68 120.16 33.45C119.76 33.21 119.27 33.09 118.69 33.09H115.495V38.715H118.66ZM130.043 39H129.728L128.243 34.785H124.238L122.753 39H122.453L126.143 28.5H126.353L130.043 39ZM124.358 34.5H128.153L126.248 29.1L124.358 34.5ZM137.558 38.745H138.488V40.32H138.248L138.203 39.015H130.778L130.733 40.32H130.493V38.745H131.273L133.883 30.15C133.933 29.98 134.008 29.8 134.108 29.61C134.208 29.42 134.338 29.245 134.498 29.085C134.668 28.915 134.878 28.775 135.128 28.665C135.378 28.555 135.678 28.5 136.028 28.5H137.558V38.745ZM137.288 38.745V28.77H136.088C135.618 28.77 135.248 28.86 134.978 29.04C134.718 29.22 134.523 29.43 134.393 29.67C134.273 29.91 134.183 30.13 134.123 30.33L131.573 38.745H137.288ZM142.623 32.835C143.133 32.835 143.543 32.915 143.853 33.075C144.173 33.225 144.418 33.425 144.588 33.675C144.768 33.925 144.888 34.19 144.948 34.47C145.018 34.74 145.053 34.995 145.053 35.235V36.48C145.053 36.93 144.993 37.325 144.873 37.665C144.763 37.995 144.583 38.275 144.333 38.505C144.083 38.725 143.763 38.89 143.373 39C142.983 39.11 142.518 39.165 141.978 39.165C141.868 39.165 141.703 39.16 141.483 39.15C141.263 39.14 141.028 39.125 140.778 39.105C140.528 39.095 140.288 39.08 140.058 39.06C139.828 39.05 139.638 39.04 139.488 39.03C139.338 39.02 139.263 39.015 139.263 39.015V28.5H139.533V32.835H142.623ZM144.783 36.57V35.265C144.783 34.985 144.743 34.72 144.663 34.47C144.583 34.21 144.458 33.98 144.288 33.78C144.128 33.58 143.908 33.42 143.628 33.3C143.358 33.18 143.028 33.12 142.638 33.12H139.533V38.745C139.543 38.745 139.608 38.75 139.728 38.76C139.858 38.77 140.023 38.785 140.223 38.805C140.423 38.815 140.633 38.83 140.853 38.85C141.073 38.86 141.283 38.87 141.483 38.88C141.683 38.89 141.848 38.895 141.978 38.895C142.568 38.895 143.048 38.83 143.418 38.7C143.788 38.56 144.068 38.375 144.258 38.145C144.458 37.915 144.593 37.665 144.663 37.395C144.743 37.115 144.783 36.84 144.783 36.57ZM146.089 28.8V28.5H151.099V28.8H146.089ZM149.449 32.835C149.959 32.835 150.369 32.915 150.679 33.075C150.999 33.225 151.244 33.425 151.414 33.675C151.594 33.925 151.714 34.19 151.774 34.47C151.844 34.74 151.879 34.995 151.879 35.235V36.48C151.879 36.93 151.819 37.325 151.699 37.665C151.589 37.995 151.409 38.275 151.159 38.505C150.909 38.725 150.589 38.89 150.199 39C149.809 39.11 149.344 39.165 148.804 39.165C148.694 39.165 148.529 39.16 148.309 39.15C148.089 39.14 147.854 39.125 147.604 39.105C147.354 39.095 147.114 39.08 146.884 39.06C146.654 39.05 146.464 39.04 146.314 39.03C146.164 39.02 146.089 39.015 146.089 39.015V28.5H146.359V32.835H149.449ZM151.609 36.57V35.265C151.609 34.985 151.569 34.72 151.489 34.47C151.409 34.21 151.284 33.98 151.114 33.78C150.954 33.58 150.734 33.42 150.454 33.3C150.184 33.18 149.854 33.12 149.464 33.12H146.359V38.745C146.369 38.745 146.434 38.75 146.554 38.76C146.684 38.77 146.849 38.785 147.049 38.805C147.249 38.815 147.459 38.83 147.679 38.85C147.899 38.86 148.109 38.87 148.309 38.88C148.509 38.89 148.674 38.895 148.804 38.895C149.394 38.895 149.874 38.83 150.244 38.7C150.614 38.56 150.894 38.375 151.084 38.145C151.284 37.915 151.419 37.665 151.489 37.395C151.569 37.115 151.609 36.84 151.609 36.57ZM159.169 28.5H159.454L155.119 37.335C154.999 37.575 154.884 37.79 154.774 37.98C154.664 38.16 154.544 38.32 154.414 38.46C154.284 38.59 154.139 38.71 153.979 38.82C153.819 38.93 153.624 39.035 153.394 39.135L153.274 38.94C153.614 38.79 153.879 38.625 154.069 38.445C154.269 38.255 154.424 38.06 154.534 37.86C154.654 37.66 154.764 37.46 154.864 37.26L155.884 35.175L152.434 28.5H152.719L156.034 34.89L159.169 28.5Z" fill="#FFF5D1"/>
<path d="M173.78 14V3.8H167.915V14H167.615V3.5H174.08V14H173.78ZM179.085 3.5C179.565 3.5 179.975 3.57 180.315 3.71C180.665 3.85 180.955 4.055 181.185 4.325C181.415 4.585 181.585 4.91 181.695 5.3C181.805 5.68 181.86 6.11 181.86 6.59C181.86 7.11 181.805 7.57 181.695 7.97C181.585 8.37 181.41 8.705 181.17 8.975C180.94 9.245 180.645 9.45 180.285 9.59C179.925 9.72 179.49 9.785 178.98 9.785H175.62V14H175.335V3.5H179.085ZM175.62 9.5H178.965C179.425 9.5 179.82 9.44 180.15 9.32C180.48 9.19 180.75 9.005 180.96 8.765C181.17 8.515 181.325 8.21 181.425 7.85C181.525 7.48 181.575 7.06 181.575 6.59C181.575 6.15 181.525 5.76 181.425 5.42C181.335 5.07 181.19 4.775 180.99 4.535C180.79 4.295 180.535 4.115 180.225 3.995C179.915 3.865 179.54 3.8 179.1 3.8H175.62V9.5ZM182.893 3.5H183.148V13.52L190.018 3.5H190.288V14H190.018V3.95L183.148 14H182.893V3.5ZM191.551 14V3.5H196.561V3.8H191.836V14H191.551ZM202.722 3.5H204.282V14.015H204.012V3.755H202.782C202.312 3.755 201.947 3.845 201.687 4.025C201.427 4.205 201.232 4.42 201.102 4.67C200.982 4.91 200.892 5.13 200.832 5.33L198.717 12.32C198.617 12.64 198.512 12.91 198.402 13.13C198.302 13.35 198.167 13.54 197.997 13.7C197.837 13.85 197.617 13.99 197.337 14.12L197.172 13.925C197.482 13.775 197.717 13.61 197.877 13.43C198.037 13.25 198.157 13.06 198.237 12.86C198.317 12.65 198.387 12.445 198.447 12.245L200.592 5.15C200.642 4.98 200.717 4.8 200.817 4.61C200.917 4.42 201.047 4.245 201.207 4.085C201.367 3.915 201.572 3.775 201.822 3.665C202.072 3.555 202.372 3.5 202.722 3.5ZM212.639 14H212.324L210.839 9.785H206.834L205.349 14H205.049L208.739 3.5H208.949L212.639 14ZM206.954 9.5H210.749L208.844 4.1L206.954 9.5ZM221.623 3.5H221.908V14H213.568V3.5H213.853V13.73H217.588V3.5H217.873V13.73H221.623V3.5ZM223.133 14V3.5H228.143V3.785H223.418V7.82H226.838L226.748 8.09H223.418V13.715H228.113V14H223.133ZM235.362 7.82V3.5H235.632V14H235.362V8.09H229.452V14H229.182V3.5H229.452V7.82H235.362ZM236.902 3.5H237.157V13.52L244.027 3.5H244.297V14H244.027V3.95L237.157 14H236.902V3.5ZM245.559 14V3.5H250.569V3.785H245.844V7.82H249.264L249.174 8.09H245.844V13.715H250.539V14H245.559ZM261.993 7.82V3.5H262.263V14H261.993V8.09H256.083V14H255.813V3.5H256.083V7.82H261.993ZM270.808 14H270.493L269.008 9.785H265.003L263.518 14H263.218L266.908 3.5H267.118L270.808 14ZM265.123 9.5H268.918L267.013 4.1L265.123 9.5ZM280.726 4.1C280.396 3.93 280.066 3.81 279.736 3.74C279.406 3.67 279.081 3.635 278.761 3.635C278.181 3.635 277.691 3.735 277.291 3.935C276.891 4.125 276.586 4.42 276.376 4.82C276.176 5.21 276.076 5.7 276.076 6.29V11.21C276.076 11.86 276.196 12.385 276.436 12.785C276.676 13.175 277.006 13.455 277.426 13.625C277.846 13.795 278.321 13.88 278.851 13.88C279.051 13.88 279.271 13.865 279.511 13.835C279.761 13.795 280.021 13.74 280.291 13.67C280.571 13.59 280.851 13.495 281.131 13.385L281.221 13.655C280.801 13.815 280.386 13.935 279.976 14.015C279.576 14.105 279.181 14.15 278.791 14.15C278.161 14.15 277.621 14.045 277.171 13.835C276.731 13.625 276.391 13.31 276.151 12.89C275.911 12.46 275.791 11.91 275.791 11.24V6.29C275.791 5.56 275.931 4.98 276.211 4.55C276.491 4.12 276.851 3.815 277.291 3.635C277.741 3.445 278.216 3.35 278.716 3.35C279.126 3.35 279.506 3.39 279.856 3.47C280.216 3.55 280.546 3.675 280.846 3.845L280.726 4.1ZM285.495 3.5C286.045 3.5 286.52 3.59 286.92 3.77C287.32 3.95 287.625 4.22 287.835 4.58C288.055 4.93 288.165 5.37 288.165 5.9C288.165 6.18 288.105 6.465 287.985 6.755C287.865 7.035 287.69 7.285 287.46 7.505C287.24 7.725 286.975 7.88 286.665 7.97C287.135 8.08 287.52 8.28 287.82 8.57C288.12 8.86 288.345 9.205 288.495 9.605C288.645 9.995 288.72 10.415 288.72 10.865C288.72 11.495 288.6 12.045 288.36 12.515C288.13 12.985 287.785 13.35 287.325 13.61C286.875 13.87 286.315 14 285.645 14H282.21V3.5H285.495ZM286.065 7.82C286.415 7.82 286.725 7.735 286.995 7.565C287.265 7.395 287.48 7.165 287.64 6.875C287.8 6.575 287.88 6.24 287.88 5.87C287.88 5.46 287.795 5.1 287.625 4.79C287.455 4.48 287.19 4.235 286.83 4.055C286.48 3.875 286.015 3.785 285.435 3.785H282.495V7.82H286.065ZM285.66 13.715C286.27 13.715 286.78 13.6 287.19 13.37C287.6 13.13 287.91 12.795 288.12 12.365C288.33 11.935 288.435 11.435 288.435 10.865C288.435 10.315 288.325 9.835 288.105 9.425C287.885 9.005 287.57 8.68 287.16 8.45C286.76 8.21 286.27 8.09 285.69 8.09H282.495V13.715H285.66ZM297.043 14H296.728L295.243 9.785H291.238L289.753 14H289.453L293.143 3.5H293.353L297.043 14ZM291.358 9.5H295.153L293.248 4.1L291.358 9.5ZM304.558 13.745H305.488V15.32H305.248L305.203 14.015H297.778L297.733 15.32H297.493V13.745H298.273L300.883 5.15C300.933 4.98 301.008 4.8 301.108 4.61C301.208 4.42 301.338 4.245 301.498 4.085C301.668 3.915 301.878 3.775 302.128 3.665C302.378 3.555 302.678 3.5 303.028 3.5H304.558V13.745ZM304.288 13.745V3.77H303.088C302.618 3.77 302.248 3.86 301.978 4.04C301.718 4.22 301.523 4.43 301.393 4.67C301.273 4.91 301.183 5.13 301.123 5.33L298.573 13.745H304.288ZM309.623 7.835C310.133 7.835 310.543 7.915 310.853 8.075C311.173 8.225 311.418 8.425 311.588 8.675C311.768 8.925 311.888 9.19 311.948 9.47C312.018 9.74 312.053 9.995 312.053 10.235V11.48C312.053 11.93 311.993 12.325 311.873 12.665C311.763 12.995 311.583 13.275 311.333 13.505C311.083 13.725 310.763 13.89 310.373 14C309.983 14.11 309.518 14.165 308.978 14.165C308.868 14.165 308.703 14.16 308.483 14.15C308.263 14.14 308.028 14.125 307.778 14.105C307.528 14.095 307.288 14.08 307.058 14.06C306.828 14.05 306.638 14.04 306.488 14.03C306.338 14.02 306.263 14.015 306.263 14.015V3.5H306.533V7.835H309.623ZM311.783 11.57V10.265C311.783 9.985 311.743 9.72 311.663 9.47C311.583 9.21 311.458 8.98 311.288 8.78C311.128 8.58 310.908 8.42 310.628 8.3C310.358 8.18 310.028 8.12 309.638 8.12H306.533V13.745C306.543 13.745 306.608 13.75 306.728 13.76C306.858 13.77 307.023 13.785 307.223 13.805C307.423 13.815 307.633 13.83 307.853 13.85C308.073 13.86 308.283 13.87 308.483 13.88C308.683 13.89 308.848 13.895 308.978 13.895C309.568 13.895 310.048 13.83 310.418 13.7C310.788 13.56 311.068 13.375 311.258 13.145C311.458 12.915 311.593 12.665 311.663 12.395C311.743 12.115 311.783 11.84 311.783 11.57ZM313.089 3.8V3.5H318.099V3.8H313.089ZM316.449 7.835C316.959 7.835 317.369 7.915 317.679 8.075C317.999 8.225 318.244 8.425 318.414 8.675C318.594 8.925 318.714 9.19 318.774 9.47C318.844 9.74 318.879 9.995 318.879 10.235V11.48C318.879 11.93 318.819 12.325 318.699 12.665C318.589 12.995 318.409 13.275 318.159 13.505C317.909 13.725 317.589 13.89 317.199 14C316.809 14.11 316.344 14.165 315.804 14.165C315.694 14.165 315.529 14.16 315.309 14.15C315.089 14.14 314.854 14.125 314.604 14.105C314.354 14.095 314.114 14.08 313.884 14.06C313.654 14.05 313.464 14.04 313.314 14.03C313.164 14.02 313.089 14.015 313.089 14.015V3.5H313.359V7.835H316.449ZM318.609 11.57V10.265C318.609 9.985 318.569 9.72 318.489 9.47C318.409 9.21 318.284 8.98 318.114 8.78C317.954 8.58 317.734 8.42 317.454 8.3C317.184 8.18 316.854 8.12 316.464 8.12H313.359V13.745C313.369 13.745 313.434 13.75 313.554 13.76C313.684 13.77 313.849 13.785 314.049 13.805C314.249 13.815 314.459 13.83 314.679 13.85C314.899 13.86 315.109 13.87 315.309 13.88C315.509 13.89 315.674 13.895 315.804 13.895C316.394 13.895 316.874 13.83 317.244 13.7C317.614 13.56 317.894 13.375 318.084 13.145C318.284 12.915 318.419 12.665 318.489 12.395C318.569 12.115 318.609 11.84 318.609 11.57ZM326.169 3.5H326.454L322.119 12.335C321.999 12.575 321.884 12.79 321.774 12.98C321.664 13.16 321.544 13.32 321.414 13.46C321.284 13.59 321.139 13.71 320.979 13.82C320.819 13.93 320.624 14.035 320.394 14.135L320.274 13.94C320.614 13.79 320.879 13.625 321.069 13.445C321.269 13.255 321.424 13.06 321.534 12.86C321.654 12.66 321.764 12.46 321.864 12.26L322.884 10.175L319.434 3.5H319.719L323.034 9.89L326.169 3.5Z" fill="#FFF5D1"/>
<path d="M225.78 26V15.8H219.915V26H219.615V15.5H226.08V26H225.78ZM231.085 15.5C231.565 15.5 231.975 15.57 232.315 15.71C232.665 15.85 232.955 16.055 233.185 16.325C233.415 16.585 233.585 16.91 233.695 17.3C233.805 17.68 233.86 18.11 233.86 18.59C233.86 19.11 233.805 19.57 233.695 19.97C233.585 20.37 233.41 20.705 233.17 20.975C232.94 21.245 232.645 21.45 232.285 21.59C231.925 21.72 231.49 21.785 230.98 21.785H227.62V26H227.335V15.5H231.085ZM227.62 21.5H230.965C231.425 21.5 231.82 21.44 232.15 21.32C232.48 21.19 232.75 21.005 232.96 20.765C233.17 20.515 233.325 20.21 233.425 19.85C233.525 19.48 233.575 19.06 233.575 18.59C233.575 18.15 233.525 17.76 233.425 17.42C233.335 17.07 233.19 16.775 232.99 16.535C232.79 16.295 232.535 16.115 232.225 15.995C231.915 15.865 231.54 15.8 231.1 15.8H227.62V21.5ZM234.893 15.5H235.148V25.52L242.018 15.5H242.288V26H242.018V15.95L235.148 26H234.893V15.5ZM243.551 26V15.5H248.561V15.8H243.836V26H243.551ZM254.722 15.5H256.282V26.015H256.012V15.755H254.782C254.312 15.755 253.947 15.845 253.687 16.025C253.427 16.205 253.232 16.42 253.102 16.67C252.982 16.91 252.892 17.13 252.832 17.33L250.717 24.32C250.617 24.64 250.512 24.91 250.402 25.13C250.302 25.35 250.167 25.54 249.997 25.7C249.837 25.85 249.617 25.99 249.337 26.12L249.172 25.925C249.482 25.775 249.717 25.61 249.877 25.43C250.037 25.25 250.157 25.06 250.237 24.86C250.317 24.65 250.387 24.445 250.447 24.245L252.592 17.15C252.642 16.98 252.717 16.8 252.817 16.61C252.917 16.42 253.047 16.245 253.207 16.085C253.367 15.915 253.572 15.775 253.822 15.665C254.072 15.555 254.372 15.5 254.722 15.5ZM264.639 26H264.324L262.839 21.785H258.834L257.349 26H257.049L260.739 15.5H260.949L264.639 26ZM258.954 21.5H262.749L260.844 16.1L258.954 21.5ZM273.623 15.5H273.908V26H265.568V15.5H265.853V25.73H269.588V15.5H269.873V25.73H273.623V15.5ZM275.133 26V15.5H280.143V15.785H275.418V19.82H278.838L278.748 20.09H275.418V25.715H280.113V26H275.133ZM287.362 19.82V15.5H287.632V26H287.362V20.09H281.452V26H281.182V15.5H281.452V19.82H287.362ZM288.902 15.5H289.157V25.52L296.027 15.5H296.297V26H296.027V15.95L289.157 26H288.902V15.5ZM297.559 26V15.5H302.569V15.785H297.844V19.82H301.264L301.174 20.09H297.844V25.715H302.539V26H297.559ZM313.993 19.82V15.5H314.263V26H313.993V20.09H308.083V26H307.813V15.5H308.083V19.82H313.993ZM322.808 26H322.493L321.008 21.785H317.003L315.518 26H315.218L318.908 15.5H319.118L322.808 26ZM317.123 21.5H320.918L319.013 16.1L317.123 21.5ZM332.726 16.1C332.396 15.93 332.066 15.81 331.736 15.74C331.406 15.67 331.081 15.635 330.761 15.635C330.181 15.635 329.691 15.735 329.291 15.935C328.891 16.125 328.586 16.42 328.376 16.82C328.176 17.21 328.076 17.7 328.076 18.29V23.21C328.076 23.86 328.196 24.385 328.436 24.785C328.676 25.175 329.006 25.455 329.426 25.625C329.846 25.795 330.321 25.88 330.851 25.88C331.051 25.88 331.271 25.865 331.511 25.835C331.761 25.795 332.021 25.74 332.291 25.67C332.571 25.59 332.851 25.495 333.131 25.385L333.221 25.655C332.801 25.815 332.386 25.935 331.976 26.015C331.576 26.105 331.181 26.15 330.791 26.15C330.161 26.15 329.621 26.045 329.171 25.835C328.731 25.625 328.391 25.31 328.151 24.89C327.911 24.46 327.791 23.91 327.791 23.24V18.29C327.791 17.56 327.931 16.98 328.211 16.55C328.491 16.12 328.851 15.815 329.291 15.635C329.741 15.445 330.216 15.35 330.716 15.35C331.126 15.35 331.506 15.39 331.856 15.47C332.216 15.55 332.546 15.675 332.846 15.845L332.726 16.1ZM337.495 15.5C338.045 15.5 338.52 15.59 338.92 15.77C339.32 15.95 339.625 16.22 339.835 16.58C340.055 16.93 340.165 17.37 340.165 17.9C340.165 18.18 340.105 18.465 339.985 18.755C339.865 19.035 339.69 19.285 339.46 19.505C339.24 19.725 338.975 19.88 338.665 19.97C339.135 20.08 339.52 20.28 339.82 20.57C340.12 20.86 340.345 21.205 340.495 21.605C340.645 21.995 340.72 22.415 340.72 22.865C340.72 23.495 340.6 24.045 340.36 24.515C340.13 24.985 339.785 25.35 339.325 25.61C338.875 25.87 338.315 26 337.645 26H334.21V15.5H337.495ZM338.065 19.82C338.415 19.82 338.725 19.735 338.995 19.565C339.265 19.395 339.48 19.165 339.64 18.875C339.8 18.575 339.88 18.24 339.88 17.87C339.88 17.46 339.795 17.1 339.625 16.79C339.455 16.48 339.19 16.235 338.83 16.055C338.48 15.875 338.015 15.785 337.435 15.785H334.495V19.82H338.065ZM337.66 25.715C338.27 25.715 338.78 25.6 339.19 25.37C339.6 25.13 339.91 24.795 340.12 24.365C340.33 23.935 340.435 23.435 340.435 22.865C340.435 22.315 340.325 21.835 340.105 21.425C339.885 21.005 339.57 20.68 339.16 20.45C338.76 20.21 338.27 20.09 337.69 20.09H334.495V25.715H337.66ZM349.043 26H348.728L347.243 21.785H343.238L341.753 26H341.453L345.143 15.5H345.353L349.043 26ZM343.358 21.5H347.153L345.248 16.1L343.358 21.5ZM356.558 25.745H357.488V27.32H357.248L357.203 26.015H349.778L349.733 27.32H349.493V25.745H350.273L352.883 17.15C352.933 16.98 353.008 16.8 353.108 16.61C353.208 16.42 353.338 16.245 353.498 16.085C353.668 15.915 353.878 15.775 354.128 15.665C354.378 15.555 354.678 15.5 355.028 15.5H356.558V25.745ZM356.288 25.745V15.77H355.088C354.618 15.77 354.248 15.86 353.978 16.04C353.718 16.22 353.523 16.43 353.393 16.67C353.273 16.91 353.183 17.13 353.123 17.33L350.573 25.745H356.288ZM361.623 19.835C362.133 19.835 362.543 19.915 362.853 20.075C363.173 20.225 363.418 20.425 363.588 20.675C363.768 20.925 363.888 21.19 363.948 21.47C364.018 21.74 364.053 21.995 364.053 22.235V23.48C364.053 23.93 363.993 24.325 363.873 24.665C363.763 24.995 363.583 25.275 363.333 25.505C363.083 25.725 362.763 25.89 362.373 26C361.983 26.11 361.518 26.165 360.978 26.165C360.868 26.165 360.703 26.16 360.483 26.15C360.263 26.14 360.028 26.125 359.778 26.105C359.528 26.095 359.288 26.08 359.058 26.06C358.828 26.05 358.638 26.04 358.488 26.03C358.338 26.02 358.263 26.015 358.263 26.015V15.5H358.533V19.835H361.623ZM363.783 23.57V22.265C363.783 21.985 363.743 21.72 363.663 21.47C363.583 21.21 363.458 20.98 363.288 20.78C363.128 20.58 362.908 20.42 362.628 20.3C362.358 20.18 362.028 20.12 361.638 20.12H358.533V25.745C358.543 25.745 358.608 25.75 358.728 25.76C358.858 25.77 359.023 25.785 359.223 25.805C359.423 25.815 359.633 25.83 359.853 25.85C360.073 25.86 360.283 25.87 360.483 25.88C360.683 25.89 360.848 25.895 360.978 25.895C361.568 25.895 362.048 25.83 362.418 25.7C362.788 25.56 363.068 25.375 363.258 25.145C363.458 24.915 363.593 24.665 363.663 24.395C363.743 24.115 363.783 23.84 363.783 23.57ZM365.089 15.8V15.5H370.099V15.8H365.089ZM368.449 19.835C368.959 19.835 369.369 19.915 369.679 20.075C369.999 20.225 370.244 20.425 370.414 20.675C370.594 20.925 370.714 21.19 370.774 21.47C370.844 21.74 370.879 21.995 370.879 22.235V23.48C370.879 23.93 370.819 24.325 370.699 24.665C370.589 24.995 370.409 25.275 370.159 25.505C369.909 25.725 369.589 25.89 369.199 26C368.809 26.11 368.344 26.165 367.804 26.165C367.694 26.165 367.529 26.16 367.309 26.15C367.089 26.14 366.854 26.125 366.604 26.105C366.354 26.095 366.114 26.08 365.884 26.06C365.654 26.05 365.464 26.04 365.314 26.03C365.164 26.02 365.089 26.015 365.089 26.015V15.5H365.359V19.835H368.449ZM370.609 23.57V22.265C370.609 21.985 370.569 21.72 370.489 21.47C370.409 21.21 370.284 20.98 370.114 20.78C369.954 20.58 369.734 20.42 369.454 20.3C369.184 20.18 368.854 20.12 368.464 20.12H365.359V25.745C365.369 25.745 365.434 25.75 365.554 25.76C365.684 25.77 365.849 25.785 366.049 25.805C366.249 25.815 366.459 25.83 366.679 25.85C366.899 25.86 367.109 25.87 367.309 25.88C367.509 25.89 367.674 25.895 367.804 25.895C368.394 25.895 368.874 25.83 369.244 25.7C369.614 25.56 369.894 25.375 370.084 25.145C370.284 24.915 370.419 24.665 370.489 24.395C370.569 24.115 370.609 23.84 370.609 23.57ZM378.169 15.5H378.454L374.119 24.335C373.999 24.575 373.884 24.79 373.774 24.98C373.664 25.16 373.544 25.32 373.414 25.46C373.284 25.59 373.139 25.71 372.979 25.82C372.819 25.93 372.624 26.035 372.394 26.135L372.274 25.94C372.614 25.79 372.879 25.625 373.069 25.445C373.269 25.255 373.424 25.06 373.534 24.86C373.654 24.66 373.764 24.46 373.864 24.26L374.884 22.175L371.434 15.5H371.719L375.034 21.89L378.169 15.5Z" fill="#FFF5D1"/>
<path d="M173.78 39V28.8H167.915V39H167.615V28.5H174.08V39H173.78ZM179.085 28.5C179.565 28.5 179.975 28.57 180.315 28.71C180.665 28.85 180.955 29.055 181.185 29.325C181.415 29.585 181.585 29.91 181.695 30.3C181.805 30.68 181.86 31.11 181.86 31.59C181.86 32.11 181.805 32.57 181.695 32.97C181.585 33.37 181.41 33.705 181.17 33.975C180.94 34.245 180.645 34.45 180.285 34.59C179.925 34.72 179.49 34.785 178.98 34.785H175.62V39H175.335V28.5H179.085ZM175.62 34.5H178.965C179.425 34.5 179.82 34.44 180.15 34.32C180.48 34.19 180.75 34.005 180.96 33.765C181.17 33.515 181.325 33.21 181.425 32.85C181.525 32.48 181.575 32.06 181.575 31.59C181.575 31.15 181.525 30.76 181.425 30.42C181.335 30.07 181.19 29.775 180.99 29.535C180.79 29.295 180.535 29.115 180.225 28.995C179.915 28.865 179.54 28.8 179.1 28.8H175.62V34.5ZM182.893 28.5H183.148V38.52L190.018 28.5H190.288V39H190.018V28.95L183.148 39H182.893V28.5ZM191.551 39V28.5H196.561V28.8H191.836V39H191.551ZM202.722 28.5H204.282V39.015H204.012V28.755H202.782C202.312 28.755 201.947 28.845 201.687 29.025C201.427 29.205 201.232 29.42 201.102 29.67C200.982 29.91 200.892 30.13 200.832 30.33L198.717 37.32C198.617 37.64 198.512 37.91 198.402 38.13C198.302 38.35 198.167 38.54 197.997 38.7C197.837 38.85 197.617 38.99 197.337 39.12L197.172 38.925C197.482 38.775 197.717 38.61 197.877 38.43C198.037 38.25 198.157 38.06 198.237 37.86C198.317 37.65 198.387 37.445 198.447 37.245L200.592 30.15C200.642 29.98 200.717 29.8 200.817 29.61C200.917 29.42 201.047 29.245 201.207 29.085C201.367 28.915 201.572 28.775 201.822 28.665C202.072 28.555 202.372 28.5 202.722 28.5ZM212.639 39H212.324L210.839 34.785H206.834L205.349 39H205.049L208.739 28.5H208.949L212.639 39ZM206.954 34.5H210.749L208.844 29.1L206.954 34.5ZM221.623 28.5H221.908V39H213.568V28.5H213.853V38.73H217.588V28.5H217.873V38.73H221.623V28.5ZM223.133 39V28.5H228.143V28.785H223.418V32.82H226.838L226.748 33.09H223.418V38.715H228.113V39H223.133ZM235.362 32.82V28.5H235.632V39H235.362V33.09H229.452V39H229.182V28.5H229.452V32.82H235.362ZM236.902 28.5H237.157V38.52L244.027 28.5H244.297V39H244.027V28.95L237.157 39H236.902V28.5ZM245.559 39V28.5H250.569V28.785H245.844V32.82H249.264L249.174 33.09H245.844V38.715H250.539V39H245.559ZM261.993 32.82V28.5H262.263V39H261.993V33.09H256.083V39H255.813V28.5H256.083V32.82H261.993ZM270.808 39H270.493L269.008 34.785H265.003L263.518 39H263.218L266.908 28.5H267.118L270.808 39ZM265.123 34.5H268.918L267.013 29.1L265.123 34.5ZM280.726 29.1C280.396 28.93 280.066 28.81 279.736 28.74C279.406 28.67 279.081 28.635 278.761 28.635C278.181 28.635 277.691 28.735 277.291 28.935C276.891 29.125 276.586 29.42 276.376 29.82C276.176 30.21 276.076 30.7 276.076 31.29V36.21C276.076 36.86 276.196 37.385 276.436 37.785C276.676 38.175 277.006 38.455 277.426 38.625C277.846 38.795 278.321 38.88 278.851 38.88C279.051 38.88 279.271 38.865 279.511 38.835C279.761 38.795 280.021 38.74 280.291 38.67C280.571 38.59 280.851 38.495 281.131 38.385L281.221 38.655C280.801 38.815 280.386 38.935 279.976 39.015C279.576 39.105 279.181 39.15 278.791 39.15C278.161 39.15 277.621 39.045 277.171 38.835C276.731 38.625 276.391 38.31 276.151 37.89C275.911 37.46 275.791 36.91 275.791 36.24V31.29C275.791 30.56 275.931 29.98 276.211 29.55C276.491 29.12 276.851 28.815 277.291 28.635C277.741 28.445 278.216 28.35 278.716 28.35C279.126 28.35 279.506 28.39 279.856 28.47C280.216 28.55 280.546 28.675 280.846 28.845L280.726 29.1ZM285.495 28.5C286.045 28.5 286.52 28.59 286.92 28.77C287.32 28.95 287.625 29.22 287.835 29.58C288.055 29.93 288.165 30.37 288.165 30.9C288.165 31.18 288.105 31.465 287.985 31.755C287.865 32.035 287.69 32.285 287.46 32.505C287.24 32.725 286.975 32.88 286.665 32.97C287.135 33.08 287.52 33.28 287.82 33.57C288.12 33.86 288.345 34.205 288.495 34.605C288.645 34.995 288.72 35.415 288.72 35.865C288.72 36.495 288.6 37.045 288.36 37.515C288.13 37.985 287.785 38.35 287.325 38.61C286.875 38.87 286.315 39 285.645 39H282.21V28.5H285.495ZM286.065 32.82C286.415 32.82 286.725 32.735 286.995 32.565C287.265 32.395 287.48 32.165 287.64 31.875C287.8 31.575 287.88 31.24 287.88 30.87C287.88 30.46 287.795 30.1 287.625 29.79C287.455 29.48 287.19 29.235 286.83 29.055C286.48 28.875 286.015 28.785 285.435 28.785H282.495V32.82H286.065ZM285.66 38.715C286.27 38.715 286.78 38.6 287.19 38.37C287.6 38.13 287.91 37.795 288.12 37.365C288.33 36.935 288.435 36.435 288.435 35.865C288.435 35.315 288.325 34.835 288.105 34.425C287.885 34.005 287.57 33.68 287.16 33.45C286.76 33.21 286.27 33.09 285.69 33.09H282.495V38.715H285.66ZM297.043 39H296.728L295.243 34.785H291.238L289.753 39H289.453L293.143 28.5H293.353L297.043 39ZM291.358 34.5H295.153L293.248 29.1L291.358 34.5ZM304.558 38.745H305.488V40.32H305.248L305.203 39.015H297.778L297.733 40.32H297.493V38.745H298.273L300.883 30.15C300.933 29.98 301.008 29.8 301.108 29.61C301.208 29.42 301.338 29.245 301.498 29.085C301.668 28.915 301.878 28.775 302.128 28.665C302.378 28.555 302.678 28.5 303.028 28.5H304.558V38.745ZM304.288 38.745V28.77H303.088C302.618 28.77 302.248 28.86 301.978 29.04C301.718 29.22 301.523 29.43 301.393 29.67C301.273 29.91 301.183 30.13 301.123 30.33L298.573 38.745H304.288ZM309.623 32.835C310.133 32.835 310.543 32.915 310.853 33.075C311.173 33.225 311.418 33.425 311.588 33.675C311.768 33.925 311.888 34.19 311.948 34.47C312.018 34.74 312.053 34.995 312.053 35.235V36.48C312.053 36.93 311.993 37.325 311.873 37.665C311.763 37.995 311.583 38.275 311.333 38.505C311.083 38.725 310.763 38.89 310.373 39C309.983 39.11 309.518 39.165 308.978 39.165C308.868 39.165 308.703 39.16 308.483 39.15C308.263 39.14 308.028 39.125 307.778 39.105C307.528 39.095 307.288 39.08 307.058 39.06C306.828 39.05 306.638 39.04 306.488 39.03C306.338 39.02 306.263 39.015 306.263 39.015V28.5H306.533V32.835H309.623ZM311.783 36.57V35.265C311.783 34.985 311.743 34.72 311.663 34.47C311.583 34.21 311.458 33.98 311.288 33.78C311.128 33.58 310.908 33.42 310.628 33.3C310.358 33.18 310.028 33.12 309.638 33.12H306.533V38.745C306.543 38.745 306.608 38.75 306.728 38.76C306.858 38.77 307.023 38.785 307.223 38.805C307.423 38.815 307.633 38.83 307.853 38.85C308.073 38.86 308.283 38.87 308.483 38.88C308.683 38.89 308.848 38.895 308.978 38.895C309.568 38.895 310.048 38.83 310.418 38.7C310.788 38.56 311.068 38.375 311.258 38.145C311.458 37.915 311.593 37.665 311.663 37.395C311.743 37.115 311.783 36.84 311.783 36.57ZM313.089 28.8V28.5H318.099V28.8H313.089ZM316.449 32.835C316.959 32.835 317.369 32.915 317.679 33.075C317.999 33.225 318.244 33.425 318.414 33.675C318.594 33.925 318.714 34.19 318.774 34.47C318.844 34.74 318.879 34.995 318.879 35.235V36.48C318.879 36.93 318.819 37.325 318.699 37.665C318.589 37.995 318.409 38.275 318.159 38.505C317.909 38.725 317.589 38.89 317.199 39C316.809 39.11 316.344 39.165 315.804 39.165C315.694 39.165 315.529 39.16 315.309 39.15C315.089 39.14 314.854 39.125 314.604 39.105C314.354 39.095 314.114 39.08 313.884 39.06C313.654 39.05 313.464 39.04 313.314 39.03C313.164 39.02 313.089 39.015 313.089 39.015V28.5H313.359V32.835H316.449ZM318.609 36.57V35.265C318.609 34.985 318.569 34.72 318.489 34.47C318.409 34.21 318.284 33.98 318.114 33.78C317.954 33.58 317.734 33.42 317.454 33.3C317.184 33.18 316.854 33.12 316.464 33.12H313.359V38.745C313.369 38.745 313.434 38.75 313.554 38.76C313.684 38.77 313.849 38.785 314.049 38.805C314.249 38.815 314.459 38.83 314.679 38.85C314.899 38.86 315.109 38.87 315.309 38.88C315.509 38.89 315.674 38.895 315.804 38.895C316.394 38.895 316.874 38.83 317.244 38.7C317.614 38.56 317.894 38.375 318.084 38.145C318.284 37.915 318.419 37.665 318.489 37.395C318.569 37.115 318.609 36.84 318.609 36.57ZM326.169 28.5H326.454L322.119 37.335C321.999 37.575 321.884 37.79 321.774 37.98C321.664 38.16 321.544 38.32 321.414 38.46C321.284 38.59 321.139 38.71 320.979 38.82C320.819 38.93 320.624 39.035 320.394 39.135L320.274 38.94C320.614 38.79 320.879 38.625 321.069 38.445C321.269 38.255 321.424 38.06 321.534 37.86C321.654 37.66 321.764 37.46 321.864 37.26L322.884 35.175L319.434 28.5H319.719L323.034 34.89L326.169 28.5Z" fill="#FFF5D1"/>
<path d="M340.78 14V3.8H334.915V14H334.615V3.5H341.08V14H340.78ZM346.085 3.5C346.565 3.5 346.975 3.57 347.315 3.71C347.665 3.85 347.955 4.055 348.185 4.325C348.415 4.585 348.585 4.91 348.695 5.3C348.805 5.68 348.86 6.11 348.86 6.59C348.86 7.11 348.805 7.57 348.695 7.97C348.585 8.37 348.41 8.705 348.17 8.975C347.94 9.245 347.645 9.45 347.285 9.59C346.925 9.72 346.49 9.785 345.98 9.785H342.62V14H342.335V3.5H346.085ZM342.62 9.5H345.965C346.425 9.5 346.82 9.44 347.15 9.32C347.48 9.19 347.75 9.005 347.96 8.765C348.17 8.515 348.325 8.21 348.425 7.85C348.525 7.48 348.575 7.06 348.575 6.59C348.575 6.15 348.525 5.76 348.425 5.42C348.335 5.07 348.19 4.775 347.99 4.535C347.79 4.295 347.535 4.115 347.225 3.995C346.915 3.865 346.54 3.8 346.1 3.8H342.62V9.5ZM349.893 3.5H350.148V13.52L357.018 3.5H357.288V14H357.018V3.95L350.148 14H349.893V3.5ZM358.551 14V3.5H363.561V3.8H358.836V14H358.551ZM369.722 3.5H371.282V14.015H371.012V3.755H369.782C369.312 3.755 368.947 3.845 368.687 4.025C368.427 4.205 368.232 4.42 368.102 4.67C367.982 4.91 367.892 5.13 367.832 5.33L365.717 12.32C365.617 12.64 365.512 12.91 365.402 13.13C365.302 13.35 365.167 13.54 364.997 13.7C364.837 13.85 364.617 13.99 364.337 14.12L364.172 13.925C364.482 13.775 364.717 13.61 364.877 13.43C365.037 13.25 365.157 13.06 365.237 12.86C365.317 12.65 365.387 12.445 365.447 12.245L367.592 5.15C367.642 4.98 367.717 4.8 367.817 4.61C367.917 4.42 368.047 4.245 368.207 4.085C368.367 3.915 368.572 3.775 368.822 3.665C369.072 3.555 369.372 3.5 369.722 3.5ZM379.639 14H379.324L377.839 9.785H373.834L372.349 14H372.049L375.739 3.5H375.949L379.639 14ZM373.954 9.5H377.749L375.844 4.1L373.954 9.5ZM388.623 3.5H388.908V14H380.568V3.5H380.853V13.73H384.588V3.5H384.873V13.73H388.623V3.5ZM390.133 14V3.5H395.143V3.785H390.418V7.82H393.838L393.748 8.09H390.418V13.715H395.113V14H390.133ZM402.362 7.82V3.5H402.632V14H402.362V8.09H396.452V14H396.182V3.5H396.452V7.82H402.362ZM403.902 3.5H404.157V13.52L411.027 3.5H411.297V14H411.027V3.95L404.157 14H403.902V3.5ZM412.559 14V3.5H417.569V3.785H412.844V7.82H416.264L416.174 8.09H412.844V13.715H417.539V14H412.559ZM428.993 7.82V3.5H429.263V14H428.993V8.09H423.083V14H422.813V3.5H423.083V7.82H428.993ZM437.808 14H437.493L436.008 9.785H432.003L430.518 14H430.218L433.908 3.5H434.118L437.808 14ZM432.123 9.5H435.918L434.013 4.1L432.123 9.5ZM447.726 4.1C447.396 3.93 447.066 3.81 446.736 3.74C446.406 3.67 446.081 3.635 445.761 3.635C445.181 3.635 444.691 3.735 444.291 3.935C443.891 4.125 443.586 4.42 443.376 4.82C443.176 5.21 443.076 5.7 443.076 6.29V11.21C443.076 11.86 443.196 12.385 443.436 12.785C443.676 13.175 444.006 13.455 444.426 13.625C444.846 13.795 445.321 13.88 445.851 13.88C446.051 13.88 446.271 13.865 446.511 13.835C446.761 13.795 447.021 13.74 447.291 13.67C447.571 13.59 447.851 13.495 448.131 13.385L448.221 13.655C447.801 13.815 447.386 13.935 446.976 14.015C446.576 14.105 446.181 14.15 445.791 14.15C445.161 14.15 444.621 14.045 444.171 13.835C443.731 13.625 443.391 13.31 443.151 12.89C442.911 12.46 442.791 11.91 442.791 11.24V6.29C442.791 5.56 442.931 4.98 443.211 4.55C443.491 4.12 443.851 3.815 444.291 3.635C444.741 3.445 445.216 3.35 445.716 3.35C446.126 3.35 446.506 3.39 446.856 3.47C447.216 3.55 447.546 3.675 447.846 3.845L447.726 4.1ZM452.495 3.5C453.045 3.5 453.52 3.59 453.92 3.77C454.32 3.95 454.625 4.22 454.835 4.58C455.055 4.93 455.165 5.37 455.165 5.9C455.165 6.18 455.105 6.465 454.985 6.755C454.865 7.035 454.69 7.285 454.46 7.505C454.24 7.725 453.975 7.88 453.665 7.97C454.135 8.08 454.52 8.28 454.82 8.57C455.12 8.86 455.345 9.205 455.495 9.605C455.645 9.995 455.72 10.415 455.72 10.865C455.72 11.495 455.6 12.045 455.36 12.515C455.13 12.985 454.785 13.35 454.325 13.61C453.875 13.87 453.315 14 452.645 14H449.21V3.5H452.495ZM453.065 7.82C453.415 7.82 453.725 7.735 453.995 7.565C454.265 7.395 454.48 7.165 454.64 6.875C454.8 6.575 454.88 6.24 454.88 5.87C454.88 5.46 454.795 5.1 454.625 4.79C454.455 4.48 454.19 4.235 453.83 4.055C453.48 3.875 453.015 3.785 452.435 3.785H449.495V7.82H453.065ZM452.66 13.715C453.27 13.715 453.78 13.6 454.19 13.37C454.6 13.13 454.91 12.795 455.12 12.365C455.33 11.935 455.435 11.435 455.435 10.865C455.435 10.315 455.325 9.835 455.105 9.425C454.885 9.005 454.57 8.68 454.16 8.45C453.76 8.21 453.27 8.09 452.69 8.09H449.495V13.715H452.66ZM464.043 14H463.728L462.243 9.785H458.238L456.753 14H456.453L460.143 3.5H460.353L464.043 14ZM458.358 9.5H462.153L460.248 4.1L458.358 9.5ZM471.558 13.745H472.488V15.32H472.248L472.203 14.015H464.778L464.733 15.32H464.493V13.745H465.273L467.883 5.15C467.933 4.98 468.008 4.8 468.108 4.61C468.208 4.42 468.338 4.245 468.498 4.085C468.668 3.915 468.878 3.775 469.128 3.665C469.378 3.555 469.678 3.5 470.028 3.5H471.558V13.745ZM471.288 13.745V3.77H470.088C469.618 3.77 469.248 3.86 468.978 4.04C468.718 4.22 468.523 4.43 468.393 4.67C468.273 4.91 468.183 5.13 468.123 5.33L465.573 13.745H471.288ZM476.623 7.835C477.133 7.835 477.543 7.915 477.853 8.075C478.173 8.225 478.418 8.425 478.588 8.675C478.768 8.925 478.888 9.19 478.948 9.47C479.018 9.74 479.053 9.995 479.053 10.235V11.48C479.053 11.93 478.993 12.325 478.873 12.665C478.763 12.995 478.583 13.275 478.333 13.505C478.083 13.725 477.763 13.89 477.373 14C476.983 14.11 476.518 14.165 475.978 14.165C475.868 14.165 475.703 14.16 475.483 14.15C475.263 14.14 475.028 14.125 474.778 14.105C474.528 14.095 474.288 14.08 474.058 14.06C473.828 14.05 473.638 14.04 473.488 14.03C473.338 14.02 473.263 14.015 473.263 14.015V3.5H473.533V7.835H476.623ZM478.783 11.57V10.265C478.783 9.985 478.743 9.72 478.663 9.47C478.583 9.21 478.458 8.98 478.288 8.78C478.128 8.58 477.908 8.42 477.628 8.3C477.358 8.18 477.028 8.12 476.638 8.12H473.533V13.745C473.543 13.745 473.608 13.75 473.728 13.76C473.858 13.77 474.023 13.785 474.223 13.805C474.423 13.815 474.633 13.83 474.853 13.85C475.073 13.86 475.283 13.87 475.483 13.88C475.683 13.89 475.848 13.895 475.978 13.895C476.568 13.895 477.048 13.83 477.418 13.7C477.788 13.56 478.068 13.375 478.258 13.145C478.458 12.915 478.593 12.665 478.663 12.395C478.743 12.115 478.783 11.84 478.783 11.57ZM480.089 3.8V3.5H485.099V3.8H480.089ZM483.449 7.835C483.959 7.835 484.369 7.915 484.679 8.075C484.999 8.225 485.244 8.425 485.414 8.675C485.594 8.925 485.714 9.19 485.774 9.47C485.844 9.74 485.879 9.995 485.879 10.235V11.48C485.879 11.93 485.819 12.325 485.699 12.665C485.589 12.995 485.409 13.275 485.159 13.505C484.909 13.725 484.589 13.89 484.199 14C483.809 14.11 483.344 14.165 482.804 14.165C482.694 14.165 482.529 14.16 482.309 14.15C482.089 14.14 481.854 14.125 481.604 14.105C481.354 14.095 481.114 14.08 480.884 14.06C480.654 14.05 480.464 14.04 480.314 14.03C480.164 14.02 480.089 14.015 480.089 14.015V3.5H480.359V7.835H483.449ZM485.609 11.57V10.265C485.609 9.985 485.569 9.72 485.489 9.47C485.409 9.21 485.284 8.98 485.114 8.78C484.954 8.58 484.734 8.42 484.454 8.3C484.184 8.18 483.854 8.12 483.464 8.12H480.359V13.745C480.369 13.745 480.434 13.75 480.554 13.76C480.684 13.77 480.849 13.785 481.049 13.805C481.249 13.815 481.459 13.83 481.679 13.85C481.899 13.86 482.109 13.87 482.309 13.88C482.509 13.89 482.674 13.895 482.804 13.895C483.394 13.895 483.874 13.83 484.244 13.7C484.614 13.56 484.894 13.375 485.084 13.145C485.284 12.915 485.419 12.665 485.489 12.395C485.569 12.115 485.609 11.84 485.609 11.57ZM493.169 3.5H493.454L489.119 12.335C488.999 12.575 488.884 12.79 488.774 12.98C488.664 13.16 488.544 13.32 488.414 13.46C488.284 13.59 488.139 13.71 487.979 13.82C487.819 13.93 487.624 14.035 487.394 14.135L487.274 13.94C487.614 13.79 487.879 13.625 488.069 13.445C488.269 13.255 488.424 13.06 488.534 12.86C488.654 12.66 488.764 12.46 488.864 12.26L489.884 10.175L486.434 3.5H486.719L490.034 9.89L493.169 3.5Z" fill="#FFF5D1"/>
<path d="M398.78 26V15.8H392.915V26H392.615V15.5H399.08V26H398.78ZM404.085 15.5C404.565 15.5 404.975 15.57 405.315 15.71C405.665 15.85 405.955 16.055 406.185 16.325C406.415 16.585 406.585 16.91 406.695 17.3C406.805 17.68 406.86 18.11 406.86 18.59C406.86 19.11 406.805 19.57 406.695 19.97C406.585 20.37 406.41 20.705 406.17 20.975C405.94 21.245 405.645 21.45 405.285 21.59C404.925 21.72 404.49 21.785 403.98 21.785H400.62V26H400.335V15.5H404.085ZM400.62 21.5H403.965C404.425 21.5 404.82 21.44 405.15 21.32C405.48 21.19 405.75 21.005 405.96 20.765C406.17 20.515 406.325 20.21 406.425 19.85C406.525 19.48 406.575 19.06 406.575 18.59C406.575 18.15 406.525 17.76 406.425 17.42C406.335 17.07 406.19 16.775 405.99 16.535C405.79 16.295 405.535 16.115 405.225 15.995C404.915 15.865 404.54 15.8 404.1 15.8H400.62V21.5ZM407.893 15.5H408.148V25.52L415.018 15.5H415.288V26H415.018V15.95L408.148 26H407.893V15.5ZM416.551 26V15.5H421.561V15.8H416.836V26H416.551ZM427.722 15.5H429.282V26.015H429.012V15.755H427.782C427.312 15.755 426.947 15.845 426.687 16.025C426.427 16.205 426.232 16.42 426.102 16.67C425.982 16.91 425.892 17.13 425.832 17.33L423.717 24.32C423.617 24.64 423.512 24.91 423.402 25.13C423.302 25.35 423.167 25.54 422.997 25.7C422.837 25.85 422.617 25.99 422.337 26.12L422.172 25.925C422.482 25.775 422.717 25.61 422.877 25.43C423.037 25.25 423.157 25.06 423.237 24.86C423.317 24.65 423.387 24.445 423.447 24.245L425.592 17.15C425.642 16.98 425.717 16.8 425.817 16.61C425.917 16.42 426.047 16.245 426.207 16.085C426.367 15.915 426.572 15.775 426.822 15.665C427.072 15.555 427.372 15.5 427.722 15.5ZM437.639 26H437.324L435.839 21.785H431.834L430.349 26H430.049L433.739 15.5H433.949L437.639 26ZM431.954 21.5H435.749L433.844 16.1L431.954 21.5ZM446.623 15.5H446.908V26H438.568V15.5H438.853V25.73H442.588V15.5H442.873V25.73H446.623V15.5ZM448.133 26V15.5H453.143V15.785H448.418V19.82H451.838L451.748 20.09H448.418V25.715H453.113V26H448.133ZM460.362 19.82V15.5H460.632V26H460.362V20.09H454.452V26H454.182V15.5H454.452V19.82H460.362ZM461.902 15.5H462.157V25.52L469.027 15.5H469.297V26H469.027V15.95L462.157 26H461.902V15.5ZM470.559 26V15.5H475.569V15.785H470.844V19.82H474.264L474.174 20.09H470.844V25.715H475.539V26H470.559ZM486.993 19.82V15.5H487.263V26H486.993V20.09H481.083V26H480.813V15.5H481.083V19.82H486.993ZM495.808 26H495.493L494.008 21.785H490.003L488.518 26H488.218L491.908 15.5H492.118L495.808 26ZM490.123 21.5H493.918L492.013 16.1L490.123 21.5ZM505.726 16.1C505.396 15.93 505.066 15.81 504.736 15.74C504.406 15.67 504.081 15.635 503.761 15.635C503.181 15.635 502.691 15.735 502.291 15.935C501.891 16.125 501.586 16.42 501.376 16.82C501.176 17.21 501.076 17.7 501.076 18.29V23.21C501.076 23.86 501.196 24.385 501.436 24.785C501.676 25.175 502.006 25.455 502.426 25.625C502.846 25.795 503.321 25.88 503.851 25.88C504.051 25.88 504.271 25.865 504.511 25.835C504.761 25.795 505.021 25.74 505.291 25.67C505.571 25.59 505.851 25.495 506.131 25.385L506.221 25.655C505.801 25.815 505.386 25.935 504.976 26.015C504.576 26.105 504.181 26.15 503.791 26.15C503.161 26.15 502.621 26.045 502.171 25.835C501.731 25.625 501.391 25.31 501.151 24.89C500.911 24.46 500.791 23.91 500.791 23.24V18.29C500.791 17.56 500.931 16.98 501.211 16.55C501.491 16.12 501.851 15.815 502.291 15.635C502.741 15.445 503.216 15.35 503.716 15.35C504.126 15.35 504.506 15.39 504.856 15.47C505.216 15.55 505.546 15.675 505.846 15.845L505.726 16.1ZM510.495 15.5C511.045 15.5 511.52 15.59 511.92 15.77C512.32 15.95 512.625 16.22 512.835 16.58C513.055 16.93 513.165 17.37 513.165 17.9C513.165 18.18 513.105 18.465 512.985 18.755C512.865 19.035 512.69 19.285 512.46 19.505C512.24 19.725 511.975 19.88 511.665 19.97C512.135 20.08 512.52 20.28 512.82 20.57C513.12 20.86 513.345 21.205 513.495 21.605C513.645 21.995 513.72 22.415 513.72 22.865C513.72 23.495 513.6 24.045 513.36 24.515C513.13 24.985 512.785 25.35 512.325 25.61C511.875 25.87 511.315 26 510.645 26H507.21V15.5H510.495ZM511.065 19.82C511.415 19.82 511.725 19.735 511.995 19.565C512.265 19.395 512.48 19.165 512.64 18.875C512.8 18.575 512.88 18.24 512.88 17.87C512.88 17.46 512.795 17.1 512.625 16.79C512.455 16.48 512.19 16.235 511.83 16.055C511.48 15.875 511.015 15.785 510.435 15.785H507.495V19.82H511.065ZM510.66 25.715C511.27 25.715 511.78 25.6 512.19 25.37C512.6 25.13 512.91 24.795 513.12 24.365C513.33 23.935 513.435 23.435 513.435 22.865C513.435 22.315 513.325 21.835 513.105 21.425C512.885 21.005 512.57 20.68 512.16 20.45C511.76 20.21 511.27 20.09 510.69 20.09H507.495V25.715H510.66ZM522.043 26H521.728L520.243 21.785H516.238L514.753 26H514.453L518.143 15.5H518.353L522.043 26ZM516.358 21.5H520.153L518.248 16.1L516.358 21.5ZM529.558 25.745H530.488V27.32H530.248L530.203 26.015H522.778L522.733 27.32H522.493V25.745H523.273L525.883 17.15C525.933 16.98 526.008 16.8 526.108 16.61C526.208 16.42 526.338 16.245 526.498 16.085C526.668 15.915 526.878 15.775 527.128 15.665C527.378 15.555 527.678 15.5 528.028 15.5H529.558V25.745ZM529.288 25.745V15.77H528.088C527.618 15.77 527.248 15.86 526.978 16.04C526.718 16.22 526.523 16.43 526.393 16.67C526.273 16.91 526.183 17.13 526.123 17.33L523.573 25.745H529.288ZM534.623 19.835C535.133 19.835 535.543 19.915 535.853 20.075C536.173 20.225 536.418 20.425 536.588 20.675C536.768 20.925 536.888 21.19 536.948 21.47C537.018 21.74 537.053 21.995 537.053 22.235V23.48C537.053 23.93 536.993 24.325 536.873 24.665C536.763 24.995 536.583 25.275 536.333 25.505C536.083 25.725 535.763 25.89 535.373 26C534.983 26.11 534.518 26.165 533.978 26.165C533.868 26.165 533.703 26.16 533.483 26.15C533.263 26.14 533.028 26.125 532.778 26.105C532.528 26.095 532.288 26.08 532.058 26.06C531.828 26.05 531.638 26.04 531.488 26.03C531.338 26.02 531.263 26.015 531.263 26.015V15.5H531.533V19.835H534.623ZM536.783 23.57V22.265C536.783 21.985 536.743 21.72 536.663 21.47C536.583 21.21 536.458 20.98 536.288 20.78C536.128 20.58 535.908 20.42 535.628 20.3C535.358 20.18 535.028 20.12 534.638 20.12H531.533V25.745C531.543 25.745 531.608 25.75 531.728 25.76C531.858 25.77 532.023 25.785 532.223 25.805C532.423 25.815 532.633 25.83 532.853 25.85C533.073 25.86 533.283 25.87 533.483 25.88C533.683 25.89 533.848 25.895 533.978 25.895C534.568 25.895 535.048 25.83 535.418 25.7C535.788 25.56 536.068 25.375 536.258 25.145C536.458 24.915 536.593 24.665 536.663 24.395C536.743 24.115 536.783 23.84 536.783 23.57ZM538.089 15.8V15.5H543.099V15.8H538.089ZM541.449 19.835C541.959 19.835 542.369 19.915 542.679 20.075C542.999 20.225 543.244 20.425 543.414 20.675C543.594 20.925 543.714 21.19 543.774 21.47C543.844 21.74 543.879 21.995 543.879 22.235V23.48C543.879 23.93 543.819 24.325 543.699 24.665C543.589 24.995 543.409 25.275 543.159 25.505C542.909 25.725 542.589 25.89 542.199 26C541.809 26.11 541.344 26.165 540.804 26.165C540.694 26.165 540.529 26.16 540.309 26.15C540.089 26.14 539.854 26.125 539.604 26.105C539.354 26.095 539.114 26.08 538.884 26.06C538.654 26.05 538.464 26.04 538.314 26.03C538.164 26.02 538.089 26.015 538.089 26.015V15.5H538.359V19.835H541.449ZM543.609 23.57V22.265C543.609 21.985 543.569 21.72 543.489 21.47C543.409 21.21 543.284 20.98 543.114 20.78C542.954 20.58 542.734 20.42 542.454 20.3C542.184 20.18 541.854 20.12 541.464 20.12H538.359V25.745C538.369 25.745 538.434 25.75 538.554 25.76C538.684 25.77 538.849 25.785 539.049 25.805C539.249 25.815 539.459 25.83 539.679 25.85C539.899 25.86 540.109 25.87 540.309 25.88C540.509 25.89 540.674 25.895 540.804 25.895C541.394 25.895 541.874 25.83 542.244 25.7C542.614 25.56 542.894 25.375 543.084 25.145C543.284 24.915 543.419 24.665 543.489 24.395C543.569 24.115 543.609 23.84 543.609 23.57ZM551.169 15.5H551.454L547.119 24.335C546.999 24.575 546.884 24.79 546.774 24.98C546.664 25.16 546.544 25.32 546.414 25.46C546.284 25.59 546.139 25.71 545.979 25.82C545.819 25.93 545.624 26.035 545.394 26.135L545.274 25.94C545.614 25.79 545.879 25.625 546.069 25.445C546.269 25.255 546.424 25.06 546.534 24.86C546.654 24.66 546.764 24.46 546.864 24.26L547.884 22.175L544.434 15.5H544.719L548.034 21.89L551.169 15.5Z" fill="#FFF5D1"/>
<path d="M340.78 38V27.8H334.915V38H334.615V27.5H341.08V38H340.78ZM346.085 27.5C346.565 27.5 346.975 27.57 347.315 27.71C347.665 27.85 347.955 28.055 348.185 28.325C348.415 28.585 348.585 28.91 348.695 29.3C348.805 29.68 348.86 30.11 348.86 30.59C348.86 31.11 348.805 31.57 348.695 31.97C348.585 32.37 348.41 32.705 348.17 32.975C347.94 33.245 347.645 33.45 347.285 33.59C346.925 33.72 346.49 33.785 345.98 33.785H342.62V38H342.335V27.5H346.085ZM342.62 33.5H345.965C346.425 33.5 346.82 33.44 347.15 33.32C347.48 33.19 347.75 33.005 347.96 32.765C348.17 32.515 348.325 32.21 348.425 31.85C348.525 31.48 348.575 31.06 348.575 30.59C348.575 30.15 348.525 29.76 348.425 29.42C348.335 29.07 348.19 28.775 347.99 28.535C347.79 28.295 347.535 28.115 347.225 27.995C346.915 27.865 346.54 27.8 346.1 27.8H342.62V33.5ZM349.893 27.5H350.148V37.52L357.018 27.5H357.288V38H357.018V27.95L350.148 38H349.893V27.5ZM358.551 38V27.5H363.561V27.8H358.836V38H358.551ZM369.722 27.5H371.282V38.015H371.012V27.755H369.782C369.312 27.755 368.947 27.845 368.687 28.025C368.427 28.205 368.232 28.42 368.102 28.67C367.982 28.91 367.892 29.13 367.832 29.33L365.717 36.32C365.617 36.64 365.512 36.91 365.402 37.13C365.302 37.35 365.167 37.54 364.997 37.7C364.837 37.85 364.617 37.99 364.337 38.12L364.172 37.925C364.482 37.775 364.717 37.61 364.877 37.43C365.037 37.25 365.157 37.06 365.237 36.86C365.317 36.65 365.387 36.445 365.447 36.245L367.592 29.15C367.642 28.98 367.717 28.8 367.817 28.61C367.917 28.42 368.047 28.245 368.207 28.085C368.367 27.915 368.572 27.775 368.822 27.665C369.072 27.555 369.372 27.5 369.722 27.5ZM379.639 38H379.324L377.839 33.785H373.834L372.349 38H372.049L375.739 27.5H375.949L379.639 38ZM373.954 33.5H377.749L375.844 28.1L373.954 33.5ZM388.623 27.5H388.908V38H380.568V27.5H380.853V37.73H384.588V27.5H384.873V37.73H388.623V27.5ZM390.133 38V27.5H395.143V27.785H390.418V31.82H393.838L393.748 32.09H390.418V37.715H395.113V38H390.133ZM402.362 31.82V27.5H402.632V38H402.362V32.09H396.452V38H396.182V27.5H396.452V31.82H402.362ZM403.902 27.5H404.157V37.52L411.027 27.5H411.297V38H411.027V27.95L404.157 38H403.902V27.5ZM412.559 38V27.5H417.569V27.785H412.844V31.82H416.264L416.174 32.09H412.844V37.715H417.539V38H412.559ZM428.993 31.82V27.5H429.263V38H428.993V32.09H423.083V38H422.813V27.5H423.083V31.82H428.993ZM437.808 38H437.493L436.008 33.785H432.003L430.518 38H430.218L433.908 27.5H434.118L437.808 38ZM432.123 33.5H435.918L434.013 28.1L432.123 33.5ZM447.726 28.1C447.396 27.93 447.066 27.81 446.736 27.74C446.406 27.67 446.081 27.635 445.761 27.635C445.181 27.635 444.691 27.735 444.291 27.935C443.891 28.125 443.586 28.42 443.376 28.82C443.176 29.21 443.076 29.7 443.076 30.29V35.21C443.076 35.86 443.196 36.385 443.436 36.785C443.676 37.175 444.006 37.455 444.426 37.625C444.846 37.795 445.321 37.88 445.851 37.88C446.051 37.88 446.271 37.865 446.511 37.835C446.761 37.795 447.021 37.74 447.291 37.67C447.571 37.59 447.851 37.495 448.131 37.385L448.221 37.655C447.801 37.815 447.386 37.935 446.976 38.015C446.576 38.105 446.181 38.15 445.791 38.15C445.161 38.15 444.621 38.045 444.171 37.835C443.731 37.625 443.391 37.31 443.151 36.89C442.911 36.46 442.791 35.91 442.791 35.24V30.29C442.791 29.56 442.931 28.98 443.211 28.55C443.491 28.12 443.851 27.815 444.291 27.635C444.741 27.445 445.216 27.35 445.716 27.35C446.126 27.35 446.506 27.39 446.856 27.47C447.216 27.55 447.546 27.675 447.846 27.845L447.726 28.1ZM452.495 27.5C453.045 27.5 453.52 27.59 453.92 27.77C454.32 27.95 454.625 28.22 454.835 28.58C455.055 28.93 455.165 29.37 455.165 29.9C455.165 30.18 455.105 30.465 454.985 30.755C454.865 31.035 454.69 31.285 454.46 31.505C454.24 31.725 453.975 31.88 453.665 31.97C454.135 32.08 454.52 32.28 454.82 32.57C455.12 32.86 455.345 33.205 455.495 33.605C455.645 33.995 455.72 34.415 455.72 34.865C455.72 35.495 455.6 36.045 455.36 36.515C455.13 36.985 454.785 37.35 454.325 37.61C453.875 37.87 453.315 38 452.645 38H449.21V27.5H452.495ZM453.065 31.82C453.415 31.82 453.725 31.735 453.995 31.565C454.265 31.395 454.48 31.165 454.64 30.875C454.8 30.575 454.88 30.24 454.88 29.87C454.88 29.46 454.795 29.1 454.625 28.79C454.455 28.48 454.19 28.235 453.83 28.055C453.48 27.875 453.015 27.785 452.435 27.785H449.495V31.82H453.065ZM452.66 37.715C453.27 37.715 453.78 37.6 454.19 37.37C454.6 37.13 454.91 36.795 455.12 36.365C455.33 35.935 455.435 35.435 455.435 34.865C455.435 34.315 455.325 33.835 455.105 33.425C454.885 33.005 454.57 32.68 454.16 32.45C453.76 32.21 453.27 32.09 452.69 32.09H449.495V37.715H452.66ZM464.043 38H463.728L462.243 33.785H458.238L456.753 38H456.453L460.143 27.5H460.353L464.043 38ZM458.358 33.5H462.153L460.248 28.1L458.358 33.5ZM471.558 37.745H472.488V39.32H472.248L472.203 38.015H464.778L464.733 39.32H464.493V37.745H465.273L467.883 29.15C467.933 28.98 468.008 28.8 468.108 28.61C468.208 28.42 468.338 28.245 468.498 28.085C468.668 27.915 468.878 27.775 469.128 27.665C469.378 27.555 469.678 27.5 470.028 27.5H471.558V37.745ZM471.288 37.745V27.77H470.088C469.618 27.77 469.248 27.86 468.978 28.04C468.718 28.22 468.523 28.43 468.393 28.67C468.273 28.91 468.183 29.13 468.123 29.33L465.573 37.745H471.288ZM476.623 31.835C477.133 31.835 477.543 31.915 477.853 32.075C478.173 32.225 478.418 32.425 478.588 32.675C478.768 32.925 478.888 33.19 478.948 33.47C479.018 33.74 479.053 33.995 479.053 34.235V35.48C479.053 35.93 478.993 36.325 478.873 36.665C478.763 36.995 478.583 37.275 478.333 37.505C478.083 37.725 477.763 37.89 477.373 38C476.983 38.11 476.518 38.165 475.978 38.165C475.868 38.165 475.703 38.16 475.483 38.15C475.263 38.14 475.028 38.125 474.778 38.105C474.528 38.095 474.288 38.08 474.058 38.06C473.828 38.05 473.638 38.04 473.488 38.03C473.338 38.02 473.263 38.015 473.263 38.015V27.5H473.533V31.835H476.623ZM478.783 35.57V34.265C478.783 33.985 478.743 33.72 478.663 33.47C478.583 33.21 478.458 32.98 478.288 32.78C478.128 32.58 477.908 32.42 477.628 32.3C477.358 32.18 477.028 32.12 476.638 32.12H473.533V37.745C473.543 37.745 473.608 37.75 473.728 37.76C473.858 37.77 474.023 37.785 474.223 37.805C474.423 37.815 474.633 37.83 474.853 37.85C475.073 37.86 475.283 37.87 475.483 37.88C475.683 37.89 475.848 37.895 475.978 37.895C476.568 37.895 477.048 37.83 477.418 37.7C477.788 37.56 478.068 37.375 478.258 37.145C478.458 36.915 478.593 36.665 478.663 36.395C478.743 36.115 478.783 35.84 478.783 35.57ZM480.089 27.8V27.5H485.099V27.8H480.089ZM483.449 31.835C483.959 31.835 484.369 31.915 484.679 32.075C484.999 32.225 485.244 32.425 485.414 32.675C485.594 32.925 485.714 33.19 485.774 33.47C485.844 33.74 485.879 33.995 485.879 34.235V35.48C485.879 35.93 485.819 36.325 485.699 36.665C485.589 36.995 485.409 37.275 485.159 37.505C484.909 37.725 484.589 37.89 484.199 38C483.809 38.11 483.344 38.165 482.804 38.165C482.694 38.165 482.529 38.16 482.309 38.15C482.089 38.14 481.854 38.125 481.604 38.105C481.354 38.095 481.114 38.08 480.884 38.06C480.654 38.05 480.464 38.04 480.314 38.03C480.164 38.02 480.089 38.015 480.089 38.015V27.5H480.359V31.835H483.449ZM485.609 35.57V34.265C485.609 33.985 485.569 33.72 485.489 33.47C485.409 33.21 485.284 32.98 485.114 32.78C484.954 32.58 484.734 32.42 484.454 32.3C484.184 32.18 483.854 32.12 483.464 32.12H480.359V37.745C480.369 37.745 480.434 37.75 480.554 37.76C480.684 37.77 480.849 37.785 481.049 37.805C481.249 37.815 481.459 37.83 481.679 37.85C481.899 37.86 482.109 37.87 482.309 37.88C482.509 37.89 482.674 37.895 482.804 37.895C483.394 37.895 483.874 37.83 484.244 37.7C484.614 37.56 484.894 37.375 485.084 37.145C485.284 36.915 485.419 36.665 485.489 36.395C485.569 36.115 485.609 35.84 485.609 35.57ZM493.169 27.5H493.454L489.119 36.335C488.999 36.575 488.884 36.79 488.774 36.98C488.664 37.16 488.544 37.32 488.414 37.46C488.284 37.59 488.139 37.71 487.979 37.82C487.819 37.93 487.624 38.035 487.394 38.135L487.274 37.94C487.614 37.79 487.879 37.625 488.069 37.445C488.269 37.255 488.424 37.06 488.534 36.86C488.654 36.66 488.764 36.46 488.864 36.26L489.884 34.175L486.434 27.5H486.719L490.034 33.89L493.169 27.5Z" fill="#FFF5D1"/>
</svg>
