<svg width="236" height="345" viewBox="0 0 236 345" fill="none" xmlns="http://www.w3.org/2000/svg">
<path d="M40.8428 96.698C40.8254 96.698 40.9294 96.6633 41.1548 96.594C41.3801 96.5247 41.6574 96.4207 41.9868 96.282C42.3334 96.126 42.6801 95.9267 43.0268 95.684C43.3908 95.4413 43.6941 95.1467 43.9368 94.8H46.3028V113H43.9368V97.816C43.8154 97.92 43.6334 98.024 43.3908 98.128C43.1481 98.232 42.8968 98.3273 42.6368 98.414C42.3768 98.5007 42.1428 98.57 41.9348 98.622C41.7441 98.674 41.6141 98.7 41.5448 98.7L40.8428 96.698ZM51.9476 102.288H52.7536C54.0016 102.288 55.0676 102.531 55.9516 103.016C56.8356 103.484 57.5029 104.134 57.9536 104.966C58.4216 105.781 58.6556 106.725 58.6556 107.8C58.6556 108.424 58.5343 109.057 58.2916 109.698C58.0663 110.339 57.7196 110.937 57.2516 111.492C56.7836 112.029 56.2116 112.471 55.5356 112.818C54.8596 113.147 54.0709 113.312 53.1696 113.312C52.5109 113.312 51.8956 113.234 51.3236 113.078C50.7689 112.939 50.2749 112.775 49.8416 112.584C49.4083 112.393 49.0703 112.229 48.8276 112.09C48.6023 111.951 48.4896 111.891 48.4896 111.908L49.3476 109.828C49.3476 109.828 49.4343 109.889 49.6076 110.01C49.7983 110.114 50.0583 110.235 50.3876 110.374C50.7169 110.513 51.1069 110.643 51.5576 110.764C52.0256 110.868 52.5369 110.92 53.0916 110.92C53.5769 110.92 54.0103 110.842 54.3916 110.686C54.7729 110.513 55.1023 110.287 55.3796 110.01C55.6743 109.715 55.8996 109.377 56.0556 108.996C56.2116 108.597 56.2896 108.164 56.2896 107.696C56.2896 107.003 56.1336 106.422 55.8216 105.954C55.5096 105.486 55.0589 105.131 54.4696 104.888C53.8803 104.645 53.1609 104.524 52.3116 104.524H49.3736L50.3096 94.8H57.1996V97.192H52.4416L51.9476 102.288ZM63.389 109.256C63.389 109.62 63.2504 109.932 62.973 110.192C62.713 110.452 62.401 110.582 62.037 110.582C61.673 110.582 61.361 110.452 61.101 110.192C60.841 109.932 60.711 109.62 60.711 109.256C60.711 108.892 60.841 108.58 61.101 108.32C61.361 108.043 61.673 107.904 62.037 107.904C62.401 107.904 62.713 108.043 62.973 108.32C63.2504 108.58 63.389 108.892 63.389 109.256ZM63.389 102.964C63.389 103.328 63.2504 103.649 62.973 103.926C62.713 104.186 62.401 104.316 62.037 104.316C61.673 104.316 61.361 104.186 61.101 103.926C60.841 103.649 60.711 103.328 60.711 102.964C60.711 102.617 60.841 102.314 61.101 102.054C61.361 101.794 61.673 101.664 62.037 101.664C62.401 101.664 62.713 101.794 62.973 102.054C63.2504 102.314 63.389 102.617 63.389 102.964ZM65.3055 99.792C65.3055 98.024 65.7995 96.6807 66.7875 95.762C67.7755 94.826 69.1275 94.358 70.8435 94.358C72.5595 94.358 73.8942 94.8433 74.8475 95.814C75.8008 96.7847 76.2775 98.1193 76.2775 99.818V108.164C76.2775 109.221 76.0522 110.14 75.6015 110.92C75.1508 111.683 74.5095 112.272 73.6775 112.688C72.8628 113.087 71.9095 113.286 70.8175 113.286C69.7948 113.286 68.8675 113.095 68.0355 112.714C67.2035 112.333 66.5362 111.761 66.0335 110.998C65.5482 110.235 65.3055 109.291 65.3055 108.164V99.792ZM67.7235 107.8C67.7235 108.459 67.8448 109.013 68.0875 109.464C68.3475 109.915 68.7028 110.261 69.1535 110.504C69.6215 110.747 70.1675 110.868 70.7915 110.868C71.4328 110.868 71.9788 110.747 72.4295 110.504C72.8802 110.261 73.2355 109.915 73.4955 109.464C73.7555 108.996 73.8855 108.441 73.8855 107.8V100.26C73.8855 99.48 73.7728 98.8473 73.5475 98.362C73.3395 97.8593 73.0015 97.4867 72.5335 97.244C72.0828 96.984 71.5022 96.854 70.7915 96.854C70.1155 96.854 69.5522 96.9753 69.1015 97.218C68.6508 97.4607 68.3042 97.8333 68.0615 98.336C67.8362 98.8387 67.7235 99.48 67.7235 100.26V107.8ZM78.6356 99.792C78.6356 98.024 79.1296 96.6807 80.1176 95.762C81.1056 94.826 82.4576 94.358 84.1736 94.358C85.8896 94.358 87.2243 94.8433 88.1776 95.814C89.1309 96.7847 89.6076 98.1193 89.6076 99.818V108.164C89.6076 109.221 89.3823 110.14 88.9316 110.92C88.4809 111.683 87.8396 112.272 87.0076 112.688C86.1929 113.087 85.2396 113.286 84.1476 113.286C83.1249 113.286 82.1976 113.095 81.3656 112.714C80.5336 112.333 79.8663 111.761 79.3636 110.998C78.8783 110.235 78.6356 109.291 78.6356 108.164V99.792ZM81.0536 107.8C81.0536 108.459 81.1749 109.013 81.4176 109.464C81.6776 109.915 82.0329 110.261 82.4836 110.504C82.9516 110.747 83.4976 110.868 84.1216 110.868C84.7629 110.868 85.3089 110.747 85.7596 110.504C86.2103 110.261 86.5656 109.915 86.8256 109.464C87.0856 108.996 87.2156 108.441 87.2156 107.8V100.26C87.2156 99.48 87.1029 98.8473 86.8776 98.362C86.6696 97.8593 86.3316 97.4867 85.8636 97.244C85.4129 96.984 84.8323 96.854 84.1216 96.854C83.4456 96.854 82.8823 96.9753 82.4316 97.218C81.9809 97.4607 81.6343 97.8333 81.3916 98.336C81.1663 98.8387 81.0536 99.48 81.0536 100.26V107.8Z" fill="#3E2723"/>
<path d="M49.2232 118.348C48.8418 118.192 48.4172 118.071 47.9492 117.984C47.4985 117.897 47.0652 117.854 46.6492 117.854C45.9905 117.854 45.4272 117.949 44.9592 118.14C44.5085 118.331 44.1532 118.634 43.8932 119.05C43.6505 119.449 43.5292 119.977 43.5292 120.636V129.164C43.5292 129.823 43.6418 130.351 43.8672 130.75C44.0925 131.149 44.4132 131.443 44.8292 131.634C45.2625 131.807 45.7998 131.894 46.4412 131.894C46.9092 131.894 47.3772 131.851 47.8452 131.764C48.3305 131.677 48.7725 131.573 49.1712 131.452C49.5872 131.331 49.9078 131.244 50.1332 131.192L50.5232 133.402C49.7778 133.679 49.0498 133.896 48.3392 134.052C47.6285 134.208 46.9438 134.286 46.2852 134.286C45.2105 134.286 44.2832 134.104 43.5032 133.74C42.7405 133.359 42.1512 132.787 41.7352 132.024C41.3192 131.261 41.1112 130.325 41.1112 129.216V120.714C41.1112 119.553 41.3365 118.591 41.7872 117.828C42.2378 117.048 42.8358 116.467 43.5812 116.086C44.3438 115.705 45.2018 115.514 46.1552 115.514C46.7965 115.514 47.4292 115.583 48.0532 115.722C48.6772 115.861 49.2838 116.086 49.8732 116.398L49.2232 118.348ZM57.1735 120.766C58.1442 120.766 58.9502 120.948 59.5915 121.312C60.2502 121.676 60.7442 122.222 61.0735 122.95C61.4202 123.678 61.5935 124.579 61.5935 125.654V129.164C61.5935 130.741 61.1775 131.989 60.3455 132.908C59.5308 133.809 58.3608 134.26 56.8355 134.26C55.7955 134.26 54.9115 134.069 54.1835 133.688C53.4555 133.289 52.9008 132.717 52.5195 131.972C52.1555 131.209 51.9735 130.273 51.9735 129.164V121.572C51.9735 120.896 52.0775 120.229 52.2855 119.57C52.5108 118.894 52.8662 118.287 53.3515 117.75C53.7848 117.265 54.3395 116.849 55.0155 116.502C55.6915 116.138 56.4802 115.895 57.3815 115.774L57.9015 117.23C57.2775 117.369 56.7315 117.577 56.2635 117.854C55.7955 118.131 55.4228 118.443 55.1455 118.79C54.9028 119.119 54.7122 119.501 54.5735 119.934C54.4348 120.35 54.3655 120.853 54.3655 121.442V121.988C54.5562 121.763 54.7988 121.563 55.0935 121.39C55.4055 121.199 55.7348 121.052 56.0815 120.948C56.4455 120.827 56.8095 120.766 57.1735 120.766ZM56.8615 122.95C56.5668 122.95 56.2635 122.993 55.9515 123.08C55.6568 123.167 55.3882 123.305 55.1455 123.496C54.9202 123.687 54.7295 123.929 54.5735 124.224C54.4348 124.501 54.3655 124.831 54.3655 125.212V129.268C54.3655 129.84 54.4608 130.317 54.6515 130.698C54.8422 131.079 55.1195 131.374 55.4835 131.582C55.8475 131.79 56.2895 131.894 56.8095 131.894C57.3295 131.894 57.7628 131.79 58.1095 131.582C58.4735 131.374 58.7422 131.079 58.9155 130.698C59.1062 130.299 59.2015 129.823 59.2015 129.268V125.316C59.2015 124.813 59.1062 124.389 58.9155 124.042C58.7422 123.678 58.4822 123.409 58.1355 123.236C57.7888 123.045 57.3642 122.95 56.8615 122.95ZM72.7152 129.19C72.7152 130.715 72.3252 131.946 71.5452 132.882C70.7652 133.801 69.5865 134.26 68.0092 134.26C66.8825 134.26 65.9552 134.026 65.2272 133.558C64.4992 133.09 63.9619 132.475 63.6152 131.712C63.2685 130.932 63.0952 130.091 63.0952 129.19V125.758C63.0952 124.649 63.2859 123.721 63.6672 122.976C64.0485 122.231 64.6032 121.667 65.3312 121.286C66.0592 120.887 66.9432 120.688 67.9832 120.688C69.5085 120.688 70.6785 121.139 71.4932 122.04C72.3079 122.924 72.7152 124.163 72.7152 125.758V129.19ZM70.2712 125.654C70.2712 125.099 70.1845 124.631 70.0112 124.25C69.8552 123.851 69.6039 123.557 69.2572 123.366C68.9279 123.158 68.5032 123.054 67.9832 123.054C67.4459 123.054 66.9952 123.158 66.6312 123.366C66.2845 123.557 66.0159 123.843 65.8252 124.224C65.6345 124.605 65.5392 125.082 65.5392 125.654V129.424C65.5392 129.875 65.6259 130.299 65.7992 130.698C65.9899 131.079 66.2672 131.383 66.6312 131.608C66.9952 131.833 67.4459 131.946 67.9832 131.946C68.5205 131.946 68.9539 131.842 69.2832 131.634C69.6299 131.409 69.8812 131.105 70.0372 130.724C70.1932 130.343 70.2712 129.909 70.2712 129.424V125.654ZM84.1458 129.554C84.1458 130.611 83.9812 131.504 83.6518 132.232C83.3225 132.96 82.8285 133.515 82.1698 133.896C81.5285 134.26 80.7225 134.442 79.7518 134.442C79.4745 134.442 79.1972 134.416 78.9198 134.364C78.6425 134.312 78.3825 134.234 78.1398 134.13C77.9145 134.043 77.6978 133.939 77.4898 133.818C77.2818 133.679 77.0998 133.541 76.9438 133.402V139.59L74.5258 138.966V125.888C74.5258 124.241 74.9505 122.985 75.7998 122.118C76.6492 121.234 77.8538 120.792 79.4138 120.792C80.9218 120.792 82.0832 121.243 82.8978 122.144C83.7298 123.045 84.1458 124.293 84.1458 125.888V129.554ZM81.7538 125.784C81.7538 125.229 81.6585 124.761 81.4678 124.38C81.2945 123.981 81.0258 123.678 80.6618 123.47C80.3152 123.262 79.8818 123.158 79.3618 123.158C78.8418 123.158 78.3998 123.262 78.0358 123.47C77.6718 123.661 77.3945 123.955 77.2038 124.354C77.0305 124.735 76.9438 125.212 76.9438 125.784V130.23C76.9438 130.577 77.0218 130.88 77.1778 131.14C77.3512 131.4 77.5678 131.617 77.8278 131.79C78.0878 131.946 78.3738 132.067 78.6858 132.154C78.9978 132.241 79.3012 132.284 79.5958 132.284C80.0638 132.284 80.4538 132.189 80.7658 131.998C81.0952 131.807 81.3378 131.539 81.4938 131.192C81.6672 130.828 81.7538 130.395 81.7538 129.892V125.784ZM93.2623 121H100.412V123.366H95.7063V134H93.2623V121ZM111.004 129.19C111.004 130.715 110.614 131.946 109.834 132.882C109.054 133.801 107.876 134.26 106.298 134.26C105.172 134.26 104.244 134.026 103.516 133.558C102.788 133.09 102.251 132.475 101.904 131.712C101.558 130.932 101.384 130.091 101.384 129.19V125.758C101.384 124.649 101.575 123.721 101.956 122.976C102.338 122.231 102.892 121.667 103.62 121.286C104.348 120.887 105.232 120.688 106.272 120.688C107.798 120.688 108.968 121.139 109.782 122.04C110.597 122.924 111.004 124.163 111.004 125.758V129.19ZM108.56 125.654C108.56 125.099 108.474 124.631 108.3 124.25C108.144 123.851 107.893 123.557 107.546 123.366C107.217 123.158 106.792 123.054 106.272 123.054C105.735 123.054 105.284 123.158 104.92 123.366C104.574 123.557 104.305 123.843 104.114 124.224C103.924 124.605 103.828 125.082 103.828 125.654V129.424C103.828 129.875 103.915 130.299 104.088 130.698C104.279 131.079 104.556 131.383 104.92 131.608C105.284 131.833 105.735 131.946 106.272 131.946C106.81 131.946 107.243 131.842 107.572 131.634C107.919 131.409 108.17 131.105 108.326 130.724C108.482 130.343 108.56 129.909 108.56 129.424V125.654ZM120.459 123.444C120.095 123.271 119.696 123.132 119.263 123.028C118.83 122.907 118.405 122.837 117.989 122.82C117.382 122.785 116.854 122.872 116.403 123.08C115.97 123.288 115.64 123.6 115.415 124.016C115.19 124.432 115.068 124.943 115.051 125.55V129.346C115.051 129.831 115.112 130.256 115.233 130.62C115.372 130.984 115.571 131.279 115.831 131.504C116.091 131.729 116.403 131.903 116.767 132.024C117.148 132.128 117.573 132.18 118.041 132.18C118.353 132.18 118.665 132.171 118.977 132.154C119.289 132.119 119.566 132.085 119.809 132.05C120.069 131.998 120.268 131.955 120.407 131.92C120.546 131.885 120.615 131.868 120.615 131.868L121.057 133.87C120.52 134.009 119.956 134.121 119.367 134.208C118.795 134.295 118.223 134.329 117.651 134.312C116.663 134.277 115.788 134.095 115.025 133.766C114.28 133.419 113.699 132.899 113.283 132.206C112.867 131.495 112.659 130.585 112.659 129.476V125.68C112.659 124.692 112.841 123.825 113.205 123.08C113.586 122.335 114.141 121.745 114.869 121.312C115.614 120.879 116.524 120.679 117.599 120.714C118.171 120.714 118.743 120.792 119.315 120.948C119.904 121.104 120.468 121.303 121.005 121.546L120.459 123.444ZM127.603 130.282C127.603 130.733 127.655 131.123 127.759 131.452C127.881 131.764 128.063 132.033 128.305 132.258C128.548 132.466 128.869 132.639 129.267 132.778L128.305 134.468C127.803 134.329 127.352 134.147 126.953 133.922C126.572 133.679 126.251 133.393 125.991 133.064C125.731 132.735 125.532 132.362 125.393 131.946C125.272 131.513 125.211 131.045 125.211 130.542V123.236H122.533V120.974H130.437V123.236H127.603V130.282ZM134.426 130.256C134.426 130.568 134.47 130.837 134.556 131.062C134.66 131.287 134.79 131.478 134.946 131.634C135.12 131.79 135.328 131.911 135.57 131.998C135.813 132.067 136.082 132.102 136.376 132.102C136.896 132.102 137.46 132.007 138.066 131.816C138.673 131.608 139.262 131.357 139.834 131.062L140.718 133.09C140.112 133.471 139.418 133.775 138.638 134C137.858 134.225 137.104 134.338 136.376 134.338C135.752 134.338 135.172 134.26 134.634 134.104C134.097 133.965 133.629 133.749 133.23 133.454C132.832 133.142 132.52 132.743 132.294 132.258C132.086 131.773 131.982 131.183 131.982 130.49V125.16C131.982 124.172 132.19 123.349 132.606 122.69C133.04 122.031 133.62 121.537 134.348 121.208C135.076 120.879 135.891 120.714 136.792 120.714C137.728 120.714 138.534 120.879 139.21 121.208C139.904 121.537 140.432 122.023 140.796 122.664C141.178 123.305 141.368 124.111 141.368 125.082V128.93L134.426 129.294V130.256ZM138.976 125.55C138.976 125.082 138.898 124.649 138.742 124.25C138.586 123.851 138.352 123.531 138.04 123.288C137.728 123.045 137.304 122.941 136.766 122.976C136.194 122.976 135.735 123.089 135.388 123.314C135.042 123.522 134.79 123.825 134.634 124.224C134.496 124.605 134.426 125.073 134.426 125.628V127.058L138.976 126.798V125.55ZM150.957 116.632V116.814C150.957 117.334 150.819 117.819 150.541 118.27C150.281 118.721 149.926 119.085 149.475 119.362C149.042 119.622 148.557 119.752 148.019 119.752C147.482 119.752 146.979 119.622 146.511 119.362C146.061 119.085 145.697 118.721 145.419 118.27C145.159 117.819 145.029 117.334 145.029 116.814V116.632H146.823V116.814C146.823 117.126 146.936 117.403 147.161 117.646C147.404 117.871 147.69 117.984 148.019 117.984C148.349 117.984 148.626 117.871 148.851 117.646C149.077 117.403 149.189 117.126 149.189 116.814V116.632H150.957ZM145.601 121V129.736L150.255 121H152.803V134.026H150.359V125.316L145.705 134.026H143.209V121H145.601Z" fill="#3E2723"/>
<path d="M40.5176 160.698C40.5002 160.698 40.6042 160.663 40.8296 160.594C41.0549 160.525 41.3322 160.421 41.6616 160.282C42.0082 160.126 42.3549 159.927 42.7016 159.684C43.0656 159.441 43.3689 159.147 43.6116 158.8H45.9776V177H43.6116V161.816C43.4902 161.92 43.3082 162.024 43.0656 162.128C42.8229 162.232 42.5716 162.327 42.3116 162.414C42.0516 162.501 41.8176 162.57 41.6096 162.622C41.4189 162.674 41.2889 162.7 41.2196 162.7L40.5176 160.698ZM55.1722 160.984C54.2709 160.984 53.5342 161.183 52.9622 161.582C52.4076 161.981 51.9916 162.518 51.7142 163.194C51.4369 163.87 51.2982 164.624 51.2982 165.456V167.328C51.4889 167.085 51.7749 166.886 52.1562 166.73C52.5549 166.557 52.9622 166.435 53.3782 166.366C53.8116 166.279 54.1669 166.236 54.4442 166.236C55.4842 166.236 56.4202 166.479 57.2522 166.964C58.1016 167.432 58.7689 168.082 59.2542 168.914C59.7569 169.729 60.0082 170.656 60.0082 171.696C60.0082 172.459 59.8609 173.178 59.5662 173.854C59.2889 174.53 58.8989 175.128 58.3962 175.648C57.8936 176.151 57.3042 176.549 56.6282 176.844C55.9696 177.121 55.2502 177.26 54.4702 177.26C53.4476 177.26 52.5116 177.009 51.6622 176.506C50.8302 176.003 50.1629 175.336 49.6602 174.504C49.1749 173.655 48.9322 172.719 48.9322 171.696V164.988C48.9322 163.705 49.1922 162.605 49.7122 161.686C50.2496 160.767 50.9949 160.057 51.9482 159.554C52.9189 159.051 54.0369 158.8 55.3022 158.8H56.1862V160.984H55.1722ZM54.4702 168.576C54.0542 168.576 53.6469 168.663 53.2482 168.836C52.8669 168.992 52.5289 169.217 52.2342 169.512C51.9569 169.807 51.7316 170.145 51.5582 170.526C51.3849 170.89 51.2982 171.289 51.2982 171.722C51.2982 172.294 51.4456 172.823 51.7402 173.308C52.0349 173.793 52.4162 174.183 52.8842 174.478C53.3696 174.755 53.8982 174.894 54.4702 174.894C54.9036 174.894 55.3109 174.816 55.6922 174.66C56.0736 174.487 56.4029 174.253 56.6802 173.958C56.9749 173.663 57.2002 173.325 57.3562 172.944C57.5296 172.563 57.6162 172.155 57.6162 171.722C57.6162 171.289 57.5296 170.89 57.3562 170.526C57.2002 170.145 56.9749 169.807 56.6802 169.512C56.4029 169.217 56.0736 168.992 55.6922 168.836C55.3109 168.663 54.9036 168.576 54.4702 168.576ZM64.7142 173.256C64.7142 173.62 64.5756 173.932 64.2982 174.192C64.0382 174.452 63.7262 174.582 63.3622 174.582C62.9982 174.582 62.6862 174.452 62.4262 174.192C62.1662 173.932 62.0362 173.62 62.0362 173.256C62.0362 172.892 62.1662 172.58 62.4262 172.32C62.6862 172.043 62.9982 171.904 63.3622 171.904C63.7262 171.904 64.0382 172.043 64.2982 172.32C64.5756 172.58 64.7142 172.892 64.7142 173.256ZM64.7142 166.964C64.7142 167.328 64.5756 167.649 64.2982 167.926C64.0382 168.186 63.7262 168.316 63.3622 168.316C62.9982 168.316 62.6862 168.186 62.4262 167.926C62.1662 167.649 62.0362 167.328 62.0362 166.964C62.0362 166.617 62.1662 166.314 62.4262 166.054C62.6862 165.794 62.9982 165.664 63.3622 165.664C63.7262 165.664 64.0382 165.794 64.2982 166.054C64.5756 166.314 64.7142 166.617 64.7142 166.964ZM66.6307 163.792C66.6307 162.024 67.1247 160.681 68.1127 159.762C69.1007 158.826 70.4527 158.358 72.1687 158.358C73.8847 158.358 75.2194 158.843 76.1727 159.814C77.126 160.785 77.6027 162.119 77.6027 163.818V172.164C77.6027 173.221 77.3774 174.14 76.9267 174.92C76.476 175.683 75.8347 176.272 75.0027 176.688C74.188 177.087 73.2347 177.286 72.1427 177.286C71.12 177.286 70.1927 177.095 69.3607 176.714C68.5287 176.333 67.8614 175.761 67.3587 174.998C66.8734 174.235 66.6307 173.291 66.6307 172.164V163.792ZM69.0487 171.8C69.0487 172.459 69.17 173.013 69.4127 173.464C69.6727 173.915 70.028 174.261 70.4787 174.504C70.9467 174.747 71.4927 174.868 72.1167 174.868C72.758 174.868 73.304 174.747 73.7547 174.504C74.2054 174.261 74.5607 173.915 74.8207 173.464C75.0807 172.996 75.2107 172.441 75.2107 171.8V164.26C75.2107 163.48 75.098 162.847 74.8727 162.362C74.6647 161.859 74.3267 161.487 73.8587 161.244C73.408 160.984 72.8274 160.854 72.1167 160.854C71.4407 160.854 70.8774 160.975 70.4267 161.218C69.976 161.461 69.6294 161.833 69.3867 162.336C69.1614 162.839 69.0487 163.48 69.0487 164.26V171.8ZM79.9608 163.792C79.9608 162.024 80.4548 160.681 81.4428 159.762C82.4308 158.826 83.7828 158.358 85.4988 158.358C87.2148 158.358 88.5494 158.843 89.5028 159.814C90.4561 160.785 90.9328 162.119 90.9328 163.818V172.164C90.9328 173.221 90.7074 174.14 90.2568 174.92C89.8061 175.683 89.1648 176.272 88.3328 176.688C87.5181 177.087 86.5648 177.286 85.4728 177.286C84.4501 177.286 83.5228 177.095 82.6908 176.714C81.8588 176.333 81.1914 175.761 80.6888 174.998C80.2034 174.235 79.9608 173.291 79.9608 172.164V163.792ZM82.3788 171.8C82.3788 172.459 82.5001 173.013 82.7428 173.464C83.0028 173.915 83.3581 174.261 83.8088 174.504C84.2768 174.747 84.8228 174.868 85.4468 174.868C86.0881 174.868 86.6341 174.747 87.0848 174.504C87.5354 174.261 87.8908 173.915 88.1508 173.464C88.4108 172.996 88.5408 172.441 88.5408 171.8V164.26C88.5408 163.48 88.4281 162.847 88.2028 162.362C87.9948 161.859 87.6568 161.487 87.1888 161.244C86.7381 160.984 86.1574 160.854 85.4468 160.854C84.7708 160.854 84.2074 160.975 83.7568 161.218C83.3061 161.461 82.9594 161.833 82.7168 162.336C82.4914 162.839 82.3788 163.48 82.3788 164.26V171.8Z" fill="#3E2723"/>
<path d="M52.5976 195.608H54.9636V201.068H52.9876L52.5196 198H41.3916V179.8H43.8096V195.608H50.2056V179.8H52.5976V195.608ZM58.8873 194.256C58.8873 194.568 58.9307 194.837 59.0173 195.062C59.1213 195.287 59.2513 195.478 59.4073 195.634C59.5807 195.79 59.7887 195.911 60.0313 195.998C60.274 196.067 60.5427 196.102 60.8373 196.102C61.3573 196.102 61.9207 196.007 62.5273 195.816C63.134 195.608 63.7233 195.357 64.2953 195.062L65.1793 197.09C64.5727 197.471 63.8793 197.775 63.0993 198C62.3193 198.225 61.5653 198.338 60.8373 198.338C60.2133 198.338 59.6327 198.26 59.0953 198.104C58.558 197.965 58.09 197.749 57.6913 197.454C57.2927 197.142 56.9807 196.743 56.7553 196.258C56.5473 195.773 56.4433 195.183 56.4433 194.49V189.16C56.4433 188.172 56.6513 187.349 57.0673 186.69C57.5007 186.031 58.0813 185.537 58.8093 185.208C59.5373 184.879 60.352 184.714 61.2533 184.714C62.1893 184.714 62.9953 184.879 63.6713 185.208C64.3647 185.537 64.8933 186.023 65.2573 186.664C65.6387 187.305 65.8293 188.111 65.8293 189.082V192.93L58.8873 193.294V194.256ZM63.4373 189.55C63.4373 189.082 63.3593 188.649 63.2033 188.25C63.0473 187.851 62.8133 187.531 62.5013 187.288C62.1893 187.045 61.7647 186.941 61.2273 186.976C60.6553 186.976 60.196 187.089 59.8493 187.314C59.5027 187.522 59.2513 187.825 59.0953 188.224C58.9567 188.605 58.8873 189.073 58.8873 189.628V191.058L63.4373 190.798V189.55ZM77.2123 193.554C77.2123 194.611 77.0476 195.504 76.7183 196.232C76.3889 196.96 75.8949 197.515 75.2363 197.896C74.5949 198.26 73.7889 198.442 72.8183 198.442C72.5409 198.442 72.2636 198.416 71.9863 198.364C71.7089 198.312 71.4489 198.234 71.2063 198.13C70.9809 198.043 70.7643 197.939 70.5563 197.818C70.3483 197.679 70.1663 197.541 70.0103 197.402V203.59L67.5923 202.966V189.888C67.5923 188.241 68.0169 186.985 68.8663 186.118C69.7156 185.234 70.9203 184.792 72.4803 184.792C73.9883 184.792 75.1496 185.243 75.9643 186.144C76.7963 187.045 77.2123 188.293 77.2123 189.888V193.554ZM74.8203 189.784C74.8203 189.229 74.7249 188.761 74.5343 188.38C74.3609 187.981 74.0923 187.678 73.7283 187.47C73.3816 187.262 72.9483 187.158 72.4283 187.158C71.9083 187.158 71.4663 187.262 71.1023 187.47C70.7383 187.661 70.4609 187.955 70.2703 188.354C70.0969 188.735 70.0103 189.212 70.0103 189.784V194.23C70.0103 194.577 70.0883 194.88 70.2443 195.14C70.4176 195.4 70.6343 195.617 70.8943 195.79C71.1543 195.946 71.4403 196.067 71.7523 196.154C72.0643 196.241 72.3676 196.284 72.6623 196.284C73.1303 196.284 73.5203 196.189 73.8323 195.998C74.1616 195.807 74.4043 195.539 74.5603 195.192C74.7336 194.828 74.8203 194.395 74.8203 193.892V189.784ZM81.4596 194.256C81.4596 194.568 81.5029 194.837 81.5896 195.062C81.6936 195.287 81.8236 195.478 81.9796 195.634C82.1529 195.79 82.3609 195.911 82.6036 195.998C82.8463 196.067 83.1149 196.102 83.4096 196.102C83.9296 196.102 84.4929 196.007 85.0996 195.816C85.7063 195.608 86.2956 195.357 86.8676 195.062L87.7516 197.09C87.1449 197.471 86.4516 197.775 85.6716 198C84.8916 198.225 84.1376 198.338 83.4096 198.338C82.7856 198.338 82.2049 198.26 81.6676 198.104C81.1303 197.965 80.6623 197.749 80.2636 197.454C79.8649 197.142 79.5529 196.743 79.3276 196.258C79.1196 195.773 79.0156 195.183 79.0156 194.49V189.16C79.0156 188.172 79.2236 187.349 79.6396 186.69C80.0729 186.031 80.6536 185.537 81.3816 185.208C82.1096 184.879 82.9243 184.714 83.8256 184.714C84.7616 184.714 85.5676 184.879 86.2436 185.208C86.9369 185.537 87.4656 186.023 87.8296 186.664C88.2109 187.305 88.4016 188.111 88.4016 189.082V192.93L81.4596 193.294V194.256ZM86.0096 189.55C86.0096 189.082 85.9316 188.649 85.7756 188.25C85.6196 187.851 85.3856 187.531 85.0736 187.288C84.7616 187.045 84.3369 186.941 83.7996 186.976C83.2276 186.976 82.7683 187.089 82.4216 187.314C82.0749 187.522 81.8236 187.825 81.6676 188.224C81.5289 188.605 81.4596 189.073 81.4596 189.628V191.058L86.0096 190.798V189.55ZM100.799 185H103.529V198.026H101.137V189.94L97.8605 198.026H95.9105L92.5825 189.914V198.026H90.1645V185H92.9465L96.8725 194.854L100.799 185ZM114.887 193.19C114.887 194.715 114.497 195.946 113.717 196.882C112.937 197.801 111.758 198.26 110.181 198.26C109.054 198.26 108.127 198.026 107.399 197.558C106.671 197.09 106.134 196.475 105.787 195.712C105.44 194.932 105.267 194.091 105.267 193.19V189.758C105.267 188.649 105.458 187.721 105.839 186.976C106.22 186.231 106.775 185.667 107.503 185.286C108.231 184.887 109.115 184.688 110.155 184.688C111.68 184.688 112.85 185.139 113.665 186.04C114.48 186.924 114.887 188.163 114.887 189.758V193.19ZM112.443 189.654C112.443 189.099 112.356 188.631 112.183 188.25C112.027 187.851 111.776 187.557 111.429 187.366C111.1 187.158 110.675 187.054 110.155 187.054C109.618 187.054 109.167 187.158 108.803 187.366C108.456 187.557 108.188 187.843 107.997 188.224C107.806 188.605 107.711 189.082 107.711 189.654V193.424C107.711 193.875 107.798 194.299 107.971 194.698C108.162 195.079 108.439 195.383 108.803 195.608C109.167 195.833 109.618 195.946 110.155 195.946C110.692 195.946 111.126 195.842 111.455 195.634C111.802 195.409 112.053 195.105 112.209 194.724C112.365 194.343 112.443 193.909 112.443 193.424V189.654ZM123.926 189.758V185H126.318V198H123.926V192.046H119.142V198H116.724V185H119.142V189.758H123.926ZM130.695 185V193.736L135.349 185H137.897V198.026H135.453V189.316L130.799 198.026H128.303V185H130.695ZM144.145 184.714C144.527 184.714 144.951 184.723 145.419 184.74C145.887 184.757 146.364 184.783 146.849 184.818C147.335 184.835 147.777 184.861 148.175 184.896C148.574 184.931 148.895 184.957 149.137 184.974C149.397 184.991 149.527 185 149.527 185V198H147.135V192.878H144.821C144.752 192.878 144.665 192.878 144.561 192.878C144.475 192.878 144.388 192.878 144.301 192.878C144.215 192.878 144.128 192.878 144.041 192.878L142.273 198H139.699L141.779 192.436C141.363 192.245 140.982 191.994 140.635 191.682C140.289 191.353 140.011 190.954 139.803 190.486C139.595 190.001 139.491 189.463 139.491 188.874C139.491 188.181 139.656 187.522 139.985 186.898C140.332 186.257 140.852 185.737 141.545 185.338C142.239 184.922 143.105 184.714 144.145 184.714ZM143.963 190.59H147.135V187.21C146.997 187.21 146.823 187.21 146.615 187.21C146.425 187.193 146.208 187.184 145.965 187.184C145.74 187.167 145.506 187.158 145.263 187.158C145.021 187.141 144.787 187.132 144.561 187.132C143.799 187.132 143.175 187.279 142.689 187.574C142.221 187.869 141.987 188.311 141.987 188.9C141.987 189.212 142.039 189.481 142.143 189.706C142.247 189.914 142.395 190.087 142.585 190.226C142.776 190.365 142.984 190.46 143.209 190.512C143.452 190.564 143.703 190.59 143.963 190.59Z" fill="#3E2723"/>
<path d="M40.6142 224.698C40.5969 224.698 40.7009 224.663 40.9262 224.594C41.1516 224.525 41.4289 224.421 41.7582 224.282C42.1049 224.126 42.4516 223.927 42.7982 223.684C43.1622 223.441 43.4656 223.147 43.7082 222.8H46.0742V241H43.7082V225.816C43.5869 225.92 43.4049 226.024 43.1622 226.128C42.9196 226.232 42.6682 226.327 42.4082 226.414C42.1482 226.501 41.9142 226.57 41.7062 226.622C41.5156 226.674 41.3856 226.7 41.3162 226.7L40.6142 224.698ZM55.2689 224.984C54.3676 224.984 53.6309 225.183 53.0589 225.582C52.5042 225.981 52.0882 226.518 51.8109 227.194C51.5336 227.87 51.3949 228.624 51.3949 229.456V231.328C51.5856 231.085 51.8716 230.886 52.2529 230.73C52.6516 230.557 53.0589 230.435 53.4749 230.366C53.9082 230.279 54.2636 230.236 54.5409 230.236C55.5809 230.236 56.5169 230.479 57.3489 230.964C58.1982 231.432 58.8656 232.082 59.3509 232.914C59.8536 233.729 60.1049 234.656 60.1049 235.696C60.1049 236.459 59.9576 237.178 59.6629 237.854C59.3856 238.53 58.9956 239.128 58.4929 239.648C57.9902 240.151 57.4009 240.549 56.7249 240.844C56.0662 241.121 55.3469 241.26 54.5669 241.26C53.5442 241.26 52.6082 241.009 51.7589 240.506C50.9269 240.003 50.2596 239.336 49.7569 238.504C49.2716 237.655 49.0289 236.719 49.0289 235.696V228.988C49.0289 227.705 49.2889 226.605 49.8089 225.686C50.3462 224.767 51.0916 224.057 52.0449 223.554C53.0156 223.051 54.1336 222.8 55.3989 222.8H56.2829V224.984H55.2689ZM54.5669 232.576C54.1509 232.576 53.7436 232.663 53.3449 232.836C52.9636 232.992 52.6256 233.217 52.3309 233.512C52.0536 233.807 51.8282 234.145 51.6549 234.526C51.4816 234.89 51.3949 235.289 51.3949 235.722C51.3949 236.294 51.5422 236.823 51.8369 237.308C52.1316 237.793 52.5129 238.183 52.9809 238.478C53.4662 238.755 53.9949 238.894 54.5669 238.894C55.0002 238.894 55.4076 238.816 55.7889 238.66C56.1702 238.487 56.4996 238.253 56.7769 237.958C57.0716 237.663 57.2969 237.325 57.4529 236.944C57.6262 236.563 57.7129 236.155 57.7129 235.722C57.7129 235.289 57.6262 234.89 57.4529 234.526C57.2969 234.145 57.0716 233.807 56.7769 233.512C56.4996 233.217 56.1702 232.992 55.7889 232.836C55.4076 232.663 55.0002 232.576 54.5669 232.576ZM64.8109 237.256C64.8109 237.62 64.6722 237.932 64.3949 238.192C64.1349 238.452 63.8229 238.582 63.4589 238.582C63.0949 238.582 62.7829 238.452 62.5229 238.192C62.2629 237.932 62.1329 237.62 62.1329 237.256C62.1329 236.892 62.2629 236.58 62.5229 236.32C62.7829 236.043 63.0949 235.904 63.4589 235.904C63.8229 235.904 64.1349 236.043 64.3949 236.32C64.6722 236.58 64.8109 236.892 64.8109 237.256ZM64.8109 230.964C64.8109 231.328 64.6722 231.649 64.3949 231.926C64.1349 232.186 63.8229 232.316 63.4589 232.316C63.0949 232.316 62.7829 232.186 62.5229 231.926C62.2629 231.649 62.1329 231.328 62.1329 230.964C62.1329 230.617 62.2629 230.314 62.5229 230.054C62.7829 229.794 63.0949 229.664 63.4589 229.664C63.8229 229.664 64.1349 229.794 64.3949 230.054C64.6722 230.314 64.8109 230.617 64.8109 230.964ZM71.8234 230.366C72.7767 230.453 73.6174 230.747 74.3454 231.25C75.0907 231.735 75.6627 232.368 76.0614 233.148C76.4774 233.928 76.6854 234.803 76.6854 235.774C76.6854 236.554 76.5467 237.282 76.2694 237.958C75.992 238.617 75.5934 239.197 75.0734 239.7C74.5707 240.203 73.9814 240.601 73.3054 240.896C72.6467 241.173 71.9274 241.312 71.1474 241.312C70.2287 241.312 69.362 241.13 68.5474 240.766C67.75 240.402 67.022 239.83 66.3634 239.05L67.9754 237.412C68.374 237.897 68.842 238.279 69.3794 238.556C69.9167 238.816 70.4974 238.946 71.1214 238.946C71.7454 238.946 72.2914 238.816 72.7594 238.556C73.2447 238.279 73.6174 237.897 73.8774 237.412C74.1547 236.927 74.2934 236.381 74.2934 235.774C74.2934 235.063 74.1027 234.474 73.7214 234.006C73.3574 233.521 72.8807 233.165 72.2914 232.94C71.7194 232.715 71.1127 232.602 70.4714 232.602H67.6114L72.5514 225.192H67.6894V222.8H75.2554V225.14L71.7454 230.314L71.8234 230.366ZM78.8641 227.792C78.8641 226.024 79.3581 224.681 80.3461 223.762C81.3341 222.826 82.6861 222.358 84.4021 222.358C86.1181 222.358 87.4528 222.843 88.4061 223.814C89.3594 224.785 89.8361 226.119 89.8361 227.818V236.164C89.8361 237.221 89.6108 238.14 89.1601 238.92C88.7094 239.683 88.0681 240.272 87.2361 240.688C86.4214 241.087 85.4681 241.286 84.3761 241.286C83.3534 241.286 82.4261 241.095 81.5941 240.714C80.7621 240.333 80.0948 239.761 79.5921 238.998C79.1068 238.235 78.8641 237.291 78.8641 236.164V227.792ZM81.2821 235.8C81.2821 236.459 81.4034 237.013 81.6461 237.464C81.9061 237.915 82.2614 238.261 82.7121 238.504C83.1801 238.747 83.7261 238.868 84.3501 238.868C84.9914 238.868 85.5374 238.747 85.9881 238.504C86.4388 238.261 86.7941 237.915 87.0541 237.464C87.3141 236.996 87.4441 236.441 87.4441 235.8V228.26C87.4441 227.48 87.3314 226.847 87.1061 226.362C86.8981 225.859 86.5601 225.487 86.0921 225.244C85.6414 224.984 85.0608 224.854 84.3501 224.854C83.6741 224.854 83.1108 224.975 82.6601 225.218C82.2094 225.461 81.8628 225.833 81.6201 226.336C81.3948 226.839 81.2821 227.48 81.2821 228.26V235.8Z" fill="#3E2723"/>
<path d="M41.3479 245.166V242.8H50.0319V245.166H41.3479ZM47.5099 250.314C48.0125 250.314 48.4892 250.392 48.9399 250.548C49.3905 250.687 49.7979 250.921 50.1619 251.25C50.5432 251.562 50.8379 251.969 51.0459 252.472C51.2712 252.975 51.3839 253.564 51.3839 254.24V256.84C51.3839 257.724 51.2365 258.452 50.9419 259.024C50.6645 259.596 50.2745 260.055 49.7719 260.402C49.2692 260.731 48.6799 260.957 48.0039 261.078C47.3279 261.217 46.5999 261.286 45.8199 261.286C45.5079 261.286 45.1525 261.277 44.7539 261.26C44.3552 261.243 43.9565 261.217 43.5579 261.182C43.1592 261.147 42.7952 261.113 42.4659 261.078C42.1365 261.061 41.8679 261.043 41.6599 261.026C41.4519 261.009 41.3479 261 41.3479 261V242.8H43.7659V250.314H47.5099ZM48.9659 256.476V254.5C48.9659 254.136 48.9139 253.841 48.8099 253.616C48.7232 253.391 48.5932 253.217 48.4199 253.096C48.2639 252.957 48.0819 252.862 47.8739 252.81C47.6832 252.758 47.4839 252.732 47.2759 252.732H43.7659V258.972C43.7832 258.972 43.8352 258.981 43.9219 258.998C44.0085 258.998 44.1125 259.007 44.2339 259.024C44.3725 259.024 44.5199 259.033 44.6759 259.05C44.8492 259.067 45.0225 259.085 45.1959 259.102C45.3692 259.102 45.5425 259.102 45.7159 259.102C46.3399 259.102 46.8599 259.059 47.2759 258.972C47.6919 258.868 48.0212 258.712 48.2639 258.504C48.5239 258.296 48.7059 258.027 48.8099 257.698C48.9139 257.369 48.9659 256.961 48.9659 256.476ZM62.6941 248.338C62.6421 248.702 62.5987 249.101 62.5641 249.534C62.5467 249.95 62.5381 250.366 62.5381 250.782V260.87C62.5381 260.87 62.4167 260.879 62.1741 260.896C61.9487 260.913 61.6454 260.939 61.2641 260.974C60.9001 260.991 60.4927 261.009 60.0421 261.026C59.5914 261.043 59.1407 261.061 58.6901 261.078C58.2567 261.095 57.8754 261.104 57.5461 261.104C56.8007 261.104 56.1421 261.009 55.5701 260.818C54.9981 260.627 54.5214 260.341 54.1401 259.96C53.7761 259.579 53.4901 259.102 53.2821 258.53C53.0914 257.958 52.9961 257.308 52.9961 256.58V251.77C52.9961 251.007 53.0914 250.375 53.2821 249.872C53.4901 249.369 53.7674 248.962 54.1141 248.65C54.4781 248.338 54.8854 248.121 55.3361 248C55.7867 247.861 56.2634 247.792 56.7661 247.792C57.2687 247.792 57.7454 247.835 58.1961 247.922C58.6467 247.991 59.0541 248.087 59.4181 248.208C59.7821 248.312 60.0854 248.416 60.3281 248.52C60.3281 248.52 60.3541 248.433 60.4061 248.26C60.4581 248.069 60.5187 247.887 60.5881 247.714L62.6941 248.338ZM55.4141 256.658C55.4141 257.247 55.4921 257.724 55.6481 258.088C55.8214 258.435 56.0814 258.686 56.4281 258.842C56.7747 258.998 57.1994 259.076 57.7021 259.076C57.9447 259.076 58.1874 259.076 58.4301 259.076C58.6727 259.059 58.8981 259.05 59.1061 259.05C59.3141 259.033 59.5047 259.015 59.6781 258.998C59.8514 258.981 59.9901 258.963 60.0941 258.946V250.704C59.8687 250.583 59.6261 250.487 59.3661 250.418C59.1061 250.331 58.8461 250.253 58.5861 250.184C58.3261 250.115 58.0747 250.071 57.8321 250.054C57.6067 250.019 57.4074 250.002 57.2341 250.002C57.0781 250.002 56.8961 250.019 56.6881 250.054C56.4801 250.071 56.2807 250.141 56.0901 250.262C55.8994 250.383 55.7347 250.574 55.5961 250.834C55.4747 251.077 55.4141 251.415 55.4141 251.848V256.658ZM72.0331 252.758V248H74.4251V261H72.0331V255.046H67.2491V261H64.8311V248H67.2491V252.758H72.0331ZM84.3405 257.204C84.6352 257.62 84.9125 257.958 85.1725 258.218C85.4325 258.461 85.6752 258.634 85.9005 258.738C86.1432 258.842 86.3772 258.894 86.6025 258.894H86.6805V261H86.0305C85.3892 261 84.8345 260.861 84.3665 260.584C83.8985 260.307 83.4738 259.943 83.0925 259.492C82.7285 259.041 82.3732 258.582 82.0265 258.114L79.7905 254.994L78.8285 255.878V261H76.4105V247.688L78.8285 248V252.836L83.3005 248H86.2905L81.5065 253.226L84.3405 257.204ZM90.6823 257.256C90.6823 257.568 90.7256 257.837 90.8123 258.062C90.9163 258.287 91.0463 258.478 91.2023 258.634C91.3756 258.79 91.5836 258.911 91.8263 258.998C92.0689 259.067 92.3376 259.102 92.6323 259.102C93.1523 259.102 93.7156 259.007 94.3223 258.816C94.9289 258.608 95.5183 258.357 96.0903 258.062L96.9743 260.09C96.3676 260.471 95.6743 260.775 94.8943 261C94.1143 261.225 93.3603 261.338 92.6323 261.338C92.0083 261.338 91.4276 261.26 90.8903 261.104C90.3529 260.965 89.8849 260.749 89.4863 260.454C89.0876 260.142 88.7756 259.743 88.5503 259.258C88.3423 258.773 88.2383 258.183 88.2383 257.49V252.16C88.2383 251.172 88.4463 250.349 88.8623 249.69C89.2956 249.031 89.8763 248.537 90.6043 248.208C91.3323 247.879 92.1469 247.714 93.0483 247.714C93.9843 247.714 94.7903 247.879 95.4663 248.208C96.1596 248.537 96.6883 249.023 97.0523 249.664C97.4336 250.305 97.6243 251.111 97.6243 252.082V255.93L90.6823 256.294V257.256ZM95.2323 252.55C95.2323 252.082 95.1543 251.649 94.9983 251.25C94.8423 250.851 94.6083 250.531 94.2963 250.288C93.9843 250.045 93.5596 249.941 93.0223 249.976C92.4503 249.976 91.9909 250.089 91.6443 250.314C91.2976 250.522 91.0463 250.825 90.8903 251.224C90.7516 251.605 90.6823 252.073 90.6823 252.628V254.058L95.2323 253.798V252.55ZM104.197 257.282C104.197 257.733 104.249 258.123 104.353 258.452C104.475 258.764 104.657 259.033 104.899 259.258C105.142 259.466 105.463 259.639 105.861 259.778L104.899 261.468C104.397 261.329 103.946 261.147 103.547 260.922C103.166 260.679 102.845 260.393 102.585 260.064C102.325 259.735 102.126 259.362 101.987 258.946C101.866 258.513 101.805 258.045 101.805 257.542V250.236H99.1272V247.974H107.031V250.236H104.197V257.282Z" fill="#3E2723"/>
<path d="M41.4392 288.66C41.6992 287.984 42.0545 287.421 42.5052 286.97C42.9558 286.502 43.4758 286.147 44.0652 285.904C44.6718 285.661 45.3045 285.54 45.9632 285.54C46.7258 285.54 47.4538 285.705 48.1472 286.034C48.8405 286.363 49.4038 286.849 49.8372 287.49C50.2878 288.114 50.5132 288.903 50.5132 289.856C50.5132 290.567 50.3745 291.26 50.0972 291.936C49.8372 292.595 49.4472 293.323 48.9272 294.12L43.8312 301.79H50.5652V304H41.0492V301.764L47.0032 292.976C47.3498 292.456 47.6012 292.031 47.7572 291.702C47.9132 291.373 48.0085 291.087 48.0432 290.844C48.0952 290.601 48.1212 290.359 48.1212 290.116C48.1212 289.613 48.0172 289.197 47.8092 288.868C47.6012 288.539 47.3325 288.287 47.0032 288.114C46.6738 287.941 46.3185 287.854 45.9372 287.854C45.5905 287.854 45.2525 287.923 44.9232 288.062C44.6112 288.201 44.3252 288.4 44.0652 288.66C43.8225 288.92 43.6318 289.249 43.4932 289.648L41.4392 288.66ZM57.9542 293.366C58.9076 293.453 59.7482 293.747 60.4762 294.25C61.2216 294.735 61.7936 295.368 62.1922 296.148C62.6082 296.928 62.8162 297.803 62.8162 298.774C62.8162 299.554 62.6776 300.282 62.4002 300.958C62.1229 301.617 61.7242 302.197 61.2042 302.7C60.7016 303.203 60.1122 303.601 59.4362 303.896C58.7776 304.173 58.0582 304.312 57.2782 304.312C56.3596 304.312 55.4929 304.13 54.6782 303.766C53.8809 303.402 53.1529 302.83 52.4942 302.05L54.1062 300.412C54.5049 300.897 54.9729 301.279 55.5102 301.556C56.0476 301.816 56.6282 301.946 57.2522 301.946C57.8762 301.946 58.4222 301.816 58.8902 301.556C59.3756 301.279 59.7482 300.897 60.0082 300.412C60.2856 299.927 60.4242 299.381 60.4242 298.774C60.4242 298.063 60.2336 297.474 59.8522 297.006C59.4882 296.521 59.0116 296.165 58.4222 295.94C57.8502 295.715 57.2436 295.602 56.6022 295.602H53.7422L58.6822 288.192H53.8202V285.8H61.3862V288.14L57.8762 293.314L57.9542 293.366ZM67.5726 300.256C67.5726 300.62 67.434 300.932 67.1566 301.192C66.8966 301.452 66.5846 301.582 66.2206 301.582C65.8566 301.582 65.5446 301.452 65.2846 301.192C65.0246 300.932 64.8946 300.62 64.8946 300.256C64.8946 299.892 65.0246 299.58 65.2846 299.32C65.5446 299.043 65.8566 298.904 66.2206 298.904C66.5846 298.904 66.8966 299.043 67.1566 299.32C67.434 299.58 67.5726 299.892 67.5726 300.256ZM67.5726 293.964C67.5726 294.328 67.434 294.649 67.1566 294.926C66.8966 295.186 66.5846 295.316 66.2206 295.316C65.8566 295.316 65.5446 295.186 65.2846 294.926C65.0246 294.649 64.8946 294.328 64.8946 293.964C64.8946 293.617 65.0246 293.314 65.2846 293.054C65.5446 292.794 65.8566 292.664 66.2206 292.664C66.5846 292.664 66.8966 292.794 67.1566 293.054C67.434 293.314 67.5726 293.617 67.5726 293.964ZM69.4891 290.792C69.4891 289.024 69.9831 287.681 70.9711 286.762C71.9591 285.826 73.3111 285.358 75.0271 285.358C76.7431 285.358 78.0778 285.843 79.0311 286.814C79.9844 287.785 80.4611 289.119 80.4611 290.818V299.164C80.4611 300.221 80.2358 301.14 79.7851 301.92C79.3344 302.683 78.6931 303.272 77.8611 303.688C77.0464 304.087 76.0931 304.286 75.0011 304.286C73.9784 304.286 73.0511 304.095 72.2191 303.714C71.3871 303.333 70.7198 302.761 70.2171 301.998C69.7318 301.235 69.4891 300.291 69.4891 299.164V290.792ZM71.9071 298.8C71.9071 299.459 72.0284 300.013 72.2711 300.464C72.5311 300.915 72.8864 301.261 73.3371 301.504C73.8051 301.747 74.3511 301.868 74.9751 301.868C75.6164 301.868 76.1624 301.747 76.6131 301.504C77.0638 301.261 77.4191 300.915 77.6791 300.464C77.9391 299.996 78.0691 299.441 78.0691 298.8V291.26C78.0691 290.48 77.9564 289.847 77.7311 289.362C77.5231 288.859 77.1851 288.487 76.7171 288.244C76.2664 287.984 75.6858 287.854 74.9751 287.854C74.2991 287.854 73.7358 287.975 73.2851 288.218C72.8344 288.461 72.4878 288.833 72.2451 289.336C72.0198 289.839 71.9071 290.48 71.9071 291.26V298.8ZM82.8192 290.792C82.8192 289.024 83.3132 287.681 84.3012 286.762C85.2892 285.826 86.6412 285.358 88.3572 285.358C90.0732 285.358 91.4078 285.843 92.3612 286.814C93.3145 287.785 93.7912 289.119 93.7912 290.818V299.164C93.7912 300.221 93.5658 301.14 93.1152 301.92C92.6645 302.683 92.0232 303.272 91.1912 303.688C90.3765 304.087 89.4232 304.286 88.3312 304.286C87.3085 304.286 86.3812 304.095 85.5492 303.714C84.7172 303.333 84.0498 302.761 83.5472 301.998C83.0618 301.235 82.8192 300.291 82.8192 299.164V290.792ZM85.2372 298.8C85.2372 299.459 85.3585 300.013 85.6012 300.464C85.8612 300.915 86.2165 301.261 86.6672 301.504C87.1352 301.747 87.6812 301.868 88.3052 301.868C88.9465 301.868 89.4925 301.747 89.9432 301.504C90.3938 301.261 90.7492 300.915 91.0092 300.464C91.2692 299.996 91.3992 299.441 91.3992 298.8V291.26C91.3992 290.48 91.2865 289.847 91.0612 289.362C90.8532 288.859 90.5152 288.487 90.0472 288.244C89.5965 287.984 89.0158 287.854 88.3052 287.854C87.6292 287.854 87.0658 287.975 86.6152 288.218C86.1645 288.461 85.8178 288.833 85.5752 289.336C85.3498 289.839 85.2372 290.48 85.2372 291.26V298.8Z" fill="#3E2723"/>
<path d="M43.0631 314.288H45.5071C46.0791 314.288 46.5905 314.175 47.0411 313.95C47.4918 313.707 47.8385 313.369 48.0811 312.936C48.3411 312.503 48.4711 311.983 48.4711 311.376C48.4711 310.96 48.4018 310.596 48.2631 310.284C48.1418 309.955 47.9425 309.686 47.6651 309.478C47.4051 309.253 47.0845 309.088 46.7031 308.984C46.3218 308.863 45.8885 308.802 45.4031 308.802C45.0911 308.802 44.7618 308.828 44.4151 308.88C44.0685 308.932 43.7565 309.001 43.4791 309.088C43.2018 309.157 42.9851 309.227 42.8291 309.296L42.1791 307.424C42.4565 307.285 42.7858 307.147 43.1671 307.008C43.5485 306.869 43.9645 306.757 44.4151 306.67C44.8831 306.583 45.3771 306.54 45.8971 306.54C46.9198 306.54 47.8038 306.739 48.5491 307.138C49.2945 307.537 49.8665 308.091 50.2651 308.802C50.6811 309.495 50.8891 310.275 50.8891 311.142C50.8891 311.645 50.8111 312.147 50.6551 312.65C50.5165 313.135 50.2738 313.577 49.9271 313.976C49.5978 314.375 49.1298 314.704 48.5231 314.964C49.4938 315.345 50.2565 315.917 50.8111 316.68C51.3658 317.443 51.6431 318.387 51.6431 319.514C51.6431 320.242 51.5218 320.953 51.2791 321.646C51.0365 322.322 50.6551 322.937 50.1351 323.492C49.6151 324.029 48.9305 324.463 48.0811 324.792C47.2318 325.121 46.2005 325.286 44.9871 325.286C44.4671 325.286 43.9558 325.243 43.4531 325.156C42.9505 325.069 42.4998 324.974 42.1011 324.87C41.7025 324.749 41.3818 324.645 41.1391 324.558C40.9138 324.471 40.8011 324.428 40.8011 324.428L41.1911 322.218C41.1911 322.218 41.3038 322.261 41.5291 322.348C41.7718 322.435 42.0838 322.53 42.4651 322.634C42.8638 322.738 43.2885 322.833 43.7391 322.92C44.2071 323.007 44.6665 323.05 45.1171 323.05C46.0185 323.05 46.7638 322.903 47.3531 322.608C47.9598 322.313 48.4105 321.915 48.7051 321.412C48.9998 320.892 49.1471 320.294 49.1471 319.618C49.1471 319.133 49.0691 318.699 48.9131 318.318C48.7571 317.937 48.5318 317.625 48.2371 317.382C47.9425 317.122 47.5871 316.931 47.1711 316.81C46.7725 316.671 46.3131 316.602 45.7931 316.602H43.7651L43.0631 314.288ZM62.9255 312.338C62.8735 312.702 62.8302 313.101 62.7955 313.534C62.7782 313.95 62.7695 314.366 62.7695 314.782V324.87C62.7695 324.87 62.6482 324.879 62.4055 324.896C62.1802 324.913 61.8768 324.939 61.4955 324.974C61.1315 324.991 60.7242 325.009 60.2735 325.026C59.8228 325.043 59.3722 325.061 58.9215 325.078C58.4882 325.095 58.1068 325.104 57.7775 325.104C57.0322 325.104 56.3735 325.009 55.8015 324.818C55.2295 324.627 54.7528 324.341 54.3715 323.96C54.0075 323.579 53.7215 323.102 53.5135 322.53C53.3228 321.958 53.2275 321.308 53.2275 320.58V315.77C53.2275 315.007 53.3228 314.375 53.5135 313.872C53.7215 313.369 53.9988 312.962 54.3455 312.65C54.7095 312.338 55.1168 312.121 55.5675 312C56.0182 311.861 56.4948 311.792 56.9975 311.792C57.5002 311.792 57.9768 311.835 58.4275 311.922C58.8782 311.991 59.2855 312.087 59.6495 312.208C60.0135 312.312 60.3168 312.416 60.5595 312.52C60.5595 312.52 60.5855 312.433 60.6375 312.26C60.6895 312.069 60.7502 311.887 60.8195 311.714L62.9255 312.338ZM55.6455 320.658C55.6455 321.247 55.7235 321.724 55.8795 322.088C56.0528 322.435 56.3128 322.686 56.6595 322.842C57.0062 322.998 57.4308 323.076 57.9335 323.076C58.1762 323.076 58.4188 323.076 58.6615 323.076C58.9042 323.059 59.1295 323.05 59.3375 323.05C59.5455 323.033 59.7362 323.015 59.9095 322.998C60.0828 322.981 60.2215 322.963 60.3255 322.946V314.704C60.1002 314.583 59.8575 314.487 59.5975 314.418C59.3375 314.331 59.0775 314.253 58.8175 314.184C58.5575 314.115 58.3062 314.071 58.0635 314.054C57.8382 314.019 57.6388 314.002 57.4655 314.002C57.3095 314.002 57.1275 314.019 56.9195 314.054C56.7115 314.071 56.5122 314.141 56.3215 314.262C56.1308 314.383 55.9662 314.574 55.8275 314.834C55.7062 315.077 55.6455 315.415 55.6455 315.848V320.658ZM73.0966 317.772C73.7033 318.101 74.1626 318.569 74.4746 319.176C74.8039 319.783 74.9686 320.433 74.9686 321.126C74.9686 321.819 74.8039 322.487 74.4746 323.128C74.1453 323.752 73.6339 324.272 72.9406 324.688C72.2646 325.087 71.3979 325.286 70.3406 325.286C69.9593 325.286 69.5346 325.277 69.0666 325.26C68.5986 325.243 68.1219 325.217 67.6366 325.182C67.1686 325.147 66.7353 325.113 66.3366 325.078C65.9379 325.061 65.6173 325.043 65.3746 325.026C65.1319 325.009 65.0106 325 65.0106 325V311.974C65.0106 311.974 65.1406 311.965 65.4006 311.948C65.6606 311.913 66.0246 311.879 66.4926 311.844C66.9606 311.792 67.5066 311.757 68.1306 311.74C68.7546 311.705 69.4306 311.688 70.1586 311.688C70.7479 311.688 71.2939 311.766 71.7966 311.922C72.3166 312.078 72.7673 312.303 73.1486 312.598C73.5473 312.893 73.8506 313.257 74.0586 313.69C74.2839 314.106 74.3966 314.6 74.3966 315.172C74.4139 315.675 74.3013 316.169 74.0586 316.654C73.8333 317.122 73.5126 317.495 73.0966 317.772ZM69.9766 313.82C69.7686 313.82 69.5346 313.82 69.2746 313.82C69.0319 313.82 68.7893 313.829 68.5466 313.846C68.3039 313.863 68.0786 313.881 67.8706 313.898C67.6799 313.898 67.5239 313.898 67.4026 313.898V317.148H69.7166C70.2539 317.148 70.6873 317.07 71.0166 316.914C71.3459 316.741 71.5886 316.524 71.7446 316.264C71.9006 315.987 71.9786 315.701 71.9786 315.406C71.9786 315.129 71.9179 314.895 71.7966 314.704C71.6926 314.496 71.5366 314.331 71.3286 314.21C71.1379 314.071 70.9213 313.976 70.6786 313.924C70.4533 313.855 70.2193 313.82 69.9766 313.82ZM69.9246 322.868C70.4273 322.868 70.8779 322.799 71.2766 322.66C71.6753 322.521 71.9873 322.322 72.2126 322.062C72.4379 321.785 72.5506 321.455 72.5506 321.074C72.5506 320.762 72.4899 320.493 72.3686 320.268C72.2473 320.043 72.0826 319.861 71.8746 319.722C71.6666 319.566 71.4239 319.453 71.1466 319.384C70.8866 319.315 70.6266 319.28 70.3666 319.28H67.4026V322.79C67.5413 322.79 67.7059 322.799 67.8966 322.816C68.0873 322.816 68.2953 322.825 68.5206 322.842C68.7459 322.859 68.9799 322.868 69.2226 322.868C69.4653 322.868 69.6993 322.868 69.9246 322.868ZM79.0309 321.256C79.0309 321.568 79.0742 321.837 79.1609 322.062C79.2649 322.287 79.3949 322.478 79.5509 322.634C79.7242 322.79 79.9322 322.911 80.1749 322.998C80.4175 323.067 80.6862 323.102 80.9809 323.102C81.5009 323.102 82.0642 323.007 82.6709 322.816C83.2776 322.608 83.8669 322.357 84.4389 322.062L85.3229 324.09C84.7162 324.471 84.0229 324.775 83.2429 325C82.4629 325.225 81.7089 325.338 80.9809 325.338C80.3569 325.338 79.7762 325.26 79.2389 325.104C78.7015 324.965 78.2335 324.749 77.8349 324.454C77.4362 324.142 77.1242 323.743 76.8989 323.258C76.6909 322.773 76.5869 322.183 76.5869 321.49V316.16C76.5869 315.172 76.7949 314.349 77.2109 313.69C77.6442 313.031 78.2249 312.537 78.9529 312.208C79.6809 311.879 80.4955 311.714 81.3969 311.714C82.3329 311.714 83.1389 311.879 83.8149 312.208C84.5082 312.537 85.0369 313.023 85.4009 313.664C85.7822 314.305 85.9729 315.111 85.9729 316.082V319.93L79.0309 320.294V321.256ZM83.5809 316.55C83.5809 316.082 83.5029 315.649 83.3469 315.25C83.1909 314.851 82.9569 314.531 82.6449 314.288C82.3329 314.045 81.9082 313.941 81.3709 313.976C80.7989 313.976 80.3395 314.089 79.9929 314.314C79.6462 314.522 79.3949 314.825 79.2389 315.224C79.1002 315.605 79.0309 316.073 79.0309 316.628V318.058L83.5809 317.798V316.55ZM97.3558 320.554C97.3558 321.611 97.1911 322.504 96.8618 323.232C96.5325 323.96 96.0385 324.515 95.3798 324.896C94.7385 325.26 93.9325 325.442 92.9618 325.442C92.6845 325.442 92.4071 325.416 92.1298 325.364C91.8525 325.312 91.5925 325.234 91.3498 325.13C91.1245 325.043 90.9078 324.939 90.6998 324.818C90.4918 324.679 90.3098 324.541 90.1538 324.402V330.59L87.7358 329.966V316.888C87.7358 315.241 88.1605 313.985 89.0098 313.118C89.8591 312.234 91.0638 311.792 92.6238 311.792C94.1318 311.792 95.2931 312.243 96.1078 313.144C96.9398 314.045 97.3558 315.293 97.3558 316.888V320.554ZM94.9638 316.784C94.9638 316.229 94.8685 315.761 94.6778 315.38C94.5045 314.981 94.2358 314.678 93.8718 314.47C93.5251 314.262 93.0918 314.158 92.5718 314.158C92.0518 314.158 91.6098 314.262 91.2458 314.47C90.8818 314.661 90.6045 314.955 90.4138 315.354C90.2405 315.735 90.1538 316.212 90.1538 316.784V321.23C90.1538 321.577 90.2318 321.88 90.3878 322.14C90.5611 322.4 90.7778 322.617 91.0378 322.79C91.2978 322.946 91.5838 323.067 91.8958 323.154C92.2078 323.241 92.5111 323.284 92.8058 323.284C93.2738 323.284 93.6638 323.189 93.9758 322.998C94.3051 322.807 94.5478 322.539 94.7038 322.192C94.8771 321.828 94.9638 321.395 94.9638 320.892V316.784ZM110.729 312H113.147V325H99.4711V312H101.889V322.608H105.087V312H107.505V322.608H110.729V312ZM117.599 321.256C117.599 321.568 117.643 321.837 117.729 322.062C117.833 322.287 117.963 322.478 118.119 322.634C118.293 322.79 118.501 322.911 118.743 322.998C118.986 323.067 119.255 323.102 119.549 323.102C120.069 323.102 120.633 323.007 121.239 322.816C121.846 322.608 122.435 322.357 123.007 322.062L123.891 324.09C123.285 324.471 122.591 324.775 121.811 325C121.031 325.225 120.277 325.338 119.549 325.338C118.925 325.338 118.345 325.26 117.807 325.104C117.27 324.965 116.802 324.749 116.403 324.454C116.005 324.142 115.693 323.743 115.467 323.258C115.259 322.773 115.155 322.183 115.155 321.49V316.16C115.155 315.172 115.363 314.349 115.779 313.69C116.213 313.031 116.793 312.537 117.521 312.208C118.249 311.879 119.064 311.714 119.965 311.714C120.901 311.714 121.707 311.879 122.383 312.208C123.077 312.537 123.605 313.023 123.969 313.664C124.351 314.305 124.541 315.111 124.541 316.082V319.93L117.599 320.294V321.256ZM122.149 316.55C122.149 316.082 122.071 315.649 121.915 315.25C121.759 314.851 121.525 314.531 121.213 314.288C120.901 314.045 120.477 313.941 119.939 313.976C119.367 313.976 118.908 314.089 118.561 314.314C118.215 314.522 117.963 314.825 117.807 315.224C117.669 315.605 117.599 316.073 117.599 316.628V318.058L122.149 317.798V316.55ZM133.532 316.758V312H135.924V325H133.532V319.046H128.748V325H126.33V312H128.748V316.758H133.532ZM140.302 312V320.736L144.956 312H147.504V325.026H145.06V316.316L140.406 325.026H137.91V312H140.302ZM151.75 321.256C151.75 321.568 151.793 321.837 151.88 322.062C151.984 322.287 152.114 322.478 152.27 322.634C152.443 322.79 152.651 322.911 152.894 322.998C153.136 323.067 153.405 323.102 153.7 323.102C154.22 323.102 154.783 323.007 155.39 322.816C155.996 322.608 156.586 322.357 157.158 322.062L158.042 324.09C157.435 324.471 156.742 324.775 155.962 325C155.182 325.225 154.428 325.338 153.7 325.338C153.076 325.338 152.495 325.26 151.958 325.104C151.42 324.965 150.952 324.749 150.554 324.454C150.155 324.142 149.843 323.743 149.618 323.258C149.41 322.773 149.306 322.183 149.306 321.49V316.16C149.306 315.172 149.514 314.349 149.93 313.69C150.363 313.031 150.944 312.537 151.672 312.208C152.4 311.879 153.214 311.714 154.116 311.714C155.052 311.714 155.858 311.879 156.534 312.208C157.227 312.537 157.756 313.023 158.12 313.664C158.501 314.305 158.692 315.111 158.692 316.082V319.93L151.75 320.294V321.256ZM156.3 316.55C156.3 316.082 156.222 315.649 156.066 315.25C155.91 314.851 155.676 314.531 155.364 314.288C155.052 314.045 154.627 313.941 154.09 313.976C153.518 313.976 153.058 314.089 152.712 314.314C152.365 314.522 152.114 314.825 151.958 315.224C151.819 315.605 151.75 316.073 151.75 316.628V318.058L156.3 317.798V316.55ZM175.802 317.772C176.408 318.101 176.868 318.569 177.18 319.176C177.509 319.783 177.674 320.433 177.674 321.126C177.674 321.819 177.509 322.487 177.18 323.128C176.85 323.752 176.339 324.272 175.646 324.688C174.97 325.087 174.103 325.286 173.046 325.286C172.664 325.286 172.24 325.277 171.772 325.26C171.304 325.243 170.827 325.217 170.342 325.182C169.874 325.147 169.44 325.113 169.042 325.078C168.643 325.061 168.322 325.043 168.08 325.026C167.837 325.009 167.716 325 167.716 325V311.974C167.716 311.974 167.846 311.965 168.106 311.948C168.366 311.913 168.73 311.879 169.198 311.844C169.666 311.792 170.212 311.757 170.836 311.74C171.46 311.705 172.136 311.688 172.864 311.688C173.453 311.688 173.999 311.766 174.502 311.922C175.022 312.078 175.472 312.303 175.854 312.598C176.252 312.893 176.556 313.257 176.764 313.69C176.989 314.106 177.102 314.6 177.102 315.172C177.119 315.675 177.006 316.169 176.764 316.654C176.538 317.122 176.218 317.495 175.802 317.772ZM172.682 313.82C172.474 313.82 172.24 313.82 171.98 313.82C171.737 313.82 171.494 313.829 171.252 313.846C171.009 313.863 170.784 313.881 170.576 313.898C170.385 313.898 170.229 313.898 170.108 313.898V317.148H172.422C172.959 317.148 173.392 317.07 173.722 316.914C174.051 316.741 174.294 316.524 174.45 316.264C174.606 315.987 174.684 315.701 174.684 315.406C174.684 315.129 174.623 314.895 174.502 314.704C174.398 314.496 174.242 314.331 174.034 314.21C173.843 314.071 173.626 313.976 173.384 313.924C173.158 313.855 172.924 313.82 172.682 313.82ZM172.63 322.868C173.132 322.868 173.583 322.799 173.982 322.66C174.38 322.521 174.692 322.322 174.918 322.062C175.143 321.785 175.256 321.455 175.256 321.074C175.256 320.762 175.195 320.493 175.074 320.268C174.952 320.043 174.788 319.861 174.58 319.722C174.372 319.566 174.129 319.453 173.852 319.384C173.592 319.315 173.332 319.28 173.072 319.28H170.108V322.79C170.246 322.79 170.411 322.799 170.602 322.816C170.792 322.816 171 322.825 171.226 322.842C171.451 322.859 171.685 322.868 171.928 322.868C172.17 322.868 172.404 322.868 172.63 322.868ZM181.736 321.256C181.736 321.568 181.779 321.837 181.866 322.062C181.97 322.287 182.1 322.478 182.256 322.634C182.429 322.79 182.637 322.911 182.88 322.998C183.123 323.067 183.391 323.102 183.686 323.102C184.206 323.102 184.769 323.007 185.376 322.816C185.983 322.608 186.572 322.357 187.144 322.062L188.028 324.09C187.421 324.471 186.728 324.775 185.948 325C185.168 325.225 184.414 325.338 183.686 325.338C183.062 325.338 182.481 325.26 181.944 325.104C181.407 324.965 180.939 324.749 180.54 324.454C180.141 324.142 179.829 323.743 179.604 323.258C179.396 322.773 179.292 322.183 179.292 321.49V316.16C179.292 315.172 179.5 314.349 179.916 313.69C180.349 313.031 180.93 312.537 181.658 312.208C182.386 311.879 183.201 311.714 184.102 311.714C185.038 311.714 185.844 311.879 186.52 312.208C187.213 312.537 187.742 313.023 188.106 313.664C188.487 314.305 188.678 315.111 188.678 316.082V319.93L181.736 320.294V321.256ZM186.286 316.55C186.286 316.082 186.208 315.649 186.052 315.25C185.896 314.851 185.662 314.531 185.35 314.288C185.038 314.045 184.613 313.941 184.076 313.976C183.504 313.976 183.045 314.089 182.698 314.314C182.351 314.522 182.1 314.825 181.944 315.224C181.805 315.605 181.736 316.073 181.736 316.628V318.058L186.286 317.798V316.55ZM197.591 325V321.1C197.435 321.308 197.201 321.499 196.889 321.672C196.577 321.828 196.222 321.958 195.823 322.062C195.442 322.166 195.06 322.218 194.679 322.218C194.09 322.218 193.526 322.14 192.989 321.984C192.469 321.828 192.01 321.585 191.611 321.256C191.23 320.927 190.918 320.485 190.675 319.93C190.45 319.375 190.337 318.699 190.337 317.902V312H192.807V317.824C192.807 318.223 192.868 318.561 192.989 318.838C193.11 319.115 193.275 319.341 193.483 319.514C193.708 319.687 193.96 319.817 194.237 319.904C194.514 319.973 194.809 320.008 195.121 320.008C195.468 320.008 195.788 319.939 196.083 319.8C196.395 319.661 196.655 319.479 196.863 319.254C197.088 319.011 197.262 318.743 197.383 318.448C197.522 318.136 197.591 317.807 197.591 317.46V314.626C197.591 314.279 197.634 313.941 197.721 313.612C197.825 313.283 197.981 312.979 198.189 312.702C198.414 312.407 198.7 312.173 199.047 312C199.394 311.809 199.818 311.697 200.321 311.662L201.101 313.378C200.685 313.482 200.39 313.681 200.217 313.976C200.061 314.271 199.983 314.661 199.983 315.146V325H197.591ZM204.588 321.256C204.588 321.568 204.631 321.837 204.718 322.062C204.822 322.287 204.952 322.478 205.108 322.634C205.281 322.79 205.489 322.911 205.732 322.998C205.974 323.067 206.243 323.102 206.538 323.102C207.058 323.102 207.621 323.007 208.228 322.816C208.834 322.608 209.424 322.357 209.996 322.062L210.88 324.09C210.273 324.471 209.58 324.775 208.8 325C208.02 325.225 207.266 325.338 206.538 325.338C205.914 325.338 205.333 325.26 204.796 325.104C204.258 324.965 203.79 324.749 203.392 324.454C202.993 324.142 202.681 323.743 202.456 323.258C202.248 322.773 202.144 322.183 202.144 321.49V316.16C202.144 315.172 202.352 314.349 202.768 313.69C203.201 313.031 203.782 312.537 204.51 312.208C205.238 311.879 206.052 311.714 206.954 311.714C207.89 311.714 208.696 311.879 209.372 312.208C210.065 312.537 210.594 313.023 210.958 313.664C211.339 314.305 211.53 315.111 211.53 316.082V319.93L204.588 320.294V321.256ZM209.138 316.55C209.138 316.082 209.06 315.649 208.904 315.25C208.748 314.851 208.514 314.531 208.202 314.288C207.89 314.045 207.465 313.941 206.928 313.976C206.356 313.976 205.896 314.089 205.55 314.314C205.203 314.522 204.952 314.825 204.796 315.224C204.657 315.605 204.588 316.073 204.588 316.628V318.058L209.138 317.798V316.55ZM222.912 320.554C222.912 321.611 222.748 322.504 222.418 323.232C222.089 323.96 221.595 324.515 220.936 324.896C220.295 325.26 219.489 325.442 218.518 325.442C218.241 325.442 217.964 325.416 217.686 325.364C217.409 325.312 217.149 325.234 216.906 325.13C216.681 325.043 216.464 324.939 216.256 324.818C216.048 324.679 215.866 324.541 215.71 324.402V330.59L213.292 329.966V316.888C213.292 315.241 213.717 313.985 214.566 313.118C215.416 312.234 216.62 311.792 218.18 311.792C219.688 311.792 220.85 312.243 221.664 313.144C222.496 314.045 222.912 315.293 222.912 316.888V320.554ZM220.52 316.784C220.52 316.229 220.425 315.761 220.234 315.38C220.061 314.981 219.792 314.678 219.428 314.47C219.082 314.262 218.648 314.158 218.128 314.158C217.608 314.158 217.166 314.262 216.802 314.47C216.438 314.661 216.161 314.955 215.97 315.354C215.797 315.735 215.71 316.212 215.71 316.784V321.23C215.71 321.577 215.788 321.88 215.944 322.14C216.118 322.4 216.334 322.617 216.594 322.79C216.854 322.946 217.14 323.067 217.452 323.154C217.764 323.241 218.068 323.284 218.362 323.284C218.83 323.284 219.22 323.189 219.532 322.998C219.862 322.807 220.104 322.539 220.26 322.192C220.434 321.828 220.52 321.395 220.52 320.892V316.784ZM234.414 312.338C234.362 312.702 234.318 313.101 234.284 313.534C234.266 313.95 234.258 314.366 234.258 314.782V324.87C234.258 324.87 234.136 324.879 233.894 324.896C233.668 324.913 233.365 324.939 232.984 324.974C232.62 324.991 232.212 325.009 231.762 325.026C231.311 325.043 230.86 325.061 230.41 325.078C229.976 325.095 229.595 325.104 229.266 325.104C228.52 325.104 227.862 325.009 227.29 324.818C226.718 324.627 226.241 324.341 225.86 323.96C225.496 323.579 225.21 323.102 225.002 322.53C224.811 321.958 224.716 321.308 224.716 320.58V315.77C224.716 315.007 224.811 314.375 225.002 313.872C225.21 313.369 225.487 312.962 225.834 312.65C226.198 312.338 226.605 312.121 227.056 312C227.506 311.861 227.983 311.792 228.486 311.792C228.988 311.792 229.465 311.835 229.916 311.922C230.366 311.991 230.774 312.087 231.138 312.208C231.502 312.312 231.805 312.416 232.048 312.52C232.048 312.52 232.074 312.433 232.126 312.26C232.178 312.069 232.238 311.887 232.308 311.714L234.414 312.338ZM227.134 320.658C227.134 321.247 227.212 321.724 227.368 322.088C227.541 322.435 227.801 322.686 228.148 322.842C228.494 322.998 228.919 323.076 229.422 323.076C229.664 323.076 229.907 323.076 230.15 323.076C230.392 323.059 230.618 323.05 230.826 323.05C231.034 323.033 231.224 323.015 231.398 322.998C231.571 322.981 231.71 322.963 231.814 322.946V314.704C231.588 314.583 231.346 314.487 231.086 314.418C230.826 314.331 230.566 314.253 230.306 314.184C230.046 314.115 229.794 314.071 229.552 314.054C229.326 314.019 229.127 314.002 228.954 314.002C228.798 314.002 228.616 314.019 228.408 314.054C228.2 314.071 228 314.141 227.81 314.262C227.619 314.383 227.454 314.574 227.316 314.834C227.194 315.077 227.134 315.415 227.134 315.848V320.658Z" fill="#3E2723"/>
<path d="M53.1764 29.806C53.0524 30.674 52.9491 31.6247 52.8664 32.658C52.8251 33.65 52.8044 34.642 52.8044 35.634V59.69C52.8044 59.69 52.5151 59.7107 51.9364 59.752C51.3991 59.7933 50.6757 59.8553 49.7664 59.938C48.8984 59.9793 47.9271 60.0207 46.8524 60.062C45.7777 60.1033 44.7031 60.1447 43.6284 60.186C42.5951 60.2273 41.6857 60.248 40.9004 60.248C39.1231 60.248 37.5524 60.0207 36.1884 59.566C34.8244 59.1113 33.6877 58.4293 32.7784 57.52C31.9104 56.6107 31.2284 55.474 30.7324 54.11C30.2777 52.746 30.0504 51.196 30.0504 49.46V37.99C30.0504 36.1713 30.2777 34.6627 30.7324 33.464C31.2284 32.2653 31.8897 31.294 32.7164 30.55C33.5844 29.806 34.5557 29.2893 35.6304 29C36.7051 28.6693 37.8417 28.504 39.0404 28.504C40.2391 28.504 41.3757 28.6073 42.4504 28.814C43.5251 28.9793 44.4964 29.2067 45.3644 29.496C46.2324 29.744 46.9557 29.992 47.5344 30.24C47.5344 30.24 47.5964 30.0333 47.7204 29.62C47.8444 29.1653 47.9891 28.7313 48.1544 28.318L53.1764 29.806ZM35.8164 49.646C35.8164 51.0513 36.0024 52.188 36.3744 53.056C36.7877 53.8827 37.4077 54.482 38.2344 54.854C39.0611 55.226 40.0737 55.412 41.2724 55.412C41.8511 55.412 42.4297 55.412 43.0084 55.412C43.5871 55.3707 44.1244 55.35 44.6204 55.35C45.1164 55.3087 45.5711 55.2673 45.9844 55.226C46.3977 55.1847 46.7284 55.1433 46.9764 55.102V35.448C46.4391 35.1587 45.8604 34.9313 45.2404 34.766C44.6204 34.5593 44.0004 34.3733 43.3804 34.208C42.7604 34.0427 42.1611 33.9393 41.5824 33.898C41.0451 33.8153 40.5697 33.774 40.1564 33.774C39.7844 33.774 39.3504 33.8153 38.8544 33.898C38.3584 33.9393 37.8831 34.1047 37.4284 34.394C36.9737 34.6833 36.5811 35.138 36.2504 35.758C35.9611 36.3367 35.8164 37.1427 35.8164 38.176V49.646ZM76.8725 18.584V19.018C76.8725 20.258 76.5418 21.4153 75.8805 22.49C75.2605 23.5647 74.4132 24.4327 73.3385 25.094C72.3052 25.714 71.1479 26.024 69.8665 26.024C68.5852 26.024 67.3865 25.714 66.2705 25.094C65.1958 24.4327 64.3278 23.5647 63.6665 22.49C63.0465 21.4153 62.7365 20.258 62.7365 19.018V18.584H67.0145V19.018C67.0145 19.762 67.2832 20.4233 67.8205 21.002C68.3992 21.5393 69.0812 21.808 69.8665 21.808C70.6518 21.808 71.3132 21.5393 71.8505 21.002C72.3879 20.4233 72.6565 19.762 72.6565 19.018V18.584H76.8725ZM64.1005 29V49.832L75.1985 29H81.2745V60.062H75.4465V39.292L64.3485 60.062H58.3965V29H64.1005ZM111.238 29H117.748V60.062H112.044V40.78L104.232 60.062H99.5824L91.6464 40.718V60.062H85.8804V29H92.5144L101.876 52.498L111.238 29ZM128.28 29V49.832L139.378 29H145.454V60.062H139.626V39.292L128.528 60.062H122.576V29H128.28ZM167.236 40.346V29H172.94V60H167.236V45.802H155.828V60H150.062V29H155.828V40.346H167.236ZM177.302 29H194.352V34.642H183.13V60H177.302V29Z" fill="#3E2723"/>
<path d="M23.1719 23.0752L23.0003 341.944C22.9994 343.601 21.6555 344.943 19.9986 344.942V344.942C18.3418 344.942 16.9994 343.598 17.0003 341.941L17.1719 23.072L23.1719 23.0752Z" fill="#3E2723"/>
<rect x="39.9995" y="17" width="6" height="40" transform="rotate(89.7179 39.9995 17)" fill="#3E2723"/>
</svg>
