<svg width="312" height="41" viewBox="0 0 312 41" fill="none" xmlns="http://www.w3.org/2000/svg">
<path d="M6.156 31.578C5.11733 31.578 4.12933 31.426 3.192 31.122C2.25467 30.818 1.482 30.362 0.874 29.754C0.291334 29.146 2.5332e-07 28.386 2.5332e-07 27.474C2.5332e-07 26.5366 0.405334 25.688 1.216 24.928C2.052 24.168 3.23 23.788 4.75 23.788C6.346 23.788 7.85333 24.1553 9.272 24.89C10.716 25.5993 12.236 26.372 13.832 27.208C15.1747 25.916 16.3653 24.4213 17.404 22.724C18.468 21.0013 19.4813 19.19 20.444 17.29C21.432 15.39 22.4453 13.5026 23.484 11.628C24.5227 9.72797 25.688 7.9673 26.98 6.34597C27.208 6.0673 27.436 5.78864 27.664 5.50997C27.892 5.20597 28.1327 4.91464 28.386 4.63597C27.018 3.8253 25.5487 3.20464 23.978 2.77397C22.4073 2.31797 20.786 2.08997 19.114 2.08997C17.0367 2.08997 15.1113 2.35597 13.338 2.88797C11.5647 3.41997 10.0193 4.14197 8.702 5.05397C7.41 5.94064 6.39667 6.95397 5.662 8.09397C4.92733 9.20864 4.56 10.3613 4.56 11.552C4.56 12.616 4.77533 13.5026 5.206 14.212C5.662 14.896 6.232 15.4026 6.916 15.732C7.6 16.0613 8.27133 16.226 8.93 16.226C9.81667 16.226 10.5767 16.0613 11.21 15.732C11.8433 15.3773 12.3627 14.9466 12.768 14.44C13.1733 13.9333 13.4773 13.4393 13.68 12.958C13.8827 12.4766 13.9967 12.084 14.022 11.78C14.022 11.6026 14.136 11.514 14.364 11.514C14.7187 11.514 14.858 11.7293 14.782 12.16C14.6553 13.1733 14.2753 14.06 13.642 14.82C13.0087 15.5546 12.2487 16.1373 11.362 16.568C10.4753 16.9733 9.56333 17.176 8.626 17.176C7.51133 17.176 6.498 16.9733 5.586 16.568C4.674 16.1373 3.93933 15.504 3.382 14.668C2.85 13.8066 2.584 12.7553 2.584 11.514C2.584 9.8673 3.02733 8.39797 3.914 7.10597C4.80067 5.78863 6.01667 4.67397 7.562 3.76197C9.10733 2.84997 10.8807 2.1533 12.882 1.67197C14.8833 1.19064 16.9987 0.949969 19.228 0.949969C20.9507 0.949969 22.686 1.1653 24.434 1.59597C26.182 2.0013 27.8413 2.62197 29.412 3.45797C30.0707 2.7233 30.742 2.0773 31.426 1.51997C32.1353 0.937302 32.8573 0.493968 33.592 0.189968C33.9213 0.0633012 34.1873 -3.20673e-05 34.39 -3.20673e-05C34.542 -3.20673e-05 34.618 0.0379682 34.618 0.113969C34.618 0.240635 34.3267 0.557302 33.744 1.06397C33.4147 1.36797 33.022 1.83664 32.566 2.46997C32.11 3.07797 31.6413 3.7493 31.16 4.48397C32.68 5.47197 34.0227 6.6753 35.188 8.09397C36.3787 9.4873 37.316 11.0833 38 12.882C38.684 14.6553 39.026 16.6313 39.026 18.81C39.026 20.938 38.6587 22.8 37.924 24.396C37.1893 25.9666 36.1887 27.2713 34.922 28.31C33.6553 29.3486 32.1987 30.1213 30.552 30.628C28.9053 31.16 27.17 31.426 25.346 31.426C23.1927 31.426 21.1913 31.1346 19.342 30.552C17.518 29.9693 15.8207 29.3106 14.25 28.576C13.0087 29.564 11.7167 30.3113 10.374 30.818C9.05667 31.3246 7.65067 31.578 6.156 31.578ZM28.576 8.54997C28.044 9.38597 27.398 10.45 26.638 11.742C25.878 13.0086 25.0293 14.3893 24.092 15.884C23.1547 17.3786 22.1793 18.8733 21.166 20.368C20.1527 21.8626 19.1267 23.2686 18.088 24.586C17.0747 25.878 16.0867 26.9673 15.124 27.854C16.4667 28.5126 17.9487 29.0826 19.57 29.564C21.1913 30.0453 23.028 30.286 25.08 30.286C27.4107 30.286 29.4373 29.8046 31.16 28.842C32.8827 27.854 34.2253 26.524 35.188 24.852C36.1507 23.1546 36.632 21.242 36.632 19.114C36.632 16.3526 36.0493 13.8446 34.884 11.59C33.7187 9.30997 32.1607 7.40997 30.21 5.88997C29.8807 6.42197 29.5767 6.92863 29.298 7.40997C29.0193 7.86597 28.7787 8.24597 28.576 8.54997ZM6.156 30.4C7.448 30.476 8.702 30.248 9.918 29.716C11.1593 29.1586 12.1853 28.5633 12.996 27.93C11.476 27.1953 10.07 26.524 8.778 25.916C7.51133 25.308 6.33333 25.004 5.244 25.004C4.35733 25.004 3.67333 25.27 3.192 25.802C2.71067 26.3086 2.47 26.8786 2.47 27.512C2.47 28.3226 2.78667 28.994 3.42 29.526C4.07867 30.058 4.99067 30.3493 6.156 30.4ZM47.3406 16.606C48.3792 16.606 49.1392 16.9606 49.6206 17.67C50.1272 18.3793 50.3806 19.2786 50.3806 20.368C50.3806 21.356 50.1779 22.4073 49.7726 23.522C49.3672 24.6113 48.8099 25.65 48.1006 26.638C47.4166 27.6006 46.6439 28.3986 45.7826 29.032C44.9212 29.64 44.0346 29.944 43.1226 29.944C42.0839 29.944 41.3112 29.5766 40.8046 28.842C40.3232 28.082 40.0826 27.17 40.0826 26.106C40.0826 25.118 40.2726 24.092 40.6526 23.028C41.0579 21.8626 41.6152 20.7986 42.3246 19.836C43.0592 18.8733 43.8572 18.1006 44.7186 17.518C45.6052 16.91 46.4792 16.606 47.3406 16.606ZM43.6546 29.108C44.2626 29.108 44.8959 28.842 45.5546 28.31C46.2386 27.7526 46.8719 27.0306 47.4546 26.144C48.0372 25.2573 48.5059 24.282 48.8606 23.218C49.2406 22.154 49.4306 21.1026 49.4306 20.064C49.4306 19.4053 49.3039 18.8733 49.0506 18.468C48.8226 18.0373 48.4552 17.822 47.9486 17.822C47.4166 17.822 46.8592 18.05 46.2766 18.506C45.6939 18.962 45.1366 19.57 44.6046 20.33C44.0979 21.09 43.6546 21.9386 43.2746 22.876C42.9452 23.6613 42.6919 24.4086 42.5146 25.118C42.3372 25.802 42.2486 26.4353 42.2486 27.018C42.2486 27.6513 42.3626 28.158 42.5906 28.538C42.8186 28.918 43.1732 29.108 43.6546 29.108ZM71.8304 15.01C71.1971 15.01 70.5257 14.9213 69.8164 14.744C69.1324 14.5666 68.4357 14.3893 67.7264 14.212C67.0424 14.0346 66.3964 13.946 65.7884 13.946C65.2817 13.946 64.8131 14.0346 64.3824 14.212C63.9517 14.364 63.5971 14.6806 63.3184 15.162L63.2044 15.352C63.1284 15.4533 63.0651 15.504 63.0144 15.504C62.9637 15.504 62.9131 15.466 62.8624 15.39C62.8117 15.314 62.7991 15.2253 62.8244 15.124C63.1031 14.4146 63.6097 13.8573 64.3444 13.452C65.0791 13.0213 65.9151 12.806 66.8524 12.806C67.5111 12.806 68.3471 12.8946 69.3604 13.072C70.3991 13.2493 71.3364 13.338 72.1724 13.338C72.7044 13.338 73.2997 13.3126 73.9584 13.262C74.6424 13.186 75.2884 13.0213 75.8964 12.768C76.5297 12.4893 77.0111 12.046 77.3404 11.438C77.5937 11.438 77.7204 11.5266 77.7204 11.704C77.2391 12.844 76.5804 13.68 75.7444 14.212C74.9084 14.744 73.6037 15.01 71.8304 15.01ZM56.7064 29.944C56.4277 29.944 56.1997 29.944 56.0224 29.944C55.8197 29.9693 55.6171 30.0326 55.4144 30.134C56.3517 28.3353 57.2384 26.5366 58.0744 24.738C58.9104 22.914 59.7591 21.1913 60.6204 19.57C61.1271 18.658 61.5451 18.0246 61.8744 17.67C62.2291 17.29 62.6977 17.1 63.2804 17.1C63.4831 17.1 63.6984 17.138 63.9264 17.214C64.1544 17.2646 64.3824 17.29 64.6104 17.29C64.7624 17.29 64.8764 17.2773 64.9524 17.252C64.5977 17.4546 64.1417 17.9613 63.5844 18.772C63.0271 19.5573 62.4571 20.4693 61.8744 21.508C61.2917 22.5466 60.7724 23.522 60.3164 24.434C60.7977 23.8513 61.2917 23.2686 61.7984 22.686C62.3304 22.1033 62.9131 21.546 63.5464 21.014C64.1037 20.5326 64.6864 20.0133 65.2944 19.456C65.9277 18.8733 66.5484 18.3793 67.1564 17.974C67.7644 17.5686 68.2964 17.366 68.7524 17.366C68.9297 17.366 69.0437 17.3786 69.0944 17.404C69.5757 17.6066 69.8164 17.936 69.8164 18.392C69.8164 18.544 69.7531 18.772 69.6264 19.076C69.2971 19.9373 68.8664 20.824 68.3344 21.736C67.8277 22.6226 67.3464 23.522 66.8904 24.434C67.2704 23.978 67.7391 23.4206 68.2964 22.762C68.8791 22.1033 69.4617 21.5206 70.0444 21.014C70.6017 20.5073 71.3111 19.9753 72.1724 19.418C73.0337 18.8606 73.8824 18.3793 74.7184 17.974C75.5544 17.5686 76.2257 17.366 76.7324 17.366C76.9097 17.366 77.0364 17.3786 77.1124 17.404C77.1124 17.404 76.9731 17.6573 76.6944 18.164C76.4157 18.6453 76.0611 19.2913 75.6304 20.102C75.2251 20.8873 74.8071 21.736 74.3764 22.648C73.9457 23.5346 73.5531 24.396 73.1984 25.232C72.8691 26.0426 72.6537 26.7266 72.5524 27.284C72.4764 27.6133 72.4384 27.9173 72.4384 28.196C72.4384 28.6013 72.5144 28.8673 72.6664 28.994C72.8184 29.1206 72.9831 29.184 73.1604 29.184C73.6671 29.184 74.1611 28.9686 74.6424 28.538C75.1491 28.1073 75.6431 27.5626 76.1244 26.904C76.6057 26.22 77.0364 25.498 77.4164 24.738C77.8217 23.978 78.1637 23.2686 78.4424 22.61C78.7464 22.61 78.8984 22.724 78.8984 22.952C78.6197 23.636 78.2651 24.396 77.8344 25.232C77.4291 26.0426 76.9604 26.8153 76.4284 27.55C75.8964 28.2846 75.3137 28.8926 74.6804 29.374C74.0471 29.8553 73.3631 30.096 72.6284 30.096C72.0964 30.096 71.5897 29.9186 71.1084 29.564C70.6524 29.2093 70.4244 28.5506 70.4244 27.588C70.4244 26.5493 70.6651 25.5106 71.1464 24.472C71.6531 23.4333 72.1724 22.4833 72.7044 21.622C72.9577 21.1913 73.0844 20.8493 73.0844 20.596C73.0844 20.292 72.9324 20.14 72.6284 20.14C72.3751 20.14 72.0204 20.2666 71.5644 20.52C71.1337 20.7733 70.5891 21.2166 69.9304 21.85C69.5251 22.23 69.0437 22.762 68.4864 23.446C67.9544 24.1046 67.4097 24.8266 66.8524 25.612C66.2951 26.3973 65.8137 27.17 65.4084 27.93C65.0031 28.69 64.7371 29.3613 64.6104 29.944C64.2304 29.944 63.9264 29.792 63.6984 29.488C63.4704 29.1586 63.3564 28.7786 63.3564 28.348C63.3564 28.272 63.3564 28.196 63.3564 28.12C63.3564 28.044 63.3691 27.9553 63.3944 27.854C63.5211 27.0686 63.7237 26.41 64.0024 25.878C64.2811 25.3206 64.5977 24.6746 64.9524 23.94C65.1297 23.6106 65.3324 23.2306 65.5604 22.8C65.7884 22.344 65.9911 21.9133 66.1684 21.508C66.3457 21.0773 66.4344 20.7226 66.4344 20.444C66.4344 20.1906 66.3331 20.064 66.1304 20.064C65.9024 20.064 65.5984 20.178 65.2184 20.406C64.8637 20.634 64.5217 20.9 64.1924 21.204C63.8631 21.4826 63.6097 21.698 63.4324 21.85C62.7991 22.458 62.0264 23.332 61.1144 24.472C60.2277 25.612 59.2524 27.2333 58.1884 29.336C58.0364 29.6146 57.8591 29.792 57.6564 29.868C57.4537 29.9186 57.1371 29.944 56.7064 29.944ZM80.7144 29.944C79.6757 29.944 78.903 29.5766 78.3964 28.842C77.915 28.082 77.6744 27.17 77.6744 26.106C77.6744 25.118 77.8644 24.092 78.2444 23.028C78.6497 21.8626 79.207 20.7986 79.9164 19.836C80.651 18.8733 81.449 18.1006 82.3104 17.518C83.197 16.91 84.071 16.606 84.9324 16.606C85.971 16.606 86.731 16.9606 87.2124 17.67C87.719 18.3793 87.9724 19.2786 87.9724 20.368C87.9724 21.128 87.8457 21.926 87.5924 22.762C87.339 23.598 86.997 24.4213 86.5664 25.232C86.8957 25.5613 87.3644 25.726 87.9724 25.726C88.6817 25.726 89.2897 25.498 89.7964 25.042C90.303 24.586 90.797 23.7753 91.2784 22.61C91.5824 22.61 91.7344 22.724 91.7344 22.952C91.253 24.1173 90.6957 24.9786 90.0624 25.536C89.4544 26.068 88.669 26.3213 87.7064 26.296C87.1237 26.296 86.6424 26.1313 86.2624 25.802C85.553 26.9673 84.7044 27.9553 83.7164 28.766C82.7537 29.5513 81.753 29.944 80.7144 29.944ZM81.2464 29.108C81.829 29.108 82.4117 28.8673 82.9944 28.386C83.577 27.8793 84.109 27.3093 84.5904 26.676C85.0717 26.0426 85.4137 25.498 85.6164 25.042C85.211 24.3073 84.9704 23.7626 84.8944 23.408C84.8437 23.028 84.8184 22.7493 84.8184 22.572C84.8184 22.0906 84.945 21.7233 85.1984 21.47C85.4517 21.2166 85.705 21.09 85.9584 21.09C86.313 21.09 86.617 21.242 86.8704 21.546C86.921 21.2673 86.959 21.014 86.9844 20.786C87.0097 20.5326 87.0224 20.292 87.0224 20.064C87.0224 19.4053 86.8957 18.8733 86.6424 18.468C86.4144 18.0373 86.047 17.822 85.5404 17.822C85.0084 17.822 84.451 18.05 83.8684 18.506C83.2857 18.962 82.7284 19.57 82.1964 20.33C81.6897 21.09 81.2464 21.9386 80.8664 22.876C80.537 23.6613 80.2837 24.4086 80.1064 25.118C79.929 25.802 79.8404 26.4353 79.8404 27.018C79.8404 27.6513 79.9544 28.158 80.1824 28.538C80.4104 28.918 80.765 29.108 81.2464 29.108ZM85.3082 40.318C85.0042 40.318 84.7509 40.28 84.5482 40.204C84.3202 40.1533 84.0289 40.128 83.6742 40.128C83.7756 39.976 84.0289 39.5326 84.4342 38.798C84.8142 38.0886 85.2829 37.1893 85.8402 36.1C86.3976 35.036 86.9929 33.8706 87.6262 32.604C88.2342 31.3626 88.8296 30.134 89.4122 28.918C89.9949 27.6766 90.4889 26.5366 90.8942 25.498C91.3249 24.434 91.6036 23.5853 91.7302 22.952C91.6036 22.952 91.4896 22.9266 91.3882 22.876C91.2869 22.8253 91.2489 22.7366 91.2742 22.61C91.2742 22.61 91.3502 22.382 91.5022 21.926C91.6542 21.47 91.8062 20.9253 91.9582 20.292C92.1102 19.6333 92.1862 19.038 92.1862 18.506C92.1862 18.1513 92.1482 17.8473 92.0722 17.594C91.9962 17.3406 91.8569 17.2013 91.6542 17.176L93.5542 16.872C93.7062 16.8466 93.8456 16.834 93.9722 16.834C94.0989 16.8086 94.2129 16.796 94.3142 16.796C94.5422 16.796 94.6942 16.8846 94.7702 17.062C94.8716 17.214 94.9222 17.5433 94.9222 18.05C94.9222 18.6833 94.8082 19.494 94.5802 20.482C94.3776 21.4446 94.1369 22.2933 93.8582 23.028C94.1369 22.572 94.4916 21.9893 94.9222 21.28C95.3782 20.5706 95.8976 19.8486 96.4802 19.114C97.0629 18.3793 97.6709 17.7713 98.3042 17.29C98.9376 16.7833 99.5582 16.53 100.166 16.53C100.293 16.53 100.458 16.5553 100.66 16.606C101.37 16.7833 101.864 17.138 102.142 17.67C102.446 18.1766 102.598 18.7846 102.598 19.494C102.598 20.254 102.446 21.09 102.142 22.002C101.864 22.914 101.484 23.8133 101.002 24.7C100.521 25.5613 99.9889 26.3466 99.4062 27.056C98.6969 27.9426 97.8482 28.652 96.8602 29.184C95.8722 29.716 94.8589 29.982 93.8202 29.982C92.8829 29.982 92.0089 29.7413 91.1982 29.26L87.5122 38.342C87.1576 39.2033 86.8029 39.748 86.4482 39.976C86.0936 40.204 85.7136 40.318 85.3082 40.318ZM92.6042 29.184C93.3136 29.184 94.1116 28.8546 94.9982 28.196C95.8849 27.5373 96.7336 26.7013 97.5442 25.688C98.3802 24.6493 99.0769 23.6106 99.6342 22.572C100.014 21.8626 100.293 21.2166 100.47 20.634C100.648 20.026 100.736 19.5066 100.736 19.076C100.736 18.088 100.382 17.594 99.6722 17.594C99.3429 17.594 98.9122 17.7713 98.3802 18.126C97.8736 18.4806 97.2782 19.1266 96.5942 20.064C95.8596 21.0773 95.0489 22.3566 94.1622 23.902C93.3009 25.422 92.4142 27.0306 91.5022 28.728C91.8062 29.032 92.1736 29.184 92.6042 29.184ZM109.816 25.536V25.498C108.98 26.7646 108.005 27.854 106.89 28.766C105.801 29.6526 104.749 30.096 103.736 30.096C102.951 30.096 102.343 29.8933 101.912 29.488C101.481 29.0826 101.266 28.5886 101.266 28.006C101.266 27.322 101.507 26.6886 101.988 26.106C102.469 25.5233 102.989 25.232 103.546 25.232C103.749 25.232 103.926 25.308 104.078 25.46C103.723 25.8653 103.419 26.3466 103.166 26.904C102.913 27.436 102.786 27.9173 102.786 28.348V28.462C102.786 28.994 103.014 29.26 103.47 29.26C103.85 29.26 104.293 29.0826 104.8 28.728C105.307 28.348 105.801 27.9046 106.282 27.398C106.789 26.866 107.181 26.3973 107.46 25.992C107.713 25.6373 108.03 25.1053 108.41 24.396C108.79 23.6866 109.132 22.8886 109.436 22.002C109.74 21.1153 109.892 20.254 109.892 19.418C109.917 18.7593 109.816 18.2526 109.588 17.898C109.385 17.5433 109.107 17.366 108.752 17.366C108.245 17.366 107.789 17.556 107.384 17.936C106.979 18.316 106.548 19.0253 106.092 20.064C105.763 20.0893 105.547 20.0386 105.446 19.912C105.345 19.7853 105.294 19.646 105.294 19.494C105.294 19.19 105.509 18.81 105.94 18.354C106.371 17.898 106.903 17.4926 107.536 17.138C108.169 16.758 108.777 16.568 109.36 16.568C110.171 16.568 110.804 16.834 111.26 17.366C111.741 17.898 111.982 18.6326 111.982 19.57C111.982 20.0766 111.906 20.6213 111.754 21.204C111.627 21.7613 111.437 22.3313 111.184 22.914C111.691 22.306 112.248 21.6726 112.856 21.014C113.464 20.33 114.047 19.6966 114.604 19.114C115.187 18.506 115.693 18.012 116.124 17.632C116.555 17.2266 116.846 17.0113 116.998 16.986C117.327 17.0873 117.517 17.252 117.568 17.48C117.644 17.708 117.669 17.9233 117.644 18.126C117.619 18.3033 117.555 18.5313 117.454 18.81C117.378 19.0633 117.201 19.418 116.922 19.874C116.441 20.6846 115.972 21.5586 115.516 22.496C115.06 23.408 114.541 24.5733 113.958 25.992C115.123 24.32 116.339 22.8 117.606 21.432C118.898 20.064 120.152 18.9366 121.368 18.05C121.951 17.5686 122.533 17.1886 123.116 16.91C123.724 16.6313 124.269 16.492 124.75 16.492C125.358 16.492 125.852 16.6946 126.232 17.1C126.612 17.5053 126.802 17.9993 126.802 18.582C126.802 19.0633 126.675 19.5193 126.422 19.95C126.169 20.3806 125.877 20.7353 125.548 21.014C125.219 21.2673 124.94 21.394 124.712 21.394C124.56 21.394 124.408 21.318 124.256 21.166C124.459 20.8873 124.674 20.5706 124.902 20.216C125.155 19.8613 125.333 19.5193 125.434 19.19C125.51 18.886 125.548 18.582 125.548 18.278C125.548 17.9233 125.472 17.6826 125.32 17.556C125.168 17.404 124.953 17.328 124.674 17.328C124.117 17.328 123.534 17.632 122.926 18.24C122.318 18.848 121.761 19.6333 121.254 20.596C120.747 21.5333 120.329 22.534 120 23.598C119.671 24.662 119.493 25.6373 119.468 26.524C119.443 27.1826 119.544 27.816 119.772 28.424C120 29.0066 120.456 29.298 121.14 29.298C121.925 29.298 122.698 28.9813 123.458 28.348C124.243 27.7146 124.991 26.8913 125.7 25.878C126.409 24.8393 127.03 23.75 127.562 22.61C127.663 22.61 127.765 22.6353 127.866 22.686C127.967 22.7113 128.018 22.8 128.018 22.952C127.461 24.2186 126.789 25.3966 126.004 26.486C125.244 27.5753 124.395 28.4493 123.458 29.108C122.546 29.7666 121.583 30.096 120.57 30.096C119.506 30.096 118.695 29.7413 118.138 29.032C117.606 28.3226 117.34 27.4613 117.34 26.448C117.34 25.5613 117.517 24.5733 117.872 23.484C118.252 22.3946 118.708 21.4066 119.24 20.52C118.328 21.356 117.429 22.306 116.542 23.37C115.681 24.434 114.921 25.5233 114.262 26.638C113.603 27.7526 113.147 28.7786 112.894 29.716C112.539 29.716 112.299 29.564 112.172 29.26C112.045 28.9306 111.982 28.5886 111.982 28.234C111.982 27.4993 112.147 26.6506 112.476 25.688C112.805 24.7253 113.122 23.9146 113.426 23.256C113.857 22.3693 114.249 21.5966 114.604 20.938C114.959 20.254 115.263 19.684 115.516 19.228C115.415 19.228 115.199 19.3926 114.87 19.722C114.566 20.026 114.211 20.406 113.806 20.862C113.426 21.318 113.071 21.736 112.742 22.116C111.982 22.9773 111.361 23.674 110.88 24.206C110.399 24.738 110.044 25.1813 109.816 25.536ZM130.303 30.096C129.366 30.096 128.517 29.792 127.757 29.184C127.023 28.576 126.655 27.6513 126.655 26.41C126.655 25.3713 126.883 24.2693 127.339 23.104C127.821 21.9386 128.441 20.8493 129.201 19.836C129.987 18.7973 130.848 17.9613 131.785 17.328C132.748 16.6693 133.711 16.34 134.673 16.34C135.155 16.34 135.623 16.4793 136.079 16.758C136.535 17.0366 136.763 17.518 136.763 18.202C136.763 18.8353 136.523 19.532 136.041 20.292C135.56 21.052 134.876 21.7613 133.989 22.42C133.609 22.6986 133.128 22.9646 132.545 23.218C131.963 23.4713 131.38 23.6866 130.797 23.864C130.215 24.016 129.733 24.092 129.353 24.092C129.227 24.396 129.1 24.8013 128.973 25.308C128.872 25.8146 128.821 26.334 128.821 26.866C128.821 27.4993 128.948 28.0693 129.201 28.576C129.455 29.0826 129.923 29.336 130.607 29.336C131.443 29.336 132.216 29.0953 132.925 28.614C133.66 28.1326 134.306 27.5246 134.863 26.79C135.446 26.0553 135.94 25.308 136.345 24.548C136.751 23.788 137.067 23.142 137.295 22.61C137.599 22.61 137.751 22.724 137.751 22.952C137.422 23.6613 137.042 24.434 136.611 25.27C136.206 26.106 135.712 26.8913 135.129 27.626C134.572 28.3353 133.888 28.9306 133.077 29.412C132.292 29.868 131.367 30.096 130.303 30.096ZM129.619 23.408C129.974 23.408 130.569 23.2813 131.405 23.028C132.241 22.7493 133.001 22.3186 133.685 21.736C134.344 21.1533 134.851 20.52 135.205 19.836C135.56 19.1266 135.737 18.5313 135.737 18.05C135.737 17.4926 135.535 17.214 135.129 17.214C134.825 17.214 134.407 17.4166 133.875 17.822C133.343 18.2273 132.685 18.9113 131.899 19.874C131.418 20.482 130.962 21.1406 130.531 21.85C130.101 22.5593 129.797 23.0786 129.619 23.408ZM140.558 30.096C139.165 30.096 138.126 29.7286 137.442 28.994C136.783 28.2593 136.454 27.2713 136.454 26.03C136.454 25.4473 136.568 24.776 136.796 24.016C137.024 23.256 137.328 22.4833 137.708 21.698C138.088 20.9126 138.506 20.216 138.962 19.608C139.697 18.62 140.507 17.86 141.394 17.328C142.281 16.7706 143.18 16.492 144.092 16.492C145.055 16.492 145.739 16.7073 146.144 17.138C146.575 17.5433 146.79 18.0246 146.79 18.582C146.79 19.114 146.663 19.5953 146.41 20.026C146.157 20.4313 145.865 20.7606 145.536 21.014C145.232 21.2673 144.966 21.394 144.738 21.394C144.535 21.394 144.358 21.318 144.206 21.166C144.409 20.9126 144.624 20.6086 144.852 20.254C145.08 19.8993 145.245 19.5573 145.346 19.228C145.447 18.924 145.498 18.62 145.498 18.316C145.498 17.6573 145.194 17.328 144.586 17.328C143.851 17.328 143.129 17.632 142.42 18.24C141.736 18.848 141.103 19.6333 140.52 20.596C139.963 21.5333 139.507 22.534 139.152 23.598C138.823 24.6366 138.658 25.5993 138.658 26.486C138.658 27.2966 138.823 27.968 139.152 28.5C139.507 29.032 140.077 29.298 140.862 29.298C141.901 29.298 142.813 28.9686 143.598 28.31C144.383 27.626 145.08 26.7773 145.688 25.764C146.296 24.7253 146.828 23.674 147.284 22.61C147.385 22.61 147.487 22.6353 147.588 22.686C147.689 22.7113 147.74 22.8 147.74 22.952C147.233 24.2186 146.638 25.3966 145.954 26.486C145.27 27.5753 144.485 28.4493 143.598 29.108C142.737 29.7666 141.723 30.096 140.558 30.096ZM160.002 15.01C159.369 15.01 158.698 14.9213 157.988 14.744C157.304 14.5666 156.608 14.3893 155.898 14.212C155.214 14.0346 154.568 13.946 153.96 13.946C153.454 13.946 152.985 14.0346 152.554 14.212C152.124 14.364 151.769 14.6806 151.49 15.162L151.376 15.352C151.3 15.4533 151.237 15.504 151.186 15.504C151.136 15.504 151.085 15.466 151.034 15.39C150.984 15.314 150.971 15.2253 150.996 15.124C151.275 14.4146 151.782 13.8573 152.516 13.452C153.251 13.0213 154.087 12.806 155.024 12.806C155.683 12.806 156.519 12.8946 157.532 13.072C158.571 13.2493 159.508 13.338 160.344 13.338C160.876 13.338 161.472 13.3126 162.13 13.262C162.814 13.186 163.46 13.0213 164.068 12.768C164.702 12.4893 165.183 12.046 165.512 11.438C165.766 11.438 165.892 11.5266 165.892 11.704C165.411 12.844 164.752 13.68 163.916 14.212C163.08 14.744 161.776 15.01 160.002 15.01ZM144.878 29.944C144.6 29.944 144.372 29.944 144.194 29.944C143.992 29.9693 143.789 30.0326 143.586 30.134C144.524 28.3353 145.41 26.5366 146.246 24.738C147.082 22.914 147.931 21.1913 148.792 19.57C149.299 18.658 149.717 18.0246 150.046 17.67C150.401 17.29 150.87 17.1 151.452 17.1C151.655 17.1 151.87 17.138 152.098 17.214C152.326 17.2646 152.554 17.29 152.782 17.29C152.934 17.29 153.048 17.2773 153.124 17.252C152.77 17.4546 152.314 17.9613 151.756 18.772C151.199 19.5573 150.629 20.4693 150.046 21.508C149.464 22.5466 148.944 23.522 148.488 24.434C148.97 23.8513 149.464 23.2686 149.97 22.686C150.502 22.1033 151.085 21.546 151.718 21.014C152.276 20.5326 152.858 20.0133 153.466 19.456C154.1 18.8733 154.72 18.3793 155.328 17.974C155.936 17.5686 156.468 17.366 156.924 17.366C157.102 17.366 157.216 17.3786 157.266 17.404C157.748 17.6066 157.988 17.936 157.988 18.392C157.988 18.544 157.925 18.772 157.798 19.076C157.469 19.9373 157.038 20.824 156.506 21.736C156 22.6226 155.518 23.522 155.062 24.434C155.442 23.978 155.911 23.4206 156.468 22.762C157.051 22.1033 157.634 21.5206 158.216 21.014C158.774 20.5073 159.483 19.9753 160.344 19.418C161.206 18.8606 162.054 18.3793 162.89 17.974C163.726 17.5686 164.398 17.366 164.904 17.366C165.082 17.366 165.208 17.3786 165.284 17.404C165.284 17.404 165.145 17.6573 164.866 18.164C164.588 18.6453 164.233 19.2913 163.802 20.102C163.397 20.8873 162.979 21.736 162.548 22.648C162.118 23.5346 161.725 24.396 161.37 25.232C161.041 26.0426 160.826 26.7266 160.724 27.284C160.648 27.6133 160.61 27.9173 160.61 28.196C160.61 28.6013 160.686 28.8673 160.838 28.994C160.99 29.1206 161.155 29.184 161.332 29.184C161.839 29.184 162.333 28.9686 162.814 28.538C163.321 28.1073 163.815 27.5626 164.296 26.904C164.778 26.22 165.208 25.498 165.588 24.738C165.994 23.978 166.336 23.2686 166.614 22.61C166.918 22.61 167.07 22.724 167.07 22.952C166.792 23.636 166.437 24.396 166.006 25.232C165.601 26.0426 165.132 26.8153 164.6 27.55C164.068 28.2846 163.486 28.8926 162.852 29.374C162.219 29.8553 161.535 30.096 160.8 30.096C160.268 30.096 159.762 29.9186 159.28 29.564C158.824 29.2093 158.596 28.5506 158.596 27.588C158.596 26.5493 158.837 25.5106 159.318 24.472C159.825 23.4333 160.344 22.4833 160.876 21.622C161.13 21.1913 161.256 20.8493 161.256 20.596C161.256 20.292 161.104 20.14 160.8 20.14C160.547 20.14 160.192 20.2666 159.736 20.52C159.306 20.7733 158.761 21.2166 158.102 21.85C157.697 22.23 157.216 22.762 156.658 23.446C156.126 24.1046 155.582 24.8266 155.024 25.612C154.467 26.3973 153.986 27.17 153.58 27.93C153.175 28.69 152.909 29.3613 152.782 29.944C152.402 29.944 152.098 29.792 151.87 29.488C151.642 29.1586 151.528 28.7786 151.528 28.348C151.528 28.272 151.528 28.196 151.528 28.12C151.528 28.044 151.541 27.9553 151.566 27.854C151.693 27.0686 151.896 26.41 152.174 25.878C152.453 25.3206 152.77 24.6746 153.124 23.94C153.302 23.6106 153.504 23.2306 153.732 22.8C153.96 22.344 154.163 21.9133 154.34 21.508C154.518 21.0773 154.606 20.7226 154.606 20.444C154.606 20.1906 154.505 20.064 154.302 20.064C154.074 20.064 153.77 20.178 153.39 20.406C153.036 20.634 152.694 20.9 152.364 21.204C152.035 21.4826 151.782 21.698 151.604 21.85C150.971 22.458 150.198 23.332 149.286 24.472C148.4 25.612 147.424 27.2333 146.36 29.336C146.208 29.6146 146.031 29.792 145.828 29.868C145.626 29.9186 145.309 29.944 144.878 29.944ZM176.904 20.558C176.904 21.318 176.702 22.23 176.296 23.294C175.891 24.358 175.321 25.3966 174.586 26.41C173.852 27.4233 172.978 28.272 171.964 28.956C170.976 29.6146 169.9 29.944 168.734 29.944C167.721 29.944 167.012 29.64 166.606 29.032C166.201 28.424 165.998 27.664 165.998 26.752C165.998 26.2453 166.062 25.726 166.188 25.194C166.315 24.662 166.581 23.9653 166.986 23.104C166.758 23.104 166.632 23.0533 166.606 22.952C166.606 22.8253 166.606 22.7113 166.606 22.61C166.86 22.002 167.227 21.204 167.708 20.216C168.19 19.2026 168.747 18.1006 169.38 16.91C170.014 15.694 170.685 14.478 171.394 13.262C172.104 12.046 172.813 10.906 173.522 9.84197C174.232 8.75264 174.903 7.8533 175.536 7.14397C177.183 5.1933 178.792 3.6733 180.362 2.58397C181.933 1.4693 183.44 0.911968 184.884 0.911968C185.746 0.911968 186.404 1.1273 186.86 1.55797C187.342 1.9633 187.582 2.50797 187.582 3.19197C187.582 4.1293 187.152 5.2693 186.29 6.61197C185.429 7.9293 184.137 9.2973 182.414 10.716C181.376 11.5773 179.995 12.5146 178.272 13.528C176.55 14.516 174.523 15.3393 172.192 15.998H172.116C171.255 17.5686 170.482 19.0886 169.798 20.558C169.14 22.0273 168.62 23.3573 168.24 24.548C167.86 25.7133 167.67 26.6506 167.67 27.36C167.67 27.74 167.708 28.082 167.784 28.386C167.835 28.5886 167.949 28.7786 168.126 28.956C168.329 29.108 168.57 29.184 168.848 29.184C169.203 29.184 169.608 29.0446 170.064 28.766C170.546 28.4873 171.078 27.9933 171.66 27.284C172.015 26.8533 172.382 26.334 172.762 25.726C173.142 25.118 173.497 24.4973 173.826 23.864C174.156 23.2053 174.422 22.6226 174.624 22.116C175.055 21.1026 175.27 20.178 175.27 19.342C175.27 18.5313 175.08 17.9993 174.7 17.746C174.346 17.4926 173.801 17.366 173.066 17.366C172.61 17.366 172.382 17.2393 172.382 16.986C172.382 16.8846 172.446 16.7833 172.572 16.682C172.724 16.5806 172.927 16.53 173.18 16.53C174.143 16.53 175.004 16.8846 175.764 17.594C176.524 18.3033 176.904 19.2913 176.904 20.558ZM184.884 2.16597C184.023 2.16597 183.073 2.5333 182.034 3.26797C181.021 3.9773 179.97 4.93997 178.88 6.15597C177.791 7.37197 176.714 8.75264 175.65 10.298C174.612 11.818 173.624 13.3886 172.686 15.01C174.637 14.402 176.41 13.6293 178.006 12.692C179.602 11.7293 180.894 10.8426 181.882 10.032C183.377 8.79064 184.492 7.59997 185.226 6.45997C185.961 5.29464 186.328 4.34464 186.328 3.60997C186.328 3.1793 186.202 2.8373 185.948 2.58397C185.72 2.3053 185.366 2.16597 184.884 2.16597ZM186.764 30.058C186.182 30.058 185.662 29.8933 185.206 29.564C184.776 29.2346 184.56 28.5633 184.56 27.55C184.56 27.1193 184.586 26.714 184.636 26.334C184.712 25.954 184.801 25.5486 184.902 25.118C184.674 25.498 184.358 25.9666 183.952 26.524C183.547 27.0813 183.091 27.626 182.584 28.158C182.103 28.69 181.596 29.1333 181.064 29.488C180.558 29.8426 180.076 30.02 179.62 30.02C178.962 30.02 178.43 29.7286 178.024 29.146C177.619 28.538 177.416 27.7526 177.416 26.79C177.416 25.7513 177.657 24.6366 178.138 23.446C178.62 22.2553 179.278 21.1153 180.114 20.026C180.95 18.9366 181.913 18.05 183.002 17.366C184.092 16.682 185.232 16.34 186.422 16.34C187.005 16.34 187.562 16.4413 188.094 16.644C188.626 16.8213 189.095 17.1253 189.5 17.556C189.678 17.7333 189.766 17.936 189.766 18.164C189.766 18.316 189.703 18.4426 189.576 18.544C189.45 18.6453 189.285 18.6706 189.082 18.62C188.804 17.7333 188.208 17.29 187.296 17.29C186.866 17.29 186.372 17.4293 185.814 17.708C185.13 18.0626 184.396 18.6326 183.61 19.418C182.85 20.178 182.128 21.052 181.444 22.04C180.786 23.0026 180.241 23.978 179.81 24.966C179.38 25.954 179.164 26.8533 179.164 27.664C179.164 28.5 179.481 28.918 180.114 28.918C180.672 28.918 181.242 28.652 181.824 28.12C182.432 27.588 183.002 26.9293 183.534 26.144C184.092 25.3333 184.598 24.5353 185.054 23.75C185.51 22.9646 185.865 22.3313 186.118 21.85C186.498 21.166 186.853 20.596 187.182 20.14C187.512 19.684 187.98 19.456 188.588 19.456C188.867 19.456 189.146 19.494 189.424 19.57C189.703 19.646 189.994 19.6586 190.298 19.608C189.538 20.368 188.867 21.2673 188.284 22.306C187.727 23.3446 187.296 24.3706 186.992 25.384C186.688 26.372 186.536 27.208 186.536 27.892C186.536 28.652 186.79 29.032 187.296 29.032C187.702 29.032 188.132 28.804 188.588 28.348C189.07 27.892 189.526 27.322 189.956 26.638C190.412 25.9286 190.83 25.2193 191.21 24.51C191.59 23.7753 191.894 23.142 192.122 22.61C192.249 22.61 192.35 22.6226 192.426 22.648C192.528 22.6733 192.578 22.7746 192.578 22.952C192.553 23.0533 192.502 23.1673 192.426 23.294C192.376 23.3953 192.287 23.5853 192.16 23.864C191.958 24.2693 191.679 24.814 191.324 25.498C190.97 26.182 190.552 26.8786 190.07 27.588C189.589 28.272 189.07 28.8546 188.512 29.336C187.955 29.8173 187.372 30.058 186.764 30.058ZM200.912 29.944C199.873 29.944 199.1 29.5766 198.594 28.842C198.112 28.082 197.872 27.17 197.872 26.106C197.872 25.118 198.062 24.092 198.442 23.028C198.847 21.8626 199.404 20.7986 200.114 19.836C200.848 18.8733 201.646 18.1006 202.508 17.518C203.394 16.91 204.268 16.606 205.13 16.606C206.168 16.606 206.928 16.9606 207.41 17.67C207.916 18.3793 208.17 19.2786 208.17 20.368C208.17 21.128 208.043 21.926 207.79 22.762C207.536 23.598 207.194 24.4213 206.764 25.232C207.093 25.5613 207.562 25.726 208.17 25.726C208.879 25.726 209.487 25.498 209.994 25.042C210.5 24.586 210.994 23.7753 211.476 22.61C211.78 22.61 211.932 22.724 211.932 22.952C211.45 24.1173 210.893 24.9786 210.26 25.536C209.652 26.068 208.866 26.3213 207.904 26.296C207.321 26.296 206.84 26.1313 206.46 25.802C205.75 26.9673 204.902 27.9553 203.914 28.766C202.951 29.5513 201.95 29.944 200.912 29.944ZM201.444 29.108C202.026 29.108 202.609 28.8673 203.192 28.386C203.774 27.8793 204.306 27.3093 204.788 26.676C205.269 26.0426 205.611 25.498 205.814 25.042C205.408 24.3073 205.168 23.7626 205.092 23.408C205.041 23.028 205.016 22.7493 205.016 22.572C205.016 22.0906 205.142 21.7233 205.396 21.47C205.649 21.2166 205.902 21.09 206.156 21.09C206.51 21.09 206.814 21.242 207.068 21.546C207.118 21.2673 207.156 21.014 207.182 20.786C207.207 20.5326 207.22 20.292 207.22 20.064C207.22 19.4053 207.093 18.8733 206.84 18.468C206.612 18.0373 206.244 17.822 205.738 17.822C205.206 17.822 204.648 18.05 204.066 18.506C203.483 18.962 202.926 19.57 202.394 20.33C201.887 21.09 201.444 21.9386 201.064 22.876C200.734 23.6613 200.481 24.4086 200.304 25.118C200.126 25.802 200.038 26.4353 200.038 27.018C200.038 27.6513 200.152 28.158 200.38 28.538C200.608 28.918 200.962 29.108 201.444 29.108ZM214.739 30.096C213.346 30.096 212.307 29.7286 211.623 28.994C210.965 28.2593 210.635 27.2713 210.635 26.03C210.635 25.4473 210.749 24.776 210.977 24.016C211.205 23.256 211.509 22.4833 211.889 21.698C212.269 20.9126 212.687 20.216 213.143 19.608C213.878 18.62 214.689 17.86 215.575 17.328C216.462 16.7706 217.361 16.492 218.273 16.492C219.236 16.492 219.92 16.7073 220.325 17.138C220.756 17.5433 220.971 18.0246 220.971 18.582C220.971 19.114 220.845 19.5953 220.591 20.026C220.338 20.4313 220.047 20.7606 219.717 21.014C219.413 21.2673 219.147 21.394 218.919 21.394C218.717 21.394 218.539 21.318 218.387 21.166C218.59 20.9126 218.805 20.6086 219.033 20.254C219.261 19.8993 219.426 19.5573 219.527 19.228C219.629 18.924 219.679 18.62 219.679 18.316C219.679 17.6573 219.375 17.328 218.767 17.328C218.033 17.328 217.311 17.632 216.601 18.24C215.917 18.848 215.284 19.6333 214.701 20.596C214.144 21.5333 213.688 22.534 213.333 23.598C213.004 24.6366 212.839 25.5993 212.839 26.486C212.839 27.2966 213.004 27.968 213.333 28.5C213.688 29.032 214.258 29.298 215.043 29.298C216.082 29.298 216.994 28.9686 217.779 28.31C218.565 27.626 219.261 26.7773 219.869 25.764C220.477 24.7253 221.009 23.674 221.465 22.61C221.567 22.61 221.668 22.6353 221.769 22.686C221.871 22.7113 221.921 22.8 221.921 22.952C221.415 24.2186 220.819 25.3966 220.135 26.486C219.451 27.5753 218.666 28.4493 217.779 29.108C216.918 29.7666 215.905 30.096 214.739 30.096ZM234.184 15.01C233.551 15.01 232.879 14.9213 232.17 14.744C231.486 14.5666 230.789 14.3893 230.08 14.212C229.396 14.0346 228.75 13.946 228.142 13.946C227.635 13.946 227.167 14.0346 226.736 14.212C226.305 14.364 225.951 14.6806 225.672 15.162L225.558 15.352C225.482 15.4533 225.419 15.504 225.368 15.504C225.317 15.504 225.267 15.466 225.216 15.39C225.165 15.314 225.153 15.2253 225.178 15.124C225.457 14.4146 225.963 13.8573 226.698 13.452C227.433 13.0213 228.269 12.806 229.206 12.806C229.865 12.806 230.701 12.8946 231.714 13.072C232.753 13.2493 233.69 13.338 234.526 13.338C235.058 13.338 235.653 13.3126 236.312 13.262C236.996 13.186 237.642 13.0213 238.25 12.768C238.883 12.4893 239.365 12.046 239.694 11.438C239.947 11.438 240.074 11.5266 240.074 11.704C239.593 12.844 238.934 13.68 238.098 14.212C237.262 14.744 235.957 15.01 234.184 15.01ZM219.06 29.944C218.781 29.944 218.553 29.944 218.376 29.944C218.173 29.9693 217.971 30.0326 217.768 30.134C218.705 28.3353 219.592 26.5366 220.428 24.738C221.264 22.914 222.113 21.1913 222.974 19.57C223.481 18.658 223.899 18.0246 224.228 17.67C224.583 17.29 225.051 17.1 225.634 17.1C225.837 17.1 226.052 17.138 226.28 17.214C226.508 17.2646 226.736 17.29 226.964 17.29C227.116 17.29 227.23 17.2773 227.306 17.252C226.951 17.4546 226.495 17.9613 225.938 18.772C225.381 19.5573 224.811 20.4693 224.228 21.508C223.645 22.5466 223.126 23.522 222.67 24.434C223.151 23.8513 223.645 23.2686 224.152 22.686C224.684 22.1033 225.267 21.546 225.9 21.014C226.457 20.5326 227.04 20.0133 227.648 19.456C228.281 18.8733 228.902 18.3793 229.51 17.974C230.118 17.5686 230.65 17.366 231.106 17.366C231.283 17.366 231.397 17.3786 231.448 17.404C231.929 17.6066 232.17 17.936 232.17 18.392C232.17 18.544 232.107 18.772 231.98 19.076C231.651 19.9373 231.22 20.824 230.688 21.736C230.181 22.6226 229.7 23.522 229.244 24.434C229.624 23.978 230.093 23.4206 230.65 22.762C231.233 22.1033 231.815 21.5206 232.398 21.014C232.955 20.5073 233.665 19.9753 234.526 19.418C235.387 18.8606 236.236 18.3793 237.072 17.974C237.908 17.5686 238.579 17.366 239.086 17.366C239.263 17.366 239.39 17.3786 239.466 17.404C239.466 17.404 239.327 17.6573 239.048 18.164C238.769 18.6453 238.415 19.2913 237.984 20.102C237.579 20.8873 237.161 21.736 236.73 22.648C236.299 23.5346 235.907 24.396 235.552 25.232C235.223 26.0426 235.007 26.7266 234.906 27.284C234.83 27.6133 234.792 27.9173 234.792 28.196C234.792 28.6013 234.868 28.8673 235.02 28.994C235.172 29.1206 235.337 29.184 235.514 29.184C236.021 29.184 236.515 28.9686 236.996 28.538C237.503 28.1073 237.997 27.5626 238.478 26.904C238.959 26.22 239.39 25.498 239.77 24.738C240.175 23.978 240.517 23.2686 240.796 22.61C241.1 22.61 241.252 22.724 241.252 22.952C240.973 23.636 240.619 24.396 240.188 25.232C239.783 26.0426 239.314 26.8153 238.782 27.55C238.25 28.2846 237.667 28.8926 237.034 29.374C236.401 29.8553 235.717 30.096 234.982 30.096C234.45 30.096 233.943 29.9186 233.462 29.564C233.006 29.2093 232.778 28.5506 232.778 27.588C232.778 26.5493 233.019 25.5106 233.5 24.472C234.007 23.4333 234.526 22.4833 235.058 21.622C235.311 21.1913 235.438 20.8493 235.438 20.596C235.438 20.292 235.286 20.14 234.982 20.14C234.729 20.14 234.374 20.2666 233.918 20.52C233.487 20.7733 232.943 21.2166 232.284 21.85C231.879 22.23 231.397 22.762 230.84 23.446C230.308 24.1046 229.763 24.8266 229.206 25.612C228.649 26.3973 228.167 27.17 227.762 27.93C227.357 28.69 227.091 29.3613 226.964 29.944C226.584 29.944 226.28 29.792 226.052 29.488C225.824 29.1586 225.71 28.7786 225.71 28.348C225.71 28.272 225.71 28.196 225.71 28.12C225.71 28.044 225.723 27.9553 225.748 27.854C225.875 27.0686 226.077 26.41 226.356 25.878C226.635 25.3206 226.951 24.6746 227.306 23.94C227.483 23.6106 227.686 23.2306 227.914 22.8C228.142 22.344 228.345 21.9133 228.522 21.508C228.699 21.0773 228.788 20.7226 228.788 20.444C228.788 20.1906 228.687 20.064 228.484 20.064C228.256 20.064 227.952 20.178 227.572 20.406C227.217 20.634 226.875 20.9 226.546 21.204C226.217 21.4826 225.963 21.698 225.786 21.85C225.153 22.458 224.38 23.332 223.468 24.472C222.581 25.612 221.606 27.2333 220.542 29.336C220.39 29.6146 220.213 29.792 220.01 29.868C219.807 29.9186 219.491 29.944 219.06 29.944ZM249.034 30.058C248.451 30.058 247.932 29.8933 247.476 29.564C247.045 29.2346 246.83 28.5633 246.83 27.55C246.83 27.1193 246.855 26.714 246.906 26.334C246.982 25.954 247.071 25.5486 247.172 25.118C246.944 25.498 246.627 25.9666 246.222 26.524C245.817 27.0813 245.361 27.626 244.854 28.158C244.373 28.69 243.866 29.1333 243.334 29.488C242.827 29.8426 242.346 30.02 241.89 30.02C241.231 30.02 240.699 29.7286 240.294 29.146C239.889 28.538 239.686 27.7526 239.686 26.79C239.686 25.7513 239.927 24.6366 240.408 23.446C240.889 22.2553 241.548 21.1153 242.384 20.026C243.22 18.9366 244.183 18.05 245.272 17.366C246.361 16.682 247.501 16.34 248.692 16.34C249.275 16.34 249.832 16.4413 250.364 16.644C250.896 16.8213 251.365 17.1253 251.77 17.556C251.947 17.7333 252.036 17.936 252.036 18.164C252.036 18.316 251.973 18.4426 251.846 18.544C251.719 18.6453 251.555 18.6706 251.352 18.62C251.073 17.7333 250.478 17.29 249.566 17.29C249.135 17.29 248.641 17.4293 248.084 17.708C247.4 18.0626 246.665 18.6326 245.88 19.418C245.12 20.178 244.398 21.052 243.714 22.04C243.055 23.0026 242.511 23.978 242.08 24.966C241.649 25.954 241.434 26.8533 241.434 27.664C241.434 28.5 241.751 28.918 242.384 28.918C242.941 28.918 243.511 28.652 244.094 28.12C244.702 27.588 245.272 26.9293 245.804 26.144C246.361 25.3333 246.868 24.5353 247.324 23.75C247.78 22.9646 248.135 22.3313 248.388 21.85C248.768 21.166 249.123 20.596 249.452 20.14C249.781 19.684 250.25 19.456 250.858 19.456C251.137 19.456 251.415 19.494 251.694 19.57C251.973 19.646 252.264 19.6586 252.568 19.608C251.808 20.368 251.137 21.2673 250.554 22.306C249.997 23.3446 249.566 24.3706 249.262 25.384C248.958 26.372 248.806 27.208 248.806 27.892C248.806 28.652 249.059 29.032 249.566 29.032C250.073 29.032 250.617 28.69 251.2 28.006C251.783 27.2966 252.327 26.5113 252.834 25.65C252.961 25.65 253.049 25.7006 253.1 25.802C253.176 25.9033 253.214 26.0046 253.214 26.106C252.859 26.7393 252.454 27.36 251.998 27.968C251.567 28.576 251.099 29.0826 250.592 29.488C250.111 29.868 249.591 30.058 249.034 30.058ZM260.107 23.94C259.448 25.0546 258.815 26.0806 258.207 27.018C257.599 27.9553 256.966 28.7026 256.307 29.26C255.674 29.792 254.952 30.058 254.141 30.058C253.533 30.058 252.988 29.8806 252.507 29.526C252.026 29.146 251.785 28.6013 251.785 27.892C251.785 27.4613 251.886 26.9926 252.089 26.486C252.266 25.9793 252.532 25.5486 252.887 25.194C253.267 24.8393 253.723 24.6873 254.255 24.738C254.61 24.7633 254.926 24.9026 255.205 25.156C254.749 25.5866 254.394 26.0933 254.141 26.676C253.888 27.2586 253.761 27.7653 253.761 28.196C253.761 28.4493 253.812 28.69 253.913 28.918C254.04 29.1206 254.255 29.222 254.559 29.222C255.04 29.222 255.534 28.956 256.041 28.424C256.573 27.8666 257.118 27.1573 257.675 26.296C258.258 25.4093 258.828 24.4973 259.385 23.56C260.12 22.3693 260.842 21.2673 261.551 20.254C262.286 19.2406 262.97 18.4553 263.603 17.898C264.414 17.214 265.186 16.872 265.921 16.872H266.073C267.086 16.872 267.365 17.3533 266.909 18.316L265.579 21.166C265.351 21.622 265.072 22.192 264.743 22.876C264.439 23.5346 264.135 24.2186 263.831 24.928C263.552 25.612 263.324 26.2706 263.147 26.904C262.995 27.512 262.944 28.006 262.995 28.386C263.071 28.766 263.324 28.956 263.755 28.956C264.388 28.956 265.009 28.6266 265.617 27.968C266.25 27.3093 266.846 26.4986 267.403 25.536C267.96 24.548 268.454 23.5726 268.885 22.61C268.986 22.61 269.088 22.648 269.189 22.724C269.29 22.7746 269.341 22.8506 269.341 22.952C268.885 24.092 268.353 25.194 267.745 26.258C267.162 27.322 266.478 28.196 265.693 28.88C264.933 29.564 264.046 29.906 263.033 29.906C262.045 29.906 261.424 29.564 261.171 28.88C260.943 28.1706 260.968 27.246 261.247 26.106C261.551 24.966 262.02 23.7246 262.653 22.382C263.286 21.014 263.983 19.684 264.743 18.392C265.022 17.936 265.098 17.708 264.971 17.708C264.87 17.708 264.692 17.8093 264.439 18.012C264.211 18.1893 263.996 18.3793 263.793 18.582C263.312 19.038 262.792 19.6713 262.235 20.482C261.678 21.2926 260.968 22.4453 260.107 23.94ZM271.16 29.944C270.121 29.944 269.348 29.5766 268.842 28.842C268.36 28.082 268.12 27.17 268.12 26.106C268.12 25.118 268.31 24.092 268.69 23.028C269.095 21.8626 269.652 20.7986 270.362 19.836C271.096 18.8733 271.894 18.1006 272.756 17.518C273.642 16.91 274.516 16.606 275.378 16.606C276.416 16.606 277.176 16.9606 277.658 17.67C278.164 18.3793 278.418 19.2786 278.418 20.368C278.418 21.128 278.291 21.926 278.038 22.762C277.784 23.598 277.442 24.4213 277.012 25.232C277.341 25.5613 277.81 25.726 278.418 25.726C279.127 25.726 279.735 25.498 280.242 25.042C280.748 24.586 281.242 23.7753 281.724 22.61C282.028 22.61 282.18 22.724 282.18 22.952C281.698 24.1173 281.141 24.9786 280.508 25.536C279.9 26.068 279.114 26.3213 278.152 26.296C277.569 26.296 277.088 26.1313 276.708 25.802C275.998 26.9673 275.15 27.9553 274.162 28.766C273.199 29.5513 272.198 29.944 271.16 29.944ZM271.692 29.108C272.274 29.108 272.857 28.8673 273.44 28.386C274.022 27.8793 274.554 27.3093 275.036 26.676C275.517 26.0426 275.859 25.498 276.062 25.042C275.656 24.3073 275.416 23.7626 275.34 23.408C275.289 23.028 275.264 22.7493 275.264 22.572C275.264 22.0906 275.39 21.7233 275.644 21.47C275.897 21.2166 276.15 21.09 276.404 21.09C276.758 21.09 277.062 21.242 277.316 21.546C277.366 21.2673 277.404 21.014 277.43 20.786C277.455 20.5326 277.468 20.292 277.468 20.064C277.468 19.4053 277.341 18.8733 277.088 18.468C276.86 18.0373 276.492 17.822 275.986 17.822C275.454 17.822 274.896 18.05 274.314 18.506C273.731 18.962 273.174 19.57 272.642 20.33C272.135 21.09 271.692 21.9386 271.312 22.876C270.982 23.6613 270.729 24.4086 270.552 25.118C270.374 25.802 270.286 26.4353 270.286 27.018C270.286 27.6513 270.4 28.158 270.628 28.538C270.856 28.918 271.21 29.108 271.692 29.108ZM284.988 30.096C283.594 30.096 282.556 29.7286 281.872 28.994C281.213 28.2593 280.884 27.2713 280.884 26.03C280.884 25.4473 280.998 24.776 281.226 24.016C281.454 23.256 281.758 22.4833 282.138 21.698C282.518 20.9126 282.936 20.216 283.392 19.608C284.126 18.62 284.937 17.86 285.824 17.328C286.71 16.7706 287.61 16.492 288.522 16.492C289.484 16.492 290.168 16.7073 290.574 17.138C291.004 17.5433 291.22 18.0246 291.22 18.582C291.22 19.114 291.093 19.5953 290.84 20.026C290.586 20.4313 290.295 20.7606 289.966 21.014C289.662 21.2673 289.396 21.394 289.168 21.394C288.965 21.394 288.788 21.318 288.636 21.166C288.838 20.9126 289.054 20.6086 289.282 20.254C289.51 19.8993 289.674 19.5573 289.776 19.228C289.877 18.924 289.928 18.62 289.928 18.316C289.928 17.6573 289.624 17.328 289.016 17.328C288.281 17.328 287.559 17.632 286.85 18.24C286.166 18.848 285.532 19.6333 284.95 20.596C284.392 21.5333 283.936 22.534 283.582 23.598C283.252 24.6366 283.088 25.5993 283.088 26.486C283.088 27.2966 283.252 27.968 283.582 28.5C283.936 29.032 284.506 29.298 285.292 29.298C286.33 29.298 287.242 28.9686 288.028 28.31C288.813 27.626 289.51 26.7773 290.118 25.764C290.726 24.7253 291.258 23.674 291.714 22.61C291.815 22.61 291.916 22.6353 292.018 22.686C292.119 22.7113 292.17 22.8 292.17 22.952C291.663 24.2186 291.068 25.3966 290.384 26.486C289.7 27.5753 288.914 28.4493 288.028 29.108C287.166 29.7666 286.153 30.096 284.988 30.096ZM299.72 25.194C299.289 26.0806 298.745 26.904 298.086 27.664C297.427 28.424 296.68 29.0446 295.844 29.526C295.008 29.982 294.096 30.21 293.108 30.21C292.069 30.21 291.322 29.9186 290.866 29.336C290.435 28.7533 290.22 28.0313 290.22 27.17C290.22 26.6633 290.283 26.1693 290.41 25.688C290.537 25.2066 290.689 24.7253 290.866 24.244C291.119 23.636 291.474 22.9013 291.93 22.04C292.386 21.1786 292.893 20.33 293.45 19.494C294.007 18.658 294.565 17.9613 295.122 17.404C295.679 16.8466 296.173 16.568 296.604 16.568C296.807 16.568 297.022 16.606 297.25 16.682C297.478 16.7326 297.719 16.758 297.972 16.758C298.073 16.758 298.162 16.7453 298.238 16.72C298.086 16.796 297.845 17.0366 297.516 17.442C297.187 17.822 296.807 18.2906 296.376 18.848C295.971 19.4053 295.553 19.9753 295.122 20.558C294.691 21.1406 294.311 21.66 293.982 22.116C294.413 21.66 294.983 21.204 295.692 20.748C296.401 20.2666 297.149 20.026 297.934 20.026C298.795 20.026 299.429 20.2666 299.834 20.748C300.239 21.2293 300.442 21.7993 300.442 22.458C300.442 22.914 300.366 23.3953 300.214 23.902C300.087 24.3833 299.923 24.814 299.72 25.194ZM297.592 25.802C297.896 25.2193 298.111 24.6746 298.238 24.168C298.365 23.636 298.428 23.2053 298.428 22.876C298.428 22.3693 298.327 21.9513 298.124 21.622C297.921 21.2673 297.567 21.09 297.06 21.09C296.427 21.09 295.73 21.4446 294.97 22.154C294.21 22.8633 293.526 23.7753 292.918 24.89C292.538 25.5993 292.259 26.22 292.082 26.752C291.93 27.284 291.854 27.7906 291.854 28.272C291.854 28.6773 291.955 29.0066 292.158 29.26C292.361 29.5133 292.728 29.64 293.26 29.64C293.817 29.64 294.527 29.298 295.388 28.614C296.275 27.9046 297.009 26.9673 297.592 25.802ZM309.172 21.964C308.767 21.964 308.437 21.8373 308.184 21.584C307.931 21.3306 307.804 21.014 307.804 20.634C307.804 20.1273 307.994 19.6966 308.374 19.342C308.754 18.962 309.185 18.772 309.666 18.772C310.071 18.772 310.401 18.8986 310.654 19.152C310.907 19.4053 311.034 19.722 311.034 20.102C311.034 20.5833 310.831 21.014 310.426 21.394C310.046 21.774 309.628 21.964 309.172 21.964ZM304.916 30.514C304.561 30.514 304.257 30.3873 304.004 30.134C303.751 29.8806 303.624 29.564 303.624 29.184C303.624 28.6773 303.814 28.2466 304.194 27.892C304.574 27.5373 305.005 27.36 305.486 27.36C305.891 27.36 306.208 27.4866 306.436 27.74C306.689 27.968 306.816 28.272 306.816 28.652C306.816 29.1333 306.613 29.564 306.208 29.944C305.828 30.324 305.397 30.514 304.916 30.514Z" fill="#FFF5D1"/>
</svg>
