<svg width="336" height="58" viewBox="0 0 336 58" fill="none" xmlns="http://www.w3.org/2000/svg">
<path d="M30.628 38.378H34.472V50.592H29.698L28.644 44.082H5.828L4.774 50.592H5.25266e-07V38.378H3.658L12.586 9.48602C12.8753 8.61802 13.206 7.66735 13.578 6.63402C13.9913 5.60068 14.5493 4.62935 15.252 3.72002C15.9547 2.76935 16.8847 2.00468 18.042 1.42602C19.2407 0.847351 20.77 0.558017 22.63 0.558017H30.628V38.378ZM24.862 38.378V5.58002H23.498C22.6713 5.58002 21.9273 5.68335 21.266 5.89002C20.646 6.09669 20.1087 6.46869 19.654 7.00602C19.1993 7.50202 18.8067 8.24602 18.476 9.23802L9.672 38.378H24.862ZM59.7758 32.55C59.7758 36.1874 58.8458 39.122 56.9858 41.354C55.1258 43.5447 52.3151 44.64 48.5538 44.64C45.8671 44.64 43.6558 44.082 41.9198 42.966C40.1838 41.85 38.9024 40.3827 38.0758 38.564C37.2491 36.704 36.8358 34.6994 36.8358 32.55V24.366C36.8358 21.7207 37.2904 19.5094 38.1998 17.732C39.1091 15.9547 40.4318 14.6114 42.1678 13.702C43.9038 12.7514 46.0118 12.276 48.4918 12.276C52.1291 12.276 54.9191 13.3507 56.8618 15.5C58.8044 17.608 59.7758 20.5634 59.7758 24.366V32.55ZM53.9478 24.118C53.9478 22.7954 53.7411 21.6794 53.3278 20.77C52.9558 19.8194 52.3564 19.1167 51.5298 18.662C50.7444 18.166 49.7318 17.918 48.4918 17.918C47.2104 17.918 46.1358 18.166 45.2678 18.662C44.4411 19.1167 43.8004 19.7987 43.3458 20.708C42.8911 21.6174 42.6638 22.754 42.6638 24.118V33.108C42.6638 34.1827 42.8704 35.1954 43.2838 36.146C43.7384 37.0554 44.3998 37.7787 45.2678 38.316C46.1358 38.8534 47.2104 39.122 48.4918 39.122C49.7731 39.122 50.8064 38.874 51.5918 38.378C52.4184 37.8407 53.0178 37.1174 53.3898 36.208C53.7618 35.2987 53.9478 34.2654 53.9478 33.108V24.118ZM87.0335 33.418C87.0335 35.9394 86.6408 38.068 85.8555 39.804C85.0701 41.54 83.8921 42.8627 82.3215 43.772C80.7921 44.64 78.8701 45.074 76.5555 45.074C75.8941 45.074 75.2328 45.012 74.5715 44.888C73.9101 44.764 73.2901 44.578 72.7115 44.33C72.1741 44.1234 71.6575 43.8754 71.1615 43.586C70.6655 43.2554 70.2315 42.9247 69.8595 42.594V57.35L64.0935 55.862V24.676C64.0935 20.7494 65.1061 17.7527 67.1315 15.686C69.1568 13.578 72.0295 12.524 75.7495 12.524C79.3455 12.524 82.1148 13.5987 84.0575 15.748C86.0415 17.8974 87.0335 20.8734 87.0335 24.676V33.418ZM81.3295 24.428C81.3295 23.1054 81.1021 21.9894 80.6475 21.08C80.2341 20.1294 79.5935 19.406 78.7255 18.91C77.8988 18.414 76.8655 18.166 75.6255 18.166C74.3855 18.166 73.3315 18.414 72.4635 18.91C71.5955 19.3647 70.9341 20.0674 70.4795 21.018C70.0661 21.9274 69.8595 23.064 69.8595 24.428V35.03C69.8595 35.8567 70.0455 36.58 70.4175 37.2C70.8308 37.82 71.3475 38.3367 71.9675 38.75C72.5875 39.122 73.2695 39.4114 74.0135 39.618C74.7575 39.8247 75.4808 39.928 76.1835 39.928C77.2995 39.928 78.2295 39.7007 78.9735 39.246C79.7588 38.7914 80.3375 38.1507 80.7095 37.324C81.1228 36.456 81.3295 35.4227 81.3295 34.224V24.428ZM114.026 32.55C114.026 36.1874 113.096 39.122 111.236 41.354C109.376 43.5447 106.565 44.64 102.804 44.64C100.117 44.64 97.9058 44.082 96.1698 42.966C94.4338 41.85 93.1524 40.3827 92.3258 38.564C91.4991 36.704 91.0858 34.6994 91.0858 32.55V24.366C91.0858 21.7207 91.5404 19.5094 92.4498 17.732C93.3591 15.9547 94.6818 14.6114 96.4178 13.702C98.1538 12.7514 100.262 12.276 102.742 12.276C106.379 12.276 109.169 13.3507 111.112 15.5C113.054 17.608 114.026 20.5634 114.026 24.366V32.55ZM108.198 24.118C108.198 22.7954 107.991 21.6794 107.578 20.77C107.206 19.8194 106.606 19.1167 105.78 18.662C104.994 18.166 103.982 17.918 102.742 17.918C101.46 17.918 100.386 18.166 99.5178 18.662C98.6911 19.1167 98.0504 19.7987 97.5958 20.708C97.1411 21.6174 96.9138 22.754 96.9138 24.118V33.108C96.9138 34.1827 97.1204 35.1954 97.5338 36.146C97.9884 37.0554 98.6498 37.7787 99.5178 38.316C100.386 38.8534 101.46 39.122 102.742 39.122C104.023 39.122 105.056 38.874 105.842 38.378C106.668 37.8407 107.268 37.1174 107.64 36.208C108.012 35.2987 108.198 34.2654 108.198 33.108V24.118ZM118.157 13.02H135.207V18.662H123.985V44.02H118.157V13.02ZM143.911 13.02V33.852L155.009 13.02H161.085V44.082H155.257V23.312L144.159 44.082H138.207V13.02H143.911ZM171.211 35.092C171.211 35.836 171.314 36.4767 171.521 37.014C171.769 37.5514 172.079 38.006 172.451 38.378C172.864 38.75 173.36 39.0394 173.939 39.246C174.517 39.4114 175.158 39.494 175.861 39.494C177.101 39.494 178.444 39.2667 179.891 38.812C181.337 38.316 182.743 37.7167 184.107 37.014L186.215 41.85C184.768 42.7594 183.115 43.4827 181.255 44.02C179.395 44.5574 177.597 44.826 175.861 44.826C174.373 44.826 172.988 44.64 171.707 44.268C170.425 43.9374 169.309 43.4207 168.359 42.718C167.408 41.974 166.664 41.0234 166.127 39.866C165.631 38.7087 165.383 37.3034 165.383 35.65V22.94C165.383 20.584 165.879 18.6207 166.871 17.05C167.904 15.4794 169.289 14.3014 171.025 13.516C172.761 12.7307 174.703 12.338 176.853 12.338C179.085 12.338 181.007 12.7307 182.619 13.516C184.272 14.3014 185.533 15.4587 186.401 16.988C187.31 18.5174 187.765 20.4394 187.765 22.754V31.93L171.211 32.798V35.092ZM182.061 23.87C182.061 22.754 181.875 21.7207 181.503 20.77C181.131 19.8194 180.573 19.0547 179.829 18.476C179.085 17.8974 178.072 17.6494 176.791 17.732C175.427 17.732 174.331 18.0007 173.505 18.538C172.678 19.034 172.079 19.7574 171.707 20.708C171.376 21.6174 171.211 22.7334 171.211 24.056V27.466L182.061 26.846V23.87ZM209.159 13.02H226.209V18.662H214.987V44.02H209.159V13.02ZM251.467 32.55C251.467 36.1874 250.537 39.122 248.677 41.354C246.817 43.5447 244.006 44.64 240.245 44.64C237.558 44.64 235.347 44.082 233.611 42.966C231.875 41.85 230.594 40.3827 229.767 38.564C228.94 36.704 228.527 34.6994 228.527 32.55V24.366C228.527 21.7207 228.982 19.5094 229.891 17.732C230.8 15.9547 232.123 14.6114 233.859 13.702C235.595 12.7514 237.703 12.276 240.183 12.276C243.82 12.276 246.61 13.3507 248.553 15.5C250.496 17.608 251.467 20.5634 251.467 24.366V32.55ZM245.639 24.118C245.639 22.7954 245.432 21.6794 245.019 20.77C244.647 19.8194 244.048 19.1167 243.221 18.662C242.436 18.166 241.423 17.918 240.183 17.918C238.902 17.918 237.827 18.166 236.959 18.662C236.132 19.1167 235.492 19.7987 235.037 20.708C234.582 21.6174 234.355 22.754 234.355 24.118V33.108C234.355 34.1827 234.562 35.1954 234.975 36.146C235.43 37.0554 236.091 37.7787 236.959 38.316C237.827 38.8534 238.902 39.122 240.183 39.122C241.464 39.122 242.498 38.874 243.283 38.378C244.11 37.8407 244.709 37.1174 245.081 36.208C245.453 35.2987 245.639 34.2654 245.639 33.108V24.118ZM274.013 18.848C273.145 18.4347 272.194 18.104 271.161 17.856C270.128 17.5667 269.115 17.4014 268.123 17.36C266.676 17.2774 265.416 17.484 264.341 17.98C263.308 18.476 262.522 19.22 261.985 20.212C261.448 21.204 261.158 22.4234 261.117 23.87V32.922C261.117 34.0794 261.262 35.092 261.551 35.96C261.882 36.828 262.357 37.5307 262.977 38.068C263.597 38.6054 264.341 39.0187 265.209 39.308C266.118 39.556 267.131 39.68 268.247 39.68C268.991 39.68 269.735 39.6594 270.479 39.618C271.223 39.5354 271.884 39.4527 272.463 39.37C273.083 39.246 273.558 39.1427 273.889 39.06C274.22 38.9774 274.385 38.936 274.385 38.936L275.439 43.71C274.158 44.0407 272.814 44.3094 271.409 44.516C270.045 44.7227 268.681 44.8054 267.317 44.764C264.961 44.6814 262.874 44.2474 261.055 43.462C259.278 42.6354 257.893 41.3954 256.901 39.742C255.909 38.0474 255.413 35.8774 255.413 33.232V24.18C255.413 21.824 255.847 19.7574 256.715 17.98C257.624 16.2027 258.947 14.7974 260.683 13.764C262.46 12.7307 264.63 12.2554 267.193 12.338C268.557 12.338 269.921 12.524 271.285 12.896C272.69 13.268 274.034 13.7434 275.315 14.322L274.013 18.848ZM291.05 35.154C291.05 36.2287 291.174 37.1587 291.422 37.944C291.711 38.688 292.145 39.3287 292.724 39.866C293.302 40.362 294.067 40.7754 295.018 41.106L292.724 45.136C291.525 44.8054 290.45 44.3714 289.5 43.834C288.59 43.2554 287.826 42.5734 287.206 41.788C286.586 41.0027 286.11 40.114 285.78 39.122C285.49 38.0887 285.346 36.9727 285.346 35.774V18.352H278.96V12.958H297.808V18.352H291.05V35.154ZM307.63 13.02V33.852L318.728 13.02H324.804V44.082H318.976V23.312L307.878 44.082H301.926V13.02H307.63ZM329.535 3.59602C329.535 2.35602 329.783 1.44668 330.279 0.868017C330.817 0.28935 331.581 1.71661e-05 332.573 1.71661e-05C333.648 1.71661e-05 334.454 0.28935 334.991 0.868017C335.529 1.44668 335.797 2.33535 335.797 3.53402L334.681 36.518H330.527L329.535 3.59602ZM332.697 38.254C333.565 38.254 334.289 38.564 334.867 39.184C335.487 39.804 335.797 40.5687 335.797 41.478C335.797 42.346 335.487 43.09 334.867 43.71C334.289 44.33 333.565 44.64 332.697 44.64C331.829 44.64 331.085 44.33 330.465 43.71C329.845 43.09 329.535 42.346 329.535 41.478C329.535 40.5687 329.845 39.804 330.465 39.184C331.085 38.564 331.829 38.254 332.697 38.254Z" fill="#FFF5D1"/>
</svg>
