<svg width="189" height="56" viewBox="0 0 189 56" fill="none" xmlns="http://www.w3.org/2000/svg">
<path d="M8.424 43.2121C7.00267 43.2121 5.65067 43.0041 4.368 42.5881C3.08534 42.1721 2.028 41.5481 1.196 40.7161C0.398669 39.8841 2.35438e-06 38.8441 2.35438e-06 37.5961C2.35438e-06 36.3134 0.554669 35.1521 1.664 34.1121C2.808 33.0721 4.42 32.5521 6.5 32.5521C8.684 32.5521 10.7467 33.0547 12.688 34.0601C14.664 35.0307 16.744 36.0881 18.928 37.2321C20.7653 35.4641 22.3947 33.4187 23.816 31.0961C25.272 28.7387 26.6587 26.2601 27.976 23.6601C29.328 21.0601 30.7147 18.4774 32.136 15.9121C33.5573 13.3121 35.152 10.9027 36.92 8.68407C37.232 8.30274 37.544 7.92141 37.856 7.54007C38.168 7.12407 38.4973 6.72541 38.844 6.34407C36.972 5.23474 34.9613 4.38541 32.812 3.79607C30.6627 3.17207 28.444 2.86007 26.156 2.86007C23.3133 2.86007 20.6787 3.22407 18.252 3.95207C15.8253 4.68007 13.7107 5.66807 11.908 6.91607C10.14 8.12941 8.75334 9.51607 7.748 11.0761C6.74267 12.6014 6.24 14.1787 6.24 15.8081C6.24 17.2641 6.53467 18.4774 7.124 19.4481C7.748 20.3841 8.528 21.0774 9.464 21.5281C10.4 21.9787 11.3187 22.2041 12.22 22.2041C13.4333 22.2041 14.4733 21.9787 15.34 21.5281C16.2067 21.0427 16.9173 20.4534 17.472 19.7601C18.0267 19.0667 18.4427 18.3907 18.72 17.7321C18.9973 17.0734 19.1533 16.5361 19.188 16.1201C19.188 15.8774 19.344 15.7561 19.656 15.7561C20.1413 15.7561 20.332 16.0507 20.228 16.6401C20.0547 18.0267 19.5347 19.2401 18.668 20.2801C17.8013 21.2854 16.7613 22.0827 15.548 22.6721C14.3347 23.2267 13.0867 23.5041 11.804 23.5041C10.2787 23.5041 8.892 23.2267 7.644 22.6721C6.396 22.0827 5.39067 21.2161 4.628 20.0721C3.9 18.8934 3.536 17.4547 3.536 15.7561C3.536 13.5027 4.14267 11.4921 5.356 9.72407C6.56934 7.92141 8.23334 6.39607 10.348 5.14807C12.4627 3.90007 14.8893 2.94674 17.628 2.28807C20.3667 1.62941 23.2613 1.30007 26.312 1.30007C28.6693 1.30007 31.044 1.59474 33.436 2.18407C35.828 2.73874 38.0987 3.58807 40.248 4.73207C41.1493 3.72674 42.068 2.84274 43.004 2.08007C43.9747 1.28274 44.9627 0.676072 45.968 0.260072C46.4187 0.0867383 46.7827 7.1764e-05 47.06 7.1764e-05C47.268 7.1764e-05 47.372 0.0520721 47.372 0.156073C47.372 0.329406 46.9733 0.762739 46.176 1.45607C45.7253 1.87207 45.188 2.51341 44.564 3.38007C43.94 4.21207 43.2987 5.13074 42.64 6.13607C44.72 7.48807 46.5573 9.13474 48.152 11.0761C49.7813 12.9827 51.064 15.1667 52 17.6281C52.936 20.0547 53.404 22.7587 53.404 25.7401C53.404 28.6521 52.9013 31.2001 51.896 33.3841C50.8907 35.5334 49.5213 37.3187 47.788 38.7401C46.0547 40.1614 44.0613 41.2187 41.808 41.9121C39.5547 42.6401 37.18 43.0041 34.684 43.0041C31.7373 43.0041 28.9987 42.6054 26.468 41.8081C23.972 41.0107 21.6493 40.1094 19.5 39.1041C17.8013 40.4561 16.0333 41.4787 14.196 42.1721C12.3933 42.8654 10.4693 43.2121 8.424 43.2121ZM39.104 11.7001C38.376 12.8441 37.492 14.3001 36.452 16.0681C35.412 17.8014 34.2507 19.6907 32.968 21.7361C31.6853 23.7814 30.3507 25.8267 28.964 27.8721C27.5773 29.9174 26.1733 31.8414 24.752 33.6441C23.3653 35.4121 22.0133 36.9027 20.696 38.1161C22.5333 39.0174 24.5613 39.7974 26.78 40.4561C28.9987 41.1147 31.512 41.4441 34.32 41.4441C37.5093 41.4441 40.2827 40.7854 42.64 39.4681C44.9973 38.1161 46.8347 36.2961 48.152 34.0081C49.4693 31.6854 50.128 29.0681 50.128 26.1561C50.128 22.3774 49.3307 18.9454 47.736 15.8601C46.1413 12.7401 44.0093 10.1401 41.34 8.06007C40.8893 8.78807 40.4733 9.4814 40.092 10.1401C39.7107 10.7641 39.3813 11.2841 39.104 11.7001ZM8.424 41.6001C10.192 41.7041 11.908 41.3921 13.572 40.6641C15.2707 39.9014 16.6747 39.0867 17.784 38.2201C15.704 37.2147 13.78 36.2961 12.012 35.4641C10.2787 34.6321 8.66667 34.2161 7.176 34.2161C5.96267 34.2161 5.02667 34.5801 4.368 35.3081C3.70934 36.0014 3.38 36.7814 3.38 37.6481C3.38 38.7574 3.81334 39.6761 4.68 40.4041C5.58134 41.1321 6.82934 41.5307 8.424 41.6001ZM47.7258 55.1721C47.3098 55.1721 46.9632 55.1201 46.6858 55.0161C46.3738 54.9467 45.9752 54.9121 45.4898 54.9121C45.6632 54.6694 46.0792 53.9414 46.7378 52.7281C47.3965 51.5494 48.1765 50.0761 49.0778 48.3081C49.9445 46.5401 50.8632 44.6507 51.8338 42.6401C52.7698 40.6294 53.6365 38.6534 54.4338 36.7121C55.2658 34.7361 55.9072 33.0027 56.3578 31.5121C56.6005 30.7147 56.7912 29.8134 56.9298 28.8081C57.0685 27.7681 57.1378 26.6067 57.1378 25.3241C57.1378 24.8387 57.0858 24.4227 56.9818 24.0761C56.8778 23.7294 56.6872 23.5387 56.4098 23.5041L59.0098 23.0881C59.2178 23.0534 59.4085 23.0361 59.5818 23.0361C59.7552 23.0014 59.9112 22.9841 60.0498 22.9841C60.3618 22.9841 60.5698 23.1054 60.6738 23.3481C60.8125 23.5561 60.8818 24.0067 60.8818 24.7001C60.8818 25.5667 60.7258 26.6761 60.4138 28.0281C60.1365 29.3454 59.8072 30.5067 59.4258 31.5121C59.8072 30.8881 60.2925 30.0907 60.8818 29.1201C61.5058 28.1494 62.2165 27.1614 63.0138 26.1561C63.8112 25.1507 64.6432 24.3187 65.5098 23.6601C66.3765 22.9667 67.2258 22.6201 68.0578 22.6201C68.2312 22.6201 68.4565 22.6547 68.7338 22.7241C69.7045 22.9667 70.3805 23.4521 70.7618 24.1801C71.1778 24.8734 71.3858 25.7054 71.3858 26.6761C71.3858 27.7161 71.1778 28.8601 70.7618 30.1081C70.3805 31.3561 69.8605 32.5867 69.2018 33.8001C68.5432 34.9787 67.8152 36.0534 67.0178 37.0241C66.0472 38.2374 64.8858 39.2081 63.5338 39.9361C62.1818 40.6641 60.7952 41.0281 59.3738 41.0281C58.0912 41.0281 56.8952 40.6987 55.7858 40.0401L50.7418 52.4681C50.2565 53.6467 49.7712 54.3921 49.2858 54.7041C48.8005 55.0161 48.2805 55.1721 47.7258 55.1721ZM57.7098 39.9361C58.6805 39.9361 59.7725 39.4854 60.9858 38.5841C62.1992 37.6827 63.3605 36.5387 64.4698 35.1521C65.6138 33.7307 66.5672 32.3094 67.3298 30.8881C67.8498 29.9174 68.2312 29.0334 68.4738 28.2361C68.7165 27.4041 68.8378 26.6934 68.8378 26.1041C68.8378 24.7521 68.3525 24.0761 67.3818 24.0761C66.9312 24.0761 66.3418 24.3187 65.6138 24.8041C64.9205 25.2894 64.1058 26.1734 63.1698 27.4561C62.1645 28.8427 61.0552 30.5934 59.8418 32.7081C58.6632 34.7881 57.4498 36.9894 56.2018 39.3121C56.6178 39.7281 57.1205 39.9361 57.7098 39.9361ZM77.1026 41.1841C75.8199 41.1841 74.6586 40.7681 73.6186 39.9361C72.6133 39.1041 72.1106 37.8387 72.1106 36.1401C72.1106 34.7187 72.4226 33.2107 73.0466 31.6161C73.7053 30.0214 74.5546 28.5307 75.5946 27.1441C76.6693 25.7227 77.8479 24.5787 79.1306 23.7121C80.4479 22.8107 81.7653 22.3601 83.0826 22.3601C83.7413 22.3601 84.3826 22.5507 85.0066 22.9321C85.6306 23.3134 85.9426 23.9721 85.9426 24.9081C85.9426 25.7747 85.6133 26.7281 84.9546 27.7681C84.2959 28.8081 83.3599 29.7787 82.1466 30.6801C81.6266 31.0614 80.9679 31.4254 80.1706 31.7721C79.3733 32.1187 78.5759 32.4134 77.7786 32.6561C76.9813 32.8641 76.3226 32.9681 75.8026 32.9681C75.6293 33.3841 75.4559 33.9387 75.2826 34.6321C75.1439 35.3254 75.0746 36.0361 75.0746 36.7641C75.0746 37.6307 75.2479 38.4107 75.5946 39.1041C75.9413 39.7974 76.5826 40.1441 77.5186 40.1441C78.6626 40.1441 79.7199 39.8147 80.6906 39.1561C81.6959 38.4974 82.5799 37.6654 83.3426 36.6601C84.1399 35.6547 84.8159 34.6321 85.3706 33.5921C85.9253 32.5521 86.3586 31.6681 86.6706 30.9401C87.0866 30.9401 87.2946 31.0961 87.2946 31.4081C86.8439 32.3787 86.3239 33.4361 85.7346 34.5801C85.1799 35.7241 84.5039 36.7987 83.7066 37.8041C82.9439 38.7747 82.0079 39.5894 80.8986 40.2481C79.8239 40.8721 78.5586 41.1841 77.1026 41.1841ZM76.1666 32.0321C76.6519 32.0321 77.4666 31.8587 78.6106 31.5121C79.7546 31.1307 80.7946 30.5414 81.7306 29.7441C82.6319 28.9467 83.3253 28.0801 83.8106 27.1441C84.2959 26.1734 84.5386 25.3587 84.5386 24.7001C84.5386 23.9374 84.2613 23.5561 83.7066 23.5561C83.2906 23.5561 82.7186 23.8334 81.9906 24.3881C81.2626 24.9427 80.3613 25.8787 79.2866 27.1961C78.6279 28.0281 78.0039 28.9294 77.4146 29.9001C76.8253 30.8707 76.4093 31.5814 76.1666 32.0321ZM91.1353 41.1841C89.2286 41.1841 87.8073 40.6814 86.8713 39.6761C85.97 38.6707 85.5193 37.3187 85.5193 35.6201C85.5193 34.8227 85.6753 33.9041 85.9873 32.8641C86.2993 31.8241 86.7153 30.7667 87.2353 29.6921C87.7553 28.6174 88.3273 27.6641 88.9513 26.8321C89.9566 25.4801 91.066 24.4401 92.2793 23.7121C93.4926 22.9494 94.7233 22.5681 95.9713 22.5681C97.2886 22.5681 98.2246 22.8627 98.7793 23.4521C99.3686 24.0067 99.6633 24.6654 99.6633 25.4281C99.6633 26.1561 99.49 26.8147 99.1433 27.4041C98.7966 27.9587 98.398 28.4094 97.9473 28.7561C97.5313 29.1027 97.1673 29.2761 96.8553 29.2761C96.578 29.2761 96.3353 29.1721 96.1273 28.9641C96.4046 28.6174 96.6993 28.2014 97.0113 27.7161C97.3233 27.2307 97.5486 26.7627 97.6873 26.3121C97.826 25.8961 97.8953 25.4801 97.8953 25.0641C97.8953 24.1627 97.4793 23.7121 96.6473 23.7121C95.642 23.7121 94.654 24.1281 93.6833 24.9601C92.7473 25.7921 91.8806 26.8667 91.0833 28.1841C90.3206 29.4667 89.6966 30.8361 89.2113 32.2921C88.7606 33.7134 88.5353 35.0307 88.5353 36.2441C88.5353 37.3534 88.7606 38.2721 89.2113 39.0001C89.6966 39.7281 90.4766 40.0921 91.5513 40.0921C92.9726 40.0921 94.2206 39.6414 95.2953 38.7401C96.37 37.8041 97.3233 36.6427 98.1553 35.2561C98.9873 33.8347 99.7153 32.3961 100.339 30.9401C100.478 30.9401 100.617 30.9747 100.755 31.0441C100.894 31.0787 100.963 31.2001 100.963 31.4081C100.27 33.1414 99.4553 34.7534 98.5193 36.2441C97.5833 37.7347 96.5086 38.9307 95.2953 39.8321C94.1166 40.7334 92.73 41.1841 91.1353 41.1841ZM104.795 41.1841C102.889 41.1841 101.467 40.6814 100.531 39.6761C99.6301 38.6707 99.1794 37.3187 99.1794 35.6201C99.1794 34.8227 99.3354 33.9041 99.6474 32.8641C99.9594 31.8241 100.375 30.7667 100.895 29.6921C101.415 28.6174 101.987 27.6641 102.611 26.8321C103.617 25.4801 104.726 24.4401 105.939 23.7121C107.153 22.9494 108.383 22.5681 109.631 22.5681C110.949 22.5681 111.885 22.8627 112.439 23.4521C113.029 24.0067 113.323 24.6654 113.323 25.4281C113.323 26.1561 113.15 26.8147 112.803 27.4041C112.457 27.9587 112.058 28.4094 111.607 28.7561C111.191 29.1027 110.827 29.2761 110.515 29.2761C110.238 29.2761 109.995 29.1721 109.787 28.9641C110.065 28.6174 110.359 28.2014 110.671 27.7161C110.983 27.2307 111.209 26.7627 111.347 26.3121C111.486 25.8961 111.555 25.4801 111.555 25.0641C111.555 24.1627 111.139 23.7121 110.307 23.7121C109.302 23.7121 108.314 24.1281 107.343 24.9601C106.407 25.7921 105.541 26.8667 104.743 28.1841C103.981 29.4667 103.357 30.8361 102.871 32.2921C102.421 33.7134 102.195 35.0307 102.195 36.2441C102.195 37.3534 102.421 38.2721 102.871 39.0001C103.357 39.7281 104.137 40.0921 105.211 40.0921C106.633 40.0921 107.881 39.6414 108.955 38.7401C110.03 37.8041 110.983 36.6427 111.815 35.2561C112.647 33.8347 113.375 32.3961 113.999 30.9401C114.138 30.9401 114.277 30.9747 114.415 31.0441C114.554 31.0787 114.623 31.2001 114.623 31.4081C113.93 33.1414 113.115 34.7534 112.179 36.2441C111.243 37.7347 110.169 38.9307 108.955 39.8321C107.777 40.7334 106.39 41.1841 104.795 41.1841ZM117.572 30.0561C117.398 30.0561 117.312 29.9867 117.312 29.8481C117.312 29.6054 117.398 29.3281 117.572 29.0161C117.78 28.6694 118.161 28.4961 118.716 28.4961H131.04C131.213 28.4961 131.3 28.5654 131.3 28.7041C131.3 29.0854 131.196 29.4147 130.988 29.6921C130.78 29.9347 130.381 30.0561 129.792 30.0561H117.572ZM137.139 31.8761L136.827 32.6041C138.387 30.4894 140.034 28.6867 141.767 27.1961C143.535 25.6707 145.199 24.5094 146.759 23.7121C148.319 22.8801 149.55 22.4641 150.451 22.4641C151.63 22.4641 152.358 22.7761 152.635 23.4001C152.739 23.6427 152.791 23.9027 152.791 24.1801C152.791 24.7001 152.618 25.1854 152.271 25.6361C151.924 26.0521 151.439 26.2601 150.815 26.2601C150.78 26.2601 150.711 26.2601 150.607 26.2601C150.503 26.2601 150.416 26.2427 150.347 26.2081C150.278 25.7227 150.104 25.3067 149.827 24.9601C149.55 24.6134 149.012 24.4401 148.215 24.4401C147.314 24.4401 146.43 24.8214 145.563 25.5841C144.731 26.3121 144.02 27.3174 143.431 28.6001C142.876 29.8481 142.564 31.2521 142.495 32.8121C142.46 33.8867 142.53 34.9787 142.703 36.0881C142.911 37.1627 143.275 38.0641 143.795 38.7921C144.315 39.4854 145.043 39.8321 145.979 39.8321C146.811 39.8321 147.574 39.5201 148.267 38.8961C148.96 38.2721 149.602 37.4921 150.191 36.5561C150.78 35.5854 151.3 34.5974 151.751 33.5921C152.202 32.5867 152.6 31.7027 152.947 30.9401C153.363 30.9401 153.571 31.0961 153.571 31.4081C152.912 33.0027 152.202 34.5627 151.439 36.0881C150.711 37.6134 149.827 38.8787 148.787 39.8841C147.747 40.8547 146.482 41.3401 144.991 41.3401C143.292 41.3401 142.01 40.8027 141.143 39.7281C140.276 38.6187 139.774 37.1801 139.635 35.4121C139.496 33.6441 139.687 31.7374 140.207 29.6921C139.028 31.0441 138.075 32.2401 137.347 33.2801C136.654 34.2854 136.03 35.3081 135.475 36.3481C134.955 37.3881 134.383 38.6187 133.759 40.0401C133.586 40.4561 133.36 40.6814 133.083 40.7161C132.84 40.7507 132.442 40.7681 131.887 40.7681H130.899C130.795 40.7681 130.674 40.8201 130.535 40.9241C130.396 40.9934 130.258 41.0627 130.119 41.1321C130.535 40.3001 130.968 39.4334 131.419 38.5321C131.835 37.6307 132.338 36.5734 132.927 35.3601C133.516 34.1467 134.21 32.6734 135.007 30.9401C135.076 30.8361 135.284 30.3507 135.631 29.4841C136.012 28.5827 136.532 27.4387 137.191 26.0521C137.884 24.5961 138.56 23.5214 139.219 22.8281C139.878 22.1347 140.623 21.7881 141.455 21.7881C141.767 21.7881 142.01 21.8227 142.183 21.8921C142.356 21.9614 142.703 21.9961 143.223 21.9961C141.975 23.3481 140.918 24.8387 140.051 26.4681C139.219 28.0974 138.248 29.9001 137.139 31.8761ZM156.053 40.9761C154.631 40.9761 153.574 40.4734 152.881 39.4681C152.222 38.4281 151.893 37.1801 151.893 35.7241C151.893 34.3721 152.153 32.9681 152.673 31.5121C153.227 29.9174 153.99 28.4614 154.961 27.1441C155.966 25.8267 157.058 24.7694 158.237 23.9721C159.45 23.1401 160.646 22.7241 161.825 22.7241C163.246 22.7241 164.286 23.2094 164.945 24.1801C165.638 25.1507 165.985 26.3814 165.985 27.8721C165.985 28.9121 165.811 30.0041 165.465 31.1481C165.118 32.2921 164.65 33.4187 164.061 34.5281C164.511 34.9787 165.153 35.2041 165.985 35.2041C166.955 35.2041 167.787 34.8921 168.481 34.2681C169.174 33.6441 169.85 32.5347 170.509 30.9401C170.925 30.9401 171.133 31.0961 171.133 31.4081C170.474 33.0027 169.711 34.1814 168.845 34.9441C168.013 35.6721 166.938 36.0187 165.621 35.9841C164.823 35.9841 164.165 35.7587 163.645 35.3081C162.674 36.9027 161.513 38.2547 160.161 39.3641C158.843 40.4387 157.474 40.9761 156.053 40.9761ZM156.781 39.8321C157.578 39.8321 158.375 39.5027 159.173 38.8441C159.97 38.1507 160.698 37.3707 161.357 36.5041C162.015 35.6374 162.483 34.8921 162.761 34.2681C162.206 33.2627 161.877 32.5174 161.773 32.0321C161.703 31.5121 161.669 31.1307 161.669 30.8881C161.669 30.2294 161.842 29.7267 162.189 29.3801C162.535 29.0334 162.882 28.8601 163.229 28.8601C163.714 28.8601 164.13 29.0681 164.477 29.4841C164.546 29.1027 164.598 28.7561 164.633 28.4441C164.667 28.0974 164.685 27.7681 164.685 27.4561C164.685 26.5547 164.511 25.8267 164.165 25.2721C163.853 24.6827 163.35 24.3881 162.657 24.3881C161.929 24.3881 161.166 24.7001 160.369 25.3241C159.571 25.9481 158.809 26.7801 158.081 27.8201C157.387 28.8601 156.781 30.0214 156.261 31.3041C155.81 32.3787 155.463 33.4014 155.221 34.3721C154.978 35.3081 154.857 36.1747 154.857 36.9721C154.857 37.8387 155.013 38.5321 155.325 39.0521C155.637 39.5721 156.122 39.8321 156.781 39.8321ZM171.803 40.9761C170.486 40.9761 169.515 40.5427 168.891 39.6761C168.267 38.7747 167.955 37.6827 167.955 36.4001C167.955 35.0481 168.267 33.5921 168.891 32.0321C169.515 30.4374 170.347 28.9467 171.387 27.5601C172.427 26.1387 173.588 24.9774 174.871 24.0761C176.154 23.1747 177.436 22.7241 178.719 22.7241C179.724 22.7241 180.574 23.0534 181.267 23.7121C181.96 24.3707 182.29 25.1507 182.255 26.0521C183.295 23.6947 184.144 21.3374 184.803 18.9801C185.496 16.5881 185.843 14.1787 185.843 11.7521C185.843 9.88007 185.566 8.45874 185.011 7.48807C184.456 6.48274 183.78 5.78941 182.983 5.40807C182.186 5.02674 181.423 4.83607 180.695 4.83607C179.204 4.83607 177.696 5.49474 176.171 6.81207C174.646 8.12941 173.346 10.1574 172.271 12.8961C172.167 13.1387 172.08 13.3641 172.011 13.5721C171.976 13.7454 171.924 14.0401 171.855 14.4561C170.538 14.4561 169.879 14.0747 169.879 13.3121C169.879 12.8614 170.052 12.3241 170.399 11.7001C170.746 11.0414 171.04 10.5214 171.283 10.1401C172.566 8.19874 174.143 6.6734 176.015 5.56407C177.887 4.45474 179.724 3.90007 181.527 3.90007C182.775 3.90007 183.936 4.19474 185.011 4.78407C186.086 5.33874 186.952 6.20541 187.611 7.38407C188.27 8.56274 188.599 10.0881 188.599 11.9601C188.599 13.9707 188.287 16.2067 187.663 18.6681C187.074 21.0947 186.259 23.5561 185.219 26.0521C184.214 28.5134 183.035 30.8014 181.683 32.9161C180.366 35.0307 178.979 36.7814 177.523 38.1681C176.726 38.9307 175.842 39.5894 174.871 40.1441C173.935 40.6987 172.912 40.9761 171.803 40.9761ZM172.531 39.8321C173.502 39.8321 174.49 39.3121 175.495 38.2721C176.5 37.1974 177.436 35.9321 178.303 34.4761C178.684 33.8521 179.1 33.1067 179.551 32.2401C180.002 31.3387 180.435 30.4547 180.851 29.5881C181.267 28.6867 181.544 27.9414 181.683 27.3521C181.579 26.2081 181.336 25.4281 180.955 25.0121C180.608 24.5961 180.175 24.3881 179.655 24.3881C178.719 24.3881 177.731 24.8387 176.691 25.7401C175.686 26.6067 174.732 27.7334 173.831 29.1201C172.964 30.5067 172.254 31.9454 171.699 33.4361C171.144 34.9267 170.867 36.2961 170.867 37.5441C170.867 38.1681 170.988 38.7054 171.231 39.1561C171.474 39.6067 171.907 39.8321 172.531 39.8321Z" fill="#3E2723"/>
</svg>
