<svg width="234" height="81" viewBox="0 0 234 81" fill="none" xmlns="http://www.w3.org/2000/svg">
<path d="M1.04308e-07 12.6001V9.67979e-05H6.012V0.738097H0.792V5.1841H4.446L4.194 5.9581H0.792V11.8801H5.976V12.6001H1.04308e-07ZM12.6229 4.6441C12.2869 4.4881 11.9269 4.3681 11.5429 4.2841C11.1589 4.2001 10.7869 4.1521 10.4269 4.1401C9.83892 4.1401 9.35292 4.2601 8.96892 4.5001C8.59692 4.7401 8.32092 5.0761 8.14092 5.5081C7.96092 5.9281 7.86492 6.4201 7.85292 6.9841V9.3061C7.85292 9.7981 7.90692 10.2181 8.01492 10.5661C8.12292 10.9141 8.29092 11.1961 8.51892 11.4121C8.75892 11.6281 9.04692 11.7901 9.38292 11.8981C9.71892 11.9941 10.1089 12.0481 10.5529 12.0601C10.8289 12.0601 11.0929 12.0481 11.3449 12.0241C11.5969 12.0001 11.8249 11.9701 12.0289 11.9341C12.2329 11.8981 12.3949 11.8681 12.5149 11.8441C12.6349 11.8081 12.7009 11.7901 12.7129 11.7901L12.8749 12.5101C12.5029 12.6061 12.1129 12.6781 11.7049 12.7261C11.3089 12.7861 10.9129 12.8101 10.5169 12.7981C9.83292 12.7861 9.22692 12.6661 8.69892 12.4381C8.18292 12.1981 7.78092 11.8381 7.49292 11.3581C7.21692 10.8661 7.07892 10.2361 7.07892 9.4681V6.8941C7.07892 6.1981 7.19892 5.5921 7.43892 5.0761C7.67892 4.5601 8.04492 4.1581 8.53692 3.8701C9.04092 3.5701 9.66492 3.4201 10.4089 3.4201C10.8169 3.4201 11.2249 3.4741 11.6329 3.5821C12.0529 3.6781 12.4549 3.8161 12.8389 3.9961L12.6229 4.6441ZM18.9928 3.6001H21.3148V12.6001H20.5048V4.3381H19.0648C18.6688 4.3381 18.3388 4.4101 18.0748 4.5541C17.8228 4.6861 17.6248 4.8601 17.4808 5.0761C17.3368 5.2921 17.2228 5.5321 17.1388 5.7961L15.6808 10.5841C15.5608 10.9921 15.4288 11.3401 15.2848 11.6281C15.1408 11.9161 14.9608 12.1501 14.7448 12.3301C14.5288 12.5101 14.2468 12.6601 13.8988 12.7801L13.3948 12.3301C13.7428 12.1981 14.0188 12.0121 14.2228 11.7721C14.4388 11.5321 14.6008 11.2861 14.7088 11.0341C14.8288 10.7821 14.9128 10.5721 14.9608 10.4041L16.2748 5.9761C16.3348 5.7721 16.4128 5.5381 16.5088 5.2741C16.6168 5.0101 16.7668 4.7521 16.9588 4.5001C17.1628 4.2361 17.4268 4.0201 17.7508 3.8521C18.0748 3.6841 18.4888 3.6001 18.9928 3.6001ZM23.5193 3.6001V11.3941L28.4333 3.6001H29.3693V12.6001H28.5773V4.8061L23.6633 12.6001H22.7273V3.6001H23.5193ZM38.9202 7.4161L41.2782 3.6001H42.1602L39.3702 8.1181L42.1422 12.6001H41.2242L38.9202 8.8201L36.5622 12.6001H35.6262L38.4522 8.1001L35.6622 3.6001H36.5802L38.9202 7.4161ZM49.844 9.2701C49.844 10.3261 49.574 11.1781 49.034 11.8261C48.494 12.4621 47.678 12.7801 46.586 12.7801C45.83 12.7801 45.2 12.6241 44.696 12.3121C44.192 11.9881 43.814 11.5621 43.562 11.0341C43.31 10.5061 43.184 9.9181 43.184 9.2701V6.9121C43.184 6.1441 43.316 5.5021 43.58 4.9861C43.844 4.4581 44.228 4.0621 44.732 3.7981C45.248 3.5221 45.86 3.3841 46.568 3.3841C47.636 3.3841 48.446 3.6961 48.998 4.3201C49.562 4.9441 49.844 5.8081 49.844 6.9121V9.2701ZM49.07 6.8941C49.07 6.2701 48.974 5.7541 48.782 5.3461C48.602 4.9261 48.326 4.6141 47.954 4.4101C47.594 4.1941 47.138 4.0861 46.586 4.0861C46.01 4.0861 45.53 4.1941 45.146 4.4101C44.762 4.6261 44.468 4.9441 44.264 5.3641C44.072 5.7721 43.976 6.2821 43.976 6.8941V9.3961C43.976 9.9121 44.078 10.3741 44.282 10.7821C44.486 11.1781 44.78 11.4961 45.164 11.7361C45.56 11.9641 46.034 12.0781 46.586 12.0781C47.15 12.0781 47.612 11.9641 47.972 11.7361C48.344 11.5081 48.62 11.1961 48.8 10.8001C48.98 10.3921 49.07 9.9241 49.07 9.3961V6.8941ZM53.8708 10.2061C53.8708 10.5301 53.9068 10.8241 53.9788 11.0881C54.0508 11.3521 54.1708 11.5801 54.3388 11.7721C54.5188 11.9641 54.7708 12.1141 55.0948 12.2221L54.8608 12.8341C54.5248 12.7381 54.2428 12.6121 54.0148 12.4561C53.7868 12.2881 53.6008 12.1021 53.4568 11.8981C53.3248 11.6821 53.2288 11.4361 53.1688 11.1601C53.1088 10.8721 53.0788 10.5541 53.0788 10.2061V4.3561H50.7748V3.6001H56.2468V4.3561H53.8708V10.2061ZM58.1306 3.6001V11.3941L63.0446 3.6001H63.9806V12.6001H63.1886V4.8061L58.2746 12.6001H57.3386V3.6001H58.1306ZM68.1266 10.2061C68.1266 10.5301 68.1626 10.8241 68.2346 11.0881C68.3066 11.3521 68.4266 11.5801 68.5946 11.7721C68.7746 11.9641 69.0266 12.1141 69.3506 12.2221L69.1166 12.8341C68.7806 12.7381 68.4986 12.6121 68.2706 12.4561C68.0426 12.2881 67.8566 12.1021 67.7126 11.8981C67.5806 11.6821 67.4846 11.4361 67.4246 11.1601C67.3646 10.8721 67.3346 10.5541 67.3346 10.2061V4.3561H65.0306V3.6001H70.5026V4.3561H68.1266V10.2061ZM72.2424 10.1881C72.2424 10.5481 72.3024 10.8541 72.4224 11.1061C72.5424 11.3461 72.7044 11.5441 72.9084 11.7001C73.1124 11.8441 73.3524 11.9521 73.6284 12.0241C73.9044 12.0961 74.1984 12.1321 74.5104 12.1321C74.9784 12.1321 75.4224 12.0661 75.8424 11.9341C76.2744 11.7901 76.7244 11.5981 77.1924 11.3581L77.4984 11.9701C77.0544 12.2341 76.5744 12.4441 76.0584 12.6001C75.5544 12.7441 75.0624 12.8161 74.5824 12.8161C74.1384 12.8161 73.7244 12.7741 73.3404 12.6901C72.9564 12.6061 72.6204 12.4621 72.3324 12.2581C72.0564 12.0541 71.8404 11.7841 71.6844 11.4481C71.5404 11.1121 71.4684 10.6921 71.4684 10.1881V6.4981C71.4684 5.8141 71.6124 5.2441 71.9004 4.7881C72.1884 4.3321 72.5844 3.9901 73.0884 3.7621C73.5924 3.5341 74.1624 3.4201 74.7984 3.4201C75.4344 3.4201 75.9864 3.5341 76.4544 3.7621C76.9344 3.9901 77.3064 4.3261 77.5704 4.7701C77.8344 5.2141 77.9664 5.7721 77.9664 6.4441V8.5681L72.2424 8.8741V10.1881ZM77.1744 6.3541C77.1744 5.8741 77.0664 5.4661 76.8504 5.1301C76.6464 4.7941 76.3644 4.5361 76.0044 4.3561C75.6564 4.1761 75.2484 4.0861 74.7804 4.0861C74.2644 4.0861 73.8144 4.1821 73.4304 4.3741C73.0464 4.5661 72.7524 4.8481 72.5484 5.2201C72.3444 5.5801 72.2424 6.0241 72.2424 6.5521V8.1001L77.1744 7.8661V6.3541ZM91.0015 11.3041C91.0015 11.4841 91.0495 11.6461 91.1455 11.7901C91.2415 11.9341 91.3615 12.0601 91.5055 12.1681L91.1095 12.6541C91.0855 12.6301 91.0255 12.5881 90.9295 12.5281C90.8455 12.4681 90.7495 12.3841 90.6415 12.2761C90.5335 12.1561 90.4375 12.0121 90.3535 11.8441C90.2815 11.6641 90.2455 11.4481 90.2455 11.1961V4.3381H85.0255V12.6001H84.2335V3.6001H91.0015V11.3041ZM99.2033 9.2701C99.2033 10.3261 98.9333 11.1781 98.3933 11.8261C97.8533 12.4621 97.0373 12.7801 95.9453 12.7801C95.1893 12.7801 94.5593 12.6241 94.0553 12.3121C93.5513 11.9881 93.1733 11.5621 92.9213 11.0341C92.6693 10.5061 92.5433 9.9181 92.5433 9.2701V6.9121C92.5433 6.1441 92.6753 5.5021 92.9393 4.9861C93.2033 4.4581 93.5873 4.0621 94.0913 3.7981C94.6073 3.5221 95.2193 3.3841 95.9273 3.3841C96.9953 3.3841 97.8053 3.6961 98.3573 4.3201C98.9213 4.9441 99.2033 5.8081 99.2033 6.9121V9.2701ZM98.4293 6.8941C98.4293 6.2701 98.3333 5.7541 98.1413 5.3461C97.9613 4.9261 97.6853 4.6141 97.3133 4.4101C96.9533 4.1941 96.4973 4.0861 95.9453 4.0861C95.3693 4.0861 94.8893 4.1941 94.5053 4.4101C94.1213 4.6261 93.8273 4.9441 93.6233 5.3641C93.4313 5.7721 93.3353 6.2821 93.3353 6.8941V9.3961C93.3353 9.9121 93.4373 10.3741 93.6413 10.7821C93.8453 11.1781 94.1393 11.4961 94.5233 11.7361C94.9193 11.9641 95.3933 12.0781 95.9453 12.0781C96.5093 12.0781 96.9713 11.9641 97.3313 11.7361C97.7033 11.5081 97.9793 11.1961 98.1593 10.8001C98.3393 10.3921 98.4293 9.9241 98.4293 9.3961V6.8941ZM107.694 11.8081H108.702V14.3821H108.054L107.91 12.6001H100.71L100.566 14.3821H99.9361V11.8081H100.872L102.636 5.9761C102.696 5.7841 102.774 5.5561 102.87 5.2921C102.978 5.0161 103.128 4.7521 103.32 4.5001C103.524 4.2481 103.788 4.0381 104.112 3.8701C104.436 3.6901 104.85 3.6001 105.354 3.6001H107.694V11.8081ZM101.664 11.8081H106.902V4.3381H105.444C105.132 4.3381 104.862 4.3801 104.634 4.4641C104.418 4.5361 104.232 4.6441 104.076 4.7881C103.932 4.9201 103.812 5.0761 103.716 5.2561C103.632 5.4241 103.56 5.6041 103.5 5.7961L101.664 11.8081ZM116.133 3.8341C116.133 3.8341 116.109 3.9721 116.061 4.2481C116.025 4.5121 116.007 4.8301 116.007 5.2021V12.5281C116.019 12.5281 115.947 12.5341 115.791 12.5461C115.635 12.5461 115.431 12.5581 115.179 12.5821C114.939 12.5941 114.675 12.6061 114.387 12.6181C114.099 12.6301 113.817 12.6421 113.541 12.6541C113.265 12.6661 113.031 12.6721 112.839 12.6721C112.347 12.6841 111.891 12.6421 111.471 12.5461C111.063 12.4381 110.703 12.2641 110.391 12.0241C110.079 11.7841 109.839 11.4661 109.671 11.0701C109.515 10.6741 109.437 10.1941 109.437 9.6301V6.2281C109.437 5.6881 109.509 5.2381 109.653 4.8781C109.809 4.5181 110.013 4.2361 110.265 4.0321C110.529 3.8281 110.823 3.6841 111.147 3.6001C111.471 3.5041 111.807 3.4561 112.155 3.4561C112.491 3.4561 112.839 3.4921 113.199 3.5641C113.559 3.6361 113.913 3.7381 114.261 3.8701C114.621 3.9901 114.969 4.1281 115.305 4.2841C115.305 4.2361 115.323 4.1341 115.359 3.9781C115.407 3.8101 115.455 3.6721 115.503 3.5641L116.133 3.8341ZM110.211 9.6661C110.211 10.1581 110.295 10.5781 110.463 10.9261C110.643 11.2621 110.913 11.5201 111.273 11.7001C111.633 11.8801 112.071 11.9701 112.587 11.9701C112.911 11.9701 113.229 11.9641 113.541 11.9521C113.853 11.9281 114.135 11.9101 114.387 11.8981C114.639 11.8861 114.837 11.8741 114.981 11.8621C115.137 11.8501 115.215 11.8441 115.215 11.8441V5.0221C114.927 4.8781 114.639 4.7581 114.351 4.6621C114.075 4.5541 113.805 4.4701 113.541 4.4101C113.277 4.3381 113.019 4.2841 112.767 4.2481C112.527 4.2121 112.305 4.1941 112.101 4.1941C111.873 4.1941 111.645 4.2241 111.417 4.2841C111.189 4.3441 110.985 4.4521 110.805 4.6081C110.625 4.7521 110.481 4.9621 110.373 5.2381C110.265 5.5021 110.211 5.8501 110.211 6.2821V9.6661ZM124.202 9.5221C124.202 10.2541 124.082 10.8781 123.842 11.3941C123.614 11.8981 123.272 12.2821 122.816 12.5461C122.36 12.7981 121.796 12.9241 121.124 12.9241C120.836 12.9241 120.548 12.8881 120.26 12.8161C119.984 12.7561 119.72 12.6601 119.468 12.5281C119.228 12.3841 119.006 12.2281 118.802 12.0601C118.61 11.8801 118.46 11.6821 118.352 11.4661V16.4161L117.542 16.0921V7.0021C117.542 5.8621 117.836 4.9861 118.424 4.3741C119.024 3.7621 119.852 3.4561 120.908 3.4561C121.976 3.4561 122.792 3.7741 123.356 4.4101C123.92 5.0341 124.202 5.8981 124.202 7.0021V9.5221ZM123.41 6.9661C123.41 6.3421 123.314 5.8261 123.122 5.4181C122.93 5.0101 122.648 4.7041 122.276 4.5001C121.916 4.2961 121.472 4.1941 120.944 4.1941C120.368 4.1941 119.888 4.3021 119.504 4.5181C119.12 4.7221 118.832 5.0341 118.64 5.4541C118.448 5.8621 118.352 6.3661 118.352 6.9661V9.7201C118.352 10.1281 118.43 10.4881 118.586 10.8001C118.754 11.1121 118.97 11.3761 119.234 11.5921C119.498 11.7961 119.798 11.9521 120.134 12.0601C120.47 12.1561 120.812 12.1981 121.16 12.1861C121.64 12.1741 122.048 12.0721 122.384 11.8801C122.72 11.6761 122.972 11.3941 123.14 11.0341C123.32 10.6621 123.41 10.2001 123.41 9.6481V6.9661ZM126.316 3.6001V11.3941L131.23 3.6001H132.166V12.6001H131.374V4.8061L126.46 12.6001H125.524V3.6001H126.316ZM136.312 10.2061C136.312 10.5301 136.348 10.8241 136.42 11.0881C136.492 11.3521 136.612 11.5801 136.78 11.7721C136.96 11.9641 137.212 12.1141 137.536 12.2221L137.302 12.8341C136.966 12.7381 136.684 12.6121 136.456 12.4561C136.228 12.2881 136.042 12.1021 135.898 11.8981C135.766 11.6821 135.67 11.4361 135.61 11.1601C135.55 10.8721 135.52 10.5541 135.52 10.2061V4.3561H133.216V3.6001H138.688V4.3561H136.312V10.2061ZM143.956 7.1461C144.46 7.1461 144.922 7.2541 145.342 7.4701C145.762 7.6861 146.098 7.9981 146.35 8.4061C146.602 8.8021 146.728 9.2821 146.728 9.8461C146.728 10.3261 146.614 10.7941 146.386 11.2501C146.17 11.6941 145.822 12.0541 145.342 12.3301C144.862 12.6061 144.232 12.7441 143.452 12.7441C143.152 12.7441 142.84 12.7381 142.516 12.7261C142.192 12.7141 141.88 12.6961 141.58 12.6721C141.28 12.6601 141.004 12.6421 140.752 12.6181C140.512 12.6061 140.308 12.5941 140.14 12.5821C139.972 12.5581 139.864 12.5461 139.816 12.5461V3.6001H140.608V7.1461H143.956ZM143.344 11.9881C143.884 11.9881 144.346 11.8981 144.73 11.7181C145.114 11.5381 145.414 11.2921 145.63 10.9801C145.846 10.6561 145.954 10.2961 145.954 9.9001C145.954 9.5521 145.9 9.2521 145.792 9.0001C145.684 8.7481 145.534 8.5441 145.342 8.3881C145.162 8.2201 144.952 8.1001 144.712 8.0281C144.484 7.9561 144.244 7.9201 143.992 7.9201H140.608V11.8801C140.656 11.8921 140.758 11.9041 140.914 11.9161C141.082 11.9161 141.292 11.9281 141.544 11.9521C141.796 11.9641 142.078 11.9761 142.39 11.9881C142.702 11.9881 143.02 11.9881 143.344 11.9881ZM158.866 7.3261V3.6001H159.658V12.6001H158.866V8.0821H153.808V12.6001H153.016V3.6001H153.808V7.3261H158.866ZM167.584 3.8341C167.584 3.8341 167.56 3.9721 167.512 4.2481C167.476 4.5121 167.458 4.8301 167.458 5.2021V12.5281C167.47 12.5281 167.398 12.5341 167.242 12.5461C167.086 12.5461 166.882 12.5581 166.63 12.5821C166.39 12.5941 166.126 12.6061 165.838 12.6181C165.55 12.6301 165.268 12.6421 164.992 12.6541C164.716 12.6661 164.482 12.6721 164.29 12.6721C163.798 12.6841 163.342 12.6421 162.922 12.5461C162.514 12.4381 162.154 12.2641 161.842 12.0241C161.53 11.7841 161.29 11.4661 161.122 11.0701C160.966 10.6741 160.888 10.1941 160.888 9.6301V6.2281C160.888 5.6881 160.96 5.2381 161.104 4.8781C161.26 4.5181 161.464 4.2361 161.716 4.0321C161.98 3.8281 162.274 3.6841 162.598 3.6001C162.922 3.5041 163.258 3.4561 163.606 3.4561C163.942 3.4561 164.29 3.4921 164.65 3.5641C165.01 3.6361 165.364 3.7381 165.712 3.8701C166.072 3.9901 166.42 4.1281 166.756 4.2841C166.756 4.2361 166.774 4.1341 166.81 3.9781C166.858 3.8101 166.906 3.6721 166.954 3.5641L167.584 3.8341ZM161.662 9.6661C161.662 10.1581 161.746 10.5781 161.914 10.9261C162.094 11.2621 162.364 11.5201 162.724 11.7001C163.084 11.8801 163.522 11.9701 164.038 11.9701C164.362 11.9701 164.68 11.9641 164.992 11.9521C165.304 11.9281 165.586 11.9101 165.838 11.8981C166.09 11.8861 166.288 11.8741 166.432 11.8621C166.588 11.8501 166.666 11.8441 166.666 11.8441V5.0221C166.378 4.8781 166.09 4.7581 165.802 4.6621C165.526 4.5541 165.256 4.4701 164.992 4.4101C164.728 4.3381 164.47 4.2841 164.218 4.2481C163.978 4.2121 163.756 4.1941 163.552 4.1941C163.324 4.1941 163.096 4.2241 162.868 4.2841C162.64 4.3441 162.436 4.4521 162.256 4.6081C162.076 4.7521 161.932 4.9621 161.824 5.2381C161.716 5.5021 161.662 5.8501 161.662 6.2821V9.6661ZM177.292 3.6001H178.264V12.6001H177.472V4.9861L174.052 12.6001H173.26L169.804 4.9861V12.6001H169.012V3.6001H169.984L173.656 11.7001L177.292 3.6001ZM191.334 3.6001V11.8081H192.126V14.3821H191.478L191.316 12.6001H184.674V3.6001H185.466V11.8081H190.542V3.6001H191.334ZM193.76 10.1881C193.76 10.5481 193.82 10.8541 193.94 11.1061C194.06 11.3461 194.222 11.5441 194.426 11.7001C194.63 11.8441 194.87 11.9521 195.146 12.0241C195.422 12.0961 195.716 12.1321 196.028 12.1321C196.496 12.1321 196.94 12.0661 197.36 11.9341C197.792 11.7901 198.242 11.5981 198.71 11.3581L199.016 11.9701C198.572 12.2341 198.092 12.4441 197.576 12.6001C197.072 12.7441 196.58 12.8161 196.1 12.8161C195.656 12.8161 195.242 12.7741 194.858 12.6901C194.474 12.6061 194.138 12.4621 193.85 12.2581C193.574 12.0541 193.358 11.7841 193.202 11.4481C193.058 11.1121 192.986 10.6921 192.986 10.1881V6.4981C192.986 5.8141 193.13 5.2441 193.418 4.7881C193.706 4.3321 194.102 3.9901 194.606 3.7621C195.11 3.5341 195.68 3.4201 196.316 3.4201C196.952 3.4201 197.504 3.5341 197.972 3.7621C198.452 3.9901 198.824 4.3261 199.088 4.7701C199.352 5.2141 199.484 5.7721 199.484 6.4441V8.5681L193.76 8.8741V10.1881ZM198.692 6.3541C198.692 5.8741 198.584 5.4661 198.368 5.1301C198.164 4.7941 197.882 4.5361 197.522 4.3561C197.174 4.1761 196.766 4.0861 196.298 4.0861C195.782 4.0861 195.332 4.1821 194.948 4.3741C194.564 4.5661 194.27 4.8481 194.066 5.2201C193.862 5.5801 193.76 6.0241 193.76 6.5521V8.1001L198.692 7.8661V6.3541ZM206.52 7.3261V3.6001H207.312V12.6001H206.52V8.0821H201.462V12.6001H200.67V3.6001H201.462V7.3261H206.52ZM214.501 7.3261V3.6001H215.293V12.6001H214.501V8.0821H209.443V12.6001H208.651V3.6001H209.443V7.3261H214.501ZM224.695 12.6001V3.6001H225.487V12.6001H224.695ZM220.825 7.1461C221.329 7.1461 221.791 7.2541 222.211 7.4701C222.631 7.6861 222.967 7.9981 223.219 8.4061C223.471 8.8021 223.597 9.2821 223.597 9.8461C223.597 10.3261 223.483 10.7941 223.255 11.2501C223.039 11.6941 222.691 12.0541 222.211 12.3301C221.731 12.6061 221.101 12.7441 220.321 12.7441C220.021 12.7441 219.709 12.7381 219.385 12.7261C219.061 12.7141 218.749 12.6961 218.449 12.6721C218.149 12.6601 217.873 12.6421 217.621 12.6181C217.381 12.6061 217.177 12.5941 217.009 12.5821C216.841 12.5581 216.733 12.5461 216.685 12.5461V3.6001H217.477V7.1461H220.825ZM220.213 11.9881C220.753 11.9881 221.215 11.8981 221.599 11.7181C221.983 11.5381 222.283 11.2921 222.499 10.9801C222.715 10.6561 222.823 10.2961 222.823 9.9001C222.823 9.5521 222.769 9.2521 222.661 9.0001C222.553 8.7481 222.403 8.5441 222.211 8.3881C222.031 8.2201 221.821 8.1001 221.581 8.0281C221.353 7.9561 221.113 7.9201 220.861 7.9201H217.477V11.8801C217.525 11.8921 217.627 11.9041 217.783 11.9161C217.951 11.9161 218.161 11.9281 218.413 11.9521C218.665 11.9641 218.947 11.9761 219.259 11.9881C219.571 11.9881 219.889 11.9881 220.213 11.9881ZM232.296 0.576097V0.702097C232.296 1.0741 232.206 1.4161 232.026 1.7281C231.846 2.0281 231.6 2.2741 231.288 2.4661C230.988 2.6461 230.652 2.7361 230.28 2.7361C229.908 2.7361 229.566 2.6461 229.254 2.4661C228.942 2.2741 228.69 2.0281 228.498 1.7281C228.318 1.4161 228.228 1.0741 228.228 0.702097V0.576097H228.894V0.702097C228.894 1.0741 229.032 1.3981 229.308 1.6741C229.584 1.9381 229.908 2.0701 230.28 2.0701C230.664 2.0701 230.982 1.9381 231.234 1.6741C231.498 1.3981 231.63 1.0741 231.63 0.702097V0.576097H232.296ZM227.724 3.6001V11.3941L232.638 3.6001H233.574V12.6001H232.782V4.8061L227.868 12.6001H226.932V3.6001H227.724ZM15.2048 25.6001V33.3941L20.1188 25.6001H21.0548V34.6001H20.2628V26.8061L15.3488 34.6001H14.4128V25.6001H15.2048ZM33.2878 29.3261V25.6001H34.0798V34.6001H33.2878V30.0821H28.2298V34.6001H27.4378V25.6001H28.2298V29.3261H33.2878ZM36.8042 38.3621L38.6402 34.0601L35.0402 25.6001H35.9402L39.0722 33.1061L42.2582 25.6001H43.1402L37.6322 38.3621H36.8042ZM52.7941 25.6001L50.0401 30.1001L52.7581 34.6001H51.8221L49.3561 30.4781H48.7081V34.6001H47.8981V30.4781H47.3401L44.7481 34.6001H43.8121L46.6921 30.1001L43.9381 25.6001H44.8561L47.3041 29.7041H47.8981V25.6001H48.7081V29.7041H49.3741L51.9121 25.6001H52.7941ZM59.6198 29.3261V25.6001H60.4118V34.6001H59.6198V30.0821H54.5618V34.6001H53.7698V25.6001H54.5618V29.3261H59.6198ZM69.8143 34.6001V25.6001H70.6063V34.6001H69.8143ZM65.9443 29.1461C66.4483 29.1461 66.9103 29.2541 67.3303 29.4701C67.7503 29.6861 68.0863 29.9981 68.3383 30.4061C68.5903 30.8021 68.7163 31.2821 68.7163 31.8461C68.7163 32.3261 68.6023 32.7941 68.3743 33.2501C68.1583 33.6941 67.8103 34.0541 67.3303 34.3301C66.8503 34.6061 66.2203 34.7441 65.4403 34.7441C65.1403 34.7441 64.8283 34.7381 64.5043 34.7261C64.1803 34.7141 63.8683 34.6961 63.5683 34.6721C63.2683 34.6601 62.9923 34.6421 62.7403 34.6181C62.5003 34.6061 62.2963 34.5941 62.1283 34.5821C61.9603 34.5581 61.8523 34.5461 61.8043 34.5461V25.6001H62.5963V29.1461H65.9443ZM65.3323 33.9881C65.8723 33.9881 66.3343 33.8981 66.7183 33.7181C67.1023 33.5381 67.4023 33.2921 67.6183 32.9801C67.8343 32.6561 67.9423 32.2961 67.9423 31.9001C67.9423 31.5521 67.8883 31.2521 67.7803 31.0001C67.6723 30.7481 67.5223 30.5441 67.3303 30.3881C67.1503 30.2201 66.9403 30.1001 66.7003 30.0281C66.4723 29.9561 66.2323 29.9201 65.9803 29.9201H62.5963V33.8801C62.6443 33.8921 62.7463 33.9041 62.9023 33.9161C63.0703 33.9161 63.2803 33.9281 63.5323 33.9521C63.7843 33.9641 64.0663 33.9761 64.3783 33.9881C64.6903 33.9881 65.0083 33.9881 65.3323 33.9881ZM77.4155 22.5761V22.7021C77.4155 23.0741 77.3255 23.4161 77.1455 23.7281C76.9655 24.0281 76.7195 24.2741 76.4075 24.4661C76.1075 24.6461 75.7715 24.7361 75.3995 24.7361C75.0275 24.7361 74.6855 24.6461 74.3735 24.4661C74.0615 24.2741 73.8095 24.0281 73.6175 23.7281C73.4375 23.4161 73.3475 23.0741 73.3475 22.7021V22.5761H74.0135V22.7021C74.0135 23.0741 74.1515 23.3981 74.4275 23.6741C74.7035 23.9381 75.0275 24.0701 75.3995 24.0701C75.7835 24.0701 76.1015 23.9381 76.3535 23.6741C76.6175 23.3981 76.7495 23.0741 76.7495 22.7021V22.5761H77.4155ZM72.8435 25.6001V33.3941L77.7575 25.6001H78.6935V34.6001H77.9015V26.8061L72.9875 34.6001H72.0515V25.6001H72.8435ZM91.9156 33.3041C91.9156 33.4841 91.9636 33.6461 92.0596 33.7901C92.1556 33.9341 92.2756 34.0601 92.4196 34.1681L92.0236 34.6541C91.9996 34.6301 91.9396 34.5881 91.8436 34.5281C91.7596 34.4681 91.6636 34.3841 91.5556 34.2761C91.4476 34.1561 91.3516 34.0121 91.2676 33.8441C91.1956 33.6641 91.1596 33.4481 91.1596 33.1961V26.3381H85.9396V34.6001H85.1476V25.6001H91.9156V33.3041ZM100.117 31.2701C100.117 32.3261 99.8474 33.1781 99.3074 33.8261C98.7674 34.4621 97.9514 34.7801 96.8594 34.7801C96.1034 34.7801 95.4734 34.6241 94.9694 34.3121C94.4654 33.9881 94.0874 33.5621 93.8354 33.0341C93.5834 32.5061 93.4574 31.9181 93.4574 31.2701V28.9121C93.4574 28.1441 93.5894 27.5021 93.8534 26.9861C94.1174 26.4581 94.5014 26.0621 95.0054 25.7981C95.5214 25.5221 96.1334 25.3841 96.8414 25.3841C97.9094 25.3841 98.7194 25.6961 99.2714 26.3201C99.8354 26.9441 100.117 27.8081 100.117 28.9121V31.2701ZM99.3434 28.8941C99.3434 28.2701 99.2474 27.7541 99.0554 27.3461C98.8754 26.9261 98.5994 26.6141 98.2274 26.4101C97.8674 26.1941 97.4114 26.0861 96.8594 26.0861C96.2834 26.0861 95.8034 26.1941 95.4194 26.4101C95.0354 26.6261 94.7414 26.9441 94.5374 27.3641C94.3454 27.7721 94.2494 28.2821 94.2494 28.8941V31.3961C94.2494 31.9121 94.3514 32.3741 94.5554 32.7821C94.7594 33.1781 95.0534 33.4961 95.4374 33.7361C95.8334 33.9641 96.3074 34.0781 96.8594 34.0781C97.4234 34.0781 97.8854 33.9641 98.2454 33.7361C98.6174 33.5081 98.8934 33.1961 99.0734 32.8001C99.2534 32.3921 99.3434 31.9241 99.3434 31.3961V28.8941ZM108.608 33.8081H109.616V36.3821H108.968L108.824 34.6001H101.624L101.48 36.3821H100.85V33.8081H101.786L103.55 27.9761C103.61 27.7841 103.688 27.5561 103.784 27.2921C103.892 27.0161 104.042 26.7521 104.234 26.5001C104.438 26.2481 104.702 26.0381 105.026 25.8701C105.35 25.6901 105.764 25.6001 106.268 25.6001H108.608V33.8081ZM102.578 33.8081H107.816V26.3381H106.358C106.046 26.3381 105.776 26.3801 105.548 26.4641C105.332 26.5361 105.146 26.6441 104.99 26.7881C104.846 26.9201 104.726 27.0761 104.63 27.2561C104.546 27.4241 104.474 27.6041 104.414 27.7961L102.578 33.8081ZM117.047 25.8341C117.047 25.8341 117.023 25.9721 116.975 26.2481C116.939 26.5121 116.921 26.8301 116.921 27.2021V34.5281C116.933 34.5281 116.861 34.5341 116.705 34.5461C116.549 34.5461 116.345 34.5581 116.093 34.5821C115.853 34.5941 115.589 34.6061 115.301 34.6181C115.013 34.6301 114.731 34.6421 114.455 34.6541C114.179 34.6661 113.945 34.6721 113.753 34.6721C113.261 34.6841 112.805 34.6421 112.385 34.5461C111.977 34.4381 111.617 34.2641 111.305 34.0241C110.993 33.7841 110.753 33.4661 110.585 33.0701C110.429 32.6741 110.351 32.1941 110.351 31.6301V28.2281C110.351 27.6881 110.423 27.2381 110.567 26.8781C110.723 26.5181 110.927 26.2361 111.179 26.0321C111.443 25.8281 111.737 25.6841 112.061 25.6001C112.385 25.5041 112.721 25.4561 113.069 25.4561C113.405 25.4561 113.753 25.4921 114.113 25.5641C114.473 25.6361 114.827 25.7381 115.175 25.8701C115.535 25.9901 115.883 26.1281 116.219 26.2841C116.219 26.2361 116.237 26.1341 116.273 25.9781C116.321 25.8101 116.369 25.6721 116.417 25.5641L117.047 25.8341ZM111.125 31.6661C111.125 32.1581 111.209 32.5781 111.377 32.9261C111.557 33.2621 111.827 33.5201 112.187 33.7001C112.547 33.8801 112.985 33.9701 113.501 33.9701C113.825 33.9701 114.143 33.9641 114.455 33.9521C114.767 33.9281 115.049 33.9101 115.301 33.8981C115.553 33.8861 115.751 33.8741 115.895 33.8621C116.051 33.8501 116.129 33.8441 116.129 33.8441V27.0221C115.841 26.8781 115.553 26.7581 115.265 26.6621C114.989 26.5541 114.719 26.4701 114.455 26.4101C114.191 26.3381 113.933 26.2841 113.681 26.2481C113.441 26.2121 113.219 26.1941 113.015 26.1941C112.787 26.1941 112.559 26.2241 112.331 26.2841C112.103 26.3441 111.899 26.4521 111.719 26.6081C111.539 26.7521 111.395 26.9621 111.287 27.2381C111.179 27.5021 111.125 27.8501 111.125 28.2821V31.6661ZM125.116 31.5221C125.116 32.2541 124.996 32.8781 124.756 33.3941C124.528 33.8981 124.186 34.2821 123.73 34.5461C123.274 34.7981 122.71 34.9241 122.038 34.9241C121.75 34.9241 121.462 34.8881 121.174 34.8161C120.898 34.7561 120.634 34.6601 120.382 34.5281C120.142 34.3841 119.92 34.2281 119.716 34.0601C119.524 33.8801 119.374 33.6821 119.266 33.4661V38.4161L118.456 38.0921V29.0021C118.456 27.8621 118.75 26.9861 119.338 26.3741C119.938 25.7621 120.766 25.4561 121.822 25.4561C122.89 25.4561 123.706 25.7741 124.27 26.4101C124.834 27.0341 125.116 27.8981 125.116 29.0021V31.5221ZM124.324 28.9661C124.324 28.3421 124.228 27.8261 124.036 27.4181C123.844 27.0101 123.562 26.7041 123.19 26.5001C122.83 26.2961 122.386 26.1941 121.858 26.1941C121.282 26.1941 120.802 26.3021 120.418 26.5181C120.034 26.7221 119.746 27.0341 119.554 27.4541C119.362 27.8621 119.266 28.3661 119.266 28.9661V31.7201C119.266 32.1281 119.344 32.4881 119.5 32.8001C119.668 33.1121 119.884 33.3761 120.148 33.5921C120.412 33.7961 120.712 33.9521 121.048 34.0601C121.384 34.1561 121.726 34.1981 122.074 34.1861C122.554 34.1741 122.962 34.0721 123.298 33.8801C123.634 33.6761 123.886 33.3941 124.054 33.0341C124.234 32.6621 124.324 32.2001 124.324 31.6481V28.9661ZM132.918 31.2701C132.918 32.3261 132.648 33.1781 132.108 33.8261C131.568 34.4621 130.752 34.7801 129.66 34.7801C128.904 34.7801 128.274 34.6241 127.77 34.3121C127.266 33.9881 126.888 33.5621 126.636 33.0341C126.384 32.5061 126.258 31.9181 126.258 31.2701V28.9121C126.258 28.1441 126.39 27.5021 126.654 26.9861C126.918 26.4581 127.302 26.0621 127.806 25.7981C128.322 25.5221 128.934 25.3841 129.642 25.3841C130.71 25.3841 131.52 25.6961 132.072 26.3201C132.636 26.9441 132.918 27.8081 132.918 28.9121V31.2701ZM132.144 28.8941C132.144 28.2701 132.048 27.7541 131.856 27.3461C131.676 26.9261 131.4 26.6141 131.028 26.4101C130.668 26.1941 130.212 26.0861 129.66 26.0861C129.084 26.0861 128.604 26.1941 128.22 26.4101C127.836 26.6261 127.542 26.9441 127.338 27.3641C127.146 27.7721 127.05 28.2821 127.05 28.8941V31.3961C127.05 31.9121 127.152 32.3741 127.356 32.7821C127.56 33.1781 127.854 33.4961 128.238 33.7361C128.634 33.9641 129.108 34.0781 129.66 34.0781C130.224 34.0781 130.686 33.9641 131.046 33.7361C131.418 33.5081 131.694 33.1961 131.874 32.8001C132.054 32.3921 132.144 31.9241 132.144 31.3961V28.8941ZM138.997 32.5121C139.225 32.8121 139.441 33.0701 139.645 33.2861C139.861 33.5021 140.065 33.6641 140.257 33.7721C140.449 33.8681 140.623 33.9161 140.779 33.9161H140.833V34.6001H140.815C140.431 34.6001 140.083 34.5101 139.771 34.3301C139.459 34.1381 139.177 33.8981 138.925 33.6101C138.685 33.3221 138.463 33.0341 138.259 32.7461L136.189 29.8841L134.947 31.1441V34.6001H134.155V25.3841L134.947 25.5641V30.1001L139.087 25.5821H140.113L136.711 29.2901L138.997 32.5121ZM142.609 35.9681C142.789 35.7521 142.915 35.5361 142.987 35.3201C143.071 35.1041 143.119 34.9121 143.131 34.7441C143.023 34.7201 142.927 34.6601 142.843 34.5641C142.771 34.4681 142.735 34.3601 142.735 34.2401C142.735 34.0961 142.783 33.9821 142.879 33.8981C142.975 33.8021 143.089 33.7541 143.221 33.7541C143.365 33.7541 143.485 33.8021 143.581 33.8981C143.677 33.9821 143.731 34.0961 143.743 34.2401C143.743 34.5161 143.707 34.7561 143.635 34.9601C143.575 35.1761 143.491 35.3621 143.383 35.5181C143.287 35.6741 143.191 35.8061 143.095 35.9141C142.999 36.0221 142.921 36.1061 142.861 36.1661L142.609 35.9681ZM159.081 25.6001H160.053V34.6001H159.261V26.9861L155.841 34.6001H155.049L151.593 26.9861V34.6001H150.801V25.6001H151.773L155.445 33.7001L159.081 25.6001ZM169.482 34.6001V25.6001H170.274V34.6001H169.482ZM165.612 29.1461C166.116 29.1461 166.578 29.2541 166.998 29.4701C167.418 29.6861 167.754 29.9981 168.006 30.4061C168.258 30.8021 168.384 31.2821 168.384 31.8461C168.384 32.3261 168.27 32.7941 168.042 33.2501C167.826 33.6941 167.478 34.0541 166.998 34.3301C166.518 34.6061 165.888 34.7441 165.108 34.7441C164.808 34.7441 164.496 34.7381 164.172 34.7261C163.848 34.7141 163.536 34.6961 163.236 34.6721C162.936 34.6601 162.66 34.6421 162.408 34.6181C162.168 34.6061 161.964 34.5941 161.796 34.5821C161.628 34.5581 161.52 34.5461 161.472 34.5461V25.6001H162.264V29.1461H165.612ZM165 33.9881C165.54 33.9881 166.002 33.8981 166.386 33.7181C166.77 33.5381 167.07 33.2921 167.286 32.9801C167.502 32.6561 167.61 32.2961 167.61 31.9001C167.61 31.5521 167.556 31.2521 167.448 31.0001C167.34 30.7481 167.19 30.5441 166.998 30.3881C166.818 30.2201 166.608 30.1001 166.368 30.0281C166.14 29.9561 165.9 29.9201 165.648 29.9201H162.264V33.8801C162.312 33.8921 162.414 33.9041 162.57 33.9161C162.738 33.9161 162.948 33.9281 163.2 33.9521C163.452 33.9641 163.734 33.9761 164.046 33.9881C164.358 33.9881 164.676 33.9881 165 33.9881ZM180.094 25.3841C180.778 25.3841 181.354 25.5161 181.822 25.7801C182.29 26.0441 182.644 26.4341 182.884 26.9501C183.124 27.4541 183.244 28.0781 183.244 28.8221V31.2341C183.244 32.3141 182.962 33.1721 182.398 33.8081C181.834 34.4441 181.012 34.7621 179.932 34.7621C179.2 34.7621 178.582 34.6181 178.078 34.3301C177.574 34.0421 177.196 33.6341 176.944 33.1061C176.692 32.5781 176.566 31.9541 176.566 31.2341V26.1041C176.566 25.5641 176.644 25.0661 176.8 24.6101C176.956 24.1421 177.202 23.7221 177.538 23.3501C177.838 23.0141 178.228 22.7201 178.708 22.4681C179.188 22.2161 179.722 22.0481 180.31 21.9641L180.418 22.3781C179.842 22.5101 179.368 22.7021 178.996 22.9541C178.624 23.1941 178.342 23.4281 178.15 23.6561C177.922 23.9321 177.736 24.2561 177.592 24.6281C177.448 25.0001 177.376 25.4441 177.376 25.9601V26.8421C177.52 26.5421 177.724 26.2841 177.988 26.0681C178.264 25.8521 178.582 25.6841 178.942 25.5641C179.302 25.4441 179.686 25.3841 180.094 25.3841ZM180.04 26.1221C179.632 26.1221 179.266 26.1821 178.942 26.3021C178.618 26.4221 178.336 26.5961 178.096 26.8241C177.868 27.0401 177.688 27.3161 177.556 27.6521C177.436 27.9761 177.376 28.3481 177.376 28.7681V31.2341C177.376 31.8221 177.472 32.3261 177.664 32.7461C177.856 33.1541 178.144 33.4721 178.528 33.7001C178.912 33.9161 179.392 34.0241 179.968 34.0241C180.532 34.0241 180.994 33.9161 181.354 33.7001C181.726 33.4841 182.002 33.1661 182.182 32.7461C182.362 32.3261 182.452 31.8221 182.452 31.2341V28.6961C182.452 28.1321 182.356 27.6581 182.164 27.2741C181.972 26.8901 181.696 26.6021 181.336 26.4101C180.976 26.2181 180.544 26.1221 180.04 26.1221ZM185.814 38.3621L187.65 34.0601L184.05 25.6001H184.95L188.082 33.1061L191.268 25.6001H192.15L186.642 38.3621H185.814ZM200.454 33.8081H201.462V36.3821H200.814L200.67 34.6001H193.47L193.326 36.3821H192.696V33.8081H193.632L195.396 27.9761C195.456 27.7841 195.534 27.5561 195.63 27.2921C195.738 27.0161 195.888 26.7521 196.08 26.5001C196.284 26.2481 196.548 26.0381 196.872 25.8701C197.196 25.6901 197.61 25.6001 198.114 25.6001H200.454V33.8081ZM194.424 33.8081H199.662V26.3381H198.204C197.892 26.3381 197.622 26.3801 197.394 26.4641C197.178 26.5361 196.992 26.6441 196.836 26.7881C196.692 26.9201 196.572 27.0761 196.476 27.2561C196.392 27.4241 196.32 27.6041 196.26 27.7961L194.424 33.8081ZM202.971 32.1881C202.971 32.5481 203.031 32.8541 203.151 33.1061C203.271 33.3461 203.433 33.5441 203.637 33.7001C203.841 33.8441 204.081 33.9521 204.357 34.0241C204.633 34.0961 204.927 34.1321 205.239 34.1321C205.707 34.1321 206.151 34.0661 206.571 33.9341C207.003 33.7901 207.453 33.5981 207.921 33.3581L208.227 33.9701C207.783 34.2341 207.303 34.4441 206.787 34.6001C206.283 34.7441 205.791 34.8161 205.311 34.8161C204.867 34.8161 204.453 34.7741 204.069 34.6901C203.685 34.6061 203.349 34.4621 203.061 34.2581C202.785 34.0541 202.569 33.7841 202.413 33.4481C202.269 33.1121 202.197 32.6921 202.197 32.1881V28.4981C202.197 27.8141 202.341 27.2441 202.629 26.7881C202.917 26.3321 203.313 25.9901 203.817 25.7621C204.321 25.5341 204.891 25.4201 205.527 25.4201C206.163 25.4201 206.715 25.5341 207.183 25.7621C207.663 25.9901 208.035 26.3261 208.299 26.7701C208.563 27.2141 208.695 27.7721 208.695 28.4441V30.5681L202.971 30.8741V32.1881ZM207.903 28.3541C207.903 27.8741 207.795 27.4661 207.579 27.1301C207.375 26.7941 207.093 26.5361 206.733 26.3561C206.385 26.1761 205.977 26.0861 205.509 26.0861C204.993 26.0861 204.543 26.1821 204.159 26.3741C203.775 26.5661 203.481 26.8481 203.277 27.2201C203.073 27.5801 202.971 28.0241 202.971 28.5521V30.1001L207.903 29.8661V28.3541ZM218.143 25.6001H219.115V34.6001H218.323V26.9861L214.903 34.6001H214.111L210.655 26.9861V34.6001H209.863V25.6001H210.835L214.507 33.7001L218.143 25.6001ZM27.6867 53.2701C27.6867 54.3261 27.4167 55.1781 26.8767 55.8261C26.3367 56.4621 25.5207 56.7801 24.4287 56.7801C23.6727 56.7801 23.0427 56.6241 22.5387 56.3121C22.0347 55.9881 21.6567 55.5621 21.4047 55.0341C21.1527 54.5061 21.0267 53.9181 21.0267 53.2701V50.9121C21.0267 50.1441 21.1587 49.5021 21.4227 48.9861C21.6867 48.4581 22.0707 48.0621 22.5747 47.7981C23.0907 47.5221 23.7027 47.3841 24.4107 47.3841C25.4787 47.3841 26.2887 47.6961 26.8407 48.3201C27.4047 48.9441 27.6867 49.8081 27.6867 50.9121V53.2701ZM26.9127 50.8941C26.9127 50.2701 26.8167 49.7541 26.6247 49.3461C26.4447 48.9261 26.1687 48.6141 25.7967 48.4101C25.4367 48.1941 24.9807 48.0861 24.4287 48.0861C23.8527 48.0861 23.3727 48.1941 22.9887 48.4101C22.6047 48.6261 22.3107 48.9441 22.1067 49.3641C21.9147 49.7721 21.8187 50.2821 21.8187 50.8941V53.3961C21.8187 53.9121 21.9207 54.3741 22.1247 54.7821C22.3287 55.1781 22.6227 55.4961 23.0067 55.7361C23.4027 55.9641 23.8767 56.0781 24.4287 56.0781C24.9927 56.0781 25.4547 55.9641 25.8147 55.7361C26.1867 55.5081 26.4627 55.1961 26.6427 54.8001C26.8227 54.3921 26.9127 53.9241 26.9127 53.3961V50.8941ZM34.7195 56.6001V53.2881C34.5395 53.5881 34.2995 53.8401 33.9995 54.0441C33.7115 54.2361 33.3875 54.3861 33.0275 54.4941C32.6795 54.6021 32.3255 54.6561 31.9655 54.6561C31.5215 54.6561 31.1075 54.6021 30.7235 54.4941C30.3515 54.3861 30.0215 54.2181 29.7335 53.9901C29.4455 53.7501 29.2175 53.4381 29.0495 53.0541C28.8935 52.6701 28.8155 52.2021 28.8155 51.6501V47.6001H29.6255V51.6141C29.6255 52.0581 29.6915 52.4301 29.8235 52.7301C29.9555 53.0181 30.1355 53.2521 30.3635 53.4321C30.6035 53.6001 30.8735 53.7261 31.1735 53.8101C31.4735 53.8821 31.7855 53.9181 32.1095 53.9181C32.4695 53.9181 32.8055 53.8581 33.1175 53.7381C33.4295 53.6061 33.6995 53.4261 33.9275 53.1981C34.1675 52.9701 34.3535 52.7001 34.4855 52.3881C34.6295 52.0761 34.7015 51.7401 34.7015 51.3801V49.1841C34.7015 48.9801 34.7195 48.7881 34.7555 48.6081C34.8035 48.4161 34.8695 48.2481 34.9535 48.1041C35.0375 47.9481 35.1395 47.8101 35.2595 47.6901C35.3915 47.5701 35.5475 47.4681 35.7275 47.3841L36.0515 47.9601C35.8835 48.0561 35.7455 48.1881 35.6375 48.3561C35.5415 48.5241 35.4935 48.8061 35.4935 49.2021V56.6001H34.7195ZM37.4817 54.1881C37.4817 54.5481 37.5417 54.8541 37.6617 55.1061C37.7817 55.3461 37.9437 55.5441 38.1477 55.7001C38.3517 55.8441 38.5917 55.9521 38.8677 56.0241C39.1437 56.0961 39.4377 56.1321 39.7497 56.1321C40.2177 56.1321 40.6617 56.0661 41.0817 55.9341C41.5137 55.7901 41.9637 55.5981 42.4317 55.3581L42.7377 55.9701C42.2937 56.2341 41.8137 56.4441 41.2977 56.6001C40.7937 56.7441 40.3017 56.8161 39.8217 56.8161C39.3777 56.8161 38.9637 56.7741 38.5797 56.6901C38.1957 56.6061 37.8597 56.4621 37.5717 56.2581C37.2957 56.0541 37.0797 55.7841 36.9237 55.4481C36.7797 55.1121 36.7077 54.6921 36.7077 54.1881V50.4981C36.7077 49.8141 36.8517 49.2441 37.1397 48.7881C37.4277 48.3321 37.8237 47.9901 38.3277 47.7621C38.8317 47.5341 39.4017 47.4201 40.0377 47.4201C40.6737 47.4201 41.2257 47.5341 41.6937 47.7621C42.1737 47.9901 42.5457 48.3261 42.8097 48.7701C43.0737 49.2141 43.2057 49.7721 43.2057 50.4441V52.5681L37.4817 52.8741V54.1881ZM42.4137 50.3541C42.4137 49.8741 42.3057 49.4661 42.0897 49.1301C41.8857 48.7941 41.6037 48.5361 41.2437 48.3561C40.8957 48.1761 40.4877 48.0861 40.0197 48.0861C39.5037 48.0861 39.0537 48.1821 38.6697 48.3741C38.2857 48.5661 37.9917 48.8481 37.7877 49.2201C37.5837 49.5801 37.4817 50.0241 37.4817 50.5521V52.1001L42.4137 51.8661V50.3541ZM50.2419 51.3261V47.6001H51.0339V56.6001H50.2419V52.0821H45.1839V56.6001H44.3919V47.6001H45.1839V51.3261H50.2419ZM56.5663 51.1461C57.0703 51.1461 57.5323 51.2541 57.9523 51.4701C58.3723 51.6861 58.7083 51.9981 58.9603 52.4061C59.2123 52.8021 59.3383 53.2821 59.3383 53.8461C59.3383 54.3261 59.2243 54.7941 58.9963 55.2501C58.7803 55.6941 58.4323 56.0541 57.9523 56.3301C57.4723 56.6061 56.8423 56.7441 56.0623 56.7441C55.7623 56.7441 55.4503 56.7381 55.1263 56.7261C54.8023 56.7141 54.4903 56.6961 54.1903 56.6721C53.8903 56.6601 53.6143 56.6421 53.3623 56.6181C53.1223 56.6061 52.9183 56.5941 52.7503 56.5821C52.5823 56.5581 52.4743 56.5461 52.4263 56.5461V47.6001H53.2183V51.1461H56.5663ZM55.9543 55.9881C56.4943 55.9881 56.9563 55.8981 57.3403 55.7181C57.7243 55.5381 58.0243 55.2921 58.2403 54.9801C58.4563 54.6561 58.5643 54.2961 58.5643 53.9001C58.5643 53.5521 58.5103 53.2521 58.4023 53.0001C58.2943 52.7481 58.1443 52.5441 57.9523 52.3881C57.7723 52.2201 57.5623 52.1001 57.3223 52.0281C57.0943 51.9561 56.8543 51.9201 56.6023 51.9201H53.2183V55.8801C53.2663 55.8921 53.3683 55.9041 53.5243 55.9161C53.6923 55.9161 53.9023 55.9281 54.1543 55.9521C54.4063 55.9641 54.6883 55.9761 55.0003 55.9881C55.3123 55.9881 55.6303 55.9881 55.9543 55.9881ZM68.9742 47.3841C69.6582 47.3841 70.2342 47.5161 70.7022 47.7801C71.1702 48.0441 71.5242 48.4341 71.7642 48.9501C72.0042 49.4541 72.1242 50.0781 72.1242 50.8221V53.2341C72.1242 54.3141 71.8422 55.1721 71.2782 55.8081C70.7142 56.4441 69.8922 56.7621 68.8122 56.7621C68.0802 56.7621 67.4622 56.6181 66.9582 56.3301C66.4542 56.0421 66.0762 55.6341 65.8242 55.1061C65.5722 54.5781 65.4462 53.9541 65.4462 53.2341V48.1041C65.4462 47.5641 65.5242 47.0661 65.6802 46.6101C65.8362 46.1421 66.0822 45.7221 66.4182 45.3501C66.7182 45.0141 67.1082 44.7201 67.5882 44.4681C68.0682 44.2161 68.6022 44.0481 69.1902 43.9641L69.2982 44.3781C68.7222 44.5101 68.2482 44.7021 67.8762 44.9541C67.5042 45.1941 67.2222 45.4281 67.0302 45.6561C66.8022 45.9321 66.6162 46.2561 66.4722 46.6281C66.3282 47.0001 66.2562 47.4441 66.2562 47.9601V48.8421C66.4002 48.5421 66.6042 48.2841 66.8682 48.0681C67.1442 47.8521 67.4622 47.6841 67.8222 47.5641C68.1822 47.4441 68.5662 47.3841 68.9742 47.3841ZM68.9202 48.1221C68.5122 48.1221 68.1462 48.1821 67.8222 48.3021C67.4982 48.4221 67.2162 48.5961 66.9762 48.8241C66.7482 49.0401 66.5682 49.3161 66.4362 49.6521C66.3162 49.9761 66.2562 50.3481 66.2562 50.7681V53.2341C66.2562 53.8221 66.3522 54.3261 66.5442 54.7461C66.7362 55.1541 67.0242 55.4721 67.4082 55.7001C67.7922 55.9161 68.2722 56.0241 68.8482 56.0241C69.4122 56.0241 69.8742 55.9161 70.2342 55.7001C70.6062 55.4841 70.8822 55.1661 71.0622 54.7461C71.2422 54.3261 71.3322 53.8221 71.3322 53.2341V50.6961C71.3322 50.1321 71.2362 49.6581 71.0442 49.2741C70.8522 48.8901 70.5762 48.6021 70.2162 48.4101C69.8562 48.2181 69.4242 48.1221 68.9202 48.1221ZM78.2399 47.6001H80.5619V56.6001H79.7519V48.3381H78.3119C77.9159 48.3381 77.5859 48.4101 77.3219 48.5541C77.0699 48.6861 76.8719 48.8601 76.7279 49.0761C76.5839 49.2921 76.4699 49.5321 76.3859 49.7961L74.9279 54.5841C74.8079 54.9921 74.6759 55.3401 74.5319 55.6281C74.3879 55.9161 74.2079 56.1501 73.9919 56.3301C73.7759 56.5101 73.4939 56.6601 73.1459 56.7801L72.6419 56.3301C72.9899 56.1981 73.2659 56.0121 73.4699 55.7721C73.6859 55.5321 73.8479 55.2861 73.9559 55.0341C74.0759 54.7821 74.1599 54.5721 74.2079 54.4041L75.5219 49.9761C75.5819 49.7721 75.6599 49.5381 75.7559 49.2741C75.8639 49.0101 76.0139 48.7521 76.2059 48.5001C76.4099 48.2361 76.6739 48.0201 76.9979 47.8521C77.3219 47.6841 77.7359 47.6001 78.2399 47.6001ZM88.5443 47.8341C88.5443 47.8341 88.5203 47.9721 88.4723 48.2481C88.4363 48.5121 88.4183 48.8301 88.4183 49.2021V56.5281C88.4303 56.5281 88.3583 56.5341 88.2023 56.5461C88.0463 56.5461 87.8423 56.5581 87.5903 56.5821C87.3503 56.5941 87.0863 56.6061 86.7983 56.6181C86.5103 56.6301 86.2283 56.6421 85.9523 56.6541C85.6763 56.6661 85.4423 56.6721 85.2503 56.6721C84.7583 56.6841 84.3023 56.6421 83.8823 56.5461C83.4743 56.4381 83.1143 56.2641 82.8023 56.0241C82.4903 55.7841 82.2503 55.4661 82.0823 55.0701C81.9263 54.6741 81.8483 54.1941 81.8483 53.6301V50.2281C81.8483 49.6881 81.9203 49.2381 82.0643 48.8781C82.2203 48.5181 82.4243 48.2361 82.6763 48.0321C82.9403 47.8281 83.2343 47.6841 83.5583 47.6001C83.8823 47.5041 84.2183 47.4561 84.5663 47.4561C84.9023 47.4561 85.2503 47.4921 85.6103 47.5641C85.9703 47.6361 86.3243 47.7381 86.6723 47.8701C87.0323 47.9901 87.3803 48.1281 87.7163 48.2841C87.7163 48.2361 87.7343 48.1341 87.7703 47.9781C87.8183 47.8101 87.8663 47.6721 87.9143 47.5641L88.5443 47.8341ZM82.6223 53.6661C82.6223 54.1581 82.7063 54.5781 82.8743 54.9261C83.0543 55.2621 83.3243 55.5201 83.6843 55.7001C84.0443 55.8801 84.4823 55.9701 84.9983 55.9701C85.3223 55.9701 85.6403 55.9641 85.9523 55.9521C86.2643 55.9281 86.5463 55.9101 86.7983 55.8981C87.0503 55.8861 87.2483 55.8741 87.3923 55.8621C87.5483 55.8501 87.6263 55.8441 87.6263 55.8441V49.0221C87.3383 48.8781 87.0503 48.7581 86.7623 48.6621C86.4863 48.5541 86.2163 48.4701 85.9523 48.4101C85.6883 48.3381 85.4303 48.2841 85.1783 48.2481C84.9383 48.2121 84.7163 48.1941 84.5123 48.1941C84.2843 48.1941 84.0563 48.2241 83.8283 48.2841C83.6003 48.3441 83.3963 48.4521 83.2163 48.6081C83.0363 48.7521 82.8923 48.9621 82.7843 49.2381C82.6763 49.5021 82.6223 49.8501 82.6223 50.2821V53.6661ZM89.9175 47.6001H94.8675V48.3381H90.7095V56.6001H89.9175V47.6001ZM102.2 53.2701C102.2 54.3261 101.93 55.1781 101.39 55.8261C100.85 56.4621 100.034 56.7801 98.9424 56.7801C98.1864 56.7801 97.5564 56.6241 97.0524 56.3121C96.5484 55.9881 96.1704 55.5621 95.9184 55.0341C95.6664 54.5061 95.5404 53.9181 95.5404 53.2701V50.9121C95.5404 50.1441 95.6724 49.5021 95.9364 48.9861C96.2004 48.4581 96.5844 48.0621 97.0884 47.7981C97.6044 47.5221 98.2164 47.3841 98.9244 47.3841C99.9924 47.3841 100.802 47.6961 101.354 48.3201C101.918 48.9441 102.2 49.8081 102.2 50.9121V53.2701ZM101.426 50.8941C101.426 50.2701 101.33 49.7541 101.138 49.3461C100.958 48.9261 100.682 48.6141 100.31 48.4101C99.9504 48.1941 99.4944 48.0861 98.9424 48.0861C98.3664 48.0861 97.8864 48.1941 97.5024 48.4101C97.1184 48.6261 96.8244 48.9441 96.6204 49.3641C96.4284 49.7721 96.3324 50.2821 96.3324 50.8941V53.3961C96.3324 53.9121 96.4344 54.3741 96.6384 54.7821C96.8424 55.1781 97.1364 55.4961 97.5204 55.7361C97.9164 55.9641 98.3904 56.0781 98.9424 56.0781C99.5064 56.0781 99.9684 55.9641 100.328 55.7361C100.7 55.5081 100.976 55.1961 101.156 54.8001C101.336 54.3921 101.426 53.9241 101.426 53.3961V50.8941ZM110.691 55.8081H111.699V58.3821H111.051L110.907 56.6001H103.707L103.563 58.3821H102.933V55.8081H103.869L105.633 49.9761C105.693 49.7841 105.771 49.5561 105.867 49.2921C105.975 49.0161 106.125 48.7521 106.317 48.5001C106.521 48.2481 106.785 48.0381 107.109 47.8701C107.433 47.6901 107.847 47.6001 108.351 47.6001H110.691V55.8081ZM104.661 55.8081H109.899V48.3381H108.441C108.129 48.3381 107.859 48.3801 107.631 48.4641C107.415 48.5361 107.229 48.6441 107.073 48.7881C106.929 48.9201 106.809 49.0761 106.713 49.2561C106.629 49.4241 106.557 49.6041 106.497 49.7961L104.661 55.8081ZM119.13 47.8341C119.13 47.8341 119.106 47.9721 119.058 48.2481C119.022 48.5121 119.004 48.8301 119.004 49.2021V56.5281C119.016 56.5281 118.944 56.5341 118.788 56.5461C118.632 56.5461 118.428 56.5581 118.176 56.5821C117.936 56.5941 117.672 56.6061 117.384 56.6181C117.096 56.6301 116.814 56.6421 116.538 56.6541C116.262 56.6661 116.028 56.6721 115.836 56.6721C115.344 56.6841 114.888 56.6421 114.468 56.5461C114.06 56.4381 113.7 56.2641 113.388 56.0241C113.076 55.7841 112.836 55.4661 112.668 55.0701C112.512 54.6741 112.434 54.1941 112.434 53.6301V50.2281C112.434 49.6881 112.506 49.2381 112.65 48.8781C112.806 48.5181 113.01 48.2361 113.262 48.0321C113.526 47.8281 113.82 47.6841 114.144 47.6001C114.468 47.5041 114.804 47.4561 115.152 47.4561C115.488 47.4561 115.836 47.4921 116.196 47.5641C116.556 47.6361 116.91 47.7381 117.258 47.8701C117.618 47.9901 117.966 48.1281 118.302 48.2841C118.302 48.2361 118.32 48.1341 118.356 47.9781C118.404 47.8101 118.452 47.6721 118.5 47.5641L119.13 47.8341ZM113.208 53.6661C113.208 54.1581 113.292 54.5781 113.46 54.9261C113.64 55.2621 113.91 55.5201 114.27 55.7001C114.63 55.8801 115.068 55.9701 115.584 55.9701C115.908 55.9701 116.226 55.9641 116.538 55.9521C116.85 55.9281 117.132 55.9101 117.384 55.8981C117.636 55.8861 117.834 55.8741 117.978 55.8621C118.134 55.8501 118.212 55.8441 118.212 55.8441V49.0221C117.924 48.8781 117.636 48.7581 117.348 48.6621C117.072 48.5541 116.802 48.4701 116.538 48.4101C116.274 48.3381 116.016 48.2841 115.764 48.2481C115.524 48.2121 115.302 48.1941 115.098 48.1941C114.87 48.1941 114.642 48.2241 114.414 48.2841C114.186 48.3441 113.982 48.4521 113.802 48.6081C113.622 48.7521 113.478 48.9621 113.37 49.2381C113.262 49.5021 113.208 49.8501 113.208 50.2821V53.6661ZM127.199 53.5221C127.199 54.2541 127.079 54.8781 126.839 55.3941C126.611 55.8981 126.269 56.2821 125.813 56.5461C125.357 56.7981 124.793 56.9241 124.121 56.9241C123.833 56.9241 123.545 56.8881 123.257 56.8161C122.981 56.7561 122.717 56.6601 122.465 56.5281C122.225 56.3841 122.003 56.2281 121.799 56.0601C121.607 55.8801 121.457 55.6821 121.349 55.4661V60.4161L120.539 60.0921V51.0021C120.539 49.8621 120.833 48.9861 121.421 48.3741C122.021 47.7621 122.849 47.4561 123.905 47.4561C124.973 47.4561 125.789 47.7741 126.353 48.4101C126.917 49.0341 127.199 49.8981 127.199 51.0021V53.5221ZM126.407 50.9661C126.407 50.3421 126.311 49.8261 126.119 49.4181C125.927 49.0101 125.645 48.7041 125.273 48.5001C124.913 48.2961 124.469 48.1941 123.941 48.1941C123.365 48.1941 122.885 48.3021 122.501 48.5181C122.117 48.7221 121.829 49.0341 121.637 49.4541C121.445 49.8621 121.349 50.3661 121.349 50.9661V53.7201C121.349 54.1281 121.427 54.4881 121.583 54.8001C121.751 55.1121 121.967 55.3761 122.231 55.5921C122.495 55.7961 122.795 55.9521 123.131 56.0601C123.467 56.1561 123.809 56.1981 124.157 56.1861C124.637 56.1741 125.045 56.0721 125.381 55.8801C125.717 55.6761 125.969 55.3941 126.137 55.0341C126.317 54.6621 126.407 54.2001 126.407 53.6481V50.9661ZM134.353 51.3261V47.6001H135.145V56.6001H134.353V52.0821H129.295V56.6001H128.503V47.6001H129.295V51.3261H134.353ZM144.548 56.6001V47.6001H145.34V56.6001H144.548ZM140.678 51.1461C141.182 51.1461 141.644 51.2541 142.064 51.4701C142.484 51.6861 142.82 51.9981 143.072 52.4061C143.324 52.8021 143.45 53.2821 143.45 53.8461C143.45 54.3261 143.336 54.7941 143.108 55.2501C142.892 55.6941 142.544 56.0541 142.064 56.3301C141.584 56.6061 140.954 56.7441 140.174 56.7441C139.874 56.7441 139.562 56.7381 139.238 56.7261C138.914 56.7141 138.602 56.6961 138.302 56.6721C138.002 56.6601 137.726 56.6421 137.474 56.6181C137.234 56.6061 137.03 56.5941 136.862 56.5821C136.694 56.5581 136.586 56.5461 136.538 56.5461V47.6001H137.33V51.1461H140.678ZM140.066 55.9881C140.606 55.9881 141.068 55.8981 141.452 55.7181C141.836 55.5381 142.136 55.2921 142.352 54.9801C142.568 54.6561 142.676 54.2961 142.676 53.9001C142.676 53.5521 142.622 53.2521 142.514 53.0001C142.406 52.7481 142.256 52.5441 142.064 52.3881C141.884 52.2201 141.674 52.1001 141.434 52.0281C141.206 51.9561 140.966 51.9201 140.714 51.9201H137.33V55.8801C137.378 55.8921 137.48 55.9041 137.636 55.9161C137.804 55.9161 138.014 55.9281 138.266 55.9521C138.518 55.9641 138.8 55.9761 139.112 55.9881C139.424 55.9881 139.742 55.9881 140.066 55.9881ZM152.802 48.4101V47.6541C153.138 47.5581 153.456 47.4921 153.756 47.4561C154.056 47.4201 154.344 47.4021 154.62 47.4021C155.256 47.4021 155.778 47.5221 156.186 47.7621C156.594 47.9901 156.894 48.2841 157.086 48.6441C157.29 48.9921 157.392 49.3581 157.392 49.7421C157.392 49.9701 157.35 50.2041 157.266 50.4441C157.182 50.6721 157.056 50.8821 156.888 51.0741C156.72 51.2661 156.504 51.4161 156.24 51.5241C156.744 51.7041 157.134 52.0101 157.41 52.4421C157.698 52.8741 157.842 53.3601 157.842 53.9001C157.842 54.3801 157.728 54.8481 157.5 55.3041C157.272 55.7481 156.918 56.1081 156.438 56.3841C155.958 56.6601 155.328 56.7981 154.548 56.7981C154.032 56.7981 153.498 56.7381 152.946 56.6181C152.406 56.4981 151.938 56.3541 151.542 56.1861L151.776 55.4481C151.968 55.5201 152.202 55.6041 152.478 55.7001C152.754 55.7841 153.06 55.8621 153.396 55.9341C153.732 56.0061 154.08 56.0421 154.44 56.0421C154.98 56.0421 155.442 55.9521 155.826 55.7721C156.21 55.5921 156.51 55.3461 156.726 55.0341C156.942 54.7101 157.05 54.3501 157.05 53.9541C157.05 53.6061 156.984 53.3061 156.852 53.0541C156.732 52.8021 156.57 52.5921 156.366 52.4241C156.162 52.2561 155.928 52.1361 155.664 52.0641C155.412 51.9801 155.154 51.9381 154.89 51.9381H153.09L152.802 51.1821H155.124C155.4 51.1821 155.646 51.1161 155.862 50.9841C156.09 50.8401 156.264 50.6601 156.384 50.4441C156.504 50.2161 156.564 49.9701 156.564 49.7061C156.564 49.4781 156.522 49.2741 156.438 49.0941C156.366 48.9141 156.252 48.7581 156.096 48.6261C155.952 48.4821 155.772 48.3681 155.556 48.2841C155.352 48.2001 155.124 48.1461 154.872 48.1221C154.704 48.1101 154.506 48.1101 154.278 48.1221C154.062 48.1221 153.828 48.1461 153.576 48.1941C153.336 48.2421 153.078 48.3141 152.802 48.4101ZM165.554 47.8341C165.554 47.8341 165.53 47.9721 165.482 48.2481C165.446 48.5121 165.428 48.8301 165.428 49.2021V56.5281C165.44 56.5281 165.368 56.5341 165.212 56.5461C165.056 56.5461 164.852 56.5581 164.6 56.5821C164.36 56.5941 164.096 56.6061 163.808 56.6181C163.52 56.6301 163.238 56.6421 162.962 56.6541C162.686 56.6661 162.452 56.6721 162.26 56.6721C161.768 56.6841 161.312 56.6421 160.892 56.5461C160.484 56.4381 160.124 56.2641 159.812 56.0241C159.5 55.7841 159.26 55.4661 159.092 55.0701C158.936 54.6741 158.858 54.1941 158.858 53.6301V50.2281C158.858 49.6881 158.93 49.2381 159.074 48.8781C159.23 48.5181 159.434 48.2361 159.686 48.0321C159.95 47.8281 160.244 47.6841 160.568 47.6001C160.892 47.5041 161.228 47.4561 161.576 47.4561C161.912 47.4561 162.26 47.4921 162.62 47.5641C162.98 47.6361 163.334 47.7381 163.682 47.8701C164.042 47.9901 164.39 48.1281 164.726 48.2841C164.726 48.2361 164.744 48.1341 164.78 47.9781C164.828 47.8101 164.876 47.6721 164.924 47.5641L165.554 47.8341ZM159.632 53.6661C159.632 54.1581 159.716 54.5781 159.884 54.9261C160.064 55.2621 160.334 55.5201 160.694 55.7001C161.054 55.8801 161.492 55.9701 162.008 55.9701C162.332 55.9701 162.65 55.9641 162.962 55.9521C163.274 55.9281 163.556 55.9101 163.808 55.8981C164.06 55.8861 164.258 55.8741 164.402 55.8621C164.558 55.8501 164.636 55.8441 164.636 55.8441V49.0221C164.348 48.8781 164.06 48.7581 163.772 48.6621C163.496 48.5541 163.226 48.4701 162.962 48.4101C162.698 48.3381 162.44 48.2841 162.188 48.2481C161.948 48.2121 161.726 48.1941 161.522 48.1941C161.294 48.1941 161.066 48.2241 160.838 48.2841C160.61 48.3441 160.406 48.4521 160.226 48.6081C160.046 48.7521 159.902 48.9621 159.794 49.2381C159.686 49.5021 159.632 49.8501 159.632 50.2821V53.6661ZM177.228 51.4881C177.756 51.6681 178.164 51.9801 178.452 52.4241C178.752 52.8681 178.902 53.3601 178.902 53.9001C178.902 54.3801 178.788 54.8481 178.56 55.3041C178.344 55.7481 177.996 56.1081 177.516 56.3841C177.036 56.6601 176.406 56.7981 175.626 56.7981C175.314 56.7981 174.99 56.7921 174.654 56.7801C174.318 56.7681 173.994 56.7501 173.682 56.7261C173.382 56.7021 173.106 56.6781 172.854 56.6541C172.602 56.6421 172.398 56.6301 172.242 56.6181C172.098 56.6061 172.02 56.6001 172.008 56.6001V47.5821C172.008 47.5821 172.104 47.5761 172.296 47.5641C172.488 47.5401 172.752 47.5161 173.088 47.4921C173.436 47.4681 173.82 47.4501 174.24 47.4381C174.672 47.4141 175.122 47.4021 175.59 47.4021C176.07 47.4021 176.484 47.4621 176.832 47.5821C177.192 47.7021 177.486 47.8701 177.714 48.0861C177.942 48.3021 178.11 48.5481 178.218 48.8241C178.338 49.0881 178.398 49.3761 178.398 49.6881C178.398 50.0361 178.29 50.3841 178.074 50.7321C177.87 51.0801 177.588 51.3321 177.228 51.4881ZM175.5 48.1041C175.212 48.1041 174.918 48.1101 174.618 48.1221C174.33 48.1341 174.054 48.1461 173.79 48.1581C173.538 48.1701 173.322 48.1821 173.142 48.1941C172.962 48.2061 172.848 48.2181 172.8 48.2301V51.1821H176.004C176.292 51.1821 176.556 51.1101 176.796 50.9661C177.036 50.8221 177.228 50.6361 177.372 50.4081C177.516 50.1681 177.588 49.9161 177.588 49.6521C177.588 49.3521 177.528 49.1001 177.408 48.8961C177.288 48.6921 177.126 48.5361 176.922 48.4281C176.718 48.3081 176.49 48.2241 176.238 48.1761C175.998 48.1281 175.752 48.1041 175.5 48.1041ZM175.518 56.0421C176.058 56.0421 176.52 55.9521 176.904 55.7721C177.288 55.5921 177.588 55.3461 177.804 55.0341C178.02 54.7101 178.128 54.3501 178.128 53.9541C178.128 53.6061 178.062 53.3121 177.93 53.0721C177.81 52.8201 177.648 52.6101 177.444 52.4421C177.24 52.2741 177.006 52.1481 176.742 52.0641C176.49 51.9801 176.232 51.9381 175.968 51.9381H172.8V55.9341C172.848 55.9341 172.95 55.9401 173.106 55.9521C173.274 55.9641 173.478 55.9821 173.718 56.0061C173.97 56.0181 174.252 56.0301 174.564 56.0421C174.876 56.0421 175.194 56.0421 175.518 56.0421ZM184.973 54.5121C185.201 54.8121 185.417 55.0701 185.621 55.2861C185.837 55.5021 186.041 55.6641 186.233 55.7721C186.425 55.8681 186.599 55.9161 186.755 55.9161H186.809V56.6001H186.791C186.407 56.6001 186.059 56.5101 185.747 56.3301C185.435 56.1381 185.153 55.8981 184.901 55.6101C184.661 55.3221 184.439 55.0341 184.235 54.7461L182.165 51.8841L180.923 53.1441V56.6001H180.131V47.3841L180.923 47.5641V52.1001L185.063 47.5821H186.089L182.687 51.2901L184.973 54.5121ZM192.814 47.6001H195.136V56.6001H194.326V48.3381H192.886C192.49 48.3381 192.16 48.4101 191.896 48.5541C191.644 48.6861 191.446 48.8601 191.302 49.0761C191.158 49.2921 191.044 49.5321 190.96 49.7961L189.502 54.5841C189.382 54.9921 189.25 55.3401 189.106 55.6281C188.962 55.9161 188.782 56.1501 188.566 56.3301C188.35 56.5101 188.068 56.6601 187.72 56.7801L187.216 56.3301C187.564 56.1981 187.84 56.0121 188.044 55.7721C188.26 55.5321 188.422 55.2861 188.53 55.0341C188.65 54.7821 188.734 54.5721 188.782 54.4041L190.096 49.9761C190.156 49.7721 190.234 49.5381 190.33 49.2741C190.438 49.0101 190.588 48.7521 190.78 48.5001C190.984 48.2361 191.248 48.0201 191.572 47.8521C191.896 47.6841 192.31 47.6001 192.814 47.6001ZM203.119 47.8341C203.119 47.8341 203.095 47.9721 203.047 48.2481C203.011 48.5121 202.993 48.8301 202.993 49.2021V56.5281C203.005 56.5281 202.933 56.5341 202.777 56.5461C202.621 56.5461 202.417 56.5581 202.165 56.5821C201.925 56.5941 201.661 56.6061 201.373 56.6181C201.085 56.6301 200.803 56.6421 200.527 56.6541C200.251 56.6661 200.017 56.6721 199.825 56.6721C199.333 56.6841 198.877 56.6421 198.457 56.5461C198.049 56.4381 197.689 56.2641 197.377 56.0241C197.065 55.7841 196.825 55.4661 196.657 55.0701C196.501 54.6741 196.423 54.1941 196.423 53.6301V50.2281C196.423 49.6881 196.495 49.2381 196.639 48.8781C196.795 48.5181 196.999 48.2361 197.251 48.0321C197.515 47.8281 197.809 47.6841 198.133 47.6001C198.457 47.5041 198.793 47.4561 199.141 47.4561C199.477 47.4561 199.825 47.4921 200.185 47.5641C200.545 47.6361 200.899 47.7381 201.247 47.8701C201.607 47.9901 201.955 48.1281 202.291 48.2841C202.291 48.2361 202.309 48.1341 202.345 47.9781C202.393 47.8101 202.441 47.6721 202.489 47.5641L203.119 47.8341ZM197.197 53.6661C197.197 54.1581 197.281 54.5781 197.449 54.9261C197.629 55.2621 197.899 55.5201 198.259 55.7001C198.619 55.8801 199.057 55.9701 199.573 55.9701C199.897 55.9701 200.215 55.9641 200.527 55.9521C200.839 55.9281 201.121 55.9101 201.373 55.8981C201.625 55.8861 201.823 55.8741 201.967 55.8621C202.123 55.8501 202.201 55.8441 202.201 55.8441V49.0221C201.913 48.8781 201.625 48.7581 201.337 48.6621C201.061 48.5541 200.791 48.4701 200.527 48.4101C200.263 48.3381 200.005 48.2841 199.753 48.2481C199.513 48.2121 199.291 48.1941 199.087 48.1941C198.859 48.1941 198.631 48.2241 198.403 48.2841C198.175 48.3441 197.971 48.4521 197.791 48.6081C197.611 48.7521 197.467 48.9621 197.359 49.2381C197.251 49.5021 197.197 49.8501 197.197 50.2821V53.6661ZM211.836 55.8081H212.844V58.3821H212.196L212.052 56.6001H204.852L204.708 58.3821H204.078V55.8081H205.014L206.778 49.9761C206.838 49.7841 206.916 49.5561 207.012 49.2921C207.12 49.0161 207.27 48.7521 207.462 48.5001C207.666 48.2481 207.93 48.0381 208.254 47.8701C208.578 47.6901 208.992 47.6001 209.496 47.6001H211.836V55.8081ZM205.806 55.8081H211.044V48.3381H209.586C209.274 48.3381 209.004 48.3801 208.776 48.4641C208.56 48.5361 208.374 48.6441 208.218 48.7881C208.074 48.9201 207.954 49.0761 207.858 49.2561C207.774 49.4241 207.702 49.6041 207.642 49.7961L205.806 55.8081ZM11.1677 73.4881C11.6957 73.6681 12.1037 73.9801 12.3917 74.4241C12.6917 74.8681 12.8417 75.3601 12.8417 75.9001C12.8417 76.3801 12.7277 76.8481 12.4997 77.3041C12.2837 77.7481 11.9357 78.1081 11.4557 78.3841C10.9757 78.6601 10.3457 78.7981 9.56566 78.7981C9.25366 78.7981 8.92966 78.7921 8.59366 78.7801C8.25766 78.7681 7.93366 78.7501 7.62166 78.7261C7.32166 78.7021 7.04566 78.6781 6.79366 78.6541C6.54166 78.6421 6.33766 78.6301 6.18166 78.6181C6.03766 78.6061 5.95966 78.6001 5.94766 78.6001V69.5821C5.94766 69.5821 6.04366 69.5761 6.23566 69.5641C6.42766 69.5401 6.69166 69.5161 7.02766 69.4921C7.37566 69.4681 7.75966 69.4501 8.17966 69.4381C8.61166 69.4141 9.06166 69.4021 9.52966 69.4021C10.0097 69.4021 10.4237 69.4621 10.7717 69.5821C11.1317 69.7021 11.4257 69.8701 11.6537 70.0861C11.8817 70.3021 12.0497 70.5481 12.1577 70.8241C12.2777 71.0881 12.3377 71.3761 12.3377 71.6881C12.3377 72.0361 12.2297 72.3841 12.0137 72.7321C11.8097 73.0801 11.5277 73.3321 11.1677 73.4881ZM9.43966 70.1041C9.15166 70.1041 8.85766 70.1101 8.55766 70.1221C8.26966 70.1341 7.99366 70.1461 7.72966 70.1581C7.47766 70.1701 7.26166 70.1821 7.08166 70.1941C6.90166 70.2061 6.78766 70.2181 6.73966 70.2301V73.1821H9.94366C10.2317 73.1821 10.4957 73.1101 10.7357 72.9661C10.9757 72.8221 11.1677 72.6361 11.3117 72.4081C11.4557 72.1681 11.5277 71.9161 11.5277 71.6521C11.5277 71.3521 11.4677 71.1001 11.3477 70.8961C11.2277 70.6921 11.0657 70.5361 10.8617 70.4281C10.6577 70.3081 10.4297 70.2241 10.1777 70.1761C9.93766 70.1281 9.69166 70.1041 9.43966 70.1041ZM9.45766 78.0421C9.99766 78.0421 10.4597 77.9521 10.8437 77.7721C11.2277 77.5921 11.5277 77.3461 11.7437 77.0341C11.9597 76.7101 12.0677 76.3501 12.0677 75.9541C12.0677 75.6061 12.0017 75.3121 11.8697 75.0721C11.7497 74.8201 11.5877 74.6101 11.3837 74.4421C11.1797 74.2741 10.9457 74.1481 10.6817 74.0641C10.4297 73.9801 10.1717 73.9381 9.90766 73.9381H6.73966V77.9341C6.78766 77.9341 6.88966 77.9401 7.04566 77.9521C7.21366 77.9641 7.41766 77.9821 7.65766 78.0061C7.90966 78.0181 8.19166 78.0301 8.50366 78.0421C8.81566 78.0421 9.13366 78.0421 9.45766 78.0421ZM22.4449 69.3841C23.1289 69.3841 23.7049 69.5161 24.1729 69.7801C24.6409 70.0441 24.9949 70.4341 25.2349 70.9501C25.4749 71.4541 25.5949 72.0781 25.5949 72.8221V75.2341C25.5949 76.3141 25.3129 77.1721 24.7489 77.8081C24.1849 78.4441 23.3629 78.7621 22.2829 78.7621C21.5509 78.7621 20.9329 78.6181 20.4289 78.3301C19.9249 78.0421 19.5469 77.6341 19.2949 77.1061C19.0429 76.5781 18.9169 75.9541 18.9169 75.2341V70.1041C18.9169 69.5641 18.9949 69.0661 19.1509 68.6101C19.3069 68.1421 19.5529 67.7221 19.8889 67.3501C20.1889 67.0141 20.5789 66.7201 21.0589 66.4681C21.5389 66.2161 22.0729 66.0481 22.6609 65.9641L22.7689 66.3781C22.1929 66.5101 21.7189 66.7021 21.3469 66.9541C20.9749 67.1941 20.6929 67.4281 20.5009 67.6561C20.2729 67.9321 20.0869 68.2561 19.9429 68.6281C19.7989 69.0001 19.7269 69.4441 19.7269 69.9601V70.8421C19.8709 70.5421 20.0749 70.2841 20.3389 70.0681C20.6149 69.8521 20.9329 69.6841 21.2929 69.5641C21.6529 69.4441 22.0369 69.3841 22.4449 69.3841ZM22.3909 70.1221C21.9829 70.1221 21.6169 70.1821 21.2929 70.3021C20.9689 70.4221 20.6869 70.5961 20.4469 70.8241C20.2189 71.0401 20.0389 71.3161 19.9069 71.6521C19.7869 71.9761 19.7269 72.3481 19.7269 72.7681V75.2341C19.7269 75.8221 19.8229 76.3261 20.0149 76.7461C20.2069 77.1541 20.4949 77.4721 20.8789 77.7001C21.2629 77.9161 21.7429 78.0241 22.3189 78.0241C22.8829 78.0241 23.3449 77.9161 23.7049 77.7001C24.0769 77.4841 24.3529 77.1661 24.5329 76.7461C24.7129 76.3261 24.8029 75.8221 24.8029 75.2341V72.6961C24.8029 72.1321 24.7069 71.6581 24.5149 71.2741C24.3229 70.8901 24.0469 70.6021 23.6869 70.4101C23.3269 70.2181 22.8949 70.1221 22.3909 70.1221ZM27.2106 73.6861H30.2166V74.4961H27.2106V73.6861ZM36.4626 75.2701C36.4626 76.3261 36.1926 77.1781 35.6526 77.8261C35.1126 78.4621 34.2966 78.7801 33.2046 78.7801C32.4486 78.7801 31.8126 78.6241 31.2966 78.3121C30.7926 77.9881 30.4146 77.5621 30.1626 77.0341C29.9226 76.5061 29.8026 75.9181 29.8026 75.2701V72.9121C29.8026 72.1441 29.9346 71.5021 30.1986 70.9861C30.4626 70.4581 30.8466 70.0621 31.3506 69.7981C31.8546 69.5221 32.4606 69.3841 33.1686 69.3841C34.2366 69.3841 35.0526 69.6961 35.6166 70.3201C36.1806 70.9441 36.4626 71.8081 36.4626 72.9121V75.2701ZM35.6706 72.8941C35.6706 72.2821 35.5746 71.7721 35.3826 71.3641C35.2026 70.9441 34.9266 70.6321 34.5546 70.4281C34.1946 70.2121 33.7446 70.1041 33.2046 70.1041C32.6286 70.1041 32.1486 70.2121 31.7646 70.4281C31.3806 70.6441 31.0866 70.9621 30.8826 71.3821C30.6906 71.7901 30.5946 72.2941 30.5946 72.8941V75.3961C30.5946 75.9121 30.6966 76.3741 30.9006 76.7821C31.1046 77.1901 31.3986 77.5081 31.7826 77.7361C32.1786 77.9641 32.6526 78.0781 33.2046 78.0781C33.7686 78.0781 34.2306 77.9701 34.5906 77.7541C34.9626 77.5261 35.2326 77.2081 35.4006 76.8001C35.5806 76.3921 35.6706 75.9241 35.6706 75.3961V72.8941ZM26.7966 78.6001V69.6001H27.5886V78.6001H26.7966ZM45.0018 77.8081H46.0098V80.3821H45.3618L45.2178 78.6001H38.0178L37.8738 80.3821H37.2438V77.8081H38.1798L39.9438 71.9761C40.0038 71.7841 40.0818 71.5561 40.1778 71.2921C40.2858 71.0161 40.4358 70.7521 40.6278 70.5001C40.8318 70.2481 41.0958 70.0381 41.4198 69.8701C41.7438 69.6901 42.1578 69.6001 42.6618 69.6001H45.0018V77.8081ZM38.9718 77.8081H44.2098V70.3381H42.7518C42.4398 70.3381 42.1698 70.3801 41.9418 70.4641C41.7258 70.5361 41.5398 70.6441 41.3838 70.7881C41.2398 70.9201 41.1198 71.0761 41.0238 71.2561C40.9398 71.4241 40.8678 71.6041 40.8078 71.7961L38.9718 77.8081ZM55.4748 69.6001L52.7208 74.1001L55.4388 78.6001H54.5028L52.0368 74.4781H51.3888V78.6001H50.5788V74.4781H50.0208L47.4288 78.6001H46.4928L49.3728 74.1001L46.6188 69.6001H47.5368L49.9848 73.7041H50.5788V69.6001H51.3888V73.7041H52.0548L54.5928 69.6001H55.4748ZM57.1165 76.1881C57.1165 76.5481 57.1765 76.8541 57.2965 77.1061C57.4165 77.3461 57.5785 77.5441 57.7825 77.7001C57.9865 77.8441 58.2265 77.9521 58.5025 78.0241C58.7785 78.0961 59.0725 78.1321 59.3845 78.1321C59.8525 78.1321 60.2965 78.0661 60.7165 77.9341C61.1485 77.7901 61.5985 77.5981 62.0665 77.3581L62.3725 77.9701C61.9285 78.2341 61.4485 78.4441 60.9325 78.6001C60.4285 78.7441 59.9365 78.8161 59.4565 78.8161C59.0125 78.8161 58.5985 78.7741 58.2145 78.6901C57.8305 78.6061 57.4945 78.4621 57.2065 78.2581C56.9305 78.0541 56.7145 77.7841 56.5585 77.4481C56.4145 77.1121 56.3425 76.6921 56.3425 76.1881V72.4981C56.3425 71.8141 56.4865 71.2441 56.7745 70.7881C57.0625 70.3321 57.4585 69.9901 57.9625 69.7621C58.4665 69.5341 59.0365 69.4201 59.6725 69.4201C60.3085 69.4201 60.8605 69.5341 61.3285 69.7621C61.8085 69.9901 62.1805 70.3261 62.4445 70.7701C62.7085 71.2141 62.8405 71.7721 62.8405 72.4441V74.5681L57.1165 74.8741V76.1881ZM62.0485 72.3541C62.0485 71.8741 61.9405 71.4661 61.7245 71.1301C61.5205 70.7941 61.2385 70.5361 60.8785 70.3561C60.5305 70.1761 60.1225 70.0861 59.6545 70.0861C59.1385 70.0861 58.6885 70.1821 58.3045 70.3741C57.9205 70.5661 57.6265 70.8481 57.4225 71.2201C57.2185 71.5801 57.1165 72.0241 57.1165 72.5521V74.1001L62.0485 73.8661V72.3541ZM66.8346 76.2061C66.8346 76.5301 66.8706 76.8241 66.9426 77.0881C67.0146 77.3521 67.1346 77.5801 67.3026 77.7721C67.4826 77.9641 67.7346 78.1141 68.0586 78.2221L67.8246 78.8341C67.4886 78.7381 67.2066 78.6121 66.9786 78.4561C66.7506 78.2881 66.5646 78.1021 66.4206 77.8981C66.2886 77.6821 66.1926 77.4361 66.1326 77.1601C66.0726 76.8721 66.0426 76.5541 66.0426 76.2061V70.3561H63.7386V69.6001H69.2106V70.3561H66.8346V76.2061ZM81.1794 73.3261V69.6001H81.9714V78.6001H81.1794V74.0821H76.1214V78.6001H75.3294V69.6001H76.1214V73.3261H81.1794ZM89.8978 69.8341C89.8978 69.8341 89.8738 69.9721 89.8258 70.2481C89.7898 70.5121 89.7718 70.8301 89.7718 71.2021V78.5281C89.7838 78.5281 89.7118 78.5341 89.5558 78.5461C89.3998 78.5461 89.1958 78.5581 88.9438 78.5821C88.7038 78.5941 88.4398 78.6061 88.1518 78.6181C87.8638 78.6301 87.5818 78.6421 87.3058 78.6541C87.0298 78.6661 86.7958 78.6721 86.6038 78.6721C86.1118 78.6841 85.6558 78.6421 85.2358 78.5461C84.8278 78.4381 84.4678 78.2641 84.1558 78.0241C83.8438 77.7841 83.6038 77.4661 83.4358 77.0701C83.2798 76.6741 83.2018 76.1941 83.2018 75.6301V72.2281C83.2018 71.6881 83.2738 71.2381 83.4178 70.8781C83.5738 70.5181 83.7778 70.2361 84.0298 70.0321C84.2938 69.8281 84.5878 69.6841 84.9118 69.6001C85.2358 69.5041 85.5718 69.4561 85.9198 69.4561C86.2558 69.4561 86.6038 69.4921 86.9638 69.5641C87.3238 69.6361 87.6778 69.7381 88.0258 69.8701C88.3858 69.9901 88.7338 70.1281 89.0698 70.2841C89.0698 70.2361 89.0878 70.1341 89.1238 69.9781C89.1718 69.8101 89.2198 69.6721 89.2678 69.5641L89.8978 69.8341ZM83.9758 75.6661C83.9758 76.1581 84.0598 76.5781 84.2278 76.9261C84.4078 77.2621 84.6778 77.5201 85.0378 77.7001C85.3978 77.8801 85.8358 77.9701 86.3518 77.9701C86.6758 77.9701 86.9938 77.9641 87.3058 77.9521C87.6178 77.9281 87.8998 77.9101 88.1518 77.8981C88.4038 77.8861 88.6018 77.8741 88.7458 77.8621C88.9018 77.8501 88.9798 77.8441 88.9798 77.8441V71.0221C88.6918 70.8781 88.4038 70.7581 88.1158 70.6621C87.8398 70.5541 87.5698 70.4701 87.3058 70.4101C87.0418 70.3381 86.7838 70.2841 86.5318 70.2481C86.2918 70.2121 86.0698 70.1941 85.8658 70.1941C85.6378 70.1941 85.4098 70.2241 85.1818 70.2841C84.9538 70.3441 84.7498 70.4521 84.5698 70.6081C84.3898 70.7521 84.2458 70.9621 84.1378 71.2381C84.0298 71.5021 83.9758 71.8501 83.9758 72.2821V75.6661ZM100.145 69.6001H100.937V78.6001H91.469V69.6001H92.279V77.8081H95.789V69.6001H96.599V77.8081H100.145V69.6001ZM103.083 76.1881C103.083 76.5481 103.143 76.8541 103.263 77.1061C103.383 77.3461 103.545 77.5441 103.749 77.7001C103.953 77.8441 104.193 77.9521 104.469 78.0241C104.745 78.0961 105.039 78.1321 105.351 78.1321C105.819 78.1321 106.263 78.0661 106.683 77.9341C107.115 77.7901 107.565 77.5981 108.033 77.3581L108.339 77.9701C107.895 78.2341 107.415 78.4441 106.899 78.6001C106.395 78.7441 105.903 78.8161 105.423 78.8161C104.979 78.8161 104.565 78.7741 104.181 78.6901C103.797 78.6061 103.461 78.4621 103.173 78.2581C102.897 78.0541 102.681 77.7841 102.525 77.4481C102.381 77.1121 102.309 76.6921 102.309 76.1881V72.4981C102.309 71.8141 102.453 71.2441 102.741 70.7881C103.029 70.3321 103.425 69.9901 103.929 69.7621C104.433 69.5341 105.003 69.4201 105.639 69.4201C106.275 69.4201 106.827 69.5341 107.295 69.7621C107.775 69.9901 108.147 70.3261 108.411 70.7701C108.675 71.2141 108.807 71.7721 108.807 72.4441V74.5681L103.083 74.8741V76.1881ZM108.015 72.3541C108.015 71.8741 107.907 71.4661 107.691 71.1301C107.487 70.7941 107.205 70.5361 106.845 70.3561C106.497 70.1761 106.089 70.0861 105.621 70.0861C105.105 70.0861 104.655 70.1821 104.271 70.3741C103.887 70.5661 103.593 70.8481 103.389 71.2201C103.185 71.5801 103.083 72.0241 103.083 72.5521V74.1001L108.015 73.8661V72.3541ZM115.375 66.5761V66.7021C115.375 67.0741 115.285 67.4161 115.105 67.7281C114.925 68.0281 114.679 68.2741 114.367 68.4661C114.067 68.6461 113.731 68.7361 113.359 68.7361C112.987 68.7361 112.645 68.6461 112.333 68.4661C112.021 68.2741 111.769 68.0281 111.577 67.7281C111.397 67.4161 111.307 67.0741 111.307 66.7021V66.5761H111.973V66.7021C111.973 67.0741 112.111 67.3981 112.387 67.6741C112.663 67.9381 112.987 68.0701 113.359 68.0701C113.743 68.0701 114.061 67.9381 114.313 67.6741C114.577 67.3981 114.709 67.0741 114.709 66.7021V66.5761H115.375ZM110.803 69.6001V77.3941L115.717 69.6001H116.653V78.6001H115.861V70.8061L110.947 78.6001H110.011V69.6001H110.803ZM131.334 69.6001H132.306V78.6001H131.514V70.9861L128.094 78.6001H127.302L123.846 70.9861V78.6001H123.054V69.6001H124.026L127.698 77.7001L131.334 69.6001ZM140.169 75.2701C140.169 76.3261 139.899 77.1781 139.359 77.8261C138.819 78.4621 138.003 78.7801 136.911 78.7801C136.155 78.7801 135.525 78.6241 135.021 78.3121C134.517 77.9881 134.139 77.5621 133.887 77.0341C133.635 76.5061 133.509 75.9181 133.509 75.2701V72.9121C133.509 72.1441 133.641 71.5021 133.905 70.9861C134.169 70.4581 134.553 70.0621 135.057 69.7981C135.573 69.5221 136.185 69.3841 136.893 69.3841C137.961 69.3841 138.771 69.6961 139.323 70.3201C139.887 70.9441 140.169 71.8081 140.169 72.9121V75.2701ZM139.395 72.8941C139.395 72.2701 139.299 71.7541 139.107 71.3461C138.927 70.9261 138.651 70.6141 138.279 70.4101C137.919 70.1941 137.463 70.0861 136.911 70.0861C136.335 70.0861 135.855 70.1941 135.471 70.4101C135.087 70.6261 134.793 70.9441 134.589 71.3641C134.397 71.7721 134.301 72.2821 134.301 72.8941V75.3961C134.301 75.9121 134.403 76.3741 134.607 76.7821C134.811 77.1781 135.105 77.4961 135.489 77.7361C135.885 77.9641 136.359 78.0781 136.911 78.0781C137.475 78.0781 137.937 77.9641 138.297 77.7361C138.669 77.5081 138.945 77.1961 139.125 76.8001C139.305 76.3921 139.395 75.9241 139.395 75.3961V72.8941ZM146.32 69.6001H148.642V78.6001H147.832V70.3381H146.392C145.996 70.3381 145.666 70.4101 145.402 70.5541C145.15 70.6861 144.952 70.8601 144.808 71.0761C144.664 71.2921 144.55 71.5321 144.466 71.7961L143.008 76.5841C142.888 76.9921 142.756 77.3401 142.612 77.6281C142.468 77.9161 142.288 78.1501 142.072 78.3301C141.856 78.5101 141.574 78.6601 141.226 78.7801L140.722 78.3301C141.07 78.1981 141.346 78.0121 141.55 77.7721C141.766 77.5321 141.928 77.2861 142.036 77.0341C142.156 76.7821 142.24 76.5721 142.288 76.4041L143.602 71.9761C143.662 71.7721 143.74 71.5381 143.836 71.2741C143.944 71.0101 144.094 70.7521 144.286 70.5001C144.49 70.2361 144.754 70.0201 145.078 69.8521C145.402 69.6841 145.816 69.6001 146.32 69.6001ZM156.534 75.2701C156.534 76.3261 156.264 77.1781 155.724 77.8261C155.184 78.4621 154.368 78.7801 153.276 78.7801C152.52 78.7801 151.89 78.6241 151.386 78.3121C150.882 77.9881 150.504 77.5621 150.252 77.0341C150 76.5061 149.874 75.9181 149.874 75.2701V72.9121C149.874 72.1441 150.006 71.5021 150.27 70.9861C150.534 70.4581 150.918 70.0621 151.422 69.7981C151.938 69.5221 152.55 69.3841 153.258 69.3841C154.326 69.3841 155.136 69.6961 155.688 70.3201C156.252 70.9441 156.534 71.8081 156.534 72.9121V75.2701ZM155.76 72.8941C155.76 72.2701 155.664 71.7541 155.472 71.3461C155.292 70.9261 155.016 70.6141 154.644 70.4101C154.284 70.1941 153.828 70.0861 153.276 70.0861C152.7 70.0861 152.22 70.1941 151.836 70.4101C151.452 70.6261 151.158 70.9441 150.954 71.3641C150.762 71.7721 150.666 72.2821 150.666 72.8941V75.3961C150.666 75.9121 150.768 76.3741 150.972 76.7821C151.176 77.1781 151.47 77.4961 151.854 77.7361C152.25 77.9641 152.724 78.0781 153.276 78.0781C153.84 78.0781 154.302 77.9641 154.662 77.7361C155.034 77.5081 155.31 77.1961 155.49 76.8001C155.67 76.3921 155.76 75.9241 155.76 75.3961V72.8941ZM165.025 77.8081H166.033V80.3821H165.385L165.241 78.6001H158.041L157.897 80.3821H157.267V77.8081H158.203L159.967 71.9761C160.027 71.7841 160.105 71.5561 160.201 71.2921C160.309 71.0161 160.459 70.7521 160.651 70.5001C160.855 70.2481 161.119 70.0381 161.443 69.8701C161.767 69.6901 162.181 69.6001 162.685 69.6001H165.025V77.8081ZM158.995 77.8081H164.233V70.3381H162.775C162.463 70.3381 162.193 70.3801 161.965 70.4641C161.749 70.5361 161.563 70.6441 161.407 70.7881C161.263 70.9201 161.143 71.0761 161.047 71.2561C160.963 71.4241 160.891 71.6041 160.831 71.7961L158.995 77.8081ZM173.374 75.2701C173.374 76.3261 173.104 77.1781 172.564 77.8261C172.024 78.4621 171.208 78.7801 170.116 78.7801C169.36 78.7801 168.73 78.6241 168.226 78.3121C167.722 77.9881 167.344 77.5621 167.092 77.0341C166.84 76.5061 166.714 75.9181 166.714 75.2701V72.9121C166.714 72.1441 166.846 71.5021 167.11 70.9861C167.374 70.4581 167.758 70.0621 168.262 69.7981C168.778 69.5221 169.39 69.3841 170.098 69.3841C171.166 69.3841 171.976 69.6961 172.528 70.3201C173.092 70.9441 173.374 71.8081 173.374 72.9121V75.2701ZM172.6 72.8941C172.6 72.2701 172.504 71.7541 172.312 71.3461C172.132 70.9261 171.856 70.6141 171.484 70.4101C171.124 70.1941 170.668 70.0861 170.116 70.0861C169.54 70.0861 169.06 70.1941 168.676 70.4101C168.292 70.6261 167.998 70.9441 167.794 71.3641C167.602 71.7721 167.506 72.2821 167.506 72.8941V75.3961C167.506 75.9121 167.608 76.3741 167.812 76.7821C168.016 77.1781 168.31 77.4961 168.694 77.7361C169.09 77.9641 169.564 78.0781 170.116 78.0781C170.68 78.0781 171.142 77.9641 171.502 77.7361C171.874 77.5081 172.15 77.1961 172.33 76.8001C172.51 76.3921 172.6 75.9241 172.6 75.3961V72.8941ZM179.975 66.5761V66.7021C179.975 67.0741 179.885 67.4161 179.705 67.7281C179.525 68.0281 179.279 68.2741 178.967 68.4661C178.667 68.6461 178.331 68.7361 177.959 68.7361C177.587 68.7361 177.245 68.6461 176.933 68.4661C176.621 68.2741 176.369 68.0281 176.177 67.7281C175.997 67.4161 175.907 67.0741 175.907 66.7021V66.5761H176.573V66.7021C176.573 67.0741 176.711 67.3981 176.987 67.6741C177.263 67.9381 177.587 68.0701 177.959 68.0701C178.343 68.0701 178.661 67.9381 178.913 67.6741C179.177 67.3981 179.309 67.0741 179.309 66.7021V66.5761H179.975ZM175.403 69.6001V77.3941L180.317 69.6001H181.253V78.6001H180.461V70.8061L175.547 78.6001H174.611V69.6001H175.403ZM193.071 70.6441C192.735 70.4881 192.375 70.3681 191.991 70.2841C191.607 70.2001 191.235 70.1521 190.875 70.1401C190.287 70.1401 189.801 70.2601 189.417 70.5001C189.045 70.7401 188.769 71.0761 188.589 71.5081C188.409 71.9281 188.313 72.4201 188.301 72.9841V75.3061C188.301 75.7981 188.355 76.2181 188.463 76.5661C188.571 76.9141 188.739 77.1961 188.967 77.4121C189.207 77.6281 189.495 77.7901 189.831 77.8981C190.167 77.9941 190.557 78.0481 191.001 78.0601C191.277 78.0601 191.541 78.0481 191.793 78.0241C192.045 78.0001 192.273 77.9701 192.477 77.9341C192.681 77.8981 192.843 77.8681 192.963 77.8441C193.083 77.8081 193.149 77.7901 193.161 77.7901L193.323 78.5101C192.951 78.6061 192.561 78.6781 192.153 78.7261C191.757 78.7861 191.361 78.8101 190.965 78.7981C190.281 78.7861 189.675 78.6661 189.147 78.4381C188.631 78.1981 188.229 77.8381 187.941 77.3581C187.665 76.8661 187.527 76.2361 187.527 75.4681V72.8941C187.527 72.1981 187.647 71.5921 187.887 71.0761C188.127 70.5601 188.493 70.1581 188.985 69.8701C189.489 69.5701 190.113 69.4201 190.857 69.4201C191.265 69.4201 191.673 69.4741 192.081 69.5821C192.501 69.6781 192.903 69.8161 193.287 69.9961L193.071 70.6441ZM195.175 76.1881C195.175 76.5481 195.235 76.8541 195.355 77.1061C195.475 77.3461 195.637 77.5441 195.841 77.7001C196.045 77.8441 196.285 77.9521 196.561 78.0241C196.837 78.0961 197.131 78.1321 197.443 78.1321C197.911 78.1321 198.355 78.0661 198.775 77.9341C199.207 77.7901 199.657 77.5981 200.125 77.3581L200.431 77.9701C199.987 78.2341 199.507 78.4441 198.991 78.6001C198.487 78.7441 197.995 78.8161 197.515 78.8161C197.071 78.8161 196.657 78.7741 196.273 78.6901C195.889 78.6061 195.553 78.4621 195.265 78.2581C194.989 78.0541 194.773 77.7841 194.617 77.4481C194.473 77.1121 194.401 76.6921 194.401 76.1881V72.4981C194.401 71.8141 194.545 71.2441 194.833 70.7881C195.121 70.3321 195.517 69.9901 196.021 69.7621C196.525 69.5341 197.095 69.4201 197.731 69.4201C198.367 69.4201 198.919 69.5341 199.387 69.7621C199.867 69.9901 200.239 70.3261 200.503 70.7701C200.767 71.2141 200.899 71.7721 200.899 72.4441V74.5681L195.175 74.8741V76.1881ZM200.107 72.3541C200.107 71.8741 199.999 71.4661 199.783 71.1301C199.579 70.7941 199.297 70.5361 198.937 70.3561C198.589 70.1761 198.181 70.0861 197.713 70.0861C197.197 70.0861 196.747 70.1821 196.363 70.3741C195.979 70.5661 195.685 70.8481 195.481 71.2201C195.277 71.5801 195.175 72.0241 195.175 72.5521V74.1001L200.107 73.8661V72.3541ZM210.347 69.6001H211.319V78.6001H210.527V70.9861L207.107 78.6001H206.315L202.859 70.9861V78.6001H202.067V69.6001H203.039L206.711 77.7001L210.347 69.6001ZM216.879 73.1461C217.383 73.1461 217.845 73.2541 218.265 73.4701C218.685 73.6861 219.021 73.9981 219.273 74.4061C219.525 74.8021 219.651 75.2821 219.651 75.8461C219.651 76.3261 219.537 76.7941 219.309 77.2501C219.093 77.6941 218.745 78.0541 218.265 78.3301C217.785 78.6061 217.155 78.7441 216.375 78.7441C216.075 78.7441 215.763 78.7381 215.439 78.7261C215.115 78.7141 214.803 78.6961 214.503 78.6721C214.203 78.6601 213.927 78.6421 213.675 78.6181C213.435 78.6061 213.231 78.5941 213.063 78.5821C212.895 78.5581 212.787 78.5461 212.739 78.5461V69.6001H213.531V73.1461H216.879ZM216.267 77.9881C216.807 77.9881 217.269 77.8981 217.653 77.7181C218.037 77.5381 218.337 77.2921 218.553 76.9801C218.769 76.6561 218.877 76.2961 218.877 75.9001C218.877 75.5521 218.823 75.2521 218.715 75.0001C218.607 74.7481 218.457 74.5441 218.265 74.3881C218.085 74.2201 217.875 74.1001 217.635 74.0281C217.407 73.9561 217.167 73.9201 216.915 73.9201H213.531V77.8801C213.579 77.8921 213.681 77.9041 213.837 77.9161C214.005 77.9161 214.215 77.9281 214.467 77.9521C214.719 77.9641 215.001 77.9761 215.313 77.9881C215.625 77.9881 215.943 77.9881 216.267 77.9881ZM221.704 69.6001V77.3941L226.618 69.6001H227.554V78.6001H226.762V70.8061L221.848 78.6001H220.912V69.6001H221.704Z" fill="#FFF5D1"/>
</svg>
