<svg width="402" height="160" viewBox="0 0 402 160" fill="none" xmlns="http://www.w3.org/2000/svg">
<path d="M-111.33 65.5985C9.49698 11.0094 -106.1 120.047 -5.37013 78.4052C95.36 36.7631 137.954 87.2742 168.242 78.4211C232.525 59.6315 229.468 20.1224 273.602 58.3061C317.736 96.4897 382.11 77.0121 420.579 120.102C459.048 163.192 553.475 124.982 553.475 124.982" stroke="#3E2723"/>
<path d="M-111.671 72.028C-105.472 70.0554 -56.4901 65.2818 -32.3913 65.1148C-21.3718 65.0385 -9.20422 64.9117 4.17132 65.3428C22.4211 65.9311 43.0972 66.5587 94.1134 70.8897C120.582 73.1367 147.187 75.9432 169.125 68.9997C186.647 63.4537 197.985 60.5786 220.675 55.2295C249.372 48.4643 289.161 54.4696 326.984 65.9877C345.644 71.6702 375.783 91.1524 395.93 101.023C432.878 119.126 457.677 121.825 480.355 122.09C497.018 120.263 516.66 117.968 536.745 114.923C544.577 113.811 547.618 113.579 554.656 110.624" stroke="#3E2723" stroke-width="2" stroke-linecap="round"/>
</svg>
