<svg width="677" height="160" viewBox="0 0 677 160" fill="none" xmlns="http://www.w3.org/2000/svg">
<path d="M3.67017 65.5985C124.497 11.0094 8.89978 120.047 109.63 78.4052C210.36 36.7631 252.954 87.2742 283.242 78.4211C347.525 59.6315 344.468 20.1224 388.602 58.3061C432.736 96.4897 497.11 77.0121 535.579 120.102C574.048 163.192 668.475 124.982 668.475 124.982" stroke="#3E2723"/>
<path d="M3.32906 72.028C9.52775 70.0554 58.5099 65.2818 82.6087 65.1148C93.6282 65.0385 105.796 64.9117 119.171 65.3428C137.421 65.9311 158.097 66.5587 209.113 70.8897C235.582 73.1367 262.187 75.9432 284.125 68.9997C301.647 63.4537 312.985 60.5786 335.675 55.2295C364.372 48.4643 404.161 54.4696 441.984 65.9877C460.644 71.6702 490.783 91.1524 510.93 101.023C547.878 119.126 572.677 121.825 595.355 122.09C612.018 120.263 631.66 117.968 651.745 114.923C659.577 113.811 662.618 113.579 669.656 110.624" stroke="#3E2723" stroke-width="2" stroke-linecap="round"/>
</svg>
