<svg width="258" height="40" viewBox="0 0 258 40" fill="none" xmlns="http://www.w3.org/2000/svg">
<path d="M8.32027 14.922C8.32027 15.654 8.20027 16.278 7.96027 16.794C7.73227 17.298 7.39027 17.682 6.93427 17.946C6.47827 18.198 5.91427 18.324 5.24227 18.324C4.95427 18.324 4.66627 18.288 4.37827 18.216C4.10227 18.156 3.83827 18.06 3.58627 17.928C3.34627 17.784 3.12427 17.628 2.92027 17.46C2.72827 17.28 2.57827 17.082 2.47027 16.866V21.816L1.66027 21.492V12.402C1.66027 11.262 1.95427 10.386 2.54227 9.774C3.14227 9.162 3.97027 8.856 5.02627 8.856C6.09427 8.856 6.91027 9.174 7.47427 9.81C8.03827 10.434 8.32027 11.298 8.32027 12.402V14.922ZM7.52827 12.366C7.52827 11.742 7.43227 11.226 7.24027 10.818C7.04827 10.41 6.76627 10.104 6.39427 9.9C6.03427 9.696 5.59027 9.594 5.06227 9.594C4.48627 9.594 4.00627 9.702 3.62227 9.918C3.23827 10.122 2.95027 10.434 2.75827 10.854C2.56627 11.262 2.47027 11.766 2.47027 12.366V15.12C2.47027 15.528 2.54827 15.888 2.70427 16.2C2.87227 16.512 3.08827 16.776 3.35227 16.992C3.61627 17.196 3.91627 17.352 4.25227 17.46C4.58827 17.556 4.93027 17.598 5.27827 17.586C5.75827 17.574 6.16627 17.472 6.50227 17.28C6.83827 17.076 7.09027 16.794 7.25827 16.434C7.43827 16.062 7.52827 15.6 7.52827 15.048V12.366ZM10.29 15.588C10.29 15.948 10.35 16.254 10.47 16.506C10.59 16.746 10.752 16.944 10.956 17.1C11.16 17.244 11.4 17.352 11.676 17.424C11.952 17.496 12.246 17.532 12.558 17.532C13.026 17.532 13.47 17.466 13.89 17.334C14.322 17.19 14.772 16.998 15.24 16.758L15.546 17.37C15.102 17.634 14.622 17.844 14.106 18C13.602 18.144 13.11 18.216 12.63 18.216C12.186 18.216 11.772 18.174 11.388 18.09C11.004 18.006 10.668 17.862 10.38 17.658C10.104 17.454 9.88801 17.184 9.73201 16.848C9.58801 16.512 9.51601 16.092 9.51601 15.588V11.898C9.51601 11.214 9.66001 10.644 9.94801 10.188C10.236 9.732 10.632 9.39 11.136 9.162C11.64 8.934 12.21 8.82 12.846 8.82C13.482 8.82 14.034 8.934 14.502 9.162C14.982 9.39 15.354 9.726 15.618 10.17C15.882 10.614 16.014 11.172 16.014 11.844V13.968L10.29 14.274V15.588ZM15.222 11.754C15.222 11.274 15.114 10.866 14.898 10.53C14.694 10.194 14.412 9.936 14.052 9.756C13.704 9.576 13.296 9.486 12.828 9.486C12.312 9.486 11.862 9.582 11.478 9.774C11.094 9.966 10.8 10.248 10.596 10.62C10.392 10.98 10.29 11.424 10.29 11.952V13.5L15.222 13.266V11.754ZM22.6002 10.044C22.2642 9.888 21.9042 9.768 21.5202 9.684C21.1362 9.6 20.7642 9.552 20.4042 9.54C19.8162 9.54 19.3302 9.66 18.9462 9.9C18.5742 10.14 18.2982 10.476 18.1182 10.908C17.9382 11.328 17.8422 11.82 17.8302 12.384V14.706C17.8302 15.198 17.8842 15.618 17.9922 15.966C18.1002 16.314 18.2682 16.596 18.4962 16.812C18.7362 17.028 19.0242 17.19 19.3602 17.298C19.6962 17.394 20.0862 17.448 20.5302 17.46C20.8062 17.46 21.0702 17.448 21.3222 17.424C21.5742 17.4 21.8022 17.37 22.0062 17.334C22.2102 17.298 22.3722 17.268 22.4922 17.244C22.6122 17.208 22.6782 17.19 22.6902 17.19L22.8522 17.91C22.4802 18.006 22.0902 18.078 21.6822 18.126C21.2862 18.186 20.8902 18.21 20.4942 18.198C19.8102 18.186 19.2042 18.066 18.6762 17.838C18.1602 17.598 17.7582 17.238 17.4702 16.758C17.1942 16.266 17.0562 15.636 17.0562 14.868V12.294C17.0562 11.598 17.1762 10.992 17.4162 10.476C17.6562 9.96 18.0222 9.558 18.5142 9.27C19.0182 8.97 19.6422 8.82 20.3862 8.82C20.7942 8.82 21.2022 8.874 21.6102 8.982C22.0302 9.078 22.4322 9.216 22.8162 9.396L22.6002 10.044ZM26.8461 15.606C26.8461 15.93 26.8821 16.224 26.9541 16.488C27.0261 16.752 27.1461 16.98 27.3141 17.172C27.4941 17.364 27.7461 17.514 28.0701 17.622L27.8361 18.234C27.5001 18.138 27.2181 18.012 26.9901 17.856C26.7621 17.688 26.5761 17.502 26.4321 17.298C26.3001 17.082 26.2041 16.836 26.1441 16.56C26.0841 16.272 26.0541 15.954 26.0541 15.606V9.756H23.7501V9H29.2221V9.756H26.8461V15.606ZM36.7939 14.67C36.7939 15.726 36.5239 16.578 35.9839 17.226C35.4439 17.862 34.6279 18.18 33.5359 18.18C32.7799 18.18 32.1499 18.024 31.6459 17.712C31.1419 17.388 30.7639 16.962 30.5119 16.434C30.2599 15.906 30.1339 15.318 30.1339 14.67V12.312C30.1339 11.544 30.2659 10.902 30.5299 10.386C30.7939 9.858 31.1779 9.462 31.6819 9.198C32.1979 8.922 32.8099 8.784 33.5179 8.784C34.5859 8.784 35.3959 9.096 35.9479 9.72C36.5119 10.344 36.7939 11.208 36.7939 12.312V14.67ZM36.0199 12.294C36.0199 11.67 35.9239 11.154 35.7319 10.746C35.5519 10.326 35.2759 10.014 34.9039 9.81C34.5439 9.594 34.0879 9.486 33.5359 9.486C32.9599 9.486 32.4799 9.594 32.0959 9.81C31.7119 10.026 31.4179 10.344 31.2139 10.764C31.0219 11.172 30.9259 11.682 30.9259 12.294V14.796C30.9259 15.312 31.0279 15.774 31.2319 16.182C31.4359 16.578 31.7299 16.896 32.1139 17.136C32.5099 17.364 32.9839 17.478 33.5359 17.478C34.0999 17.478 34.5619 17.364 34.9219 17.136C35.2939 16.908 35.5699 16.596 35.7499 16.2C35.9299 15.792 36.0199 15.324 36.0199 14.796V12.294ZM44.6367 14.922C44.6367 15.654 44.5167 16.278 44.2767 16.794C44.0487 17.298 43.7067 17.682 43.2507 17.946C42.7947 18.198 42.2307 18.324 41.5587 18.324C41.2707 18.324 40.9827 18.288 40.6947 18.216C40.4187 18.156 40.1547 18.06 39.9027 17.928C39.6627 17.784 39.4407 17.628 39.2367 17.46C39.0447 17.28 38.8947 17.082 38.7867 16.866V21.816L37.9767 21.492V12.402C37.9767 11.262 38.2707 10.386 38.8587 9.774C39.4587 9.162 40.2867 8.856 41.3427 8.856C42.4107 8.856 43.2267 9.174 43.7907 9.81C44.3547 10.434 44.6367 11.298 44.6367 12.402V14.922ZM43.8447 12.366C43.8447 11.742 43.7487 11.226 43.5567 10.818C43.3647 10.41 43.0827 10.104 42.7107 9.9C42.3507 9.696 41.9067 9.594 41.3787 9.594C40.8027 9.594 40.3227 9.702 39.9387 9.918C39.5547 10.122 39.2667 10.434 39.0747 10.854C38.8827 11.262 38.7867 11.766 38.7867 12.366V15.12C38.7867 15.528 38.8647 15.888 39.0207 16.2C39.1887 16.512 39.4047 16.776 39.6687 16.992C39.9327 17.196 40.2327 17.352 40.5687 17.46C40.9047 17.556 41.2467 17.598 41.5947 17.586C42.0747 17.574 42.4827 17.472 42.8187 17.28C43.1547 17.076 43.4067 16.794 43.5747 16.434C43.7547 16.062 43.8447 15.6 43.8447 15.048V12.366ZM52.5284 9.234C52.5284 9.234 52.5044 9.372 52.4564 9.648C52.4204 9.912 52.4024 10.23 52.4024 10.602V17.928C52.4144 17.928 52.3424 17.934 52.1864 17.946C52.0304 17.946 51.8264 17.958 51.5744 17.982C51.3344 17.994 51.0704 18.006 50.7824 18.018C50.4944 18.03 50.2124 18.042 49.9364 18.054C49.6604 18.066 49.4264 18.072 49.2344 18.072C48.7424 18.084 48.2864 18.042 47.8664 17.946C47.4584 17.838 47.0984 17.664 46.7864 17.424C46.4744 17.184 46.2344 16.866 46.0664 16.47C45.9104 16.074 45.8324 15.594 45.8324 15.03V11.628C45.8324 11.088 45.9044 10.638 46.0484 10.278C46.2044 9.918 46.4084 9.636 46.6604 9.432C46.9244 9.228 47.2184 9.084 47.5424 9C47.8664 8.904 48.2024 8.856 48.5504 8.856C48.8864 8.856 49.2344 8.892 49.5944 8.964C49.9544 9.036 50.3084 9.138 50.6564 9.27C51.0164 9.39 51.3644 9.528 51.7004 9.684C51.7004 9.636 51.7184 9.534 51.7544 9.378C51.8024 9.21 51.8504 9.072 51.8984 8.964L52.5284 9.234ZM46.6064 15.066C46.6064 15.558 46.6904 15.978 46.8584 16.326C47.0384 16.662 47.3084 16.92 47.6684 17.1C48.0284 17.28 48.4664 17.37 48.9824 17.37C49.3064 17.37 49.6244 17.364 49.9364 17.352C50.2484 17.328 50.5304 17.31 50.7824 17.298C51.0344 17.286 51.2324 17.274 51.3764 17.262C51.5324 17.25 51.6104 17.244 51.6104 17.244V10.422C51.3224 10.278 51.0344 10.158 50.7464 10.062C50.4704 9.954 50.2004 9.87 49.9364 9.81C49.6724 9.738 49.4144 9.684 49.1624 9.648C48.9224 9.612 48.7004 9.594 48.4964 9.594C48.2684 9.594 48.0404 9.624 47.8124 9.684C47.5844 9.744 47.3804 9.852 47.2004 10.008C47.0204 10.152 46.8764 10.362 46.7684 10.638C46.6604 10.902 46.6064 11.25 46.6064 11.682V15.066ZM59.8236 12.726V9H60.6156V18H59.8236V13.482H54.7656V18H53.9736V9H54.7656V12.726H59.8236ZM66.783 11.538L71.787 6.534L72.345 7.056L67.845 11.574L72.345 16.002L71.787 16.578L66.783 11.538ZM73.8846 11.538L78.8886 6.534L79.4466 7.056L74.9466 11.574L79.4466 16.002L78.8886 16.578L73.8846 11.538ZM87.2619 5.4H89.0979V18H88.3059V6.138H87.3519C86.9559 6.138 86.6259 6.21 86.3619 6.354C86.1099 6.486 85.9059 6.666 85.7499 6.894C85.6059 7.11 85.4979 7.344 85.4259 7.596L82.8699 15.984C82.7379 16.404 82.5999 16.758 82.4559 17.046C82.3239 17.322 82.1499 17.55 81.9339 17.73C81.7179 17.91 81.4359 18.06 81.0879 18.18L80.5659 17.73C80.9259 17.598 81.2079 17.418 81.4119 17.19C81.6279 16.95 81.7899 16.704 81.8979 16.452C82.0059 16.188 82.0839 15.972 82.1319 15.804L84.5619 7.776C84.6219 7.584 84.6999 7.356 84.7959 7.092C84.9039 6.816 85.0539 6.552 85.2459 6.3C85.4379 6.048 85.6959 5.838 86.0199 5.67C86.3439 5.49 86.7579 5.4 87.2619 5.4ZM93.9248 5.4H98.2628V18H97.4528V13.374H93.9608C93.8648 13.374 93.7628 13.374 93.6548 13.374C93.5588 13.362 93.4628 13.35 93.3668 13.338C93.2708 13.326 93.1808 13.314 93.0968 13.302L91.1888 18H90.3788L92.3588 13.104C91.9268 12.936 91.5668 12.69 91.2788 12.366C90.9908 12.042 90.7748 11.634 90.6308 11.142C90.4988 10.638 90.4328 10.038 90.4328 9.342C90.4328 8.646 90.5048 8.046 90.6488 7.542C90.7928 7.038 91.0148 6.63 91.3148 6.318C91.6148 6.006 91.9808 5.778 92.4128 5.634C92.8448 5.478 93.3488 5.4 93.9248 5.4ZM93.9068 12.6H97.4528V6.156H93.8528C93.4568 6.156 93.0908 6.21 92.7548 6.318C92.4308 6.426 92.1548 6.606 91.9268 6.858C91.6988 7.098 91.5248 7.422 91.4048 7.83C91.2848 8.238 91.2248 8.742 91.2248 9.342C91.2248 9.99 91.2848 10.53 91.4048 10.962C91.5368 11.382 91.7168 11.712 91.9448 11.952C92.1848 12.192 92.4668 12.36 92.7908 12.456C93.1268 12.552 93.4988 12.6 93.9068 12.6ZM106.071 5.4H107.907V18H107.115V6.138H106.161C105.765 6.138 105.435 6.21 105.171 6.354C104.919 6.486 104.715 6.666 104.559 6.894C104.415 7.11 104.307 7.344 104.235 7.596L101.679 15.984C101.547 16.404 101.409 16.758 101.265 17.046C101.133 17.322 100.959 17.55 100.743 17.73C100.527 17.91 100.245 18.06 99.8965 18.18L99.3745 17.73C99.7345 17.598 100.017 17.418 100.221 17.19C100.437 16.95 100.599 16.704 100.707 16.452C100.815 16.188 100.893 15.972 100.941 15.804L103.371 7.776C103.431 7.584 103.509 7.356 103.605 7.092C103.713 6.816 103.863 6.552 104.055 6.3C104.247 6.048 104.505 5.838 104.829 5.67C105.153 5.49 105.567 5.4 106.071 5.4ZM112.733 5.4H117.071V18H116.261V13.374H112.769C112.673 13.374 112.571 13.374 112.463 13.374C112.367 13.362 112.271 13.35 112.175 13.338C112.079 13.326 111.989 13.314 111.905 13.302L109.997 18H109.187L111.167 13.104C110.735 12.936 110.375 12.69 110.087 12.366C109.799 12.042 109.583 11.634 109.439 11.142C109.307 10.638 109.241 10.038 109.241 9.342C109.241 8.646 109.313 8.046 109.457 7.542C109.601 7.038 109.823 6.63 110.123 6.318C110.423 6.006 110.789 5.778 111.221 5.634C111.653 5.478 112.157 5.4 112.733 5.4ZM112.715 12.6H116.261V6.156H112.661C112.265 6.156 111.899 6.21 111.563 6.318C111.239 6.426 110.963 6.606 110.735 6.858C110.507 7.098 110.333 7.422 110.213 7.83C110.093 8.238 110.033 8.742 110.033 9.342C110.033 9.99 110.093 10.53 110.213 10.962C110.345 11.382 110.525 11.712 110.753 11.952C110.993 12.192 111.275 12.36 111.599 12.456C111.935 12.552 112.307 12.6 112.715 12.6ZM124.879 5.4H126.715V18H125.923V6.138H124.969C124.573 6.138 124.243 6.21 123.979 6.354C123.727 6.486 123.523 6.666 123.367 6.894C123.223 7.11 123.115 7.344 123.043 7.596L120.487 15.984C120.355 16.404 120.217 16.758 120.073 17.046C119.941 17.322 119.767 17.55 119.551 17.73C119.335 17.91 119.053 18.06 118.705 18.18L118.183 17.73C118.543 17.598 118.825 17.418 119.029 17.19C119.245 16.95 119.407 16.704 119.515 16.452C119.623 16.188 119.701 15.972 119.749 15.804L122.179 7.776C122.239 7.584 122.317 7.356 122.413 7.092C122.521 6.816 122.671 6.552 122.863 6.3C123.055 6.048 123.313 5.838 123.637 5.67C123.961 5.49 124.375 5.4 124.879 5.4ZM131.542 5.4H135.88V18H135.07V13.374H131.578C131.482 13.374 131.38 13.374 131.272 13.374C131.176 13.362 131.08 13.35 130.984 13.338C130.888 13.326 130.798 13.314 130.714 13.302L128.806 18H127.996L129.976 13.104C129.544 12.936 129.184 12.69 128.896 12.366C128.608 12.042 128.392 11.634 128.248 11.142C128.116 10.638 128.05 10.038 128.05 9.342C128.05 8.646 128.122 8.046 128.266 7.542C128.41 7.038 128.632 6.63 128.932 6.318C129.232 6.006 129.598 5.778 130.03 5.634C130.462 5.478 130.966 5.4 131.542 5.4ZM131.524 12.6H135.07V6.156H131.47C131.074 6.156 130.708 6.21 130.372 6.318C130.048 6.426 129.772 6.606 129.544 6.858C129.316 7.098 129.142 7.422 129.022 7.83C128.902 8.238 128.842 8.742 128.842 9.342C128.842 9.99 128.902 10.53 129.022 10.962C129.154 11.382 129.334 11.712 129.562 11.952C129.802 12.192 130.084 12.36 130.408 12.456C130.744 12.552 131.116 12.6 131.524 12.6ZM137.01 7.056L137.55 6.534L142.554 11.538L137.55 16.578L137.01 16.002L141.51 11.574L137.01 7.056ZM144.111 7.056L144.651 6.534L149.655 11.538L144.651 16.578L144.111 16.002L148.611 11.574L144.111 7.056ZM151.531 19.368C151.711 19.152 151.837 18.936 151.909 18.72C151.993 18.504 152.041 18.312 152.053 18.144C151.945 18.12 151.849 18.06 151.765 17.964C151.693 17.868 151.657 17.76 151.657 17.64C151.657 17.496 151.705 17.382 151.801 17.298C151.897 17.202 152.011 17.154 152.143 17.154C152.287 17.154 152.407 17.202 152.503 17.298C152.599 17.382 152.653 17.496 152.665 17.64C152.665 17.916 152.629 18.156 152.557 18.36C152.497 18.576 152.413 18.762 152.305 18.918C152.209 19.074 152.113 19.206 152.017 19.314C151.921 19.422 151.843 19.506 151.783 19.566L151.531 19.368ZM159.669 9H164.619V9.738H160.461V18H159.669V9ZM165.814 17.244C165.922 17.208 166.024 17.22 166.12 17.28C166.228 17.34 166.3 17.424 166.336 17.532C166.36 17.64 166.336 17.742 166.264 17.838C166.204 17.934 166.12 18 166.012 18.036C165.904 18.06 165.802 18.042 165.706 17.982C165.61 17.922 165.544 17.838 165.508 17.73C165.484 17.622 165.502 17.52 165.562 17.424C165.622 17.328 165.706 17.268 165.814 17.244ZM167.794 18V5.4H173.806V6.138H168.586V10.584H172.24L171.988 11.358H168.586V17.28H173.77V18H167.794ZM179.877 15.912C180.105 16.212 180.321 16.47 180.525 16.686C180.741 16.902 180.945 17.064 181.137 17.172C181.329 17.268 181.503 17.316 181.659 17.316H181.713V18H181.695C181.311 18 180.963 17.91 180.651 17.73C180.339 17.538 180.057 17.298 179.805 17.01C179.565 16.722 179.343 16.434 179.139 16.146L177.069 13.284L175.827 14.544V18H175.035V8.784L175.827 8.964V13.5L179.967 8.982H180.993L177.591 12.69L179.877 15.912ZM189.374 9.234C189.374 9.234 189.35 9.372 189.302 9.648C189.266 9.912 189.248 10.23 189.248 10.602V17.928C189.26 17.928 189.188 17.934 189.032 17.946C188.876 17.946 188.672 17.958 188.42 17.982C188.18 17.994 187.916 18.006 187.628 18.018C187.34 18.03 187.058 18.042 186.782 18.054C186.506 18.066 186.272 18.072 186.08 18.072C185.588 18.084 185.132 18.042 184.712 17.946C184.304 17.838 183.944 17.664 183.632 17.424C183.32 17.184 183.08 16.866 182.912 16.47C182.756 16.074 182.678 15.594 182.678 15.03V11.628C182.678 11.088 182.75 10.638 182.894 10.278C183.05 9.918 183.254 9.636 183.506 9.432C183.77 9.228 184.064 9.084 184.388 9C184.712 8.904 185.048 8.856 185.396 8.856C185.732 8.856 186.08 8.892 186.44 8.964C186.8 9.036 187.154 9.138 187.502 9.27C187.862 9.39 188.21 9.528 188.546 9.684C188.546 9.636 188.564 9.534 188.6 9.378C188.648 9.21 188.696 9.072 188.744 8.964L189.374 9.234ZM183.452 15.066C183.452 15.558 183.536 15.978 183.704 16.326C183.884 16.662 184.154 16.92 184.514 17.1C184.874 17.28 185.312 17.37 185.828 17.37C186.152 17.37 186.47 17.364 186.782 17.352C187.094 17.328 187.376 17.31 187.628 17.298C187.88 17.286 188.078 17.274 188.222 17.262C188.378 17.25 188.456 17.244 188.456 17.244V10.422C188.168 10.278 187.88 10.158 187.592 10.062C187.316 9.954 187.046 9.87 186.782 9.81C186.518 9.738 186.26 9.684 186.008 9.648C185.768 9.612 185.546 9.594 185.342 9.594C185.114 9.594 184.886 9.624 184.658 9.684C184.43 9.744 184.226 9.852 184.046 10.008C183.866 10.152 183.722 10.362 183.614 10.638C183.506 10.902 183.452 11.25 183.452 11.682V15.066ZM193.627 15.606C193.627 15.93 193.663 16.224 193.735 16.488C193.807 16.752 193.927 16.98 194.095 17.172C194.275 17.364 194.527 17.514 194.851 17.622L194.617 18.234C194.281 18.138 193.999 18.012 193.771 17.856C193.543 17.688 193.357 17.502 193.213 17.298C193.081 17.082 192.985 16.836 192.925 16.56C192.865 16.272 192.835 15.954 192.835 15.606V9.756H190.531V9H196.003V9.756H193.627V15.606ZM197.743 15.588C197.743 15.948 197.803 16.254 197.923 16.506C198.043 16.746 198.205 16.944 198.409 17.1C198.613 17.244 198.853 17.352 199.129 17.424C199.405 17.496 199.699 17.532 200.011 17.532C200.479 17.532 200.923 17.466 201.343 17.334C201.775 17.19 202.225 16.998 202.693 16.758L202.999 17.37C202.555 17.634 202.075 17.844 201.559 18C201.055 18.144 200.563 18.216 200.083 18.216C199.639 18.216 199.225 18.174 198.841 18.09C198.457 18.006 198.121 17.862 197.833 17.658C197.557 17.454 197.341 17.184 197.185 16.848C197.041 16.512 196.969 16.092 196.969 15.588V11.898C196.969 11.214 197.113 10.644 197.401 10.188C197.689 9.732 198.085 9.39 198.589 9.162C199.093 8.934 199.663 8.82 200.299 8.82C200.935 8.82 201.487 8.934 201.955 9.162C202.435 9.39 202.807 9.726 203.071 10.17C203.335 10.614 203.467 11.172 203.467 11.844V13.968L197.743 14.274V15.588ZM202.675 11.754C202.675 11.274 202.567 10.866 202.351 10.53C202.147 10.194 201.865 9.936 201.505 9.756C201.157 9.576 200.749 9.486 200.281 9.486C199.765 9.486 199.315 9.582 198.931 9.774C198.547 9.966 198.253 10.248 198.049 10.62C197.845 10.98 197.743 11.424 197.743 11.952V13.5L202.675 13.266V11.754ZM211.277 14.922C211.277 15.654 211.157 16.278 210.917 16.794C210.689 17.298 210.347 17.682 209.891 17.946C209.435 18.198 208.871 18.324 208.199 18.324C207.911 18.324 207.623 18.288 207.335 18.216C207.059 18.156 206.795 18.06 206.543 17.928C206.303 17.784 206.081 17.628 205.877 17.46C205.685 17.28 205.535 17.082 205.427 16.866V21.816L204.617 21.492V12.402C204.617 11.262 204.911 10.386 205.499 9.774C206.099 9.162 206.927 8.856 207.983 8.856C209.051 8.856 209.867 9.174 210.431 9.81C210.995 10.434 211.277 11.298 211.277 12.402V14.922ZM210.485 12.366C210.485 11.742 210.389 11.226 210.197 10.818C210.005 10.41 209.723 10.104 209.351 9.9C208.991 9.696 208.547 9.594 208.019 9.594C207.443 9.594 206.963 9.702 206.579 9.918C206.195 10.122 205.907 10.434 205.715 10.854C205.523 11.262 205.427 11.766 205.427 12.366V15.12C205.427 15.528 205.505 15.888 205.661 16.2C205.829 16.512 206.045 16.776 206.309 16.992C206.573 17.196 206.873 17.352 207.209 17.46C207.545 17.556 207.887 17.598 208.235 17.586C208.715 17.574 209.123 17.472 209.459 17.28C209.795 17.076 210.047 16.794 210.215 16.434C210.395 16.062 210.485 15.6 210.485 15.048V12.366ZM213.391 9V16.794L218.305 9H219.241V18H218.449V10.206L213.535 18H212.599V9H213.391ZM226.429 12.726V9H227.221V18H226.429V13.482H221.371V18H220.579V9H221.371V12.726H226.429ZM231.908 8.784C232.592 8.784 233.168 8.916 233.636 9.18C234.104 9.444 234.458 9.834 234.698 10.35C234.938 10.854 235.058 11.478 235.058 12.222V14.634C235.058 15.714 234.776 16.572 234.212 17.208C233.648 17.844 232.826 18.162 231.746 18.162C231.014 18.162 230.396 18.018 229.892 17.73C229.388 17.442 229.01 17.034 228.758 16.506C228.506 15.978 228.38 15.354 228.38 14.634V9.504C228.38 8.964 228.458 8.466 228.614 8.01C228.77 7.542 229.016 7.122 229.352 6.75C229.652 6.414 230.042 6.12 230.522 5.868C231.002 5.616 231.536 5.448 232.124 5.364L232.232 5.778C231.656 5.91 231.182 6.102 230.81 6.354C230.438 6.594 230.156 6.828 229.964 7.056C229.736 7.332 229.55 7.656 229.406 8.028C229.262 8.4 229.19 8.844 229.19 9.36V10.242C229.334 9.942 229.538 9.684 229.802 9.468C230.078 9.252 230.396 9.084 230.756 8.964C231.116 8.844 231.5 8.784 231.908 8.784ZM231.854 9.522C231.446 9.522 231.08 9.582 230.756 9.702C230.432 9.822 230.15 9.996 229.91 10.224C229.682 10.44 229.502 10.716 229.37 11.052C229.25 11.376 229.19 11.748 229.19 12.168V14.634C229.19 15.222 229.286 15.726 229.478 16.146C229.67 16.554 229.958 16.872 230.342 17.1C230.726 17.316 231.206 17.424 231.782 17.424C232.346 17.424 232.808 17.316 233.168 17.1C233.54 16.884 233.816 16.566 233.996 16.146C234.176 15.726 234.266 15.222 234.266 14.634V12.096C234.266 11.532 234.17 11.058 233.978 10.674C233.786 10.29 233.51 10.002 233.15 9.81C232.79 9.618 232.358 9.522 231.854 9.522ZM237.627 21.762L239.463 17.46L235.863 9H236.763L239.895 16.506L243.081 9H243.963L238.455 21.762H237.627ZM251.619 14.922C251.619 15.654 251.499 16.278 251.259 16.794C251.031 17.298 250.689 17.682 250.233 17.946C249.777 18.198 249.213 18.324 248.541 18.324C248.253 18.324 247.965 18.288 247.677 18.216C247.401 18.156 247.137 18.06 246.885 17.928C246.645 17.784 246.423 17.628 246.219 17.46C246.027 17.28 245.877 17.082 245.769 16.866V21.816L244.959 21.492V12.402C244.959 11.262 245.253 10.386 245.841 9.774C246.441 9.162 247.269 8.856 248.325 8.856C249.393 8.856 250.209 9.174 250.773 9.81C251.337 10.434 251.619 11.298 251.619 12.402V14.922ZM250.827 12.366C250.827 11.742 250.731 11.226 250.539 10.818C250.347 10.41 250.065 10.104 249.693 9.9C249.333 9.696 248.889 9.594 248.361 9.594C247.785 9.594 247.305 9.702 246.921 9.918C246.537 10.122 246.249 10.434 246.057 10.854C245.865 11.262 245.769 11.766 245.769 12.366V15.12C245.769 15.528 245.847 15.888 246.003 16.2C246.171 16.512 246.387 16.776 246.651 16.992C246.915 17.196 247.215 17.352 247.551 17.46C247.887 17.556 248.229 17.598 248.577 17.586C249.057 17.574 249.465 17.472 249.801 17.28C250.137 17.076 250.389 16.794 250.557 16.434C250.737 16.062 250.827 15.6 250.827 15.048V12.366ZM252.851 9H257.801V9.738H253.643V18H252.851V9Z" fill="#3E2723"/>
<path d="M2.38989 39.762L4.22589 35.46L0.625891 27H1.52589L4.65789 34.506L7.84389 27H8.72589L3.21789 39.762H2.38989ZM14.6898 27H17.0118V36H16.2018V27.738H14.7618C14.3658 27.738 14.0358 27.81 13.7718 27.954C13.5198 28.086 13.3218 28.26 13.1778 28.476C13.0338 28.692 12.9198 28.932 12.8358 29.196L11.3778 33.984C11.2578 34.392 11.1258 34.74 10.9818 35.028C10.8378 35.316 10.6578 35.55 10.4418 35.73C10.2258 35.91 9.9438 36.06 9.5958 36.18L9.0918 35.73C9.4398 35.598 9.7158 35.412 9.9198 35.172C10.1358 34.932 10.2978 34.686 10.4058 34.434C10.5258 34.182 10.6098 33.972 10.6578 33.804L11.9718 29.376C12.0318 29.172 12.1098 28.938 12.2058 28.674C12.3138 28.41 12.4638 28.152 12.6558 27.9C12.8598 27.636 13.1238 27.42 13.4478 27.252C13.7718 27.084 14.1858 27 14.6898 27ZM18.7662 35.244C18.8742 35.208 18.9762 35.22 19.0722 35.28C19.1802 35.34 19.2522 35.424 19.2882 35.532C19.3122 35.64 19.2882 35.742 19.2162 35.838C19.1562 35.934 19.0722 36 18.9642 36.036C18.8562 36.06 18.7542 36.042 18.6582 35.982C18.5622 35.922 18.4962 35.838 18.4602 35.73C18.4362 35.622 18.4542 35.52 18.5142 35.424C18.5742 35.328 18.6582 35.268 18.7662 35.244ZM30.5787 33.912C30.8067 34.212 31.0227 34.47 31.2267 34.686C31.4427 34.902 31.6467 35.064 31.8387 35.172C32.0307 35.268 32.2047 35.316 32.3607 35.316H32.4147V36H32.3967C32.0127 36 31.6647 35.91 31.3527 35.73C31.0407 35.538 30.7587 35.298 30.5067 35.01C30.2667 34.722 30.0447 34.434 29.8407 34.146L27.7707 31.284L26.5287 32.544V36H25.7367V26.784L26.5287 26.964V31.5L30.6687 26.982H31.6947L28.2927 30.69L30.5787 33.912ZM40.0763 27.234C40.0763 27.234 40.0523 27.372 40.0043 27.648C39.9683 27.912 39.9503 28.23 39.9503 28.602V35.928C39.9623 35.928 39.8903 35.934 39.7343 35.946C39.5783 35.946 39.3743 35.958 39.1223 35.982C38.8823 35.994 38.6183 36.006 38.3303 36.018C38.0423 36.03 37.7603 36.042 37.4843 36.054C37.2083 36.066 36.9743 36.072 36.7823 36.072C36.2903 36.084 35.8343 36.042 35.4143 35.946C35.0063 35.838 34.6463 35.664 34.3343 35.424C34.0223 35.184 33.7823 34.866 33.6143 34.47C33.4583 34.074 33.3803 33.594 33.3803 33.03V29.628C33.3803 29.088 33.4523 28.638 33.5963 28.278C33.7523 27.918 33.9563 27.636 34.2083 27.432C34.4723 27.228 34.7663 27.084 35.0903 27C35.4143 26.904 35.7503 26.856 36.0983 26.856C36.4343 26.856 36.7823 26.892 37.1423 26.964C37.5023 27.036 37.8563 27.138 38.2043 27.27C38.5643 27.39 38.9123 27.528 39.2483 27.684C39.2483 27.636 39.2663 27.534 39.3023 27.378C39.3503 27.21 39.3983 27.072 39.4463 26.964L40.0763 27.234ZM34.1543 33.066C34.1543 33.558 34.2383 33.978 34.4063 34.326C34.5863 34.662 34.8563 34.92 35.2163 35.1C35.5763 35.28 36.0143 35.37 36.5303 35.37C36.8543 35.37 37.1723 35.364 37.4843 35.352C37.7963 35.328 38.0783 35.31 38.3303 35.298C38.5823 35.286 38.7803 35.274 38.9243 35.262C39.0803 35.25 39.1583 35.244 39.1583 35.244V28.422C38.8703 28.278 38.5823 28.158 38.2943 28.062C38.0183 27.954 37.7483 27.87 37.4843 27.81C37.2203 27.738 36.9623 27.684 36.7103 27.648C36.4703 27.612 36.2483 27.594 36.0443 27.594C35.8163 27.594 35.5883 27.624 35.3603 27.684C35.1323 27.744 34.9283 27.852 34.7483 28.008C34.5683 28.152 34.4243 28.362 34.3163 28.638C34.2083 28.902 34.1543 29.25 34.1543 29.682V33.066ZM46.3815 33.912C46.6095 34.212 46.8255 34.47 47.0295 34.686C47.2455 34.902 47.4495 35.064 47.6415 35.172C47.8335 35.268 48.0075 35.316 48.1635 35.316H48.2175V36H48.1995C47.8155 36 47.4675 35.91 47.1555 35.73C46.8435 35.538 46.5615 35.298 46.3095 35.01C46.0695 34.722 45.8475 34.434 45.6435 34.146L43.5735 31.284L42.3315 32.544V36H41.5395V26.784L42.3315 26.964V31.5L46.4715 26.982H47.4975L44.0955 30.69L46.3815 33.912ZM55.879 27.234C55.879 27.234 55.855 27.372 55.807 27.648C55.771 27.912 55.753 28.23 55.753 28.602V35.928C55.765 35.928 55.693 35.934 55.537 35.946C55.381 35.946 55.177 35.958 54.925 35.982C54.685 35.994 54.421 36.006 54.133 36.018C53.845 36.03 53.563 36.042 53.287 36.054C53.011 36.066 52.777 36.072 52.585 36.072C52.093 36.084 51.637 36.042 51.217 35.946C50.809 35.838 50.449 35.664 50.137 35.424C49.825 35.184 49.585 34.866 49.417 34.47C49.261 34.074 49.183 33.594 49.183 33.03V29.628C49.183 29.088 49.255 28.638 49.399 28.278C49.555 27.918 49.759 27.636 50.011 27.432C50.275 27.228 50.569 27.084 50.893 27C51.217 26.904 51.553 26.856 51.901 26.856C52.237 26.856 52.585 26.892 52.945 26.964C53.305 27.036 53.659 27.138 54.007 27.27C54.367 27.39 54.715 27.528 55.051 27.684C55.051 27.636 55.069 27.534 55.105 27.378C55.153 27.21 55.201 27.072 55.249 26.964L55.879 27.234ZM49.957 33.066C49.957 33.558 50.041 33.978 50.209 34.326C50.389 34.662 50.659 34.92 51.019 35.1C51.379 35.28 51.817 35.37 52.333 35.37C52.657 35.37 52.975 35.364 53.287 35.352C53.599 35.328 53.881 35.31 54.133 35.298C54.385 35.286 54.583 35.274 54.727 35.262C54.883 35.25 54.961 35.244 54.961 35.244V28.422C54.673 28.278 54.385 28.158 54.097 28.062C53.821 27.954 53.551 27.87 53.287 27.81C53.023 27.738 52.765 27.684 52.513 27.648C52.273 27.612 52.051 27.594 51.847 27.594C51.619 27.594 51.391 27.624 51.163 27.684C50.935 27.744 50.731 27.852 50.551 28.008C50.371 28.152 50.227 28.362 50.119 28.638C50.011 28.902 49.957 29.25 49.957 29.682V33.066ZM60.4382 26.82C60.7862 26.82 61.1282 26.826 61.4642 26.838C61.8122 26.85 62.1362 26.868 62.4362 26.892C62.7362 26.904 63.0002 26.922 63.2282 26.946C63.4682 26.97 63.6602 26.988 63.8042 27C63.9482 27.012 64.0262 27.018 64.0382 27.018V36H63.2642V32.454H60.2942C60.2582 32.454 60.1862 32.454 60.0782 32.454C59.9702 32.454 59.8622 32.454 59.7542 32.454C59.6582 32.442 59.5862 32.436 59.5382 32.436L58.0802 36H57.2702L58.8182 32.238C58.4822 32.118 58.1882 31.944 57.9362 31.716C57.6842 31.476 57.4862 31.188 57.3422 30.852C57.2102 30.516 57.1442 30.138 57.1442 29.718C57.1442 29.226 57.2522 28.758 57.4682 28.314C57.6962 27.87 58.0562 27.51 58.5482 27.234C59.0402 26.958 59.6702 26.82 60.4382 26.82ZM59.8982 31.68H63.2642V27.684C63.2282 27.684 63.1262 27.678 62.9582 27.666C62.8022 27.654 62.5982 27.642 62.3462 27.63C62.0942 27.606 61.8122 27.594 61.5002 27.594C61.1882 27.582 60.8702 27.576 60.5462 27.576C59.7422 27.576 59.1062 27.774 58.6382 28.17C58.1702 28.566 57.9362 29.064 57.9362 29.664C57.9362 30.012 57.9902 30.312 58.0982 30.564C58.2062 30.816 58.3502 31.026 58.5302 31.194C58.7222 31.362 58.9322 31.488 59.1602 31.572C59.4002 31.644 59.6462 31.68 59.8982 31.68ZM65.4265 29.358V28.548H71.1865V29.358H65.4265ZM75.3373 33.606C75.3373 33.93 75.3733 34.224 75.4453 34.488C75.5173 34.752 75.6373 34.98 75.8053 35.172C75.9853 35.364 76.2373 35.514 76.5613 35.622L76.3273 36.234C75.9913 36.138 75.7093 36.012 75.4813 35.856C75.2533 35.688 75.0673 35.502 74.9233 35.298C74.7913 35.082 74.6953 34.836 74.6353 34.56C74.5753 34.272 74.5453 33.954 74.5453 33.606V27.756H72.2413V27H77.7133V27.756H75.3373V33.606ZM85.2851 32.67C85.2851 33.726 85.0151 34.578 84.4751 35.226C83.9351 35.862 83.1191 36.18 82.0271 36.18C81.2711 36.18 80.6411 36.024 80.1371 35.712C79.6331 35.388 79.2551 34.962 79.0031 34.434C78.7511 33.906 78.6251 33.318 78.6251 32.67V30.312C78.6251 29.544 78.7571 28.902 79.0211 28.386C79.2851 27.858 79.6691 27.462 80.1731 27.198C80.6891 26.922 81.3011 26.784 82.0091 26.784C83.0771 26.784 83.8871 27.096 84.4391 27.72C85.0031 28.344 85.2851 29.208 85.2851 30.312V32.67ZM84.5111 30.294C84.5111 29.67 84.4151 29.154 84.2231 28.746C84.0431 28.326 83.7671 28.014 83.3951 27.81C83.0351 27.594 82.5791 27.486 82.0271 27.486C81.4511 27.486 80.9711 27.594 80.5871 27.81C80.2031 28.026 79.9091 28.344 79.7051 28.764C79.5131 29.172 79.4171 29.682 79.4171 30.294V32.796C79.4171 33.312 79.5191 33.774 79.7231 34.182C79.9271 34.578 80.2211 34.896 80.6051 35.136C81.0011 35.364 81.4751 35.478 82.0271 35.478C82.5911 35.478 83.0531 35.364 83.4131 35.136C83.7851 34.908 84.0611 34.596 84.2411 34.2C84.4211 33.792 84.5111 33.324 84.5111 32.796V30.294ZM92.9348 39.762L94.7708 35.46L91.1708 27H92.0708L95.2028 34.506L98.3888 27H99.2708L93.7628 39.762H92.9348ZM105.235 27H107.557V36H106.747V27.738H105.307C104.911 27.738 104.581 27.81 104.317 27.954C104.065 28.086 103.867 28.26 103.723 28.476C103.579 28.692 103.465 28.932 103.381 29.196L101.923 33.984C101.803 34.392 101.671 34.74 101.527 35.028C101.383 35.316 101.203 35.55 100.987 35.73C100.771 35.91 100.489 36.06 100.141 36.18L99.6367 35.73C99.9847 35.598 100.261 35.412 100.465 35.172C100.681 34.932 100.843 34.686 100.951 34.434C101.071 34.182 101.155 33.972 101.203 33.804L102.517 29.376C102.577 29.172 102.655 28.938 102.751 28.674C102.859 28.41 103.009 28.152 103.201 27.9C103.405 27.636 103.669 27.42 103.993 27.252C104.317 27.084 104.731 27 105.235 27ZM109.761 27V34.794L114.675 27H115.611V36H114.819V28.206L109.905 36H108.969V27H109.761ZM123.609 27V35.208H124.401V37.782H123.753L123.591 36H116.949V27H117.741V35.208H122.817V27H123.609ZM131.957 27.234C131.957 27.234 131.933 27.372 131.885 27.648C131.849 27.912 131.831 28.23 131.831 28.602V35.928C131.843 35.928 131.771 35.934 131.615 35.946C131.459 35.946 131.255 35.958 131.003 35.982C130.763 35.994 130.499 36.006 130.211 36.018C129.923 36.03 129.641 36.042 129.365 36.054C129.089 36.066 128.855 36.072 128.663 36.072C128.171 36.084 127.715 36.042 127.295 35.946C126.887 35.838 126.527 35.664 126.215 35.424C125.903 35.184 125.663 34.866 125.495 34.47C125.339 34.074 125.261 33.594 125.261 33.03V29.628C125.261 29.088 125.333 28.638 125.477 28.278C125.633 27.918 125.837 27.636 126.089 27.432C126.353 27.228 126.647 27.084 126.971 27C127.295 26.904 127.631 26.856 127.979 26.856C128.315 26.856 128.663 26.892 129.023 26.964C129.383 27.036 129.737 27.138 130.085 27.27C130.445 27.39 130.793 27.528 131.129 27.684C131.129 27.636 131.147 27.534 131.183 27.378C131.231 27.21 131.279 27.072 131.327 26.964L131.957 27.234ZM126.035 33.066C126.035 33.558 126.119 33.978 126.287 34.326C126.467 34.662 126.737 34.92 127.097 35.1C127.457 35.28 127.895 35.37 128.411 35.37C128.735 35.37 129.053 35.364 129.365 35.352C129.677 35.328 129.959 35.31 130.211 35.298C130.463 35.286 130.661 35.274 130.805 35.262C130.961 35.25 131.039 35.244 131.039 35.244V28.422C130.751 28.278 130.463 28.158 130.175 28.062C129.899 27.954 129.629 27.87 129.365 27.81C129.101 27.738 128.843 27.684 128.591 27.648C128.351 27.612 128.129 27.594 127.925 27.594C127.697 27.594 127.469 27.624 127.241 27.684C127.013 27.744 126.809 27.852 126.629 28.008C126.449 28.152 126.305 28.362 126.197 28.638C126.089 28.902 126.035 29.25 126.035 29.682V33.066ZM134.104 37.368C134.284 37.152 134.41 36.936 134.482 36.72C134.566 36.504 134.614 36.312 134.626 36.144C134.518 36.12 134.422 36.06 134.338 35.964C134.266 35.868 134.23 35.76 134.23 35.64C134.23 35.496 134.278 35.382 134.374 35.298C134.47 35.202 134.584 35.154 134.716 35.154C134.86 35.154 134.98 35.202 135.076 35.298C135.172 35.382 135.226 35.496 135.238 35.64C135.238 35.916 135.202 36.156 135.13 36.36C135.07 36.576 134.986 36.762 134.878 36.918C134.782 37.074 134.686 37.206 134.59 37.314C134.494 37.422 134.416 37.506 134.356 37.566L134.104 37.368ZM143.178 36H142.314L148.272 24.21H142.116V23.4H149.172V24.174L143.178 36ZM153.351 23.238C153.951 23.238 154.485 23.376 154.953 23.652C155.421 23.928 155.787 24.306 156.051 24.786C156.315 25.254 156.447 25.782 156.447 26.37C156.447 26.97 156.309 27.492 156.033 27.936C155.769 28.38 155.379 28.746 154.863 29.034C155.307 29.226 155.697 29.496 156.033 29.844C156.381 30.18 156.651 30.57 156.843 31.014C157.035 31.458 157.131 31.932 157.131 32.436C157.131 33.144 156.963 33.786 156.627 34.362C156.291 34.926 155.835 35.376 155.259 35.712C154.695 36.048 154.053 36.216 153.333 36.216C152.625 36.216 151.983 36.054 151.407 35.73C150.831 35.394 150.375 34.938 150.039 34.362C149.703 33.786 149.535 33.144 149.535 32.436C149.535 31.944 149.625 31.476 149.805 31.032C149.997 30.576 150.267 30.174 150.615 29.826C150.963 29.478 151.359 29.208 151.803 29.016C151.479 28.848 151.197 28.626 150.957 28.35C150.729 28.062 150.549 27.75 150.417 27.414C150.297 27.078 150.237 26.73 150.237 26.37C150.237 25.782 150.375 25.254 150.651 24.786C150.927 24.306 151.299 23.928 151.767 23.652C152.235 23.376 152.763 23.238 153.351 23.238ZM153.333 28.71C153.777 28.71 154.173 28.602 154.521 28.386C154.881 28.17 155.163 27.882 155.367 27.522C155.571 27.162 155.673 26.772 155.673 26.352C155.673 25.908 155.565 25.512 155.349 25.164C155.145 24.804 154.869 24.522 154.521 24.318C154.173 24.102 153.777 23.994 153.333 23.994C152.913 23.994 152.523 24.102 152.163 24.318C151.803 24.522 151.515 24.804 151.299 25.164C151.095 25.512 150.993 25.908 150.993 26.352C150.993 26.76 151.101 27.144 151.317 27.504C151.533 27.864 151.815 28.158 152.163 28.386C152.523 28.602 152.913 28.71 153.333 28.71ZM153.333 35.442C153.897 35.442 154.401 35.31 154.845 35.046C155.301 34.77 155.661 34.404 155.925 33.948C156.201 33.492 156.339 32.994 156.339 32.454C156.339 31.89 156.207 31.386 155.943 30.942C155.679 30.486 155.319 30.126 154.863 29.862C154.407 29.598 153.897 29.466 153.333 29.466C152.925 29.466 152.535 29.544 152.163 29.7C151.803 29.856 151.485 30.072 151.209 30.348C150.933 30.612 150.717 30.924 150.561 31.284C150.405 31.644 150.327 32.034 150.327 32.454C150.327 32.994 150.459 33.492 150.723 33.948C150.999 34.404 151.365 34.77 151.821 35.046C152.277 35.31 152.781 35.442 153.333 35.442Z" fill="#3E2723"/>
</svg>
