<svg width="296" height="52" viewBox="0 0 296 52" fill="none" xmlns="http://www.w3.org/2000/svg">
<path d="M9.516 50.0761C7.40133 50.0761 5.63333 49.6254 4.212 48.7241C2.82533 47.8574 1.768 46.7134 1.04 45.2921C0.346667 43.8707 0 42.3801 0 40.8201C0 39.1561 0.346667 37.5441 1.04 35.9841C1.73333 34.4241 2.66933 33.0027 3.848 31.7201C5.02667 30.4374 6.344 29.3454 7.8 28.4441C9.256 27.5427 10.764 26.9187 12.324 26.5721C12.4627 26.5374 12.5667 26.5201 12.636 26.5201C12.9133 26.5201 13.052 26.6241 13.052 26.8321C13.052 26.9361 12.8613 27.0921 12.48 27.3001C9.74133 28.8254 7.592 30.7667 6.032 33.1241C4.472 35.4814 3.692 37.8387 3.692 40.1961C3.692 42.3454 4.316 44.1307 5.564 45.5521C6.812 47.0081 8.59733 47.7361 10.92 47.7361C12.6533 47.7361 14.248 47.3374 15.704 46.5401C17.1947 45.7427 18.5813 44.6681 19.864 43.3161C21.1467 41.9987 22.36 40.5601 23.504 39.0001C24.6827 37.4054 25.8093 35.8281 26.884 34.2681C27.7853 32.9507 28.86 31.3041 30.108 29.3281C31.3907 27.3521 32.7773 25.2374 34.268 22.9841C35.7933 20.6961 37.388 18.4427 39.052 16.2241C40.7507 13.9707 42.484 11.9081 44.252 10.0361C46.0547 8.16408 47.84 6.63874 49.608 5.46007C50.2667 4.45474 50.8907 3.64008 51.48 3.01608C52.1387 2.32274 52.884 1.64674 53.716 0.988077C54.5827 0.32941 55.3453 7.70092e-05 56.004 7.70092e-05C56.5587 7.70092e-05 56.9573 0.138743 57.2 0.416075C57.4427 0.658742 57.564 0.970743 57.564 1.35208C57.564 1.94141 57.2867 2.42674 56.732 2.80807C56.212 3.18941 55.536 3.57074 54.704 3.95208C53.9067 4.33341 53.092 4.83608 52.26 5.46007C51.0813 7.60941 50.0067 9.67208 49.036 11.6481C48.1 13.6241 47.216 15.6174 46.384 17.6281C45.552 19.6387 44.72 21.8054 43.888 24.1281C43.472 25.3414 43.004 26.7627 42.484 28.3921C41.964 30.0214 41.5133 31.6681 41.132 33.3321C40.7507 34.9961 40.56 36.4867 40.56 37.8041C40.56 38.7401 40.6987 39.5547 40.976 40.2481C41.2533 40.9414 41.7733 41.2881 42.536 41.2881C43.4373 41.2881 44.4253 40.8027 45.5 39.8321C46.5747 38.8267 47.632 37.5441 48.672 35.9841C49.712 34.4241 50.5787 32.7774 51.272 31.0441C51.688 31.0441 51.896 31.2001 51.896 31.5121C51.064 33.4187 50.076 35.2734 48.932 37.0761C47.8227 38.8787 46.592 40.3521 45.24 41.4961C43.9227 42.6747 42.536 43.2641 41.08 43.2641C39.936 43.2641 39 42.8481 38.272 42.0161C37.5787 41.1841 37.232 39.9534 37.232 38.3241C37.232 36.9374 37.4573 35.2387 37.908 33.2281C38.3933 31.1827 39.0347 28.9814 39.832 26.6241C40.664 24.2321 41.5653 21.8227 42.536 19.3961C43.4373 17.1774 44.356 15.0974 45.292 13.1561C46.228 11.2147 47.1467 9.49874 48.048 8.00808C46.176 9.56808 44.3387 11.4574 42.536 13.6761C40.768 15.8601 39.052 18.2001 37.388 20.6961C35.724 23.1921 34.1293 25.6881 32.604 28.1841C31.1133 30.6454 29.692 32.9161 28.34 34.9961C27.404 36.4521 26.3293 38.0467 25.116 39.7801C23.9373 41.4787 22.568 43.1081 21.008 44.6681C19.4827 46.2627 17.7667 47.5627 15.86 48.5681C13.9533 49.5734 11.8387 50.0761 9.516 50.0761ZM54.4302 41.0801C53.0089 41.0801 51.9515 40.5774 51.2582 39.5721C50.5995 38.5321 50.2702 37.2841 50.2702 35.8281C50.2702 34.4761 50.5302 33.0721 51.0502 31.6161C51.6049 30.0214 52.3675 28.5654 53.3382 27.2481C54.3435 25.9307 55.4355 24.8734 56.6142 24.0761C57.8275 23.2441 59.0235 22.8281 60.2022 22.8281C61.6235 22.8281 62.6635 23.3134 63.3222 24.2841C64.0155 25.2547 64.3622 26.4854 64.3622 27.9761C64.3622 29.0161 64.1889 30.1081 63.8422 31.2521C63.4955 32.3961 63.0275 33.5227 62.4382 34.6321C62.8889 35.0827 63.5302 35.3081 64.3622 35.3081C65.3329 35.3081 66.1649 34.9961 66.8582 34.3721C67.5515 33.7481 68.2275 32.6387 68.8862 31.0441C69.3022 31.0441 69.5102 31.2001 69.5102 31.5121C68.8515 33.1067 68.0889 34.2854 67.2222 35.0481C66.3902 35.7761 65.3155 36.1227 63.9982 36.0881C63.2009 36.0881 62.5422 35.8627 62.0222 35.4121C61.0515 37.0067 59.8902 38.3587 58.5382 39.4681C57.2209 40.5427 55.8515 41.0801 54.4302 41.0801ZM55.1582 39.9361C55.9555 39.9361 56.7529 39.6067 57.5502 38.9481C58.3475 38.2547 59.0755 37.4747 59.7342 36.6081C60.3929 35.7414 60.8609 34.9961 61.1382 34.3721C60.5835 33.3667 60.2542 32.6214 60.1502 32.1361C60.0809 31.6161 60.0462 31.2347 60.0462 30.9921C60.0462 30.3334 60.2195 29.8307 60.5662 29.4841C60.9129 29.1374 61.2595 28.9641 61.6062 28.9641C62.0915 28.9641 62.5075 29.1721 62.8542 29.5881C62.9235 29.2067 62.9755 28.8601 63.0102 28.5481C63.0449 28.2014 63.0622 27.8721 63.0622 27.5601C63.0622 26.6587 62.8889 25.9307 62.5422 25.3761C62.2302 24.7867 61.7275 24.4921 61.0342 24.4921C60.3062 24.4921 59.5435 24.8041 58.7462 25.4281C57.9489 26.0521 57.1862 26.8841 56.4582 27.9241C55.7649 28.9641 55.1582 30.1254 54.6382 31.4081C54.1875 32.4827 53.8409 33.5054 53.5982 34.4761C53.3555 35.4121 53.2342 36.2787 53.2342 37.0761C53.2342 37.9427 53.3902 38.6361 53.7022 39.1561C54.0142 39.6761 54.4995 39.9361 55.1582 39.9361ZM71.0125 31.9801L70.7005 32.7081C72.2605 30.5934 73.9072 28.7907 75.6405 27.3001C77.4085 25.7747 79.0725 24.6134 80.6325 23.8161C82.1925 22.9841 83.4232 22.5681 84.3245 22.5681C85.5032 22.5681 86.2312 22.8801 86.5085 23.5041C86.6125 23.7467 86.6645 24.0067 86.6645 24.2841C86.6645 24.8041 86.4912 25.2894 86.1445 25.7401C85.7978 26.1561 85.3125 26.3641 84.6885 26.3641C84.6538 26.3641 84.5845 26.3641 84.4805 26.3641C84.3765 26.3641 84.2898 26.3467 84.2205 26.3121C84.1512 25.8267 83.9778 25.4107 83.7005 25.0641C83.4232 24.7174 82.8858 24.5441 82.0885 24.5441C81.1872 24.5441 80.3032 24.9254 79.4365 25.6881C78.6045 26.4161 77.8938 27.4214 77.3045 28.7041C76.7498 29.9521 76.4378 31.3561 76.3685 32.9161C76.3338 33.9907 76.4032 35.0827 76.5765 36.1921C76.7845 37.2667 77.1485 38.1681 77.6685 38.8961C78.1885 39.5894 78.9165 39.9361 79.8525 39.9361C80.6845 39.9361 81.4472 39.6241 82.1405 39.0001C82.8338 38.3761 83.4752 37.5961 84.0645 36.6601C84.6538 35.6894 85.1738 34.7014 85.6245 33.6961C86.0752 32.6907 86.4738 31.8067 86.8205 31.0441C87.2365 31.0441 87.4445 31.2001 87.4445 31.5121C86.7858 33.1067 86.0752 34.6667 85.3125 36.1921C84.5845 37.7174 83.7005 38.9827 82.6605 39.9881C81.6205 40.9587 80.3552 41.4441 78.8645 41.4441C77.1658 41.4441 75.8832 40.9067 75.0165 39.8321C74.1498 38.7227 73.6472 37.2841 73.5085 35.5161C73.3698 33.7481 73.5605 31.8414 74.0805 29.7961C72.9018 31.1481 71.9485 32.3441 71.2205 33.3841C70.5272 34.3894 69.9032 35.4121 69.3485 36.4521C68.8285 37.4921 68.2565 38.7227 67.6325 40.1441C67.4592 40.5601 67.2338 40.7854 66.9565 40.8201C66.7138 40.8547 66.3152 40.8721 65.7605 40.8721H64.7725C64.6685 40.8721 64.5472 40.9241 64.4085 41.0281C64.2698 41.0974 64.1312 41.1667 63.9925 41.2361C64.4085 40.4041 64.8418 39.5374 65.2925 38.6361C65.7085 37.7347 66.2112 36.6774 66.8005 35.4641C67.3898 34.2507 68.0832 32.7774 68.8805 31.0441C68.9498 30.9401 69.1578 30.4547 69.5045 29.5881C69.8858 28.6867 70.4058 27.5427 71.0645 26.1561C71.7578 24.7001 72.4338 23.6254 73.0925 22.9321C73.7512 22.2387 74.4965 21.8921 75.3285 21.8921C75.6405 21.8921 75.8832 21.9267 76.0565 21.9961C76.2298 22.0654 76.5765 22.1001 77.0965 22.1001C75.8485 23.4521 74.7912 24.9427 73.9245 26.5721C73.0925 28.2014 72.1218 30.0041 71.0125 31.9801ZM98.0903 41.2361C97.2929 41.2361 96.5823 41.0107 95.9583 40.5601C95.3689 40.1094 95.0743 39.1907 95.0743 37.8041C95.0743 37.2147 95.1089 36.6601 95.1783 36.1401C95.2823 35.6201 95.4036 35.0654 95.5423 34.4761C95.2303 34.9961 94.7969 35.6374 94.2423 36.4001C93.6876 37.1627 93.0636 37.9081 92.3703 38.6361C91.7116 39.3641 91.0183 39.9707 90.2903 40.4561C89.5969 40.9414 88.9383 41.1841 88.3143 41.1841C87.4129 41.1841 86.6849 40.7854 86.1303 39.9881C85.5756 39.1561 85.2983 38.0814 85.2983 36.7641C85.2983 35.3427 85.6276 33.8174 86.2863 32.1881C86.9449 30.5587 87.8463 28.9987 88.9903 27.5081C90.1343 26.0174 91.4516 24.8041 92.9423 23.8681C94.4329 22.9321 95.9929 22.4641 97.6223 22.4641C98.4196 22.4641 99.1823 22.6027 99.9103 22.8801C100.638 23.1227 101.28 23.5387 101.834 24.1281C102.077 24.3707 102.198 24.6481 102.198 24.9601C102.198 25.1681 102.112 25.3414 101.938 25.4801C101.765 25.6187 101.54 25.6534 101.262 25.5841C100.881 24.3707 100.066 23.7641 98.8183 23.7641C98.2289 23.7641 97.5529 23.9547 96.7903 24.3361C95.8543 24.8214 94.8489 25.6014 93.7743 26.6761C92.7343 27.7161 91.7463 28.9121 90.8103 30.2641C89.9089 31.5814 89.1636 32.9161 88.5743 34.2681C87.9849 35.6201 87.6903 36.8507 87.6903 37.9601C87.6903 39.1041 88.1236 39.6761 88.9903 39.6761C89.7529 39.6761 90.5329 39.3121 91.3303 38.5841C92.1623 37.8561 92.9423 36.9547 93.6703 35.8801C94.4329 34.7707 95.1263 33.6787 95.7503 32.6041C96.3743 31.5294 96.8596 30.6627 97.2063 30.0041C97.7263 29.0681 98.2116 28.2881 98.6623 27.6641C99.1129 27.0401 99.7543 26.7281 100.586 26.7281C100.968 26.7281 101.349 26.7801 101.73 26.8841C102.112 26.9881 102.51 27.0054 102.926 26.9361C101.886 27.9761 100.968 29.2067 100.17 30.6281C99.4076 32.0494 98.8183 33.4534 98.4023 34.8401C97.9863 36.1921 97.7783 37.3361 97.7783 38.2721C97.7783 39.3121 98.1249 39.8321 98.8183 39.8321C99.3729 39.8321 99.9623 39.5201 100.586 38.8961C101.245 38.2721 101.869 37.4921 102.458 36.5561C103.082 35.5854 103.654 34.6147 104.174 33.6441C104.694 32.6387 105.11 31.7721 105.422 31.0441C105.596 31.0441 105.734 31.0614 105.838 31.0961C105.977 31.1307 106.046 31.2694 106.046 31.5121C106.012 31.6507 105.942 31.8067 105.838 31.9801C105.769 32.1187 105.648 32.3787 105.474 32.7601C105.197 33.3147 104.816 34.0601 104.33 34.9961C103.845 35.9321 103.273 36.8854 102.614 37.8561C101.956 38.7921 101.245 39.5894 100.482 40.2481C99.7196 40.9067 98.9223 41.2361 98.0903 41.2361ZM113.503 37.3881C113.503 36.4521 113.676 35.4467 114.023 34.3721C113.399 35.4814 112.706 36.5561 111.943 37.5961C111.18 38.6014 110.366 39.4334 109.499 40.0921C108.632 40.7507 107.748 41.0801 106.847 41.0801C106.466 41.0801 106.015 40.9934 105.495 40.8201C104.975 40.6121 104.524 40.2827 104.143 39.8321C103.762 39.3814 103.571 38.7401 103.571 37.9081C103.571 36.8681 103.866 35.7761 104.455 34.6321C105.044 33.4534 105.564 32.4134 106.015 31.5121C105.634 31.5121 105.443 31.3561 105.443 31.0441C105.72 30.4894 106.084 29.7441 106.535 28.8081C107.02 27.8374 107.488 26.9187 107.939 26.0521C108.39 25.1507 108.702 24.5441 108.875 24.2321C109.118 23.8507 109.378 23.5734 109.655 23.4001C109.932 23.1921 110.331 23.0881 110.851 23.0881H114.075C113.486 23.5387 112.948 24.0414 112.463 24.5961C112.012 25.1161 111.44 26.0867 110.747 27.5081C110.747 27.5081 110.626 27.7507 110.383 28.2361C110.14 28.7214 109.828 29.3454 109.447 30.1081C109.1 30.8361 108.736 31.5814 108.355 32.3441C108.008 33.1067 107.714 33.7481 107.471 34.2681C107.02 35.2387 106.726 36.0187 106.587 36.6081C106.448 37.1627 106.379 37.6827 106.379 38.1681C106.379 39.3121 106.76 39.8841 107.523 39.8841C108.355 39.8841 109.36 39.2081 110.539 37.8561C111.51 36.7121 112.463 35.3427 113.399 33.7481C114.335 32.1534 115.219 30.5067 116.051 28.8081C116.918 27.1094 117.68 25.5841 118.339 24.2321C118.72 23.4694 119.396 23.0881 120.367 23.0881H123.227C122.742 23.5041 122.256 24.0067 121.771 24.5961C121.32 25.1507 120.818 25.9134 120.263 26.8841C119.743 27.8547 119.102 29.1201 118.339 30.6801C118.096 31.2001 117.784 31.8761 117.403 32.7081C117.022 33.5054 116.675 34.3547 116.363 35.2561C116.086 36.1574 115.947 37.0241 115.947 37.8561C115.947 39.1041 116.259 39.7281 116.883 39.7281C117.334 39.7281 117.854 39.3987 118.443 38.7401C119.032 38.0467 119.587 37.2494 120.107 36.3481C120.627 35.4121 120.991 34.5801 121.199 33.8521L122.499 34.1641C122.984 34.3027 123.158 34.5801 123.019 34.9961C122.534 36.3481 122.031 37.5614 121.511 38.6361C120.991 39.7107 120.558 40.5774 120.211 41.2361C120.939 40.8547 121.615 40.3694 122.239 39.7801C122.898 39.1561 123.47 38.5321 123.955 37.9081C124.718 36.8334 125.342 35.7934 125.827 34.7881C126.347 33.7827 126.954 32.5347 127.647 31.0441C128.063 30.9747 128.271 31.1307 128.271 31.5121C127.266 33.7654 126.295 35.6027 125.359 37.0241C124.458 38.4454 123.539 39.5721 122.603 40.4041C121.702 41.2014 120.731 41.8427 119.691 42.3281C119.067 43.5761 118.304 44.8761 117.403 46.2281C116.502 47.5801 115.427 48.7241 114.179 49.6601C112.966 50.5961 111.51 51.0641 109.811 51.0641C108.736 51.0641 107.939 50.8387 107.419 50.3881C106.934 49.9374 106.691 49.3827 106.691 48.7241C106.691 47.9961 106.968 47.2507 107.523 46.4881C108.078 45.7601 108.944 45.1187 110.123 44.5641C111.232 44.0787 112.376 43.6627 113.555 43.3161C114.768 42.9694 116.016 42.6227 117.299 42.2761L118.339 40.4561C118.616 39.9707 118.859 39.5201 119.067 39.1041C119.31 38.6881 119.518 38.2894 119.691 37.9081C119.171 38.7054 118.582 39.4334 117.923 40.0921C117.264 40.7507 116.588 41.0801 115.895 41.0801C115.236 41.0801 114.664 40.7681 114.179 40.1441C113.728 39.4854 113.503 38.5667 113.503 37.3881ZM109.239 50.2321C109.828 50.2321 110.487 49.9721 111.215 49.4521C111.943 48.9667 112.671 48.3427 113.399 47.5801C114.127 46.8521 114.768 46.1067 115.323 45.3441C115.912 44.5814 116.363 43.9054 116.675 43.3161C115.67 43.5934 114.56 43.9054 113.347 44.2521C112.134 44.6334 111.232 44.9627 110.643 45.2401C109.638 45.6907 108.858 46.2454 108.303 46.9041C107.783 47.5627 107.523 48.1694 107.523 48.7241C107.523 49.1747 107.679 49.5387 107.991 49.8161C108.338 50.0934 108.754 50.2321 109.239 50.2321ZM144.846 35.6201C144.084 37.0414 143.182 38.3067 142.142 39.4161C141.137 40.5254 139.976 41.0801 138.658 41.0801C137.792 41.0801 137.081 40.7681 136.526 40.1441C135.972 39.4854 135.694 38.5667 135.694 37.3881C135.694 36.4521 135.868 35.4467 136.214 34.3721C135.625 35.4121 134.949 36.4521 134.186 37.4921C133.424 38.5321 132.609 39.3987 131.742 40.0921C130.876 40.7507 130.009 41.0801 129.142 41.0801C128.761 41.0801 128.293 40.9934 127.738 40.8201C127.218 40.6467 126.75 40.3347 126.334 39.8841C125.953 39.3987 125.762 38.6881 125.762 37.7521C125.762 36.8507 126.057 35.8107 126.646 34.6321C127.236 33.4534 127.756 32.4134 128.206 31.5121C127.825 31.5121 127.634 31.3561 127.634 31.0441C127.669 30.9401 127.825 30.6107 128.102 30.0561C128.38 29.5014 128.709 28.8427 129.09 28.0801C129.472 27.3174 129.836 26.5894 130.182 25.8961C130.564 25.1681 130.858 24.6134 131.066 24.2321C131.482 23.4694 132.141 23.0881 133.042 23.0881H136.266C135.677 23.5387 135.14 24.0414 134.654 24.5961C134.204 25.1161 133.632 26.0867 132.938 27.5081C132.938 27.5081 132.817 27.7507 132.574 28.2361C132.332 28.7214 132.02 29.3454 131.638 30.1081C131.292 30.8361 130.928 31.5814 130.546 32.3441C130.2 33.1067 129.905 33.7481 129.662 34.2681C129.212 35.2387 128.917 36.0187 128.778 36.6081C128.64 37.1627 128.57 37.6827 128.57 38.1681C128.57 39.3121 128.952 39.8841 129.714 39.8841C130.546 39.8841 131.552 39.2081 132.73 37.8561C133.701 36.7121 134.654 35.3427 135.59 33.7481C136.526 32.1534 137.41 30.5067 138.242 28.8081C139.109 27.1094 139.872 25.5841 140.53 24.2321C140.912 23.4694 141.588 23.0881 142.558 23.0881H145.418C144.656 23.7121 143.876 24.6481 143.078 25.8961C142.316 27.1441 141.466 28.7387 140.53 30.6801C140.288 31.2001 139.976 31.8587 139.594 32.6561C139.213 33.4534 138.866 34.3027 138.554 35.2041C138.277 36.1054 138.138 37.0067 138.138 37.9081C138.138 39.1214 138.572 39.7281 139.438 39.7281C140.236 39.7281 141.033 39.3294 141.83 38.5321C142.628 37.7001 143.408 36.5907 144.17 35.2041C144.621 35.2041 144.846 35.3427 144.846 35.6201ZM146.378 40.3001C146.967 40.3001 147.695 39.9707 148.562 39.3121C149.463 38.6187 150.399 37.7521 151.37 36.7121C152.34 35.6374 153.242 34.5107 154.074 33.3321C153.658 33.4361 153.224 33.4881 152.774 33.4881C151.526 33.4881 150.607 33.1587 150.018 32.5001C149.463 31.8414 149.186 31.0267 149.186 30.0561C149.186 29.0161 149.48 27.9414 150.07 26.8321C150.659 25.6881 151.474 24.7347 152.514 23.9721C153.588 23.2094 154.784 22.8281 156.102 22.8281C157.835 22.8281 158.875 23.5734 159.222 25.0641C159.326 24.7867 159.447 24.5267 159.586 24.2841C159.794 23.8681 160.071 23.5907 160.418 23.4521C160.764 23.2787 161.18 23.1921 161.666 23.1921H164.474C164.162 23.4347 163.572 24.0067 162.706 24.9081C161.874 25.7747 160.903 27.3347 159.794 29.5881C159.412 30.3507 158.996 31.2521 158.546 32.2921C158.095 33.3321 157.714 34.3894 157.402 35.4641C157.09 36.5387 156.934 37.4921 156.934 38.3241C156.934 39.4681 157.332 40.0401 158.13 40.0401C158.788 40.0401 159.447 39.7454 160.106 39.1561C160.799 38.5321 161.458 37.7521 162.082 36.8161C162.74 35.8801 163.347 34.9094 163.902 33.9041C164.456 32.8641 164.907 31.9107 165.254 31.0441C165.67 31.0441 165.878 31.2001 165.878 31.5121C165.496 32.4134 165.011 33.4361 164.422 34.5801C163.867 35.7241 163.208 36.8334 162.446 37.9081C161.683 38.9481 160.834 39.8147 159.898 40.5081C158.996 41.1667 157.991 41.4961 156.882 41.4961C155.911 41.4961 155.218 41.2187 154.802 40.6641C154.42 40.1094 154.23 39.3814 154.23 38.4801C154.23 37.6134 154.368 36.6774 154.646 35.6721C154.923 34.6667 155.252 33.6787 155.634 32.7081V32.7601C154.594 34.1814 153.519 35.5507 152.41 36.8681C151.3 38.1854 150.174 39.2774 149.03 40.1441C147.886 41.0107 146.794 41.4441 145.754 41.4441C144.748 41.4441 143.968 41.1494 143.414 40.5601C142.859 39.9707 142.582 39.2254 142.582 38.3241C142.582 37.6307 142.755 36.9721 143.102 36.3481C143.448 35.7241 143.882 35.2041 144.402 34.7881C144.922 34.3721 145.459 34.1641 146.014 34.1641C146.256 34.1641 146.482 34.1987 146.69 34.2681C146.932 34.3374 147.158 34.4587 147.366 34.6321C146.707 35.1867 146.204 35.8627 145.858 36.6601C145.511 37.4574 145.338 38.1507 145.338 38.7401C145.338 39.1561 145.407 39.5201 145.546 39.8321C145.719 40.1441 145.996 40.3001 146.378 40.3001ZM153.294 32.7081C154.16 32.7081 154.923 32.3614 155.582 31.6681C156.24 30.9401 156.76 30.0561 157.142 29.0161C157.558 27.9414 157.766 26.9187 157.766 25.9481C157.766 24.4574 157.315 23.7121 156.414 23.7121C155.859 23.7121 155.304 23.9547 154.75 24.4401C154.195 24.8907 153.675 25.4974 153.19 26.2601C152.704 26.9881 152.306 27.7507 151.994 28.5481C151.716 29.3454 151.578 30.0734 151.578 30.7321C151.578 31.2867 151.699 31.7547 151.942 32.1361C152.219 32.5174 152.67 32.7081 153.294 32.7081ZM178.673 41.2881C176.766 41.2881 175.345 40.7854 174.409 39.7801C173.507 38.7747 173.057 37.4227 173.057 35.7241C173.057 34.9267 173.213 34.0081 173.525 32.9681C173.837 31.9281 174.253 30.8707 174.773 29.7961C175.293 28.7214 175.865 27.7681 176.489 26.9361C177.494 25.5841 178.603 24.5441 179.817 23.8161C181.03 23.0534 182.261 22.6721 183.509 22.6721C184.826 22.6721 185.762 22.9667 186.317 23.5561C186.906 24.1107 187.201 24.7694 187.201 25.5321C187.201 26.2601 187.027 26.9187 186.681 27.5081C186.334 28.0627 185.935 28.5134 185.485 28.8601C185.069 29.2067 184.705 29.3801 184.393 29.3801C184.115 29.3801 183.873 29.2761 183.665 29.0681C183.942 28.7214 184.237 28.3054 184.549 27.8201C184.861 27.3347 185.086 26.8667 185.225 26.4161C185.363 26.0001 185.433 25.5841 185.433 25.1681C185.433 24.2667 185.017 23.8161 184.185 23.8161C183.179 23.8161 182.191 24.2321 181.221 25.0641C180.285 25.8961 179.418 26.9707 178.621 28.2881C177.858 29.5707 177.234 30.9401 176.749 32.3961C176.298 33.8174 176.073 35.1347 176.073 36.3481C176.073 37.4574 176.298 38.3761 176.749 39.1041C177.234 39.8321 178.014 40.1961 179.089 40.1961C180.51 40.1961 181.758 39.7454 182.833 38.8441C183.907 37.9081 184.861 36.7467 185.693 35.3601C186.525 33.9387 187.253 32.5001 187.877 31.0441C188.015 31.0441 188.154 31.0787 188.293 31.1481C188.431 31.1827 188.501 31.3041 188.501 31.5121C187.807 33.2454 186.993 34.8574 186.057 36.3481C185.121 37.8387 184.046 39.0347 182.833 39.9361C181.654 40.8374 180.267 41.2881 178.673 41.2881ZM201.953 28.2361C201.953 29.2761 201.676 30.5241 201.121 31.9801C200.566 33.4361 199.786 34.8574 198.781 36.2441C197.776 37.6307 196.58 38.7921 195.193 39.7281C193.841 40.6294 192.368 41.0801 190.773 41.0801C189.386 41.0801 188.416 40.6641 187.861 39.8321C187.306 39.0001 187.029 37.9601 187.029 36.7121C187.029 36.0187 187.116 35.3081 187.289 34.5801C187.462 33.8521 187.826 32.8987 188.381 31.7201C188.069 31.7201 187.896 31.6507 187.861 31.5121C187.861 31.3387 187.861 31.1827 187.861 31.0441C188.208 30.2121 188.71 29.1201 189.369 27.7681C190.028 26.3814 190.79 24.8734 191.657 23.2441C192.524 21.5801 193.442 19.9161 194.413 18.2521C195.384 16.5881 196.354 15.0281 197.325 13.5721C198.296 12.0814 199.214 10.8507 200.081 9.88008C202.334 7.21074 204.536 5.13074 206.685 3.64008C208.834 2.11474 210.897 1.35208 212.873 1.35208C214.052 1.35208 214.953 1.64674 215.577 2.23608C216.236 2.79074 216.565 3.53608 216.565 4.47208C216.565 5.75474 215.976 7.31474 214.797 9.15208C213.618 10.9547 211.85 12.8267 209.493 14.7681C208.072 15.9467 206.182 17.2294 203.825 18.6161C201.468 19.9681 198.694 21.0947 195.505 21.9961H195.401C194.222 24.1454 193.165 26.2254 192.229 28.2361C191.328 30.2467 190.617 32.0667 190.097 33.6961C189.577 35.2907 189.317 36.5734 189.317 37.5441C189.317 38.0641 189.369 38.5321 189.473 38.9481C189.542 39.2254 189.698 39.4854 189.941 39.7281C190.218 39.9361 190.548 40.0401 190.929 40.0401C191.414 40.0401 191.969 39.8494 192.593 39.4681C193.252 39.0867 193.98 38.4107 194.777 37.4401C195.262 36.8507 195.765 36.1401 196.285 35.3081C196.805 34.4761 197.29 33.6267 197.741 32.7601C198.192 31.8587 198.556 31.0614 198.833 30.3681C199.422 28.9814 199.717 27.7161 199.717 26.5721C199.717 25.4627 199.457 24.7347 198.937 24.3881C198.452 24.0414 197.706 23.8681 196.701 23.8681C196.077 23.8681 195.765 23.6947 195.765 23.3481C195.765 23.2094 195.852 23.0707 196.025 22.9321C196.233 22.7934 196.51 22.7241 196.857 22.7241C198.174 22.7241 199.353 23.2094 200.393 24.1801C201.433 25.1507 201.953 26.5027 201.953 28.2361ZM212.873 3.06808C211.694 3.06808 210.394 3.57074 208.973 4.57608C207.586 5.54674 206.148 6.86408 204.657 8.52808C203.166 10.1921 201.693 12.0814 200.237 14.1961C198.816 16.2761 197.464 18.4254 196.181 20.6441C198.85 19.8121 201.277 18.7547 203.461 17.4721C205.645 16.1547 207.413 14.9414 208.765 13.8321C210.81 12.1334 212.336 10.5041 213.341 8.94408C214.346 7.34941 214.849 6.04941 214.849 5.04408C214.849 4.45474 214.676 3.98674 214.329 3.64008C214.017 3.25874 213.532 3.06808 212.873 3.06808ZM215.446 41.2361C214.648 41.2361 213.938 41.0107 213.314 40.5601C212.724 40.1094 212.43 39.1907 212.43 37.8041C212.43 37.2147 212.464 36.6601 212.534 36.1401C212.638 35.6201 212.759 35.0654 212.898 34.4761C212.586 34.9961 212.152 35.6374 211.598 36.4001C211.043 37.1627 210.419 37.9081 209.726 38.6361C209.067 39.3641 208.374 39.9707 207.646 40.4561C206.952 40.9414 206.294 41.1841 205.67 41.1841C204.768 41.1841 204.04 40.7854 203.486 39.9881C202.931 39.1561 202.654 38.0814 202.654 36.7641C202.654 35.3427 202.983 33.8174 203.642 32.1881C204.3 30.5587 205.202 28.9987 206.346 27.5081C207.49 26.0174 208.807 24.8041 210.298 23.8681C211.788 22.9321 213.348 22.4641 214.978 22.4641C215.775 22.4641 216.538 22.6027 217.266 22.8801C217.994 23.1227 218.635 23.5387 219.19 24.1281C219.432 24.3707 219.554 24.6481 219.554 24.9601C219.554 25.1681 219.467 25.3414 219.294 25.4801C219.12 25.6187 218.895 25.6534 218.618 25.5841C218.236 24.3707 217.422 23.7641 216.174 23.7641C215.584 23.7641 214.908 23.9547 214.146 24.3361C213.21 24.8214 212.204 25.6014 211.13 26.6761C210.09 27.7161 209.102 28.9121 208.166 30.2641C207.264 31.5814 206.519 32.9161 205.93 34.2681C205.34 35.6201 205.046 36.8507 205.046 37.9601C205.046 39.1041 205.479 39.6761 206.346 39.6761C207.108 39.6761 207.888 39.3121 208.686 38.5841C209.518 37.8561 210.298 36.9547 211.026 35.8801C211.788 34.7707 212.482 33.6787 213.106 32.6041C213.73 31.5294 214.215 30.6627 214.562 30.0041C215.082 29.0681 215.567 28.2881 216.018 27.6641C216.468 27.0401 217.11 26.7281 217.942 26.7281C218.323 26.7281 218.704 26.7801 219.086 26.8841C219.467 26.9881 219.866 27.0054 220.282 26.9361C219.242 27.9761 218.323 29.2067 217.526 30.6281C216.763 32.0494 216.174 33.4534 215.758 34.8401C215.342 36.1921 215.134 37.3361 215.134 38.2721C215.134 39.3121 215.48 39.8321 216.174 39.8321C216.728 39.8321 217.318 39.5201 217.942 38.8961C218.6 38.2721 219.224 37.4921 219.814 36.5561C220.438 35.5854 221.01 34.6147 221.53 33.6441C222.05 32.6387 222.466 31.7721 222.778 31.0441C222.951 31.0441 223.09 31.0614 223.194 31.0961C223.332 31.1307 223.402 31.2694 223.402 31.5121C223.367 31.6507 223.298 31.8067 223.194 31.9801C223.124 32.1187 223.003 32.3787 222.83 32.7601C222.552 33.3147 222.171 34.0601 221.686 34.9961C221.2 35.9321 220.628 36.8854 219.97 37.8561C219.311 38.7921 218.6 39.5894 217.838 40.2481C217.075 40.9067 216.278 41.2361 215.446 41.2361ZM224.098 41.0801C222.781 41.0801 221.81 40.6467 221.186 39.7801C220.562 38.8787 220.25 37.7867 220.25 36.5041C220.25 35.1521 220.562 33.6961 221.186 32.1361C221.81 30.5414 222.642 29.0507 223.682 27.6641C224.722 26.2427 225.884 25.0814 227.166 24.1801C228.449 23.2787 229.732 22.8281 231.014 22.8281C232.02 22.8281 232.869 23.1574 233.562 23.8161C234.256 24.4747 234.585 25.2547 234.55 26.1561C235.59 23.7987 236.44 21.4414 237.098 19.0841C237.792 16.6921 238.138 14.2827 238.138 11.8561C238.138 9.98408 237.861 8.56274 237.306 7.59208C236.752 6.58674 236.076 5.89341 235.278 5.51208C234.481 5.13074 233.718 4.94008 232.99 4.94008C231.5 4.94008 229.992 5.59874 228.466 6.91608C226.941 8.23341 225.641 10.2614 224.566 13.0001C224.462 13.2427 224.376 13.4681 224.306 13.6761C224.272 13.8494 224.22 14.1441 224.15 14.5601C222.833 14.5601 222.174 14.1787 222.174 13.4161C222.174 12.9654 222.348 12.4281 222.694 11.8041C223.041 11.1454 223.336 10.6254 223.578 10.2441C224.861 8.30274 226.438 6.77741 228.31 5.66808C230.182 4.55874 232.02 4.00408 233.822 4.00408C235.07 4.00408 236.232 4.29874 237.306 4.88808C238.381 5.44274 239.248 6.30941 239.906 7.48808C240.565 8.66674 240.894 10.1921 240.894 12.0641C240.894 14.0747 240.582 16.3107 239.958 18.7721C239.369 21.1987 238.554 23.6601 237.514 26.1561C236.509 28.6174 235.33 30.9054 233.978 33.0201C232.661 35.1347 231.274 36.8854 229.818 38.2721C229.021 39.0347 228.137 39.6934 227.166 40.2481C226.23 40.8027 225.208 41.0801 224.098 41.0801ZM224.826 39.9361C225.797 39.9361 226.785 39.4161 227.79 38.3761C228.796 37.3014 229.732 36.0361 230.598 34.5801C230.98 33.9561 231.396 33.2107 231.846 32.3441C232.297 31.4427 232.73 30.5587 233.146 29.6921C233.562 28.7907 233.84 28.0454 233.978 27.4561C233.874 26.3121 233.632 25.5321 233.25 25.1161C232.904 24.7001 232.47 24.4921 231.95 24.4921C231.014 24.4921 230.026 24.9427 228.986 25.8441C227.981 26.7107 227.028 27.8374 226.126 29.2241C225.26 30.6107 224.549 32.0494 223.994 33.5401C223.44 35.0307 223.162 36.4001 223.162 37.6481C223.162 38.2721 223.284 38.8094 223.526 39.2601C223.769 39.7107 224.202 39.9361 224.826 39.9361ZM249.411 34.5801C249.064 35.3081 248.666 36.0014 248.215 36.6601C248.354 36.6947 248.51 36.7121 248.683 36.7121C249.515 36.7121 250.434 36.2961 251.439 35.4641C252.444 34.5974 253.363 33.1241 254.195 31.0441C254.611 31.0441 254.819 31.2001 254.819 31.5121C253.779 33.8694 252.756 35.4814 251.751 36.3481C250.746 37.1801 249.636 37.5961 248.423 37.5961C248.111 37.5961 247.834 37.5787 247.591 37.5441C246.655 38.6534 245.58 39.5894 244.367 40.3521C243.154 41.0801 241.819 41.4441 240.363 41.4441C238.942 41.4441 237.919 41.0454 237.295 40.2481C236.706 39.4507 236.411 38.4627 236.411 37.2841C236.411 36.5907 236.498 35.9147 236.671 35.2561C236.844 34.5974 237.052 33.9387 237.295 33.2801C237.642 32.4481 238.127 31.4427 238.751 30.2641C239.375 29.0854 240.068 27.9241 240.831 26.7801C241.594 25.6361 242.356 24.6827 243.119 23.9201C243.882 23.1574 244.558 22.7761 245.147 22.7761C245.424 22.7761 245.719 22.8281 246.031 22.9321C246.343 23.0014 246.672 23.0361 247.019 23.0361C247.158 23.0361 247.279 23.0187 247.383 22.9841C247.175 23.0881 246.846 23.4174 246.395 23.9721C245.944 24.4921 245.424 25.1334 244.835 25.8961C244.28 26.6587 243.708 27.4387 243.119 28.2361C242.53 29.0334 242.01 29.7441 241.559 30.3681C242.148 29.7441 242.928 29.1201 243.899 28.4961C244.87 27.8374 245.892 27.5081 246.967 27.5081C248.146 27.5081 249.012 27.8374 249.567 28.4961C250.122 29.1547 250.399 29.9347 250.399 30.8361C250.399 31.4601 250.295 32.1187 250.087 32.8121C249.914 33.4707 249.688 34.0601 249.411 34.5801ZM244.471 34.4761C244.471 33.9907 244.627 33.6094 244.939 33.3321C245.251 33.0547 245.598 32.9161 245.979 32.9161C246.36 32.9161 246.638 33.0201 246.811 33.2281C247.019 33.4361 247.123 33.6787 247.123 33.9561C247.123 34.0601 247.123 34.1467 247.123 34.2161C247.331 33.6267 247.47 33.0894 247.539 32.6041C247.608 32.1187 247.643 31.7201 247.643 31.4081C247.643 30.7147 247.504 30.1427 247.227 29.6921C246.95 29.2067 246.464 28.9641 245.771 28.9641C244.904 28.9641 243.951 29.4494 242.911 30.4201C241.871 31.3907 240.935 32.6387 240.103 34.1641C239.583 35.1347 239.202 35.9841 238.959 36.7121C238.751 37.4401 238.647 38.1334 238.647 38.7921C238.647 39.3467 238.786 39.7974 239.063 40.1441C239.34 40.4907 239.843 40.6641 240.571 40.6641C241.23 40.6641 242.044 40.3174 243.015 39.6241C244.02 38.9307 244.939 37.9774 245.771 36.7641C244.904 36.1401 244.471 35.3774 244.471 34.4761ZM281.845 5.92808C281.915 5.82408 282.036 5.77208 282.209 5.77208C282.487 5.77208 282.608 5.84141 282.573 5.98008C282.573 6.08408 282.504 6.25741 282.365 6.50008C282.088 6.95074 281.689 7.47074 281.169 8.06008C280.684 8.61474 280.077 9.10008 279.349 9.51608C278.621 9.93208 277.737 10.1401 276.697 10.1401C275.831 10.1401 274.912 9.96674 273.941 9.62008C273.005 9.23874 272.052 8.82274 271.081 8.37208C270.145 7.92141 269.261 7.52274 268.429 7.17608C267.597 6.79474 266.869 6.60408 266.245 6.60408C265.24 6.60408 264.443 6.93341 263.853 7.59208C263.264 8.21608 262.969 9.03074 262.969 10.0361C262.969 10.9721 263.195 12.0987 263.645 13.4161C264.131 14.6987 264.668 16.1027 265.257 17.6281C265.847 19.1187 266.367 20.6614 266.817 22.2561C267.303 23.8161 267.545 25.3414 267.545 26.8321C267.545 28.4614 267.233 30.1254 266.609 31.8241C265.985 33.4881 265.136 35.0307 264.061 36.4521C263.021 37.8387 261.843 38.9654 260.525 39.8321C259.243 40.6641 257.925 41.0801 256.573 41.0801C255.221 41.0801 254.233 40.6467 253.609 39.7801C252.985 38.8787 252.673 37.7867 252.673 36.5041C252.673 34.9441 253.037 33.3147 253.765 31.6161C254.424 30.0214 255.291 28.5654 256.365 27.2481C257.475 25.9307 258.671 24.8734 259.953 24.0761C261.236 23.2441 262.501 22.8281 263.749 22.8281C264.027 22.8281 264.321 22.8627 264.633 22.9321C264.98 22.9667 265.344 23.0707 265.725 23.2441C265.24 21.5801 264.668 19.8814 264.009 18.1481C263.351 16.3801 262.761 14.7334 262.241 13.2081C261.721 11.6481 261.461 10.3134 261.461 9.20408C261.461 7.78274 261.947 6.58674 262.917 5.61608C263.888 4.64541 265.275 4.16008 267.077 4.16008C268.083 4.16008 269.053 4.35074 269.989 4.73207C270.96 5.07874 271.896 5.49474 272.797 5.98008C273.733 6.43074 274.652 6.84674 275.553 7.22808C276.455 7.57474 277.356 7.74808 278.257 7.74808C279.193 7.74808 279.939 7.59208 280.493 7.28008C281.048 6.93341 281.499 6.48274 281.845 5.92808ZM265.621 27.1961C265.621 26.8841 265.587 26.5201 265.517 26.1041C265.483 25.6534 265.344 25.2721 265.101 24.9601C264.893 24.6481 264.547 24.4921 264.061 24.4921C263.229 24.4921 262.189 25.0814 260.941 26.2601C259.693 27.4387 258.515 29.1547 257.405 31.4081C256.851 32.5867 256.4 33.7307 256.053 34.8401C255.741 35.9147 255.585 36.8507 255.585 37.6481C255.585 38.3414 255.724 38.8961 256.001 39.3121C256.279 39.7281 256.747 39.9361 257.405 39.9361C258.272 39.9361 259.173 39.5894 260.109 38.8961C261.08 38.1681 261.981 37.1974 262.813 35.9841C263.645 34.7707 264.321 33.4014 264.841 31.8761C265.361 30.3507 265.621 28.7907 265.621 27.1961ZM281.048 34.5801C280.701 35.3081 280.302 36.0014 279.852 36.6601C279.99 36.6947 280.146 36.7121 280.32 36.7121C281.152 36.7121 282.036 36.2961 282.972 35.4641C283.942 34.5974 284.896 33.1414 285.832 31.0961C286.386 29.8827 286.941 28.6867 287.496 27.5081C288.085 26.2947 288.605 25.2201 289.056 24.2841C289.264 23.8681 289.541 23.5907 289.888 23.4521C290.234 23.2787 290.65 23.1921 291.136 23.1921H293.944C293.354 23.6427 292.852 24.0934 292.436 24.5441C292.054 24.9601 291.621 25.5494 291.136 26.3121C290.685 27.0401 290.061 28.1321 289.264 29.5881C288.952 30.1774 288.57 31.0094 288.12 32.0841C287.704 33.1241 287.322 34.2161 286.976 35.3601C286.629 36.5041 286.456 37.5094 286.456 38.3761C286.456 38.8961 286.525 39.3294 286.664 39.6761C286.837 40.0227 287.149 40.1961 287.6 40.1961C288.258 40.1961 288.934 39.9187 289.628 39.3641C290.321 38.7747 290.997 38.0294 291.656 37.1281C292.314 36.1921 292.921 35.1867 293.476 34.1121C294.065 33.0374 294.568 32.0147 294.984 31.0441C295.4 31.0441 295.608 31.2001 295.608 31.5121C295.192 32.5521 294.672 33.6614 294.048 34.8401C293.458 35.9841 292.765 37.0587 291.968 38.0641C291.205 39.0694 290.356 39.9014 289.42 40.5601C288.518 41.1841 287.548 41.4961 286.508 41.4961C285.814 41.4961 285.156 41.2361 284.532 40.7161C283.908 40.1614 283.596 39.3121 283.596 38.1681C283.596 37.4747 283.769 36.5561 284.116 35.4121C283.492 36.2441 282.85 36.8161 282.192 37.1281C281.533 37.4401 280.822 37.5961 280.06 37.5961C279.748 37.5961 279.47 37.5787 279.228 37.5441C278.292 38.6534 277.217 39.5894 276.004 40.3521C274.79 41.0801 273.456 41.4441 272 41.4441C270.578 41.4441 269.556 41.0454 268.932 40.2481C268.342 39.4507 268.048 38.4627 268.048 37.2841C268.048 36.5907 268.134 35.9147 268.308 35.2561C268.481 34.5974 268.689 33.9387 268.932 33.2801C269.278 32.4481 269.764 31.4427 270.388 30.2641C271.012 29.0854 271.705 27.9241 272.468 26.7801C273.23 25.6361 273.993 24.6827 274.756 23.9201C275.518 23.1574 276.194 22.7761 276.784 22.7761C277.061 22.7761 277.356 22.8281 277.668 22.9321C277.98 23.0014 278.309 23.0361 278.656 23.0361C278.794 23.0361 278.916 23.0187 279.02 22.9841C278.812 23.0881 278.482 23.4174 278.032 23.9721C277.581 24.4921 277.061 25.1334 276.472 25.8961C275.917 26.6587 275.345 27.4387 274.756 28.2361C274.166 29.0334 273.646 29.7441 273.196 30.3681C273.785 29.7441 274.565 29.1201 275.536 28.4961C276.506 27.8374 277.529 27.5081 278.604 27.5081C279.782 27.5081 280.649 27.8374 281.204 28.4961C281.758 29.1547 282.036 29.9347 282.036 30.8361C282.036 31.4601 281.932 32.1187 281.724 32.8121C281.55 33.4707 281.325 34.0601 281.048 34.5801ZM276.108 34.4761C276.108 33.9907 276.264 33.6094 276.576 33.3321C276.888 33.0547 277.234 32.9161 277.616 32.9161C277.997 32.9161 278.274 33.0201 278.448 33.2281C278.656 33.4361 278.76 33.6787 278.76 33.9561C278.76 34.0601 278.76 34.1467 278.76 34.2161C278.968 33.6267 279.106 33.0894 279.176 32.6041C279.245 32.1187 279.28 31.7201 279.28 31.4081C279.28 30.7147 279.141 30.1427 278.864 29.6921C278.586 29.2067 278.101 28.9641 277.408 28.9641C276.541 28.9641 275.588 29.4494 274.548 30.4201C273.508 31.3907 272.572 32.6387 271.74 34.1641C271.22 35.1347 270.838 35.9841 270.596 36.7121C270.388 37.4401 270.284 38.1334 270.284 38.7921C270.284 39.3467 270.422 39.7974 270.7 40.1441C270.977 40.4907 271.48 40.6641 272.208 40.6641C272.866 40.6641 273.681 40.3174 274.652 39.6241C275.657 38.9307 276.576 37.9774 277.408 36.7641C276.541 36.1401 276.108 35.3774 276.108 34.4761Z" fill="#3E2723"/>
</svg>
