<svg width="366" height="84" viewBox="0 0 366 84" fill="none" xmlns="http://www.w3.org/2000/svg">
<rect width="366" height="84" fill="black"/>
<path d="M133.958 33.762C133.958 35.0287 133.578 36.0167 132.818 36.726C132.058 37.4353 131.082 37.9167 129.892 38.17V38.322C131.158 38.4993 132.26 38.9553 133.198 39.69C134.135 40.3993 134.604 41.514 134.604 43.034C134.604 43.8953 134.439 44.6933 134.11 45.428C133.806 46.1627 133.324 46.796 132.666 47.328C132.007 47.86 131.158 48.278 130.12 48.582C129.081 48.8607 127.827 49 126.358 49H117.58V28.632H126.32C127.764 28.632 129.056 28.7967 130.196 29.126C131.361 29.43 132.273 29.962 132.932 30.722C133.616 31.4567 133.958 32.47 133.958 33.762ZM131.146 43.034C131.146 41.8687 130.702 41.0327 129.816 40.526C128.929 40.0193 127.624 39.766 125.902 39.766H120.924V46.302H125.978C127.65 46.302 128.929 46.0613 129.816 45.58C130.702 45.0733 131.146 44.2247 131.146 43.034ZM130.576 34.18C130.576 33.2173 130.221 32.5207 129.512 32.09C128.828 31.634 127.7 31.406 126.13 31.406H120.924V36.992H125.522C127.168 36.992 128.422 36.764 129.284 36.308C130.145 35.852 130.576 35.1427 130.576 34.18ZM149.164 28.252C151.672 28.252 153.686 29.126 155.206 30.874C156.751 32.622 157.524 35.2567 157.524 38.778C157.524 41.0833 157.169 43.034 156.46 44.63C155.776 46.2007 154.801 47.3913 153.534 48.202C152.293 48.9873 150.823 49.38 149.126 49.38C148.087 49.38 147.163 49.2407 146.352 48.962C145.541 48.6833 144.845 48.3287 144.262 47.898C143.705 47.442 143.223 46.948 142.818 46.416H142.59C142.641 46.8467 142.691 47.3913 142.742 48.05C142.793 48.7087 142.818 49.2787 142.818 49.76V58.12H139.474V28.632H142.21L142.666 31.406H142.818C143.223 30.8233 143.705 30.2913 144.262 29.81C144.845 29.3287 145.529 28.9487 146.314 28.67C147.125 28.3913 148.075 28.252 149.164 28.252ZM148.556 31.064C147.188 31.064 146.086 31.33 145.25 31.862C144.414 32.3687 143.806 33.1413 143.426 34.18C143.046 35.2187 142.843 36.536 142.818 38.132V38.778C142.818 40.45 142.995 41.8687 143.35 43.034C143.705 44.1993 144.3 45.086 145.136 45.694C145.997 46.302 147.163 46.606 148.632 46.606C149.873 46.606 150.887 46.264 151.672 45.58C152.483 44.896 153.078 43.9713 153.458 42.806C153.863 41.6153 154.066 40.26 154.066 38.74C154.066 36.4093 153.61 34.5473 152.698 33.154C151.811 31.7607 150.431 31.064 148.556 31.064ZM170.719 28.252C172.467 28.252 173.962 28.632 175.203 29.392C176.47 30.152 177.432 31.2287 178.091 32.622C178.775 33.99 179.117 35.5987 179.117 37.448V39.462H165.171C165.222 41.7673 165.804 43.528 166.919 44.744C168.059 45.9347 169.642 46.53 171.669 46.53C172.961 46.53 174.101 46.416 175.089 46.188C176.102 45.9347 177.141 45.58 178.205 45.124V48.05C177.166 48.506 176.14 48.8353 175.127 49.038C174.114 49.266 172.91 49.38 171.517 49.38C169.592 49.38 167.882 48.9873 166.387 48.202C164.918 47.4167 163.765 46.2513 162.929 44.706C162.118 43.1353 161.713 41.2227 161.713 38.968C161.713 36.7387 162.08 34.826 162.815 33.23C163.575 31.634 164.626 30.4053 165.969 29.544C167.337 28.6827 168.92 28.252 170.719 28.252ZM170.681 30.988C169.085 30.988 167.818 31.5073 166.881 32.546C165.969 33.5593 165.424 34.978 165.247 36.802H175.621C175.621 35.6367 175.444 34.6233 175.089 33.762C174.734 32.9007 174.19 32.2293 173.455 31.748C172.746 31.2413 171.821 30.988 170.681 30.988ZM206.152 28.632V49H203.15V36.004C203.15 35.472 203.163 34.9147 203.188 34.332C203.239 33.7493 203.29 33.1793 203.34 32.622H203.226L196.576 49H193.764L187.304 32.622H187.19C187.241 33.1793 187.266 33.7493 187.266 34.332C187.292 34.9147 187.304 35.51 187.304 36.118V49H184.302V28.632H188.748L195.17 45.01L201.706 28.632H206.152ZM213.908 49H210.032L215.846 40.45C215.06 40.2473 214.3 39.9307 213.566 39.5C212.831 39.044 212.236 38.4233 211.78 37.638C211.324 36.8273 211.096 35.8267 211.096 34.636C211.096 32.6853 211.754 31.2033 213.072 30.19C214.389 29.1513 216.137 28.632 218.316 28.632H227.436V49H224.092V40.906H219.152L213.908 49ZM214.326 34.674C214.326 35.8393 214.756 36.7133 215.618 37.296C216.504 37.8533 217.733 38.132 219.304 38.132H224.092V31.406H218.658C217.112 31.406 215.998 31.71 215.314 32.318C214.655 32.926 214.326 33.7113 214.326 34.674Z" fill="white"/>
</svg>
