<svg width="84" height="84" viewBox="0 0 84 84" fill="none" xmlns="http://www.w3.org/2000/svg">
<circle cx="42" cy="42" r="42" fill="#3E2723"/>
<path d="M15.1723 26.8C15.7909 26.8 16.3243 26.9067 16.7723 27.12C17.2203 27.3333 17.5669 27.648 17.8123 28.064C18.0576 28.48 18.1803 28.992 18.1803 29.6C18.1803 29.92 18.1376 30.2187 18.0523 30.496C17.9776 30.7733 17.8603 31.024 17.7003 31.248C17.5403 31.472 17.3429 31.664 17.1083 31.824C17.4176 31.9627 17.7003 32.1653 17.9563 32.432C18.2123 32.688 18.4096 33.0027 18.5483 33.376C18.6976 33.7493 18.7723 34.1867 18.7723 34.688C18.7723 35.36 18.6389 35.9467 18.3723 36.448C18.1163 36.9387 17.7376 37.3227 17.2363 37.6C16.7456 37.8667 16.1323 38 15.3963 38H11.8123V26.8H15.1723ZM14.6763 31.392C15.1029 31.392 15.4496 31.3387 15.7163 31.232C15.9829 31.1147 16.1803 30.9333 16.3083 30.688C16.4363 30.4427 16.5003 30.1333 16.5003 29.76C16.5003 29.408 16.4363 29.12 16.3083 28.896C16.1803 28.672 15.9829 28.512 15.7163 28.416C15.4603 28.3093 15.1403 28.256 14.7563 28.256H13.3003V31.392H14.6763ZM15.0763 36.624C15.4176 36.624 15.7429 36.5653 16.0523 36.448C16.3616 36.32 16.6123 36.112 16.8043 35.824C16.9963 35.536 17.0923 35.1413 17.0923 34.64C17.0923 34.2667 17.0176 33.9413 16.8683 33.664C16.7189 33.3867 16.4896 33.1787 16.1803 33.04C15.8816 32.8907 15.5029 32.816 15.0443 32.816H13.3003V36.624H15.0763ZM24.754 35.664C24.9353 35.92 25.106 36.128 25.266 36.288C25.426 36.4373 25.5753 36.544 25.714 36.608C25.8633 36.672 26.0073 36.704 26.146 36.704H26.194V38H25.794C25.3993 38 25.058 37.9147 24.77 37.744C24.482 37.5733 24.2207 37.3493 23.986 37.072C23.762 36.7947 23.5433 36.512 23.33 36.224L21.954 34.304L21.362 34.848V38H19.874V29.808L21.362 30V32.976L24.114 30H25.954L23.01 33.216L24.754 35.664ZM31.7446 30H34.2246V37.984H32.7366V31.28H32.0486C31.8033 31.28 31.5846 31.3173 31.3926 31.392C31.2113 31.456 31.0566 31.5627 30.9286 31.712C30.8113 31.8507 30.71 32.048 30.6246 32.304L29.5686 35.904C29.4193 36.416 29.2593 36.832 29.0886 37.152C28.918 37.472 28.7046 37.7227 28.4486 37.904C28.1926 38.0747 27.8513 38.2133 27.4246 38.32L26.6406 37.584C26.886 37.4773 27.094 37.3547 27.2646 37.216C27.4353 37.0773 27.5846 36.912 27.7126 36.72C27.8406 36.5173 27.9473 36.2773 28.0326 36L29.1206 32.368C29.1953 32.1333 29.2806 31.8827 29.3766 31.616C29.4833 31.3493 29.6273 31.0933 29.8086 30.848C30.0006 30.592 30.2513 30.3893 30.5606 30.24C30.87 30.08 31.2646 30 31.7446 30ZM36.2663 33.344H39.7383V34.624H36.2663V33.344ZM44.9062 35.04C44.9062 35.9787 44.6663 36.736 44.1863 37.312C43.7063 37.8773 42.9756 38.16 41.9943 38.16C41.3009 38.16 40.7303 38.016 40.2823 37.728C39.8449 37.44 39.5196 37.0613 39.3063 36.592C39.0929 36.112 38.9863 35.5947 38.9863 35.04V32.928C38.9863 32.2453 39.0983 31.6747 39.3223 31.216C39.5569 30.7573 39.8983 30.4107 40.3463 30.176C40.7943 29.9307 41.3383 29.808 41.9783 29.808C42.9169 29.808 43.6369 30.0853 44.1383 30.64C44.6503 31.184 44.9062 31.9467 44.9062 32.928V35.04ZM43.4023 32.864C43.4023 32.5227 43.3489 32.2347 43.2423 32C43.1356 31.7547 42.9756 31.5733 42.7623 31.456C42.5596 31.328 42.2983 31.264 41.9783 31.264C41.6583 31.264 41.3863 31.328 41.1623 31.456C40.9383 31.5733 40.7676 31.7493 40.6503 31.984C40.5329 32.2187 40.4743 32.512 40.4743 32.864V35.184C40.4743 35.4613 40.5276 35.7227 40.6343 35.968C40.7516 36.2027 40.9223 36.3893 41.1463 36.528C41.3809 36.6667 41.6583 36.736 41.9783 36.736C42.3089 36.736 42.5756 36.672 42.7783 36.544C42.9916 36.4053 43.1463 36.2187 43.2423 35.984C43.3489 35.7493 43.4023 35.4827 43.4023 35.184V32.864ZM35.5303 38V30H37.0182V38H35.5303ZM50.4135 38V35.6C50.3175 35.728 50.1735 35.8453 49.9815 35.952C49.7895 36.048 49.5708 36.128 49.3255 36.192C49.0908 36.256 48.8562 36.288 48.6215 36.288C48.2588 36.288 47.9122 36.24 47.5815 36.144C47.2615 36.048 46.9788 35.8987 46.7335 35.696C46.4988 35.4933 46.3068 35.2213 46.1575 34.88C46.0188 34.5387 45.9495 34.1227 45.9495 33.632V30H47.4695V33.584C47.4695 33.8293 47.5068 34.0373 47.5815 34.208C47.6562 34.3787 47.7575 34.5173 47.8855 34.624C48.0242 34.7307 48.1788 34.8107 48.3495 34.864C48.5202 34.9067 48.7015 34.928 48.8935 34.928C49.1068 34.928 49.3042 34.8853 49.4855 34.8C49.6775 34.7147 49.8375 34.6027 49.9655 34.464C50.1042 34.3147 50.2108 34.1493 50.2855 33.968C50.3708 33.776 50.4135 33.5733 50.4135 33.36V31.616C50.4135 31.4027 50.4402 31.1947 50.4935 30.992C50.5575 30.7893 50.6535 30.6027 50.7815 30.432C50.9202 30.2507 51.0962 30.1067 51.3095 30C51.5228 29.8827 51.7842 29.8133 52.0935 29.792L52.5735 30.848C52.3175 30.912 52.1362 31.0347 52.0295 31.216C51.9335 31.3973 51.8855 31.6373 51.8855 31.936V38H50.4135ZM54.7991 30V35.376L57.6631 30H59.2311V38.016H57.7271V32.656L54.8631 38.016H53.3271V30H54.7991ZM63.3641 35.712C63.3641 35.9893 63.3961 36.2293 63.4601 36.432C63.5348 36.624 63.6468 36.7893 63.7961 36.928C63.9455 37.056 64.1428 37.1627 64.3881 37.248L63.7961 38.288C63.4868 38.2027 63.2095 38.0907 62.9641 37.952C62.7295 37.8027 62.5321 37.6267 62.3721 37.424C62.2121 37.2213 62.0895 36.992 62.0041 36.736C61.9295 36.4693 61.8921 36.1813 61.8921 35.872V31.376H60.2441V29.984H65.1081V31.376H63.3641V35.712ZM69.7069 33.152C70.1655 33.152 70.5975 33.2373 71.0029 33.408C71.4082 33.5787 71.7389 33.8453 71.9949 34.208C72.2509 34.56 72.3789 35.0187 72.3789 35.584C72.3789 36 72.2722 36.4053 72.0589 36.8C71.8562 37.1947 71.5415 37.52 71.1149 37.776C70.6989 38.0213 70.1655 38.144 69.5149 38.144C69.2909 38.144 69.0349 38.1387 68.7469 38.128C68.4695 38.1173 68.1815 38.1013 67.8829 38.08C67.5949 38.0587 67.3229 38.0373 67.0669 38.016C66.8109 38.0053 66.6029 37.9947 66.4429 37.984C66.2829 37.9733 66.1975 37.968 66.1869 37.968V30H67.6749V33.152H69.7069ZM69.2589 36.656C69.5789 36.656 69.8509 36.6187 70.0749 36.544C70.3095 36.4587 70.4962 36.336 70.6349 36.176C70.7735 36.0053 70.8429 35.8027 70.8429 35.568C70.8429 35.376 70.8109 35.216 70.7469 35.088C70.6829 34.9493 70.5922 34.8427 70.4749 34.768C70.3575 34.6827 70.2242 34.624 70.0749 34.592C69.9362 34.5493 69.7922 34.528 69.6429 34.528H67.6749V36.608C67.7602 36.608 67.8615 36.6133 67.9789 36.624C68.1069 36.624 68.2402 36.6293 68.3789 36.64C68.5282 36.64 68.6775 36.6453 68.8269 36.656C68.9869 36.656 69.1309 36.656 69.2589 36.656ZM24.6513 49H26.3313V57.016H24.8593V52.04L22.8433 57.016H21.6432L19.5953 52.024V57.016H18.1073V49H19.8193L22.2352 55.064L24.6513 49ZM28.7291 60.344L30.0891 56.792L27.2571 49H28.8411L30.8251 54.744L33.0171 49H34.5051L30.1691 60.344H28.7291ZM36.2678 50.344L36.2998 49.048C36.6091 48.9627 36.9024 48.904 37.1798 48.872C37.4571 48.8293 37.7291 48.808 37.9958 48.808C38.5504 48.8187 38.9931 48.9253 39.3238 49.128C39.6651 49.32 39.9211 49.5653 40.0918 49.864C40.2624 50.152 40.3638 50.4613 40.3958 50.792C40.4171 51.0053 40.3958 51.224 40.3318 51.448C40.2784 51.672 40.1878 51.88 40.0598 52.072C39.9424 52.264 39.7931 52.424 39.6118 52.552C39.9744 52.7547 40.2518 53.0427 40.4438 53.416C40.6464 53.7893 40.7478 54.1893 40.7478 54.616C40.7478 55.064 40.6358 55.4853 40.4118 55.88C40.1984 56.264 39.8731 56.5787 39.4358 56.824C39.0091 57.0587 38.4704 57.176 37.8198 57.176C37.3398 57.176 36.8811 57.128 36.4438 57.032C36.0064 56.936 35.5851 56.8027 35.1798 56.632L35.6118 55.272C35.7931 55.3573 35.9958 55.4373 36.2198 55.512C36.4438 55.5867 36.6784 55.6453 36.9238 55.688C37.1691 55.72 37.4091 55.736 37.6438 55.736C37.9531 55.736 38.2304 55.6933 38.4758 55.608C38.7211 55.512 38.9131 55.3787 39.0518 55.208C39.2011 55.0267 39.2758 54.8187 39.2758 54.584C39.2758 54.392 39.2331 54.2267 39.1478 54.088C39.0731 53.9493 38.9718 53.8373 38.8438 53.752C38.7158 53.656 38.5718 53.5867 38.4118 53.544C38.2518 53.5013 38.0918 53.48 37.9318 53.48H36.7478L36.3158 52.168H37.5158C37.8464 52.168 38.1131 52.12 38.3158 52.024C38.5291 51.9173 38.6838 51.784 38.7798 51.624C38.8758 51.4533 38.9238 51.2773 38.9238 51.096C38.9238 50.9573 38.8971 50.8347 38.8438 50.728C38.8011 50.6107 38.7371 50.5093 38.6518 50.424C38.5664 50.3387 38.4651 50.2747 38.3478 50.232C38.2304 50.1787 38.1024 50.1413 37.9638 50.12C37.7718 50.0987 37.5798 50.0987 37.3878 50.12C37.2064 50.1307 37.0251 50.1573 36.8438 50.2C36.6731 50.232 36.4811 50.28 36.2678 50.344ZM49.0104 57V49H50.4984V57H49.0104ZM45.3944 52.152C45.853 52.152 46.285 52.2373 46.6904 52.408C47.0957 52.5787 47.4264 52.8453 47.6824 53.208C47.9384 53.56 48.0664 54.0187 48.0664 54.584C48.0664 55 47.9597 55.4053 47.7464 55.8C47.5437 56.1947 47.229 56.52 46.8024 56.776C46.3864 57.0213 45.853 57.144 45.2024 57.144C44.9784 57.144 44.7224 57.1387 44.4344 57.128C44.157 57.1173 43.869 57.1013 43.5704 57.08C43.2824 57.0587 43.0104 57.0373 42.7544 57.016C42.4984 57.0053 42.2904 56.9947 42.1304 56.984C41.9704 56.9733 41.885 56.968 41.8744 56.968V49H43.3624V52.152H45.3944ZM44.9464 55.656C45.2664 55.656 45.5384 55.6187 45.7624 55.544C45.997 55.4587 46.1837 55.336 46.3224 55.176C46.461 55.0053 46.5304 54.8027 46.5304 54.568C46.5304 54.376 46.4984 54.216 46.4344 54.088C46.3704 53.9493 46.2797 53.8427 46.1624 53.768C46.045 53.6827 45.9117 53.624 45.7624 53.592C45.6237 53.5493 45.4797 53.528 45.3304 53.528H43.3624V55.608C43.4477 55.608 43.549 55.6133 43.6664 55.624C43.7944 55.624 43.9277 55.6293 44.0664 55.64C44.2157 55.64 44.365 55.6453 44.5144 55.656C44.6744 55.656 44.8184 55.656 44.9464 55.656ZM56.6915 54.664C56.8728 54.92 57.0435 55.128 57.2035 55.288C57.3635 55.4373 57.5128 55.544 57.6515 55.608C57.8008 55.672 57.9448 55.704 58.0835 55.704H58.1315V57H57.7315C57.3368 57 56.9955 56.9147 56.7075 56.744C56.4195 56.5733 56.1582 56.3493 55.9235 56.072C55.6995 55.7947 55.4808 55.512 55.2675 55.224L53.8915 53.304L53.2995 53.848V57H51.8115V48.808L53.2995 49V51.976L56.0515 49H57.8915L54.9475 52.216L56.6915 54.664ZM60.3541 60.344L61.7141 56.792L58.8821 49H60.4661L62.4501 54.744L64.6421 49H66.1301L61.7941 60.344H60.3541Z" fill="#FFF5D1"/>
</svg>
