<svg width="333" height="62" viewBox="0 0 333 62" fill="none" xmlns="http://www.w3.org/2000/svg">
<path d="M47.616 52.16C47.8293 49.5573 48.2347 46.656 48.832 43.456C49.472 40.2133 50.1973 36.9067 51.008 33.536C51.8613 30.1227 52.7787 26.7947 53.76 23.552C54.784 20.3093 55.808 17.3227 56.832 14.592C57.8987 11.8613 58.9227 9.57866 59.904 7.744C57.8133 9.45066 55.7653 11.5413 53.76 14.016C51.7547 16.448 49.8133 19.072 47.936 21.888C46.1013 24.6613 44.352 27.4133 42.688 30.144C41.0667 32.832 39.5947 35.3067 38.272 37.568C36.9493 39.8293 35.8187 41.664 34.88 43.072C34.1973 44.096 33.344 45.376 32.32 46.912C31.296 48.448 30.1013 50.0693 28.736 51.776C27.3707 53.4827 25.8133 55.0827 24.064 56.576C22.3573 58.0693 20.4587 59.2853 18.368 60.224C16.2773 61.1627 13.9947 61.632 11.52 61.632C9.00267 61.632 6.89067 61.0773 5.184 59.968C3.47733 58.9013 2.176 57.4933 1.28 55.744C0.426667 53.9947 0 52.16 0 50.24C0 48.2347 0.426667 46.2933 1.28 44.416C2.13333 42.496 3.264 40.7253 4.672 39.104C6.12267 37.4827 7.744 36.1173 9.536 35.008C11.3707 33.8987 13.248 33.1307 15.168 32.704C15.3387 32.6613 15.488 32.64 15.616 32.64C15.9147 32.64 16.064 32.768 16.064 33.024C16.064 33.152 15.8293 33.344 15.36 33.6C11.7333 35.5627 9.024 38.0373 7.232 41.024C5.44 44.0107 4.544 46.9547 4.544 49.856C4.544 51.4773 4.90667 52.9707 5.632 54.336C6.35733 55.7013 7.36 56.768 8.64 57.536C9.92 58.3467 11.392 58.752 13.056 58.752C15.3173 58.752 17.3867 58.24 19.264 57.216C21.1413 56.2347 22.8693 54.912 24.448 53.248C26.0267 51.6267 27.52 49.856 28.928 47.936C30.3787 45.9733 31.7653 44.0533 33.088 42.176C33.9413 41.024 34.9653 39.4667 36.16 37.504C37.3547 35.4987 38.6987 33.28 40.192 30.848C41.728 28.3733 43.3493 25.8347 45.056 23.232C46.8053 20.6293 48.6187 18.112 50.496 15.68C52.3733 13.248 54.272 11.0507 56.192 9.088C58.1547 7.12533 60.1173 5.568 62.08 4.416C62.5493 4.11733 62.976 3.904 63.36 3.776C63.7867 3.648 64.384 3.584 65.152 3.584C65.664 3.584 65.856 3.75466 65.728 4.096C65.6 4.39466 65.3867 4.75733 65.088 5.18399C64.1067 6.67733 63.0827 8.68266 62.016 11.2C60.992 13.6747 59.968 16.4907 58.944 19.648C57.9627 22.8053 57.024 26.0907 56.128 29.504C55.232 32.9173 54.4213 36.3307 53.696 39.744C52.9707 43.1147 52.3947 46.2507 51.968 49.152C56.064 41.7707 60.16 35.072 64.256 29.056C68.3947 23.04 72.448 17.856 76.416 13.504C80.4267 9.15199 84.288 5.78133 88 3.39199C88.5973 2.752 89.4293 2.02666 90.496 1.216C91.5627 0.405329 92.5867 -3.8147e-06 93.568 -3.8147e-06C94.1653 -3.8147e-06 94.656 0.170662 95.04 0.511993C95.4667 0.810661 95.68 1.19466 95.68 1.66399C95.68 2.13333 95.3813 2.66666 94.784 3.264C94.2293 3.81866 93.4187 4.26666 92.352 4.60799C92.0533 4.69333 91.712 4.8 91.328 4.92799C90.9867 5.01333 90.6027 5.09866 90.176 5.18399C88.384 7.872 86.4 11.3493 84.224 15.616C82.0907 19.84 80.128 24.5333 78.336 29.696C77.3547 32.5547 76.416 35.4987 75.52 38.528C74.6667 41.5147 74.24 44.288 74.24 46.848C74.24 47.7867 74.4107 48.6827 74.752 49.536C75.0933 50.3893 75.7333 50.816 76.672 50.816C77.7813 50.816 78.9973 50.2187 80.32 49.024C81.6427 47.7867 82.944 46.208 84.224 44.288C85.504 42.368 86.5707 40.3413 87.424 38.208C87.936 38.208 88.192 38.4 88.192 38.784C87.168 41.1307 85.952 43.4133 84.544 45.632C83.1787 47.8507 81.664 49.664 80 51.072C78.3787 52.5227 76.672 53.248 74.88 53.248C73.472 53.248 72.32 52.736 71.424 51.712C70.5707 50.688 70.144 49.1733 70.144 47.168C70.144 45.4613 70.4213 43.3707 70.976 40.896C71.5733 38.3787 72.3627 35.6693 73.344 32.768C74.368 29.824 75.4773 26.8587 76.672 23.872C78.208 20.16 79.7013 16.9173 81.152 14.144C82.6027 11.328 83.9467 8.98133 85.184 7.104C81.6427 9.92 77.9947 13.632 74.24 18.24C70.528 22.8053 66.7947 28.0533 63.04 33.984C59.2853 39.9147 55.552 46.336 51.84 53.248C51.4987 53.888 50.9653 54.2507 50.24 54.336C49.5573 54.464 48.9387 54.336 48.384 53.952C47.8293 53.6107 47.5733 53.0133 47.616 52.16ZM100.843 42.56C100.416 43.456 99.9252 44.3093 99.3705 45.12C99.5412 45.1627 99.7332 45.184 99.9465 45.184C100.971 45.184 102.059 44.672 103.211 43.648C104.405 42.5813 105.579 40.7893 106.731 38.272C107.413 36.7787 108.096 35.3067 108.779 33.856C109.504 32.3627 110.144 31.04 110.699 29.888C110.955 29.376 111.296 29.0347 111.723 28.864C112.149 28.6507 112.661 28.544 113.259 28.544H116.715C115.989 29.0987 115.371 29.6533 114.859 30.208C114.389 30.72 113.856 31.4453 113.259 32.384C112.704 33.28 111.936 34.624 110.955 36.416C110.571 37.1413 110.101 38.1653 109.547 39.488C109.035 40.768 108.565 42.112 108.139 43.52C107.712 44.928 107.499 46.1653 107.499 47.232C107.499 47.872 107.584 48.4053 107.755 48.832C107.968 49.2587 108.352 49.472 108.907 49.472C109.717 49.472 110.549 49.1307 111.403 48.448C112.256 47.7227 113.088 46.8053 113.899 45.696C114.709 44.544 115.456 43.3067 116.139 41.984C116.864 40.6613 117.483 39.4027 117.995 38.208C118.507 38.208 118.763 38.4 118.763 38.784C118.251 40.064 117.611 41.4293 116.843 42.88C116.117 44.288 115.264 45.6107 114.283 46.848C113.344 48.0853 112.299 49.1093 111.147 49.92C110.037 50.688 108.843 51.072 107.563 51.072C106.709 51.072 105.899 50.752 105.131 50.112C104.363 49.4293 103.979 48.384 103.979 46.976C103.979 46.1227 104.192 44.992 104.619 43.584C103.851 44.608 103.061 45.312 102.251 45.696C101.44 46.08 100.565 46.272 99.6265 46.272C99.2425 46.272 98.9012 46.2507 98.6025 46.208C97.4505 47.5733 96.1278 48.7253 94.6345 49.664C93.1412 50.56 91.4985 51.008 89.7065 51.008C87.9572 51.008 86.6985 50.5173 85.9305 49.536C85.2052 48.5547 84.8425 47.3387 84.8425 45.888C84.8425 45.0347 84.9492 44.2027 85.1625 43.392C85.3758 42.5813 85.6318 41.7707 85.9305 40.96C86.3572 39.936 86.9545 38.6987 87.7225 37.248C88.4905 35.7973 89.3438 34.368 90.2825 32.96C91.2212 31.552 92.1598 30.3787 93.0985 29.44C94.0372 28.5013 94.8692 28.032 95.5945 28.032C95.9358 28.032 96.2985 28.096 96.6825 28.224C97.0665 28.3093 97.4718 28.352 97.8985 28.352C98.0692 28.352 98.2185 28.3307 98.3465 28.288C98.0905 28.416 97.6852 28.8213 97.1305 29.504C96.5758 30.144 95.9358 30.9333 95.2105 31.872C94.5278 32.8107 93.8238 33.7707 93.0985 34.752C92.3732 35.7333 91.7332 36.608 91.1785 37.376C91.9038 36.608 92.8638 35.84 94.0585 35.072C95.2532 34.2613 96.5118 33.856 97.8345 33.856C99.2852 33.856 100.352 34.2613 101.035 35.072C101.717 35.8827 102.059 36.8427 102.059 37.952C102.059 38.72 101.931 39.5307 101.675 40.384C101.461 41.1947 101.184 41.92 100.843 42.56ZM94.7625 42.432C94.7625 41.8347 94.9545 41.3653 95.3385 41.024C95.7225 40.6827 96.1492 40.512 96.6185 40.512C97.0878 40.512 97.4292 40.64 97.6425 40.896C97.8985 41.152 98.0265 41.4507 98.0265 41.792C98.0265 41.92 98.0265 42.0267 98.0265 42.112C98.2825 41.3867 98.4532 40.7253 98.5385 40.128C98.6238 39.5307 98.6665 39.04 98.6665 38.656C98.6665 37.8027 98.4958 37.0987 98.1545 36.544C97.8132 35.9467 97.2158 35.648 96.3625 35.648C95.2958 35.648 94.1225 36.2453 92.8425 37.44C91.5625 38.6347 90.4105 40.1707 89.3865 42.048C88.7465 43.2427 88.2772 44.288 87.9785 45.184C87.7225 46.08 87.5945 46.9333 87.5945 47.744C87.5945 48.4267 87.7652 48.9813 88.1065 49.408C88.4478 49.8347 89.0665 50.048 89.9625 50.048C90.7732 50.048 91.7758 49.6213 92.9705 48.768C94.2078 47.9147 95.3385 46.7413 96.3625 45.248C95.2958 44.48 94.7625 43.5413 94.7625 42.432ZM138.629 43.136V43.072C137.221 45.2053 135.578 47.04 133.701 48.576C131.866 50.0693 130.096 50.816 128.389 50.816C127.066 50.816 126.042 50.4747 125.317 49.792C124.592 49.1093 124.229 48.2773 124.229 47.296C124.229 46.144 124.634 45.0773 125.445 44.096C126.256 43.1147 127.13 42.624 128.069 42.624C128.41 42.624 128.709 42.752 128.965 43.008C128.368 43.6907 127.856 44.5013 127.429 45.44C127.002 46.336 126.789 47.1467 126.789 47.872V48.064C126.789 48.96 127.173 49.408 127.941 49.408C128.581 49.408 129.328 49.1093 130.181 48.512C131.034 47.872 131.866 47.1253 132.677 46.272C133.53 45.376 134.192 44.5867 134.661 43.904C135.088 43.3067 135.621 42.4107 136.261 41.216C136.901 40.0213 137.477 38.6773 137.989 37.184C138.501 35.6907 138.757 34.24 138.757 32.832C138.8 31.7227 138.629 30.8693 138.245 30.272C137.904 29.6747 137.434 29.376 136.837 29.376C135.984 29.376 135.216 29.696 134.533 30.336C133.85 30.976 133.125 32.1707 132.357 33.92C131.802 33.9627 131.44 33.8773 131.269 33.664C131.098 33.4507 131.013 33.216 131.013 32.96C131.013 32.448 131.376 31.808 132.101 31.04C132.826 30.272 133.722 29.5893 134.789 28.992C135.856 28.352 136.88 28.032 137.861 28.032C139.226 28.032 140.293 28.48 141.061 29.376C141.872 30.272 142.277 31.5093 142.277 33.088C142.277 33.9413 142.149 34.8587 141.893 35.84C141.68 36.7787 141.36 37.7387 140.933 38.72C141.786 37.696 142.725 36.6293 143.749 35.52C144.773 34.368 145.754 33.3013 146.693 32.32C147.674 31.296 148.528 30.464 149.253 29.824C149.978 29.1413 150.469 28.7787 150.725 28.736C151.28 28.9067 151.6 29.184 151.685 29.568C151.813 29.952 151.856 30.3147 151.813 30.656C151.77 30.9547 151.664 31.3387 151.493 31.808C151.365 32.2347 151.066 32.832 150.597 33.6C149.786 34.9653 148.997 36.4373 148.229 38.016C147.461 39.552 146.586 41.5147 145.605 43.904C147.568 41.088 149.616 38.528 151.749 36.224C153.925 33.92 156.037 32.0213 158.085 30.528C159.066 29.7173 160.048 29.0773 161.029 28.608C162.053 28.1387 162.97 27.904 163.781 27.904C164.805 27.904 165.637 28.2453 166.277 28.928C166.917 29.6107 167.237 30.4427 167.237 31.424C167.237 32.2347 167.024 33.0027 166.597 33.728C166.17 34.4533 165.68 35.0507 165.125 35.52C164.57 35.9467 164.101 36.16 163.717 36.16C163.461 36.16 163.205 36.032 162.949 35.776C163.29 35.3067 163.653 34.7733 164.037 34.176C164.464 33.5787 164.762 33.0027 164.933 32.448C165.061 31.936 165.125 31.424 165.125 30.912C165.125 30.3147 164.997 29.9093 164.741 29.696C164.485 29.44 164.122 29.312 163.653 29.312C162.714 29.312 161.733 29.824 160.709 30.848C159.685 31.872 158.746 33.1947 157.893 34.816C157.04 36.3947 156.336 38.08 155.781 39.872C155.226 41.664 154.928 43.3067 154.885 44.8C154.842 45.9093 155.013 46.976 155.397 48C155.781 48.9813 156.549 49.472 157.701 49.472C159.024 49.472 160.325 48.9387 161.605 47.872C162.928 46.8053 164.186 45.4187 165.381 43.712C166.576 41.9627 167.621 40.128 168.517 38.208C168.688 38.208 168.858 38.2507 169.029 38.336C169.2 38.3787 169.285 38.528 169.285 38.784C168.346 40.9173 167.216 42.9013 165.893 44.736C164.613 46.5707 163.184 48.0427 161.605 49.152C160.069 50.2613 158.448 50.816 156.741 50.816C154.949 50.816 153.584 50.2187 152.645 49.024C151.749 47.8293 151.301 46.3787 151.301 44.672C151.301 43.1787 151.6 41.5147 152.197 39.68C152.837 37.8453 153.605 36.1813 154.501 34.688C152.965 36.096 151.45 37.696 149.957 39.488C148.506 41.28 147.226 43.1147 146.117 44.992C145.008 46.8693 144.24 48.5973 143.813 50.176C143.216 50.176 142.81 49.92 142.597 49.408C142.384 48.8533 142.277 48.2773 142.277 47.68C142.277 46.4427 142.554 45.0133 143.109 43.392C143.664 41.7707 144.197 40.4053 144.709 39.296C145.434 37.8027 146.096 36.5013 146.693 35.392C147.29 34.24 147.802 33.28 148.229 32.512C148.058 32.512 147.696 32.7893 147.141 33.344C146.629 33.856 146.032 34.496 145.349 35.264C144.709 36.032 144.112 36.736 143.557 37.376C142.277 38.8267 141.232 40 140.421 40.896C139.61 41.792 139.013 42.5387 138.629 43.136ZM173.134 50.816C171.555 50.816 170.126 50.304 168.846 49.28C167.609 48.256 166.99 46.6987 166.99 44.608C166.99 42.8587 167.374 41.0027 168.142 39.04C168.953 37.0773 169.998 35.2427 171.278 33.536C172.601 31.7867 174.051 30.3787 175.63 29.312C177.251 28.2027 178.873 27.648 180.494 27.648C181.305 27.648 182.094 27.8827 182.862 28.352C183.63 28.8213 184.014 29.632 184.014 30.784C184.014 31.8507 183.609 33.024 182.798 34.304C181.987 35.584 180.835 36.7787 179.342 37.888C178.702 38.3573 177.891 38.8053 176.91 39.232C175.929 39.6587 174.947 40.0213 173.966 40.32C172.985 40.576 172.174 40.704 171.534 40.704C171.321 41.216 171.107 41.8987 170.894 42.752C170.723 43.6053 170.638 44.48 170.638 45.376C170.638 46.4427 170.851 47.4027 171.278 48.256C171.705 49.1093 172.494 49.536 173.646 49.536C175.054 49.536 176.355 49.1307 177.55 48.32C178.787 47.5093 179.875 46.4853 180.814 45.248C181.795 44.0107 182.627 42.752 183.31 41.472C183.993 40.192 184.526 39.104 184.91 38.208C185.422 38.208 185.678 38.4 185.678 38.784C185.123 39.9787 184.483 41.28 183.758 42.688C183.075 44.096 182.243 45.4187 181.262 46.656C180.323 47.8507 179.171 48.8533 177.806 49.664C176.483 50.432 174.926 50.816 173.134 50.816ZM171.982 39.552C172.579 39.552 173.582 39.3387 174.99 38.912C176.398 38.4427 177.678 37.7173 178.83 36.736C179.939 35.7547 180.793 34.688 181.39 33.536C181.987 32.3413 182.286 31.3387 182.286 30.528C182.286 29.5893 181.945 29.12 181.262 29.12C180.75 29.12 180.046 29.4613 179.15 30.144C178.254 30.8267 177.145 31.9787 175.822 33.6C175.011 34.624 174.243 35.7333 173.518 36.928C172.793 38.1227 172.281 38.9973 171.982 39.552ZM184.389 49.6C184.346 50.0267 184.09 50.3253 183.621 50.496C183.194 50.624 182.768 50.688 182.341 50.688C181.658 50.688 181.146 50.7947 180.805 51.008C180.805 50.1547 181.04 48.96 181.509 47.424C181.978 45.8453 182.533 44.16 183.173 42.368C183.856 40.5333 184.538 38.8267 185.221 37.248C185.946 35.6267 186.544 34.368 187.013 33.472C188.037 31.5947 188.89 30.4 189.573 29.888C190.298 29.376 191.13 29.12 192.069 29.12C192.922 29.12 193.52 29.1627 193.861 29.248C194.245 29.2907 194.522 29.312 194.693 29.312C193.754 29.824 192.645 31.0187 191.365 32.896C190.128 34.7733 188.954 36.864 187.845 39.168C188.186 38.8267 188.57 38.5493 188.997 38.336C189.466 38.1227 190 38.016 190.597 38.016C191.408 38.016 192.112 38.1653 192.709 38.464C193.306 38.72 194.138 38.848 195.205 38.848C196.016 38.848 196.549 38.592 196.805 38.08C197.488 36.544 198.192 35.0507 198.917 33.6C199.642 32.1067 200.24 30.8693 200.709 29.888C200.965 29.3333 201.306 28.9707 201.733 28.8C202.202 28.6293 202.714 28.544 203.269 28.544H206.725C206 29.1413 205.381 29.696 204.869 30.208C204.4 30.6773 203.93 31.2533 203.461 31.936C203.034 32.6187 202.48 33.6 201.797 34.88C201.242 35.9467 200.581 37.3333 199.813 39.04C199.045 40.7467 198.469 42.2613 198.085 43.584C197.914 44.0533 197.765 44.608 197.637 45.248C197.552 45.888 197.509 46.4853 197.509 47.04C197.509 47.7227 197.616 48.2987 197.829 48.768C198.042 49.2373 198.405 49.472 198.917 49.472C199.728 49.472 200.56 49.1307 201.413 48.448C202.266 47.7227 203.098 46.8053 203.909 45.696C204.72 44.544 205.466 43.3067 206.149 41.984C206.874 40.6613 207.493 39.4027 208.005 38.208C208.346 38.208 208.56 38.2507 208.645 38.336C208.73 38.4213 208.773 38.5707 208.773 38.784C208.261 40.064 207.621 41.4293 206.853 42.88C206.128 44.288 205.274 45.6107 204.293 46.848C203.354 48.0853 202.309 49.1093 201.157 49.92C200.048 50.688 198.853 51.072 197.573 51.072C196.293 51.072 195.376 50.688 194.821 49.92C194.309 49.152 194.053 48.192 194.053 47.04C194.053 46.4427 194.117 45.8027 194.245 45.12C194.416 44.4373 194.608 43.7547 194.821 43.072C194.992 42.56 195.184 42.0267 195.397 41.472C195.61 40.8747 195.845 40.2987 196.101 39.744C195.845 40.0853 195.525 40.3627 195.141 40.576C194.757 40.7467 194.266 40.832 193.669 40.832C193.072 40.832 192.581 40.7467 192.197 40.576C191.813 40.4053 191.408 40.2347 190.981 40.064C190.554 39.8933 190 39.808 189.317 39.808C188.89 39.808 188.442 39.8933 187.973 40.064C187.546 40.2347 187.205 40.6187 186.949 41.216C186.309 42.7093 185.754 44.1813 185.285 45.632C184.858 47.0827 184.56 48.4053 184.389 49.6ZM229.21 43.84C228.271 45.5893 227.162 47.1467 225.882 48.512C224.645 49.8773 223.215 50.56 221.594 50.56C220.527 50.56 219.653 50.176 218.97 49.408C218.287 48.5973 217.946 47.4667 217.946 46.016C217.946 44.864 218.159 43.6267 218.586 42.304C217.861 43.584 217.029 44.864 216.09 46.144C215.151 47.424 214.149 48.4907 213.082 49.344C212.015 50.1547 210.949 50.56 209.882 50.56C209.413 50.56 208.837 50.4533 208.154 50.24C207.514 50.0267 206.938 49.6427 206.426 49.088C205.957 48.4907 205.722 47.616 205.722 46.464C205.722 45.3547 206.085 44.0747 206.81 42.624C207.535 41.1733 208.175 39.8933 208.73 38.784C208.261 38.784 208.026 38.592 208.026 38.208C208.069 38.08 208.261 37.6747 208.602 36.992C208.943 36.3093 209.349 35.4987 209.818 34.56C210.287 33.6213 210.735 32.7253 211.162 31.872C211.631 30.976 211.994 30.2933 212.25 29.824C212.762 28.8853 213.573 28.416 214.682 28.416H218.65C217.925 28.9707 217.263 29.5893 216.666 30.272C216.111 30.912 215.407 32.1067 214.554 33.856C214.554 33.856 214.405 34.1547 214.106 34.752C213.807 35.3493 213.423 36.1173 212.954 37.056C212.527 37.952 212.079 38.8693 211.61 39.808C211.183 40.7467 210.821 41.536 210.522 42.176C209.967 43.3707 209.605 44.3307 209.434 45.056C209.263 45.7387 209.178 46.3787 209.178 46.976C209.178 48.384 209.647 49.088 210.586 49.088C211.61 49.088 212.847 48.256 214.298 46.592C215.493 45.184 216.666 43.4987 217.818 41.536C218.97 39.5733 220.058 37.5467 221.082 35.456C222.149 33.3653 223.087 31.488 223.898 29.824C224.367 28.8853 225.199 28.416 226.394 28.416H229.914C228.975 29.184 228.015 30.336 227.034 31.872C226.095 33.408 225.05 35.3707 223.898 37.76C223.599 38.4 223.215 39.2107 222.746 40.192C222.277 41.1733 221.85 42.2187 221.466 43.328C221.125 44.4373 220.954 45.5467 220.954 46.656C220.954 48.1493 221.487 48.896 222.554 48.896C223.535 48.896 224.517 48.4053 225.498 47.424C226.479 46.4 227.439 45.0347 228.378 43.328C228.933 43.328 229.21 43.4987 229.21 43.84ZM229.751 47.616C229.751 48.0427 229.836 48.448 230.007 48.832C230.22 49.1733 230.561 49.344 231.031 49.344C231.884 49.344 232.759 48.896 233.655 48C234.551 47.0613 235.468 45.8667 236.407 44.416C237.388 42.9227 238.348 41.3867 239.287 39.808C240.78 37.2907 242.081 35.2 243.191 33.536C244.343 31.872 245.409 30.6347 246.391 29.824C247.031 29.2693 247.585 28.928 248.055 28.8C248.524 28.6293 248.993 28.544 249.463 28.544H249.911C251.66 28.544 252.151 29.3547 251.383 30.976L249.079 35.776C248.695 36.544 248.225 37.504 247.671 38.656C247.159 39.7653 246.647 40.9173 246.135 42.112C245.623 43.264 245.217 44.3733 244.919 45.44C244.62 46.464 244.513 47.296 244.599 47.936C244.684 48.576 245.068 48.896 245.751 48.896C246.305 48.896 246.967 48.4267 247.735 47.488C248.545 46.5067 249.399 45.2693 250.295 43.776C251.233 42.2827 252.172 40.704 253.111 39.04C254.092 37.376 255.052 35.7973 255.991 34.304C256.972 32.8107 257.889 31.616 258.743 30.72C258.956 30.5067 259.425 30.1013 260.151 29.504C260.876 28.864 261.58 28.544 262.263 28.544H262.711C263.479 28.544 264.012 28.736 264.311 29.12C264.609 29.4613 264.545 30.08 264.119 30.976L261.879 35.776C261.495 36.544 261.025 37.504 260.471 38.656C259.959 39.7653 259.447 40.9173 258.935 42.112C258.465 43.264 258.081 44.3733 257.783 45.44C257.527 46.464 257.441 47.296 257.527 47.936C257.655 48.576 258.081 48.896 258.807 48.896C259.873 48.896 260.919 48.3413 261.943 47.232C263.009 46.1227 264.012 44.7573 264.951 43.136C265.889 41.472 266.721 39.8293 267.447 38.208C267.617 38.208 267.788 38.272 267.959 38.4C268.129 38.4853 268.215 38.6133 268.215 38.784C267.447 40.704 266.551 42.56 265.527 44.352C264.545 46.144 263.415 47.616 262.135 48.768C260.855 49.92 259.383 50.496 257.719 50.496C256.311 50.496 255.351 50.0693 254.839 49.216C254.327 48.3627 254.156 47.232 254.327 45.824C254.54 44.3733 254.967 42.7733 255.607 41.024C256.289 39.232 257.1 37.4187 258.039 35.584C258.977 33.7493 259.937 32.0213 260.919 30.4C261.089 30.1013 261.089 29.952 260.919 29.952C260.791 29.952 260.513 30.1867 260.087 30.656C259.66 31.1253 259.404 31.4027 259.319 31.488C258.209 32.7253 257.164 34.176 256.183 35.84C255.244 37.4613 254.305 39.1253 253.367 40.832C252.471 42.5387 251.553 44.1387 250.615 45.632C249.676 47.0827 248.695 48.256 247.671 49.152C246.647 50.048 245.516 50.496 244.279 50.496C242.913 50.496 242.039 49.9413 241.655 48.832C241.313 47.68 241.356 46.144 241.783 44.224C242.252 42.304 243.041 40.1493 244.151 37.76C245.26 35.3707 246.583 32.9173 248.119 30.4C248.289 30.1013 248.268 29.952 248.055 29.952C247.841 29.952 247.393 30.2933 246.711 30.976C246.241 31.4453 245.772 31.9787 245.303 32.576C244.876 33.1733 244.3 34.0693 243.575 35.264C242.849 36.416 241.825 38.144 240.503 40.448C239.521 42.1547 238.497 43.7973 237.431 45.376C236.407 46.9547 235.319 48.256 234.167 49.28C233.015 50.2613 231.756 50.752 230.391 50.752C229.367 50.752 228.449 50.4533 227.639 49.856C226.828 49.216 226.422 48.2987 226.422 47.104C226.422 46.3787 226.593 45.5893 226.934 44.736C227.233 43.8827 227.681 43.1573 228.279 42.56C228.919 41.9627 229.687 41.7067 230.583 41.792C231.18 41.8347 231.713 42.0693 232.183 42.496C231.415 43.2213 230.817 44.0747 230.391 45.056C229.964 46.0373 229.751 46.8907 229.751 47.616ZM272.968 50.816C270.621 50.816 268.872 50.1973 267.72 48.96C266.61 47.7227 266.056 46.0587 266.056 43.968C266.056 42.9867 266.248 41.856 266.632 40.576C267.016 39.296 267.528 37.9947 268.168 36.672C268.808 35.3493 269.512 34.176 270.28 33.152C271.517 31.488 272.882 30.208 274.376 29.312C275.869 28.3733 277.384 27.904 278.92 27.904C280.541 27.904 281.693 28.2667 282.376 28.992C283.101 29.6747 283.464 30.4853 283.464 31.424C283.464 32.32 283.25 33.1307 282.824 33.856C282.397 34.5387 281.906 35.0933 281.352 35.52C280.84 35.9467 280.392 36.16 280.008 36.16C279.666 36.16 279.368 36.032 279.112 35.776C279.453 35.3493 279.816 34.8373 280.2 34.24C280.584 33.6427 280.861 33.0667 281.032 32.512C281.202 32 281.288 31.488 281.288 30.976C281.288 29.8667 280.776 29.312 279.752 29.312C278.514 29.312 277.298 29.824 276.104 30.848C274.952 31.872 273.885 33.1947 272.904 34.816C271.965 36.3947 271.197 38.08 270.6 39.872C270.045 41.6213 269.768 43.2427 269.768 44.736C269.768 46.1013 270.045 47.232 270.6 48.128C271.197 49.024 272.157 49.472 273.48 49.472C275.357 49.472 276.957 48.8533 278.28 47.616C279.645 46.336 280.861 44.8 281.928 43.008C282.269 43.008 282.44 43.3707 282.44 44.096C281.288 46.0587 279.922 47.68 278.344 48.96C276.808 50.1973 275.016 50.816 272.968 50.816ZM284.532 49.6C285.257 49.6 286.153 49.1947 287.22 48.384C288.329 47.5307 289.481 46.464 290.676 45.184C291.871 43.8613 292.98 42.4747 294.004 41.024C293.492 41.152 292.959 41.216 292.404 41.216C290.868 41.216 289.737 40.8107 289.012 40C288.329 39.1893 287.988 38.1867 287.988 36.992C287.988 35.712 288.351 34.3893 289.076 33.024C289.801 31.616 290.804 30.4427 292.084 29.504C293.407 28.5653 294.879 28.096 296.5 28.096C298.633 28.096 299.913 29.0133 300.34 30.848C300.468 30.5067 300.617 30.1867 300.788 29.888C301.044 29.376 301.385 29.0347 301.812 28.864C302.239 28.6507 302.751 28.544 303.348 28.544H306.804C306.42 28.8427 305.695 29.5467 304.628 30.656C303.604 31.7227 302.409 33.6427 301.044 36.416C300.575 37.3547 300.063 38.464 299.508 39.744C298.953 41.024 298.484 42.3253 298.1 43.648C297.716 44.9707 297.524 46.144 297.524 47.168C297.524 48.576 298.015 49.28 298.996 49.28C299.807 49.28 300.617 48.9173 301.428 48.192C302.281 47.424 303.092 46.464 303.86 45.312C304.671 44.16 305.417 42.9653 306.1 41.728C306.783 40.448 307.337 39.2747 307.764 38.208C308.276 38.208 308.532 38.4 308.532 38.784C308.063 39.8933 307.465 41.152 306.74 42.56C306.057 43.968 305.247 45.3333 304.308 46.656C303.369 47.936 302.324 49.0027 301.172 49.856C300.063 50.6667 298.825 51.072 297.46 51.072C296.265 51.072 295.412 50.7307 294.9 50.048C294.431 49.3653 294.196 48.4693 294.196 47.36C294.196 46.2933 294.367 45.1413 294.708 43.904C295.049 42.6667 295.455 41.4507 295.924 40.256V40.32C294.644 42.0693 293.321 43.7547 291.956 45.376C290.591 46.9973 289.204 48.3413 287.796 49.408C286.388 50.4747 285.044 51.008 283.764 51.008C282.527 51.008 281.567 50.6453 280.884 49.92C280.201 49.1947 279.86 48.2773 279.86 47.168C279.86 46.3147 280.073 45.504 280.5 44.736C280.927 43.968 281.46 43.328 282.1 42.816C282.74 42.304 283.401 42.048 284.084 42.048C284.383 42.048 284.66 42.0907 284.916 42.176C285.215 42.2613 285.492 42.4107 285.748 42.624C284.937 43.3067 284.319 44.1387 283.892 45.12C283.465 46.1013 283.252 46.9547 283.252 47.68C283.252 48.192 283.337 48.64 283.508 49.024C283.721 49.408 284.063 49.6 284.532 49.6ZM293.044 40.256C294.111 40.256 295.049 39.8293 295.86 38.976C296.671 38.08 297.311 36.992 297.78 35.712C298.292 34.3893 298.548 33.1307 298.548 31.936C298.548 30.1013 297.993 29.184 296.884 29.184C296.201 29.184 295.519 29.4827 294.836 30.08C294.153 30.6347 293.513 31.3813 292.916 32.32C292.319 33.216 291.828 34.1547 291.444 35.136C291.103 36.1173 290.932 37.0133 290.932 37.824C290.932 38.5067 291.081 39.0827 291.38 39.552C291.721 40.0213 292.276 40.256 293.044 40.256ZM314.111 43.712L313.407 43.584L313.47 43.2L326.591 12.032C326.804 11.4347 327.209 11.072 327.807 10.944C328.404 10.816 329.044 10.752 329.727 10.752H331.775L332.095 10.944L332.223 11.264C332.137 11.5627 331.796 12.3093 331.199 13.504C330.601 14.656 329.812 16.128 328.831 17.92C327.849 19.6693 326.761 21.6107 325.567 23.744C324.372 25.8347 323.156 27.9467 321.919 30.08C320.724 32.1707 319.572 34.1547 318.463 36.032C317.396 37.9093 316.479 39.5307 315.711 40.896C314.943 42.2613 314.409 43.2 314.111 43.712ZM311.615 51.52C310.804 51.52 310.185 51.2427 309.759 50.688C309.332 50.1333 309.14 49.4933 309.183 48.768C309.183 48 309.481 47.3813 310.079 46.912C310.676 46.4427 311.316 46.208 311.999 46.208C312.681 46.208 313.257 46.4213 313.727 46.848C314.196 47.232 314.452 47.744 314.495 48.384C314.58 49.1947 314.324 49.92 313.727 50.56C313.129 51.2 312.425 51.52 311.615 51.52Z" fill="#3E2723"/>
</svg>
