<svg width="363" height="317" viewBox="0 0 363 317" fill="none" xmlns="http://www.w3.org/2000/svg">
<path d="M3.75344 63.3616C3.95271 60.3983 4.95976 58.1658 6.7746 56.6642C8.59145 55.1327 10.9815 54.4665 13.9448 54.6658C16.8782 54.863 19.1117 55.8551 20.6452 57.6421C22.1808 59.399 22.85 61.7442 22.6527 64.6776L21.6836 79.09C21.5608 80.9159 21.065 82.4762 20.1962 83.7708C19.3294 85.0355 18.1534 85.9787 16.6684 86.6005C15.2152 87.1943 13.5608 87.4289 11.705 87.3041C9.93896 87.1853 8.35972 86.7484 6.96725 85.9932C5.57477 85.2381 4.4888 84.1728 3.70932 82.7974C2.95978 81.4241 2.65042 79.7646 2.78125 77.819L3.75344 63.3616ZM4.21801 77.9156C4.10529 79.5918 4.37089 81.0078 5.01479 82.1636C5.65869 83.3194 6.56017 84.2219 7.71923 84.8712C8.91022 85.4925 10.254 85.8534 11.7507 85.9541C13.2772 86.0567 14.6572 85.8789 15.8908 85.4207C17.1562 84.9345 18.1704 84.1608 18.9334 83.0996C19.7262 82.0404 20.179 80.6727 20.2917 78.9965L21.276 64.3595C21.3867 62.7132 21.166 61.3002 20.6139 60.1205C20.0917 58.9428 19.2531 57.9995 18.0981 57.2904C16.973 56.5833 15.5424 56.1714 13.8063 56.0546C12.0703 55.9379 10.5824 56.1535 9.34288 56.7016C8.10331 57.2497 7.12999 58.0863 6.42291 59.2114C5.71583 60.3365 5.30794 61.7072 5.19925 63.3235L4.21801 77.9156ZM43.7043 70.3779L44.5739 57.4471L45.9657 57.5407L43.8523 88.9697L42.4604 88.8761L43.6137 71.7248L27.0911 70.6138L25.9377 87.765L24.5459 87.6714L26.6593 56.2424L28.0512 56.336L27.1816 69.2668L43.7043 70.3779ZM69.4287 90.6896L67.947 90.5899L64.5836 78.2314L53.1794 77.4645L48.2365 89.2645L46.71 89.1618L59.5542 58.4544L60.7665 58.5359L69.4287 90.6896ZM53.722 76.1029L64.2731 76.8124L60.0167 60.9661L53.722 76.1029ZM100.997 63.361C100.099 62.8496 99.1927 62.473 98.2769 62.231C97.363 61.959 96.4572 61.7929 95.5592 61.7325C93.9129 61.6218 92.488 61.7966 91.2844 62.2569C90.1107 62.7192 89.1873 63.4839 88.5142 64.5512C87.871 65.6204 87.492 67.0081 87.3773 68.7143L86.387 83.441C86.2642 85.2669 86.4799 86.7547 87.034 87.9045C87.5881 89.0543 88.4327 89.9079 89.5679 90.4653C90.7031 91.0227 92.0489 91.3537 93.6054 91.4584C94.204 91.4987 94.8655 91.498 95.59 91.4565C96.3164 91.3851 97.0907 91.2718 97.913 91.1166C98.7353 90.9615 99.5755 90.7624 100.434 90.5194L100.711 91.7558C99.4221 92.1502 98.1557 92.4259 96.9124 92.5828C95.697 92.7717 94.5056 92.8269 93.3382 92.7484C91.4525 92.6216 89.8573 92.1986 88.5526 91.4794C87.2778 90.7623 86.3235 89.751 85.6897 88.4455C85.0578 87.1101 84.8094 85.4397 84.9442 83.4342L85.9375 68.6626C86.0825 66.5074 86.6023 64.8135 87.497 63.5807C88.4217 62.35 89.5616 61.4946 90.9169 61.0144C92.2742 60.5043 93.7311 60.3016 95.2875 60.4063C96.4848 60.4868 97.6142 60.683 98.6757 60.9949C99.7372 61.3069 100.7 61.7474 101.564 62.3167L100.997 63.361ZM106.069 78.4052L119.632 62.4943L121.248 62.603L110.857 74.9386L121.469 94.189L119.853 94.0803L109.833 76.0875L105.915 80.695L105.081 93.087L103.645 92.9904L105.758 61.5614L107.195 61.658L106.069 78.4052ZM146.028 95.8405L144.546 95.7409L141.183 83.3824L129.779 82.6155L124.836 94.4154L123.309 94.3128L136.154 63.6053L137.366 63.6869L146.028 95.8405ZM130.321 81.2538L140.873 81.9633L136.616 66.117L130.321 81.2538ZM152.701 77.7074L158.583 78.1029C159.72 78.1794 160.767 78.0393 161.723 77.6826C162.681 77.296 163.473 76.7028 164.098 75.9029C164.723 75.1031 165.075 74.1195 165.153 72.9521C165.226 71.8745 165.095 70.9186 164.76 70.0842C164.455 69.2519 163.977 68.5432 163.324 67.9581C162.702 67.3751 161.951 66.9186 161.071 66.5889C160.191 66.2591 159.213 66.058 158.135 65.9855C157.447 65.9392 156.754 65.9528 156.058 66.0262C155.363 66.0697 154.695 66.1751 154.052 66.3424C153.411 66.4797 152.859 66.638 152.396 66.8174L151.975 65.7066C152.378 65.5232 152.901 65.3479 153.544 65.1806C154.218 64.9855 154.965 64.8402 155.783 64.7449C156.633 64.6217 157.522 64.5913 158.45 64.6536C160.515 64.7925 162.151 65.2784 163.358 66.1112C164.595 66.9461 165.458 67.9813 165.946 69.2168C166.466 70.4245 166.682 71.6868 166.593 73.0038C166.547 73.6923 166.362 74.4315 166.038 75.2216C165.744 76.0136 165.244 76.7467 164.537 77.4208C163.862 78.067 162.895 78.5883 161.636 78.9847C163.391 79.7041 164.746 80.8024 165.699 82.2797C166.652 83.757 167.058 85.5433 166.917 87.6385C166.834 88.8657 166.543 90.0639 166.044 91.233C165.576 92.3742 164.86 93.4085 163.896 94.3359C162.963 95.2354 161.759 95.9361 160.282 96.4382C158.807 96.9103 157.007 97.0749 154.881 96.9319C153.983 96.8716 153.105 96.7374 152.247 96.5293C151.389 96.3213 150.607 96.1033 149.901 95.8754C149.227 95.6196 148.685 95.4028 148.276 95.2249C147.897 95.0491 147.707 94.9612 147.707 94.9612L148.109 93.6803C148.109 93.6803 148.299 93.7682 148.678 93.944C149.057 94.1198 149.569 94.3346 150.213 94.5885C150.86 94.8123 151.597 95.0273 152.425 95.2333C153.283 95.4413 154.191 95.5776 155.149 95.642C157.214 95.7808 158.989 95.5394 160.474 94.9176C161.991 94.268 163.182 93.3257 164.047 92.091C164.912 90.8562 165.4 89.4007 165.513 87.7245C165.596 86.4973 165.473 85.4066 165.147 84.4526C164.852 83.4706 164.353 82.6252 163.649 81.9163C162.976 81.1796 162.098 80.6093 161.012 80.2056C159.959 79.774 158.729 79.5108 157.322 79.4162L153.057 79.1294L152.701 77.7074ZM191.19 98.8774L189.708 98.7778L186.345 86.4192L174.941 85.6524L169.998 97.4523L168.471 97.3497L181.315 66.6422L182.528 66.7238L191.19 98.8774ZM175.483 84.2907L186.034 85.0002L181.778 69.1539L175.483 84.2907ZM212.112 68.7132L216.782 69.0272L214.665 100.501L213.273 100.408L215.302 70.2356L212.249 70.0303C211.052 69.9498 210.079 70.1099 209.33 70.5106C208.582 70.9113 208.007 71.4138 207.605 72.0182C207.204 72.6227 206.877 73.2321 206.625 73.8466L198.888 94.3437C198.522 95.3113 198.136 96.1273 197.731 96.7916C197.355 97.4579 196.897 98.0134 196.356 98.4581C195.817 98.8728 195.102 99.2157 194.212 99.4865L193.417 98.5761C194.341 98.2474 195.061 97.8148 195.578 97.2782C196.126 96.7437 196.554 96.1862 196.864 95.6057C197.175 94.9952 197.423 94.4406 197.607 93.9418L205.192 73.7051C205.376 73.2063 205.622 72.6667 205.932 72.0861C206.274 71.4777 206.703 70.9052 207.22 70.3687C207.737 69.8322 208.397 69.4105 209.2 69.1036C210.004 68.7668 210.975 68.6367 212.112 68.7132ZM239.684 102.138L238.202 102.039L234.839 89.6802L223.435 88.9133L218.492 100.713L216.965 100.611L229.809 69.9032L231.022 69.9847L239.684 102.138ZM223.977 87.5517L234.528 88.2612L230.272 72.4149L223.977 87.5517ZM242.638 101.074C242.798 100.935 242.983 100.872 243.192 100.886C243.402 100.9 243.561 100.986 243.671 101.144C243.843 101.275 243.906 101.445 243.862 101.653C243.85 101.832 243.764 101.992 243.605 102.131C243.475 102.273 243.305 102.337 243.096 102.323C242.916 102.311 242.755 102.24 242.614 102.11C242.474 101.95 242.41 101.781 242.423 101.601C242.437 101.391 242.509 101.216 242.638 101.074ZM247.768 101.419C247.928 101.28 248.113 101.217 248.322 101.231C248.532 101.245 248.691 101.331 248.801 101.489C248.973 101.62 249.036 101.79 248.992 101.998C248.98 102.177 248.894 102.337 248.735 102.476C248.605 102.618 248.435 102.682 248.226 102.668C248.046 102.656 247.885 102.585 247.744 102.455C247.604 102.295 247.54 102.125 247.553 101.946C247.567 101.736 247.639 101.561 247.768 101.419ZM252.898 101.764C253.058 101.625 253.243 101.562 253.452 101.576C253.662 101.59 253.821 101.676 253.931 101.834C254.103 101.965 254.166 102.135 254.122 102.343C254.11 102.522 254.024 102.682 253.865 102.821C253.735 102.963 253.565 103.027 253.356 103.013C253.176 103.001 253.015 102.93 252.874 102.8C252.734 102.64 252.67 102.47 252.683 102.291C252.697 102.081 252.769 101.906 252.898 101.764Z" fill="#3E2723"/>
<path d="M141.295 296.634C140.276 296.512 139.364 296.107 138.56 295.42C137.756 294.733 137.033 293.982 136.392 293.167C136.701 293.056 136.727 292.838 136.471 292.512C136.214 292.186 135.923 292.151 135.597 292.407L135.395 290.389L134.137 289.795C133.932 289.032 133.749 288.715 133.586 288.843C133.247 286.735 132.672 284.746 131.862 282.876C131.034 281.153 130.669 279.263 130.767 277.206C130.785 277.061 130.828 276.697 130.898 276.114C131.096 275.695 131.174 275.039 131.133 274.148C131.168 273.857 131.057 273.548 130.8 273.222C130.69 272.913 130.643 272.686 130.66 272.541L131.368 272.182C131.309 271.437 131.259 270.618 131.218 269.727C131.177 268.836 131.209 267.953 131.313 267.08C131.383 266.497 131.444 265.987 131.496 265.55C131.694 265.131 131.892 264.711 132.09 264.292L132.745 264.37C132.25 263.573 132.08 262.518 132.237 261.208C132.498 259.023 133.263 257.564 134.533 256.829L134.201 255.903L135.003 252.897C135.277 253.078 135.577 253.04 135.903 252.783C136.229 252.527 136.401 252.326 136.418 252.18L136.007 251.91L137.954 248.597L137.351 248.082C139.523 245.978 141.267 243.749 142.582 241.396L143.29 241.037L142.879 240.766L144.451 238.739L145.298 239.062C145.729 237.931 146.442 236.909 147.438 235.994C148.433 235.079 149.412 234.31 150.372 233.686L149.769 233.171L152.137 231.903L152.241 231.029L156.914 227.156L156.757 228.467L157.413 228.545C157.826 227.561 158.35 226.885 158.984 226.518C159.747 226.313 159.718 225.941 158.897 225.399L162.024 223.336L162.434 223.607L162.242 223.362L165.177 221.054L165.151 221.273C165.133 221.418 165.197 221.5 165.343 221.517C165.634 221.552 166.26 221.258 167.221 220.634C168.328 220.028 169.507 219.43 170.759 218.841L171.633 218.946L171.274 218.238L172.148 218.343C172.474 218.086 172.427 217.859 172.008 217.661C171.588 217.463 171.315 217.283 171.186 217.12L171.405 217.146L181.057 210.545L182.481 211.602C182.627 211.619 182.735 211.337 182.804 210.754C182.856 210.317 182.655 210.145 182.201 210.239L184.787 208.997C184.624 209.125 184.778 209.07 185.25 208.831C185.739 208.446 185.847 208.164 185.573 207.983C186.225 207.47 186.903 206.739 187.608 205.789C188.329 204.694 188.481 204.047 188.061 203.849L190.644 197.068L192.007 196.788C192.123 194.586 192.477 192.856 193.071 191.597C193.682 190.193 194.147 188.772 194.467 187.333L193.995 185.726L195.697 182.606L196.134 182.658L196.379 182.465L195.286 182.335L197.29 169.28C197.547 169.607 197.829 169.714 198.138 169.603C198.464 169.347 198.781 169.163 199.09 169.053C199.399 168.942 199.562 168.814 199.579 168.668C199.597 168.522 199.314 168.415 198.732 168.345C198.295 168.293 198.012 168.185 197.884 168.022L198.119 166.056L198.556 166.108L198.259 166.738L198.722 166.571C198.903 166.297 198.929 166.079 198.8 165.916C198.69 165.607 198.48 165.508 198.171 165.619L198.485 162.998C199.032 163.359 199.478 163.338 199.821 162.936L200.22 155.894L200.194 156.112C200.049 156.095 199.946 155.713 199.888 154.968C199.992 154.094 200.062 153.511 200.097 153.22C200.038 152.475 200.545 151.944 201.616 151.629C202.705 151.169 202.367 150.907 200.603 150.843L200.313 147.707L200.968 147.785L201.334 144.727C201.508 143.271 201.158 142.49 200.284 142.386C199.702 142.316 198.866 142.512 197.777 142.972C196.042 145.128 194.316 147.211 192.598 149.222C190.881 151.232 189.292 153.405 187.831 155.742L186.957 155.637L186.04 157.743C185.912 157.58 185.702 157.481 185.411 157.447C185.12 157.412 184.875 157.604 184.678 158.024C184.48 158.443 184.655 158.833 185.202 159.194L182.46 161.747L180.197 162.141L180.425 163.941L178.224 165.671L178.827 166.187L173.691 170.226L173.176 170.829L172.931 171.021C173.077 171.038 173.15 171.047 173.15 171.047L173.176 170.829L173.639 170.662C173.569 171.245 173.17 171.493 172.442 171.406L172.931 171.021C172.512 170.823 172.311 170.651 172.328 170.506L172.005 171.353C172.151 171.371 172.297 171.388 172.442 171.406L169.341 173.251L170.137 174.01C169.974 174.139 169.802 174.34 169.622 174.613C169.458 174.742 169.45 174.814 169.595 174.832L165.193 178.294L164.101 178.163C163.397 179.113 162.384 180.173 161.062 181.345C159.758 182.371 158.45 182.805 157.139 182.648C157.011 182.485 156.819 182.241 156.562 181.915C156.306 181.589 156.087 181.563 155.907 181.836L155.803 182.71C155.785 182.856 155.867 182.792 156.047 182.518C156.228 182.244 156.309 182.18 156.292 182.325C156.566 182.506 156.612 182.733 156.432 183.007C156.449 182.861 156.539 182.724 156.702 182.596C156.702 182.596 156.685 182.742 156.65 183.033C156.761 183.342 156.735 183.56 156.572 183.688L155.235 183.75L155.095 183.069L154.72 184.353L150.465 184.731L149.94 183.56L147.127 183.002L146.908 182.976C146.908 182.976 147.255 183.165 147.948 183.544C148.787 183.939 149.043 184.265 148.717 184.522C148.554 184.65 148.4 184.705 148.254 184.688C147.526 184.601 146.623 184.124 145.545 183.256C144.63 182.261 144.109 181.681 143.98 181.518C143.963 181.664 143.882 181.728 143.736 181.711C143.445 181.676 142.97 181.324 142.311 180.654C141.798 180.002 141.422 179.44 141.183 178.968C141.073 178.659 141.18 178.377 141.506 178.12C141.832 177.864 142.051 177.89 142.162 178.199L140.369 174.661C140.625 174.987 140.917 175.022 141.243 174.765C141.586 174.363 141.703 174.008 141.592 173.699L140.761 171.384L141.677 169.278C141.695 169.133 141.703 169.06 141.703 169.06L145.405 162.191L145.02 161.702L147.248 159.752C147.137 159.444 147.107 159.071 147.16 158.634C147.264 157.76 147.651 156.994 148.321 156.335C149.008 155.531 149.468 154.774 149.7 154.063C149.846 154.081 150.326 153.769 151.142 153.128C151.957 152.487 152.446 152.102 152.609 151.974L154.853 148.032L155.404 148.984C155.758 147.254 156.489 146.086 157.595 145.48C158.865 144.745 160.125 144.084 161.378 143.495C161.639 141.31 162.978 139.993 165.395 139.544L165.421 139.325C165.508 138.597 166.015 138.067 166.941 137.734C168.577 137.635 169.439 137.221 169.526 136.493C169.614 135.764 170.519 134.986 172.243 134.159C172.877 133.791 173.151 133.972 173.064 134.7C172.995 135.282 172.96 135.574 172.96 135.574L173.834 135.678L174.173 132.838C174.354 132.565 175.271 132.305 176.925 132.06C178.725 131.832 179.45 131.327 179.1 130.547L181.17 129.908C181.648 130.852 182.077 130.977 182.455 130.283C182.833 129.59 182.65 129.273 181.904 129.331C183.104 129.179 184.103 128.856 184.901 128.36C185.844 127.882 186.954 127.867 188.23 128.315L189.068 126.864L192.423 126.601L192.589 127.064L195.97 126.582L195.892 127.237L196.625 126.66C196.899 126.841 197.01 127.149 196.958 127.586C197.069 127.895 197.424 128.011 198.024 127.935L199.247 126.974L200.13 128.852L202.044 129.524C202.079 129.232 202.387 129.122 202.97 129.191C203.407 129.243 203.826 129.441 204.228 129.785C204.63 130.128 204.595 130.42 204.124 130.659L206.885 131.653C207.013 131.816 207.363 132.597 207.935 133.995C208.669 135.264 209.165 136.062 209.421 136.388C209.421 136.388 209.287 136.889 209.02 137.891C208.77 138.747 208.464 139.449 208.103 139.997C207.742 140.545 207.404 140.283 207.089 139.211L205.762 141.047L205.964 143.065L205.605 142.357L205.501 143.231L206.997 147.398L206.315 147.538L206.928 149.827L205.783 150.133L206.553 151.112L205.926 156.354C206.508 156.424 206.73 157.041 206.591 158.206C206.486 159.08 206.163 159.928 205.622 160.749L205.772 163.204L204.663 165.066L205.318 165.144C205.266 165.581 205.179 166.309 205.057 167.329C205.098 168.22 205.058 169.175 204.936 170.195C204.657 172.525 204.247 174.1 203.706 174.922C203.345 175.47 203.293 175.907 203.549 176.233L202.825 178.583C202.842 178.438 202.752 178.575 202.554 178.994C202.52 179.285 202.622 179.667 202.861 180.139L201.517 183.966L201.351 183.503L199.867 186.649C200.14 186.83 200.182 187.721 199.99 189.323C199.816 190.779 199.711 191.653 199.677 191.944L198.34 192.006L198.506 192.469L199.598 192.599L199.275 193.447L198.865 193.176L198.411 195.116L198.77 195.824C198.554 196.389 198.356 196.808 198.176 197.082C198.141 197.373 198.106 197.665 198.072 197.956C197.984 198.684 198.34 198.801 199.138 198.305C200.081 197.827 201.059 197.058 202.072 195.997C203.085 194.937 203.618 194.188 203.67 193.751C203.851 193.477 204.095 193.285 204.404 193.174C204.713 193.063 204.931 193.089 205.059 193.252L207.391 190.429L208.02 190.726L209.452 188.017C209.598 188.034 209.662 188.116 209.644 188.261C209.644 188.261 209.717 188.27 209.863 188.287C210.154 188.322 210.544 188.147 211.033 187.763C211.54 187.232 211.947 186.912 212.256 186.801C212.402 186.818 212.329 186.81 212.038 186.775C211.892 186.758 211.828 186.676 211.845 186.53L212.361 185.927L211.513 185.604L213.251 184.04L213.417 184.503L214.797 182.23C214.669 182.067 214.677 181.995 214.823 182.012L214.797 182.23C214.779 182.376 214.835 182.53 214.963 182.693C215.109 182.711 215.199 182.574 215.234 182.283L219.887 174.863C220.196 174.752 220.251 174.906 220.054 175.326C220.019 175.617 220.001 175.763 220.001 175.763L221.312 175.919C221.312 175.919 221.283 175.546 221.224 174.801C221.311 174.073 221.128 173.755 220.673 173.849C221.302 172.299 222.332 171.093 223.765 170.23C223.637 170.067 223.735 169.857 224.062 169.601C224.388 169.345 224.752 169.388 225.154 169.732L224.012 175.577C222.992 175.455 222.611 175.558 222.867 175.884C223.124 176.21 223.415 176.245 223.741 175.988L222.851 177.876L221.54 177.719C221.523 177.865 221.569 178.092 221.68 178.4C221.791 178.709 221.838 178.936 221.82 179.082L220.92 179.196L219.306 183.434C219.306 183.434 218.971 183.763 218.301 184.422C217.649 184.935 217.041 185.084 216.475 184.868L215.621 188.311L214.747 188.207C213.606 189.104 212.511 190.229 211.463 191.581C210.415 192.933 209.513 194.302 208.756 195.688L207.909 195.366C207.735 196.822 206.768 198.11 205.01 199.229C203.251 200.348 201.938 201.446 201.07 202.524C200.686 202.035 200.421 201.782 200.275 201.765C199.838 201.712 199.623 202.277 199.629 203.46C199.653 204.497 199.362 204.462 198.755 203.355L195.035 206.677L194.023 211.431L192.905 211.519C192.148 212.905 191.648 214.618 191.404 216.657C191.265 217.822 191.315 218.64 191.554 219.112C191.391 219.24 191.21 219.514 191.013 219.933C190.797 220.499 190.707 220.635 190.742 220.344L189.887 223.787C189.176 223.554 188.606 224.003 188.175 225.133C187.727 226.409 187.343 227.767 187.024 229.205C186.849 230.662 186.745 231.535 186.71 231.827L186.029 231.967C186.011 232.112 186.122 232.421 186.361 232.893C186.6 233.365 186.265 233.694 185.357 233.881L185.069 236.283L184.633 236.231C184.196 236.179 184.024 236.38 184.117 236.834C184.193 237.434 184.287 237.889 184.398 238.197C184.363 238.489 184.057 239.191 183.481 240.303C183.033 241.579 182.53 242.701 181.971 243.668C181.54 244.798 181.244 245.427 181.081 245.556L180.627 247.495L180.295 246.569C179.916 247.263 179.168 248.577 178.051 250.511C177.079 252.463 176.986 253.855 177.773 254.687L176.586 257.204L176.175 256.934L175.311 258.603L175.94 258.9L173.905 261.094C173.923 260.948 173.786 260.858 173.494 260.823C173.349 260.805 173.331 260.951 173.442 261.26L173.775 262.186L174.508 261.609L174.43 262.264L172.744 263.392L173.269 264.563L171.775 265.935C171.904 266.098 171.95 266.325 171.915 266.616C171.863 267.053 171.674 267.4 171.348 267.656C171.15 268.076 170.961 268.423 170.78 268.696L170.422 267.989L169.959 268.155L170.519 270.881C170.356 271.009 170.074 270.901 169.672 270.558C169.415 270.232 169.252 270.36 169.183 270.943L169.061 273.808L168.869 273.564C168.578 273.529 168.252 273.785 167.891 274.333C167.513 275.027 167.597 275.554 168.145 275.915L166.11 278.108L166.739 278.405L164.985 281.962C164.926 281.217 164.708 281.19 164.329 281.884C164.097 282.594 164.298 282.766 164.932 282.399C164.298 282.766 163.645 283.279 162.976 283.938C162.289 284.742 161.902 285.508 161.815 286.236C161.943 286.399 161.964 286.845 161.877 287.573C161.755 288.592 161.33 289.058 160.601 288.971L156.864 294.285L156.89 294.067C156.745 294.049 156.328 294.443 155.641 295.247C154.954 296.051 154.611 296.453 154.611 296.453C153.976 296.82 152.832 297.127 151.178 297.372C149.523 297.617 147.904 297.571 146.32 297.234C146.407 296.506 145.949 296.008 144.947 295.741C143.945 295.473 143.552 295.057 143.767 294.492L143.696 291.381C145.076 290.956 145.647 290.507 145.408 290.035C145.297 289.726 145.349 289.29 145.564 288.724L147.241 285.823L148.115 285.927C148.004 285.619 147.974 285.246 148.027 284.809C148.149 283.79 148.635 282.814 149.485 281.881L151.31 281.435C152.161 280.503 152.093 279.83 151.109 279.417C151.539 278.287 152.188 277.182 153.056 276.105C153.906 275.172 154.482 274.059 154.784 272.766L155.876 272.897L156.731 269.454C156.877 269.471 156.95 269.48 156.95 269.48C157.078 269.643 157.215 269.733 157.36 269.751C158.089 269.838 158.514 269.372 158.635 268.352C158.74 267.478 158.891 266.832 159.089 266.412L160.452 266.132L160.941 265.747C160.009 264.897 159.58 264.772 159.656 265.372C159.715 266.118 159.389 266.374 158.678 266.142L160.058 263.869L160.713 263.948L160.704 262.174C161.023 260.735 161.626 259.404 162.51 258.18C163.524 257.12 164.4 255.969 165.139 254.728L166.231 254.858L165.732 253.469L166.388 253.548L167.148 252.752L166.545 252.237C165.747 252.733 165.473 252.552 165.723 251.696C166.101 251.002 166.742 249.971 167.644 248.602C168.529 247.378 169.422 246.082 170.325 244.713C171.355 243.506 171.969 242.694 172.167 242.274C172.202 241.983 172.181 241.537 172.105 240.937C172.029 240.337 172.265 240.218 172.813 240.579L175.135 235.982L175.52 236.471C175.683 236.343 175.782 236.133 175.816 235.842C175.851 235.551 175.886 235.259 175.921 234.968L177.151 230.241C177.407 230.567 177.489 230.503 177.395 230.048C177.43 229.757 177.448 229.611 177.448 229.611L178.077 229.908L178.984 226.029C179.747 225.824 180.146 225.577 180.181 225.285C180.215 224.994 179.997 224.968 179.525 225.207L182.275 218.889L183.201 218.556L182.868 217.63L183.087 217.656L184.31 216.695C184.327 216.549 184.181 216.532 183.873 216.643C183.692 216.916 183.538 216.972 183.41 216.809L183.436 216.59C183.471 216.299 183.613 215.725 183.863 214.869C184.242 214.176 184.512 213.765 184.675 213.637C183.877 214.132 182.445 214.995 180.378 216.225C178.456 217.472 177.122 218.125 176.377 218.184C176.394 218.038 176.347 217.811 176.237 217.502C176.254 217.356 176.181 217.348 176.018 217.476L176.054 219.031L174.394 219.941C174.283 219.632 174.01 219.451 173.573 219.399C173.281 219.364 173.046 219.484 172.865 219.758L171.704 222.056C171.576 221.893 171.366 221.794 171.075 221.759C170.638 221.707 170.111 221.792 169.493 222.013C169.022 222.252 168.76 222.59 168.708 223.027L168.848 223.709L168.411 223.657L163.056 227.669L163.066 229.443C162.903 229.571 162.62 229.464 162.218 229.12C161.816 228.777 161.615 228.605 161.615 228.605L161.703 229.723L158.908 232.712C158.78 232.549 158.643 232.459 158.498 232.442C158.061 232.39 157.473 232.984 156.733 234.225C156.14 235.483 155.526 236.296 154.891 236.663L155.266 235.379L154.611 235.301C153.906 236.25 153.583 237.098 153.642 237.844C153.701 238.589 153.302 238.837 152.445 238.587C152.171 238.406 152.081 238.543 152.175 238.998C152.396 239.615 152.571 240.005 152.699 240.168C152.682 240.314 152.373 240.425 151.773 240.501C151.302 240.74 150.984 240.923 150.821 241.051C150.658 241.18 150.551 241.462 150.498 241.899C150.592 242.353 150.283 242.464 149.572 242.231L148.988 245.264L148.385 244.748C147.302 246.391 146.069 248.681 144.683 251.617C143.298 254.554 142.557 257.05 142.459 259.106C142.313 259.089 141.958 258.973 141.393 258.757C140.973 258.559 140.746 258.606 140.711 258.897L140.215 263.048L140.818 263.563L139.823 266.324L139.142 266.465L139.317 268.701L138.881 268.649L138.864 270.641C138.607 270.315 138.334 270.135 138.042 270.1C137.751 270.065 137.571 270.339 137.501 270.921C137.466 271.213 137.504 271.512 137.615 271.821C137.854 272.293 138.128 272.473 138.436 272.363L138.201 274.329L137.109 274.198C136.946 274.326 137.002 274.48 137.275 274.661C137.677 275.004 137.861 275.322 137.826 275.613L136.848 276.382L137.914 276.731L137.662 280.69C137.534 280.526 137.491 280.891 137.532 281.782C137.608 282.382 137.59 282.527 137.48 282.219C137.48 282.219 137.497 282.073 137.532 281.782C137.456 281.182 137.336 280.946 137.173 281.074L136.528 282.769L137.183 282.848L137.133 288.824C137.261 288.987 137.407 289.005 137.57 288.876C137.879 288.766 138.033 288.71 138.033 288.71L138.306 293.839C138.725 294.037 138.816 293.9 138.577 293.428C138.466 293.119 138.41 292.965 138.41 292.965C139.208 292.47 139.581 292.44 139.529 292.877C139.605 293.477 139.707 293.859 139.835 294.022L140.298 293.856L141.374 295.978L141.295 296.634ZM154.349 176.333C155.328 175.563 156.507 174.966 157.887 174.54C159.413 174.131 160.776 173.851 161.976 173.699L162.57 172.441L163.225 172.519C163.295 171.937 163.565 171.526 164.037 171.287C164.672 170.92 165.161 170.535 165.504 170.133C166.052 170.494 166.471 170.692 166.763 170.727L166.483 169.364L168.631 168.07L169.156 169.24L169.864 168.882L170.536 166.968L170.369 166.505L175.068 162.414L175.942 162.518L175.785 163.829C176.059 164.009 176.158 163.8 176.082 163.2C176.152 162.617 176.195 162.253 176.213 162.107L175.802 161.837C176.274 161.598 176.836 161.222 177.488 160.709C178.14 160.196 178.574 159.657 178.789 159.092C179.08 159.127 179.372 159.162 179.663 159.196C179.954 159.231 180.146 159.476 180.24 159.93L180.677 159.982L180.781 159.109C180.233 158.748 179.994 158.276 180.064 157.693L180.282 157.72L180.886 158.235C180.973 157.507 181.197 156.869 181.558 156.321C181.936 155.628 182.498 155.252 183.243 155.193C183.552 155.082 183.779 155.036 183.925 155.053C184.233 154.942 184.405 154.741 184.44 154.45L185.174 153.873L185.06 152.973C185.368 152.862 185.785 152.469 186.309 151.793C186.978 151.135 187.339 150.587 187.391 150.15L188.047 150.228C188.227 149.955 188.416 149.608 188.614 149.188C188.975 148.641 189.391 148.247 189.863 148.008L190.248 148.497C190.626 147.804 190.923 147.175 191.138 146.61C191.499 146.062 191.86 145.514 192.221 144.967L193.287 145.316L193.985 143.184C194.276 143.218 194.731 143.125 195.348 142.903C195.057 142.869 194.937 142.633 194.989 142.196C195.077 141.468 195.562 140.492 196.447 139.268C197.478 138.062 198.092 137.249 198.29 136.83L195.669 136.516L195.616 136.953C194.288 136.942 192.852 137.214 191.309 137.768C189.783 138.176 188.339 138.52 186.976 138.8L186.382 140.059L184.26 141.134L182.949 140.978L182.897 141.415C182.844 141.852 182.51 142.181 181.892 142.402C181.421 142.641 181.004 143.035 180.643 143.582L179.551 143.452C179.627 144.052 179.112 144.655 178.005 145.261C176.916 145.722 176.072 145.99 175.472 146.066C175.204 147.068 174.599 147.808 173.656 148.286C172.858 148.782 172.188 149.44 171.647 150.262L171.044 149.746C170.631 150.731 169.725 151.509 168.327 152.08C167.093 152.524 166.624 153.354 166.922 154.571L165.533 155.07C165.359 156.526 164.526 157.313 163.035 157.43C162.965 158.012 162.686 158.496 162.197 158.881L161.978 158.855L162.52 158.033L161.864 157.955L161.708 159.265L160.86 158.942L161.235 157.658L161.017 157.632C160.964 158.069 160.796 158.861 160.511 160.009C160.226 161.156 159.775 161.841 159.158 162.062C158.994 162.191 158.776 162.165 158.502 161.984C158.391 161.675 158.319 161.667 158.284 161.958L157.847 161.906L158.345 163.295C157.711 163.662 157.213 164.119 156.852 164.667C156.491 165.215 156.13 165.763 155.769 166.31C155.461 166.421 154.942 166.433 154.214 166.346C154.325 166.655 154.209 167.01 153.865 167.412L154.687 167.953C154.18 168.484 153.746 169.023 153.385 169.57C153.17 170.135 152.873 170.765 152.495 171.458L152.084 171.187L151.64 174.901L154.349 176.333ZM141.817 169.96C142.511 170.338 142.883 170.309 142.936 169.872L141.922 169.086C141.904 169.232 141.878 169.45 141.843 169.741C141.826 169.887 141.817 169.96 141.817 169.96ZM175.921 234.968L175.895 235.187L175.921 234.968ZM265.42 210.44C264.384 210.464 263.198 209.879 261.864 208.685C260.547 207.346 259.64 206.277 259.145 205.48L259.598 203.54C259.453 203.522 259.298 203.578 259.135 203.706C258.972 203.834 258.818 203.89 258.672 203.872L260.199 198.516C260.49 198.55 260.607 198.195 260.548 197.449C260.635 196.721 260.687 196.284 260.705 196.139L260.513 195.894L261.175 192.207L262.049 192.311L261.087 191.088L261.916 187.864L262.379 187.698L262.02 186.99L262.744 184.64L263.67 184.307C263.705 184.016 263.595 183.707 263.338 183.381C263.245 182.927 263.215 182.554 263.25 182.263C263.32 181.68 263.925 180.94 265.067 180.043L264.245 179.501L265.686 178.566L264.646 177.998C265.444 177.503 265.724 177.019 265.485 176.548C265.263 175.93 265.333 175.348 265.693 174.8L267.484 172.799L266.522 171.576L266.897 170.291C267.625 170.378 268.016 170.203 268.068 169.766C268.103 169.475 268.073 169.102 267.98 168.648C267.887 168.194 267.866 167.748 267.918 167.311L268.137 167.337L268.303 167.8L269.481 163.51L269.944 163.344L270.335 160.067L271.428 160.198L271.06 157.716L270.815 157.909L265.34 164.787L264.003 164.849L261.968 167.043L263.008 167.61L262.222 168.624L260.475 168.415C260.696 169.033 260.79 169.487 260.755 169.778C260.685 170.361 260.26 170.827 259.48 171.177C258.717 171.381 258.181 171.539 257.872 171.649L258.152 173.012L256.065 175.643L255.025 175.076C255.025 175.076 254.935 175.213 254.755 175.486C254.72 175.778 254.557 175.906 254.265 175.871L253.226 175.304L252.58 176.999L253.646 177.348C252.994 177.861 252.496 178.318 252.152 178.72C251.809 179.122 251.055 179.254 249.89 179.114C249.692 179.534 249.785 179.988 250.17 180.477C248.813 181.94 247.311 183.385 245.663 184.813C244.161 186.258 242.539 187.468 240.798 188.441L240.143 188.363L238.186 189.901L237.365 189.36L236.745 190.837L232.386 192.088L231.818 193.128L230.341 192.508L229.311 193.715L228.437 193.61C224.942 193.192 222.142 191.897 220.039 189.726C219.706 188.8 219.61 187.754 219.749 186.589C219.458 186.554 219.222 186.674 219.041 186.948C218.878 187.076 218.715 187.204 218.552 187.332L217.895 181.714L218.707 180.482L218.322 179.993L218.749 178.272L219.405 178.35L222.092 170.695C222.238 170.712 222.302 170.794 222.285 170.939C222.413 171.103 222.55 171.193 222.696 171.21C222.987 171.245 223.159 171.044 223.211 170.607C223.263 170.17 223.225 169.87 223.097 169.707L222.634 169.873C223.186 167.724 224.47 166.252 226.485 165.459C226.229 165.133 226.127 164.752 226.179 164.315C226.231 163.878 226.347 163.523 226.528 163.249C226.871 162.847 227.142 162.436 227.34 162.017L227.969 162.313L227.995 162.095L227.829 161.632L228.755 161.299C228.901 161.317 228.854 161.09 228.615 160.618C228.522 160.164 228.731 160.263 229.244 160.915L229.427 159.386L230.738 159.542C231.244 159.012 231.687 158.4 232.065 157.707C232.443 157.014 232.822 156.32 233.2 155.627L235.384 155.888L234.912 154.281L236.161 153.101L237.419 153.694L238.414 150.933L242.223 148.729L241.209 147.943L242.572 147.663L242.633 149C242.825 147.398 243.619 146.311 245.017 145.74L245.236 145.766L245.323 146.884L245.594 146.474L245.506 145.355L248.118 143.895L248.232 144.795C248.552 143.356 249.483 142.36 251.027 141.806C252.588 141.106 254.212 140.488 255.901 139.951C257.59 139.415 258.56 138.718 258.81 137.862L260.531 138.289C260.694 138.161 260.793 137.951 260.828 137.66C261.026 137.24 260.979 137.013 260.688 136.978C262.162 137.007 263.898 136.697 265.895 136.05L268.08 136.311L267.066 135.525L267.31 135.333C270.019 134.918 272.756 134.876 275.523 135.207C277.417 135.433 279.094 136.225 280.557 137.581L284.717 139.851C284.845 140.014 284.691 140.07 284.254 140.018C283.963 139.983 283.8 140.111 283.765 140.402C283.747 140.548 283.94 140.792 284.342 141.136C284.761 141.334 285.117 141.45 285.408 141.485L285.705 140.856C285.85 140.873 285.888 141.173 285.819 141.756C285.912 142.21 286.049 142.3 286.229 142.026L287.768 143.983L286.894 143.878L285.7 150.161L284.826 150.057L284.259 151.097L284.731 152.704C284.714 152.85 284.606 153.132 284.408 153.552C284.374 153.843 284.309 153.761 284.216 153.307L284.268 152.87L283.587 153.01C283.698 153.319 283.718 153.765 283.649 154.347C283.596 154.784 283.463 155.285 283.247 155.85C283.195 156.287 283.061 156.788 282.846 157.353C282.263 157.283 281.891 157.313 281.728 157.441L280.863 159.11C280.648 159.675 280.677 160.048 280.951 160.228C281.243 160.263 281.379 160.353 281.362 160.499L280.821 161.321C280.751 161.903 280.681 162.486 280.612 163.068C280.688 163.668 280.609 164.323 280.377 165.034L278.629 164.825L276.2 164.756C276.678 165.7 277.246 166.506 277.905 167.176C278.581 167.7 278.919 167.962 278.919 167.962C279.175 168.288 279.213 168.588 279.033 168.862C278.654 169.555 278.276 170.248 277.898 170.942C277.519 171.635 277.141 172.328 276.763 173.022L277.392 173.318C277.52 173.482 277.439 173.546 277.148 173.511C277.002 173.493 276.993 173.566 277.121 173.729L277.314 173.974C277.442 174.137 277.489 174.364 277.454 174.655C277.384 175.238 277.096 175.794 276.59 176.324C276.083 176.855 275.641 177.467 275.262 178.16L275.918 178.238C275.778 179.403 275.514 180.996 275.125 183.018C274.753 184.894 274.15 186.225 273.318 187.012L273.099 186.985L273.23 185.893L272.138 185.763L273.406 188.13C272.597 189.953 271.989 191.949 271.582 194.116C271.193 196.137 270.73 198.15 270.195 200.154L271.489 202.303L271.708 202.329L271.891 200.8L273.306 200.083L274.398 200.213L274.652 201.795L275.402 199.225C275.385 199.371 275.385 199.371 275.402 199.225C275.565 199.097 275.647 199.033 275.647 199.033L276.084 199.085C276.497 198.101 276.657 197.381 276.563 196.927C277.577 195.867 278.779 194.459 280.17 192.705C281.725 190.823 283.198 189.005 284.589 187.251C285.998 185.352 286.917 183.837 287.348 182.707C287.639 182.742 287.84 182.913 287.951 183.222C288.062 183.531 288.19 183.694 288.336 183.711C288.481 183.729 288.516 183.437 288.44 182.837C288.527 182.109 288.416 181.801 288.108 181.911C288.614 181.381 288.984 180.761 289.217 180.05C289.467 179.193 289.883 178.8 290.465 178.87C291.194 178.957 291.532 179.219 291.479 179.656C291.445 179.947 291.328 180.302 291.13 180.722C290.95 180.996 290.842 181.278 290.807 181.569L290.041 186.131L288.599 187.066L289.01 187.337L289.228 187.363L288.521 187.722L289.098 188.455L288.443 188.377C288.355 189.105 288.123 189.816 287.744 190.509C287.512 191.22 287.206 191.922 286.828 192.615L285.465 192.895L285.797 193.821L284.522 195.22L283.186 195.282L279.484 202.151L278.199 201.776L278.209 203.549L271.746 209.424L270.68 209.074L270.305 210.359L269.352 210.91L265.42 210.44ZM228.233 186.052L228.67 186.105L233.763 184.276C234.019 184.603 234.074 184.757 233.929 184.739C233.783 184.722 233.71 184.713 233.71 184.713C233.658 185.15 233.76 185.532 234.017 185.858C234.291 186.038 234.5 186.137 234.646 186.155L234.47 183.918C234.866 183.079 235.475 182.93 236.296 183.471L236.025 183.882L237.633 183.41L236.541 183.279C236.447 182.825 236.619 182.624 237.056 182.676L240.655 182.22C240.819 182.092 240.609 181.993 240.026 181.923C239.461 181.708 239.187 181.528 239.205 181.382L240.594 180.883C241.7 180.277 242.652 179.726 243.45 179.231C244.411 178.607 244.891 178.295 244.891 178.295C245.13 178.767 245.541 179.038 246.124 179.107L246.342 179.133L246.682 176.294L248.394 174.947L249.241 175.27L249.153 174.152L250.979 173.706C251.427 172.43 252.196 171.561 253.285 171.101C254.391 170.495 255.288 169.789 255.975 168.985L255.538 168.933C255.916 168.24 256.551 167.872 257.442 167.831C258.351 167.645 258.93 167.123 259.18 166.267L258.848 165.341L261.486 163.662L261.075 163.391C261.401 163.135 261.582 162.861 261.617 162.57C261.814 162.15 262.196 162.048 262.761 162.263L263.827 162.612L264.088 160.428L265.145 159.003L266.892 159.212C267.288 158.373 267.049 157.902 266.175 157.797L269.73 154.012L270.962 154.824L271.014 154.387L269.756 153.794L270.786 152.588L271.686 152.474L271.931 152.281C271.494 152.229 271.366 152.066 271.546 151.792C271.744 151.373 272.053 151.262 272.472 151.46L272.9 149.738L274.044 149.432L273.607 149.38L274.175 148.34L275.704 148.523L275.659 145.194L276.148 144.809L275.571 144.075C275.158 145.06 274.36 145.556 273.177 145.562C271.995 145.568 270.967 145.519 270.093 145.415C270.367 145.595 270.405 145.895 270.207 146.315C270.027 146.588 269.799 146.635 269.526 146.455L268.293 145.643L267.638 145.564L268.111 147.172L266.197 146.5L266.529 147.426L265.437 147.295L265.332 148.169L263.21 149.245C263.064 149.227 262.418 149.076 261.27 148.791C260.268 148.524 260.023 148.716 260.536 149.368L260.973 149.42C260.886 150.148 260.633 150.414 260.213 150.216C259.794 150.018 259.511 149.91 259.366 149.893L259.776 150.163C256.853 151.143 254.151 152.74 251.67 154.955C251.944 155.135 251.845 155.345 251.373 155.584C251.047 155.841 250.765 155.733 250.526 155.261L250.369 156.572L249.984 156.083C249.897 156.811 249.382 157.414 248.439 157.892C247.513 158.225 246.668 158.493 245.905 158.697C245.364 159.519 244.75 160.331 244.063 161.136C243.376 161.94 242.642 162.517 241.862 162.866L241.451 162.596L238.865 163.838L238.787 164.493C238.904 165.984 238.383 167.251 237.224 168.294C236.229 169.209 235.224 170.197 234.211 171.258L233.634 170.524L232.64 173.285L231.11 173.103L230.771 175.942L228.805 175.707C229.387 175.777 229.708 176.184 229.767 176.93L229.74 177.149C229.74 177.149 229.749 177.076 229.767 176.93L229.356 176.659C229.216 177.824 228.786 178.955 228.064 180.05C227.342 181.145 226.839 182.267 226.554 183.415L227.646 183.545C227.216 184.675 227.592 185.237 228.774 185.231L228.233 186.052ZM309.876 187.173C309.654 186.556 309.462 186.311 309.299 186.439C309.299 186.439 309.016 186.332 308.451 186.116C308.538 185.388 308.707 184.596 308.957 183.739C309.207 182.883 309.376 182.091 309.463 181.363L308.204 180.769C308.094 180.46 308.073 180.015 308.143 179.432C308.23 178.704 308.454 178.066 308.815 177.519C309.193 176.825 309.198 176.161 308.831 175.526C309.32 175.142 309.6 174.658 309.669 174.076C309.902 173.365 310.053 172.718 310.123 172.136C310.012 171.827 309.785 171.874 309.441 172.276C309.261 172.55 309.171 172.687 309.171 172.687C309.31 171.522 309.376 170.348 309.37 169.165C309.527 167.855 309.684 166.544 309.84 165.233C310.032 163.632 310.296 162.038 310.633 160.454C311.116 158.887 311.727 157.483 312.466 156.242C312.356 155.933 312.34 154.823 312.421 152.913C312.519 150.857 312.69 148.809 312.934 146.77C313.126 145.168 313.291 143.785 313.43 142.62C313.57 141.455 313.729 140.735 313.91 140.461L315.002 140.592L315.054 140.155C315.107 139.718 314.94 139.255 314.556 138.766C314.171 138.277 314.095 137.677 314.328 136.966L315.42 137.097C315.816 136.258 315.504 135.778 314.485 135.656L315.681 134.912C315.168 134.26 315.042 132.842 315.304 130.658C315.669 127.599 316.393 125.249 317.476 123.606C317.365 123.297 317.243 122.47 317.108 121.124C317.119 119.796 317.186 118.623 317.308 117.603C317.464 116.292 317.834 115.672 318.416 115.742C318.556 114.577 318.45 113.604 318.101 112.823C317.914 111.915 317.864 111.096 317.951 110.368C318.056 109.495 318.687 108.536 319.846 107.493C319.444 107.149 319.123 106.742 318.884 106.27C318.645 105.798 318.406 105.327 318.167 104.855L319.696 105.038L320.368 103.124L318.402 102.889C318.541 101.724 318.672 100.632 318.794 99.6123C319.079 98.4647 319.355 97.3899 319.623 96.3879C319.512 96.0793 319.293 96.0531 318.967 96.3096C318.787 96.5834 318.679 96.866 318.644 97.1572L318.827 95.6281L320.793 95.8632L320.845 95.4263C319.622 94.5414 319.062 93.6621 319.167 92.7883C319.219 92.3515 319.417 91.932 319.76 91.5299C320.104 91.1278 320.156 90.691 319.917 90.2192C319.387 89.7127 319.046 88.8595 318.894 87.6597C321.608 88.4274 323.578 89.2536 324.801 90.1385C326.188 90.8951 328.084 91.7127 330.49 92.5912L330.203 94.9941L330.614 95.2648L333.017 95.5521C333.314 96.7694 333.568 98.3507 333.779 100.296C334.152 102.113 334.235 103.896 334.026 105.643C333.747 107.973 333.028 109.66 331.87 110.703C332.785 111.699 333.216 112.415 333.164 112.852C333.129 113.143 332.867 113.481 332.378 113.866C331.889 114.25 331.528 114.798 331.295 115.509L331.514 115.535C331.805 115.57 331.916 115.878 331.846 116.461C331.939 116.915 331.977 117.215 331.96 117.361C331.308 117.874 330.93 118.567 330.825 119.441C330.721 120.315 330.744 121.351 330.896 122.551L329.315 122.805C329.734 123.003 329.848 123.903 329.657 125.505C329.518 126.67 329.288 127.972 328.968 129.411C328.666 130.704 328.416 131.561 328.218 131.98C327.74 131.037 327.242 131.494 326.725 133.352C326.207 135.211 325.727 137.369 325.286 139.827C324.861 142.14 324.533 143.652 324.3 144.363C324.335 144.071 324.288 143.844 324.16 143.681C324.178 143.535 324.186 143.463 324.186 143.463C324.041 143.445 323.86 143.719 323.645 144.284C323.447 144.704 323.138 144.814 322.719 144.617C322.906 145.525 322.947 146.416 322.842 147.29C322.721 148.31 322.517 149.393 322.232 150.541C321.947 151.688 321.761 152.626 321.674 153.354C321.092 153.285 320.873 153.259 321.019 153.276C321.182 153.148 321.08 152.766 320.713 152.132L321.665 151.581L320.354 151.424L320.093 153.608L321.404 153.765L321.247 155.076L319.936 154.919C320.03 155.373 320.05 155.819 319.998 156.256C319.946 156.693 319.893 157.13 319.841 157.567C319.563 159.897 318.865 162.029 317.747 163.963L316.218 163.78L317.127 165.44L317.695 164.4L317.564 165.492C317.46 166.366 317.192 167.368 316.762 168.498C316.162 168.574 315.577 169.76 315.007 172.055C314.455 174.205 313.654 175.955 312.606 177.307C312.991 177.796 313.149 178.332 313.079 178.915C313.172 179.369 313.266 179.823 313.359 180.278L312.704 180.199C312.547 181.51 312.253 182.73 311.823 183.861C311.392 184.991 310.962 186.121 310.531 187.251L309.876 187.173ZM303.541 227.184C301.974 226.701 300.317 226.355 298.569 226.146C296.822 225.937 295.418 225.326 294.357 224.313C293.425 223.463 293.106 221.8 293.402 219.325C294.544 218.427 295.557 217.366 296.442 216.143C297.344 214.774 298.596 214.185 300.198 214.376L299.647 213.424L300.302 213.503C302.498 212.436 304.551 211.943 306.462 212.023C308.535 211.976 310.737 212.091 313.067 212.37C313.161 212.824 313.336 213.214 313.592 213.54C313.848 213.867 314.023 214.257 314.117 214.711C312.556 215.411 310.899 216.911 309.147 219.213C307.558 221.386 306.522 223.257 306.039 224.824L304.947 224.693C304.86 225.421 304.662 225.841 304.353 225.951C304.173 226.225 303.902 226.636 303.541 227.184Z" fill="#3E2723"/>
</svg>
