<svg width="379" height="115" viewBox="0 0 379 115" fill="none" xmlns="http://www.w3.org/2000/svg">
<path d="M1.79129 28.664C1.79129 25.808 2.58929 23.638 4.18529 22.154C5.78129 20.642 7.96529 19.886 10.7373 19.886C13.5093 19.886 15.6653 20.67 17.2053 22.238C18.7453 23.806 19.5153 25.962 19.5153 28.706V42.188C19.5153 43.896 19.1513 45.38 18.4233 46.64C17.6953 47.872 16.6593 48.824 15.3153 49.496C13.9993 50.14 12.4593 50.462 10.6953 50.462C9.04329 50.462 7.54529 50.154 6.20129 49.538C4.85729 48.922 3.77929 47.998 2.96729 46.766C2.18329 45.534 1.79129 44.008 1.79129 42.188V28.664ZM5.69729 41.6C5.69729 42.664 5.89329 43.56 6.28529 44.288C6.70529 45.016 7.27929 45.576 8.00729 45.968C8.76329 46.36 9.64529 46.556 10.6533 46.556C11.6893 46.556 12.5713 46.36 13.2993 45.968C14.0273 45.576 14.6013 45.016 15.0213 44.288C15.4413 43.532 15.6513 42.636 15.6513 41.6V29.42C15.6513 28.16 15.4693 27.138 15.1053 26.354C14.7693 25.542 14.2233 24.94 13.4673 24.548C12.7393 24.128 11.8013 23.918 10.6533 23.918C9.56129 23.918 8.65129 24.114 7.92329 24.506C7.19529 24.898 6.63529 25.5 6.24329 26.312C5.87929 27.124 5.69729 28.16 5.69729 29.42V41.6ZM42.3272 46.178H44.9312V54.452H41.6972L40.9832 50.042H25.5272L24.8132 54.452H21.5792V46.178H24.0572L30.1052 26.606C30.3012 26.018 30.5252 25.374 30.7772 24.674C31.0572 23.974 31.4352 23.316 31.9112 22.7C32.3872 22.056 33.0172 21.538 33.8012 21.146C34.6132 20.754 35.6492 20.558 36.9092 20.558H42.3272V46.178ZM38.4212 46.178V23.96H37.4972C36.9372 23.96 36.4332 24.03 35.9852 24.17C35.5652 24.31 35.2012 24.562 34.8932 24.926C34.5852 25.262 34.3192 25.766 34.0952 26.438L28.1312 46.178H38.4212ZM61.3164 32.654V20.6H65.2224V50H61.3164V36.35H50.9844V50H47.0784V20.6H50.9844V32.654H61.3164ZM89.0207 50H84.4847L82.2167 41.432H74.5307L72.3047 50H67.9787L75.8747 20.6H80.9567L89.0207 50ZM75.4967 37.358H81.3347L78.3947 25.808L75.4967 37.358ZM114.048 50L107.79 36.98H106.614V50H102.792V36.98H101.616L95.4424 50H90.7804L98.1724 35.258L91.3684 20.6H95.6524L101.658 33.662H102.792V20.6H106.614V33.662H107.748L113.922 20.6H118.206L111.276 35.258L118.71 50H114.048ZM140.847 46.178H143.451V54.452H140.217L139.503 50.042H124.047L123.333 54.452H120.099V46.178H122.577L128.625 26.606C128.821 26.018 129.045 25.374 129.297 24.674C129.577 23.974 129.955 23.316 130.431 22.7C130.907 22.056 131.537 21.538 132.321 21.146C133.133 20.754 134.169 20.558 135.429 20.558H140.847V46.178ZM136.941 46.178V23.96H136.017C135.457 23.96 134.953 24.03 134.505 24.17C134.085 24.31 133.721 24.562 133.413 24.926C133.105 25.262 132.839 25.766 132.615 26.438L126.651 46.178H136.941ZM161.894 24.212V20.6H168.614V50H164.708V24.296L161.894 24.212ZM155.594 32.738C156.406 32.738 157.176 32.864 157.904 33.116C158.632 33.34 159.29 33.718 159.878 34.25C160.494 34.754 160.97 35.412 161.306 36.224C161.67 37.036 161.852 37.988 161.852 39.08V43.28C161.852 44.708 161.614 45.884 161.138 46.808C160.69 47.732 160.06 48.474 159.248 49.034C158.436 49.566 157.484 49.93 156.392 50.126C155.3 50.35 154.124 50.462 152.864 50.462C152.36 50.462 151.786 50.448 151.142 50.42C150.498 50.392 149.854 50.35 149.21 50.294C148.566 50.238 147.978 50.182 147.446 50.126C146.914 50.098 146.48 50.07 146.144 50.042C145.808 50.014 145.64 50 145.64 50V20.6H149.546V32.738H155.594ZM157.946 42.692V39.5C157.946 38.912 157.862 38.436 157.694 38.072C157.554 37.708 157.344 37.428 157.064 37.232C156.812 37.008 156.518 36.854 156.182 36.77C155.874 36.686 155.552 36.644 155.216 36.644H149.546V46.724C149.574 46.724 149.658 46.738 149.798 46.766C149.938 46.766 150.106 46.78 150.302 46.808C150.526 46.808 150.764 46.822 151.016 46.85C151.296 46.878 151.576 46.906 151.856 46.934C152.136 46.934 152.416 46.934 152.696 46.934C153.704 46.934 154.544 46.864 155.216 46.724C155.888 46.556 156.42 46.304 156.812 45.968C157.232 45.632 157.526 45.198 157.694 44.666C157.862 44.134 157.946 43.476 157.946 42.692ZM174.385 45.6C175.085 45.6 175.685 45.85 176.185 46.35C176.718 46.8167 176.985 47.4167 176.985 48.15C176.985 48.85 176.718 49.45 176.185 49.95C175.685 50.45 175.085 50.7 174.385 50.7C173.685 50.7 173.085 50.45 172.585 49.95C172.085 49.45 171.835 48.85 171.835 48.15C171.835 47.4167 172.085 46.8167 172.585 46.35C173.085 45.85 173.685 45.6 174.385 45.6Z" fill="#3E2723"/>
<path d="M208.431 58.65C206.498 58.65 204.581 58.4167 202.681 57.95C200.815 57.5167 199.115 56.7833 197.581 55.75C196.081 54.7167 194.881 53.3167 193.981 51.55C193.081 49.8167 192.631 47.65 192.631 45.05C192.631 43.1833 192.948 41.4333 193.581 39.8C194.215 38.1667 195.048 36.85 196.081 35.85C197.115 34.8167 198.215 34.3 199.381 34.3C199.781 34.3 199.981 34.4 199.981 34.6C199.981 34.8 199.765 34.9667 199.331 35.1C198.498 35.3 197.681 35.8167 196.881 36.65C196.115 37.45 195.481 38.5167 194.981 39.85C194.481 41.1833 194.231 42.7667 194.231 44.6C194.231 46.8 194.631 48.6 195.431 50C196.265 51.4 197.331 52.5 198.631 53.3C199.931 54.1 201.298 54.65 202.731 54.95C204.198 55.2833 205.581 55.45 206.881 55.45C210.548 55.45 213.898 54.8667 216.931 53.7C219.998 52.5667 222.748 50.9833 225.181 48.95C227.648 46.9167 229.781 44.5833 231.581 41.95C233.415 39.2833 234.931 36.4333 236.131 33.4C236.165 33.3 236.198 33.2 236.231 33.1C235.698 33.1333 235.248 33.1833 234.881 33.25C234.515 33.3167 234.165 33.4167 233.831 33.55C233.098 33.8167 232.548 33.95 232.181 33.95C231.981 33.95 231.881 33.8167 231.881 33.55C231.881 33.0833 232.115 32.6 232.581 32.1C233.081 31.5667 233.681 31.2833 234.381 31.25C234.648 31.25 235.015 31.25 235.481 31.25C235.981 31.2167 236.498 31.2 237.031 31.2C237.665 29.6 238.348 27.95 239.081 26.25C239.815 24.55 240.531 22.9333 241.231 21.4C241.931 19.8667 242.548 18.5333 243.081 17.4C243.615 16.2667 243.998 15.4667 244.231 15C242.398 15.2 240.498 15.3833 238.531 15.55C236.565 15.6833 234.631 15.9167 232.731 16.25C230.831 16.55 229.031 17.05 227.331 17.75C224.198 19.05 221.915 20.7667 220.481 22.9C219.081 25 218.381 27.35 218.381 29.95C218.381 31.5833 218.831 32.9333 219.731 34C220.631 35.0667 221.815 35.6 223.281 35.6C224.615 35.6 225.781 35.2 226.781 34.4C227.781 33.5667 228.565 32.5333 229.131 31.3C229.731 30.0333 230.031 28.7833 230.031 27.55C230.031 27.15 229.981 26.8 229.881 26.5C229.815 26.1667 229.748 25.9333 229.681 25.8C229.681 25.5667 229.781 25.45 229.981 25.45C230.415 25.45 230.698 25.7667 230.831 26.4C230.998 27 231.081 27.6 231.081 28.2C231.081 29.5333 230.715 30.85 229.981 32.15C229.281 33.45 228.298 34.5333 227.031 35.4C225.798 36.2333 224.398 36.65 222.831 36.65C221.431 36.65 220.148 36.3 218.981 35.6C217.848 34.8667 216.931 33.8833 216.231 32.65C215.531 31.4167 215.181 30.05 215.181 28.55C215.181 26.4167 215.665 24.5333 216.631 22.9C217.598 21.2333 218.915 19.8167 220.581 18.65C222.281 17.4833 224.181 16.6 226.281 16C228.315 15.4 230.415 14.9833 232.581 14.75C234.781 14.5167 236.931 14.35 239.031 14.25C241.165 14.1167 243.115 13.9667 244.881 13.8C245.215 13.2 245.631 12.5833 246.131 11.95C246.665 11.3167 247.248 10.7833 247.881 10.35C248.515 9.88333 249.165 9.65 249.831 9.65C250.331 9.65 250.765 9.78333 251.131 10.05C251.498 10.2833 251.681 10.6667 251.681 11.2C251.681 12 251.365 12.6667 250.731 13.2C250.131 13.7 249.365 14.0833 248.431 14.35C247.498 14.6167 246.581 14.8167 245.681 14.95C245.315 15.65 244.881 16.6333 244.381 17.9C243.881 19.1667 243.331 20.5833 242.731 22.15C242.165 23.6833 241.581 25.25 240.981 26.85C240.415 28.4167 239.881 29.8833 239.381 31.25C240.515 31.3167 241.831 31.4 243.331 31.5C244.865 31.5667 246.431 31.65 248.031 31.75C249.631 31.8167 251.148 31.8833 252.581 31.95C254.048 32.0167 255.248 32.05 256.181 32.05C256.548 31.1167 256.931 30.15 257.331 29.15C259.398 24.1167 261.298 20.15 263.031 17.25C264.765 14.35 266.148 12.7333 267.181 12.4C268.515 11.9667 269.431 11.75 269.931 11.75C270.131 11.75 270.231 11.7833 270.231 11.85C270.231 11.95 269.998 12.1167 269.531 12.35C269.298 12.4833 268.815 13.0667 268.081 14.1C267.381 15.1333 266.531 16.55 265.531 18.35C264.531 20.1167 263.481 22.1667 262.381 24.5C261.281 26.8333 260.231 29.3667 259.231 32.1C259.798 32.1 260.365 32.0833 260.931 32.05C261.531 32.0167 261.981 31.9833 262.281 31.95C262.648 31.8833 262.948 31.8 263.181 31.7C263.448 31.6 263.648 31.55 263.781 31.55C263.948 31.55 264.031 31.6333 264.031 31.8C264.031 31.9 263.898 32.0667 263.631 32.3C263.065 32.7 262.381 33.05 261.581 33.35C260.781 33.65 259.781 33.8333 258.581 33.9C257.815 36.1 257.098 38.3667 256.431 40.7C255.765 43 255.431 45.1333 255.431 47.1C255.431 47.8333 255.565 48.5333 255.831 49.2C256.098 49.8667 256.598 50.2 257.331 50.2C258.198 50.2 259.148 49.7333 260.181 48.8C261.215 47.8333 262.231 46.6 263.231 45.1C264.231 43.6 265.065 42.0167 265.731 40.35C266.131 40.35 266.331 40.5 266.331 40.8C265.531 42.6333 264.581 44.4167 263.481 46.15C262.415 47.8833 261.231 49.3 259.931 50.4C258.665 51.5333 257.331 52.1 255.931 52.1C254.831 52.1 253.931 51.7 253.231 50.9C252.565 50.1 252.231 48.9167 252.231 47.35C252.231 45.8167 252.531 43.8667 253.131 41.5C253.765 39.1333 254.565 36.6 255.531 33.9C254.531 33.8667 253.298 33.8167 251.831 33.75C250.365 33.6833 248.815 33.6167 247.181 33.55C245.548 33.45 243.981 33.3667 242.481 33.3C240.981 33.2333 239.731 33.1833 238.731 33.15C238.598 33.55 238.465 33.9333 238.331 34.3C238.198 34.6667 238.081 35 237.981 35.3C236.981 38.2333 235.581 41.0833 233.781 43.85C232.015 46.6167 229.881 49.1167 227.381 51.35C224.915 53.5833 222.081 55.35 218.881 56.65C215.715 57.9833 212.231 58.65 208.431 58.65ZM246.631 13.7C246.965 13.6333 247.248 13.5667 247.481 13.5C247.748 13.4333 247.998 13.3667 248.231 13.3C248.831 13.1 249.248 12.8667 249.481 12.6C249.748 12.3333 249.881 12.1 249.881 11.9C249.881 11.5 249.648 11.3 249.181 11.3C248.948 11.3 248.665 11.4 248.331 11.6C247.998 11.8 247.665 12.1333 247.331 12.6C247.198 12.8 247.065 13 246.931 13.2C246.831 13.3667 246.731 13.5333 246.631 13.7ZM276.558 50.15C275.791 50.15 275.108 49.9333 274.508 49.5C273.941 49.0667 273.658 48.1833 273.658 46.85C273.658 46.2833 273.691 45.75 273.758 45.25C273.858 44.75 273.974 44.2167 274.108 43.65C273.808 44.15 273.391 44.7667 272.858 45.5C272.324 46.2333 271.724 46.95 271.058 47.65C270.424 48.35 269.758 48.9333 269.058 49.4C268.391 49.8667 267.758 50.1 267.158 50.1C266.291 50.1 265.591 49.7167 265.058 48.95C264.524 48.15 264.258 47.1167 264.258 45.85C264.258 44.4833 264.574 43.0167 265.208 41.45C265.841 39.8833 266.708 38.3833 267.808 36.95C268.908 35.5167 270.174 34.35 271.608 33.45C273.041 32.55 274.541 32.1 276.108 32.1C276.874 32.1 277.608 32.2333 278.308 32.5C279.008 32.7333 279.624 33.1333 280.158 33.7C280.391 33.9333 280.508 34.2 280.508 34.5C280.508 34.7 280.424 34.8667 280.258 35C280.091 35.1333 279.874 35.1667 279.608 35.1C279.241 33.9333 278.458 33.35 277.258 33.35C276.691 33.35 276.041 33.5333 275.308 33.9C274.408 34.3667 273.441 35.1167 272.408 36.15C271.408 37.15 270.458 38.3 269.558 39.6C268.691 40.8667 267.974 42.15 267.408 43.45C266.841 44.75 266.558 45.9333 266.558 47C266.558 48.1 266.974 48.65 267.808 48.65C268.541 48.65 269.291 48.3 270.058 47.6C270.858 46.9 271.608 46.0333 272.308 45C273.041 43.9333 273.708 42.8833 274.308 41.85C274.908 40.8167 275.374 39.9833 275.708 39.35C276.208 38.45 276.674 37.7 277.108 37.1C277.541 36.5 278.158 36.2 278.958 36.2C279.324 36.2 279.691 36.25 280.058 36.35C280.424 36.45 280.808 36.4667 281.208 36.4C280.208 37.4 279.324 38.5833 278.558 39.95C277.824 41.3167 277.258 42.6667 276.858 44C276.458 45.3 276.258 46.4 276.258 47.3C276.258 48.3 276.591 48.8 277.258 48.8C277.791 48.8 278.358 48.5 278.958 47.9C279.591 47.3 280.191 46.55 280.758 45.65C281.358 44.7167 281.908 43.7833 282.408 42.85C282.908 41.8833 283.308 41.05 283.608 40.35C283.774 40.35 283.908 40.3667 284.008 40.4C284.141 40.4333 284.208 40.5667 284.208 40.8C284.174 40.9333 284.108 41.0833 284.008 41.25C283.941 41.3833 283.824 41.6333 283.658 42C283.391 42.5333 283.024 43.25 282.558 44.15C282.091 45.05 281.541 45.9667 280.908 46.9C280.274 47.8 279.591 48.5667 278.858 49.2C278.124 49.8333 277.358 50.15 276.558 50.15ZM297.178 37.65C297.178 38.65 296.911 39.85 296.378 41.25C295.844 42.65 295.094 44.0167 294.128 45.35C293.161 46.6833 292.011 47.8 290.678 48.7C289.378 49.5667 287.961 50 286.428 50C285.094 50 284.161 49.6 283.628 48.8C283.094 48 282.828 47 282.828 45.8C282.828 45.1333 282.911 44.45 283.078 43.75C283.244 43.05 283.594 42.1333 284.128 41C283.828 41 283.661 40.9333 283.628 40.8C283.628 40.6333 283.628 40.4833 283.628 40.35C283.961 39.55 284.444 38.5 285.078 37.2C285.711 35.8667 286.444 34.4167 287.278 32.85C288.111 31.25 288.994 29.65 289.928 28.05C290.861 26.45 291.794 24.95 292.728 23.55C293.661 22.1167 294.544 20.9333 295.378 20C297.544 17.4333 299.661 15.4333 301.728 14C303.794 12.5333 305.778 11.8 307.678 11.8C308.811 11.8 309.678 12.0833 310.278 12.65C310.911 13.1833 311.228 13.9 311.228 14.8C311.228 16.0333 310.661 17.5333 309.528 19.3C308.394 21.0333 306.694 22.8333 304.428 24.7C303.061 25.8333 301.244 27.0667 298.978 28.4C296.711 29.7 294.044 30.7833 290.978 31.65H290.878C289.744 33.7167 288.728 35.7167 287.828 37.65C286.961 39.5833 286.278 41.3333 285.778 42.9C285.278 44.4333 285.028 45.6667 285.028 46.6C285.028 47.1 285.078 47.55 285.178 47.95C285.244 48.2167 285.394 48.4667 285.628 48.7C285.894 48.9 286.211 49 286.578 49C287.044 49 287.578 48.8167 288.178 48.45C288.811 48.0833 289.511 47.4333 290.278 46.5C290.744 45.9333 291.228 45.25 291.728 44.45C292.228 43.65 292.694 42.8333 293.128 42C293.561 41.1333 293.911 40.3667 294.178 39.7C294.744 38.3667 295.028 37.15 295.028 36.05C295.028 34.9833 294.778 34.2833 294.278 33.95C293.811 33.6167 293.094 33.45 292.128 33.45C291.528 33.45 291.228 33.2833 291.228 32.95C291.228 32.8167 291.311 32.6833 291.478 32.55C291.678 32.4167 291.944 32.35 292.278 32.35C293.544 32.35 294.678 32.8167 295.678 33.75C296.678 34.6833 297.178 35.9833 297.178 37.65ZM307.678 13.45C306.544 13.45 305.294 13.9333 303.928 14.9C302.594 15.8333 301.211 17.1 299.778 18.7C298.344 20.3 296.928 22.1167 295.528 24.15C294.161 26.15 292.861 28.2167 291.628 30.35C294.194 29.55 296.528 28.5333 298.628 27.3C300.728 26.0333 302.428 24.8667 303.728 23.8C305.694 22.1667 307.161 20.6 308.128 19.1C309.094 17.5667 309.578 16.3167 309.578 15.35C309.578 14.7833 309.411 14.3333 309.078 14C308.778 13.6333 308.311 13.45 307.678 13.45ZM303.602 50.2C301.768 50.2 300.402 49.7167 299.502 48.75C298.635 47.7833 298.202 46.4833 298.202 44.85C298.202 44.0833 298.352 43.2 298.652 42.2C298.952 41.2 299.352 40.1833 299.852 39.15C300.352 38.1167 300.902 37.2 301.502 36.4C302.468 35.1 303.535 34.1 304.702 33.4C305.868 32.6667 307.052 32.3 308.252 32.3C309.518 32.3 310.418 32.5833 310.952 33.15C311.518 33.6833 311.802 34.3167 311.802 35.05C311.802 35.75 311.635 36.3833 311.302 36.95C310.968 37.4833 310.585 37.9167 310.152 38.25C309.752 38.5833 309.402 38.75 309.102 38.75C308.835 38.75 308.602 38.65 308.402 38.45C308.668 38.1167 308.952 37.7167 309.252 37.25C309.552 36.7833 309.768 36.3333 309.902 35.9C310.035 35.5 310.102 35.1 310.102 34.7C310.102 33.8333 309.702 33.4 308.902 33.4C307.935 33.4 306.985 33.8 306.052 34.6C305.152 35.4 304.318 36.4333 303.552 37.7C302.818 38.9333 302.218 40.25 301.752 41.65C301.318 43.0167 301.102 44.2833 301.102 45.45C301.102 46.5167 301.318 47.4 301.752 48.1C302.218 48.8 302.968 49.15 304.002 49.15C305.368 49.15 306.568 48.7167 307.602 47.85C308.635 46.95 309.552 45.8333 310.352 44.5C311.152 43.1333 311.852 41.75 312.452 40.35C312.585 40.35 312.718 40.3833 312.852 40.45C312.985 40.4833 313.052 40.6 313.052 40.8C312.385 42.4667 311.602 44.0167 310.702 45.45C309.802 46.8833 308.768 48.0333 307.602 48.9C306.468 49.7667 305.135 50.2 303.602 50.2ZM316.036 50.2C314.803 50.2 313.686 49.8 312.686 49C311.72 48.2 311.236 46.9833 311.236 45.35C311.236 43.9833 311.536 42.5333 312.136 41C312.77 39.4667 313.586 38.0333 314.586 36.7C315.62 35.3333 316.753 34.2333 317.986 33.4C319.253 32.5333 320.52 32.1 321.786 32.1C322.42 32.1 323.036 32.2833 323.636 32.65C324.236 33.0167 324.536 33.65 324.536 34.55C324.536 35.3833 324.22 36.3 323.586 37.3C322.953 38.3 322.053 39.2333 320.886 40.1C320.386 40.4667 319.753 40.8167 318.986 41.15C318.22 41.4833 317.453 41.7667 316.686 42C315.92 42.2 315.286 42.3 314.786 42.3C314.62 42.7 314.453 43.2333 314.286 43.9C314.153 44.5667 314.086 45.25 314.086 45.95C314.086 46.7833 314.253 47.5333 314.586 48.2C314.92 48.8667 315.536 49.2 316.436 49.2C317.536 49.2 318.553 48.8833 319.486 48.25C320.453 47.6167 321.303 46.8167 322.036 45.85C322.803 44.8833 323.453 43.9 323.986 42.9C324.52 41.9 324.936 41.05 325.236 40.35C325.636 40.35 325.836 40.5 325.836 40.8C325.403 41.7333 324.903 42.75 324.336 43.85C323.803 44.95 323.153 45.9833 322.386 46.95C321.653 47.8833 320.753 48.6667 319.686 49.3C318.653 49.9 317.436 50.2 316.036 50.2ZM315.136 41.4C315.603 41.4 316.386 41.2333 317.486 40.9C318.586 40.5333 319.586 39.9667 320.486 39.2C321.353 38.4333 322.02 37.6 322.486 36.7C322.953 35.7667 323.186 34.9833 323.186 34.35C323.186 33.6167 322.92 33.25 322.386 33.25C321.986 33.25 321.436 33.5167 320.736 34.05C320.036 34.5833 319.17 35.4833 318.136 36.75C317.503 37.55 316.903 38.4167 316.336 39.35C315.77 40.2833 315.37 40.9667 315.136 41.4ZM325.229 40.35C325.863 38.9833 326.546 37.7 327.279 36.5C328.013 35.3 328.846 34.3333 329.779 33.6C330.746 32.8667 331.879 32.5 333.179 32.5C334.346 32.5 335.213 32.7833 335.779 33.35C336.346 33.8833 336.629 34.6167 336.629 35.55C336.629 36.5833 336.363 37.55 335.829 38.45C335.296 39.35 334.629 40.2 333.829 41C333.029 41.8 332.229 42.5667 331.429 43.3C330.629 44.0333 329.963 44.75 329.429 45.45C328.896 46.15 328.629 46.8667 328.629 47.6C328.629 48.2 328.863 48.6333 329.329 48.9C329.829 49.1333 330.279 49.25 330.679 49.25C331.446 49.25 332.229 48.9333 333.029 48.3C333.829 47.6667 334.596 46.8833 335.329 45.95C336.063 44.9833 336.729 44 337.329 43C337.929 42 338.396 41.1167 338.729 40.35C339.196 40.35 339.396 40.5 339.329 40.8C337.796 43.8333 336.263 46.2 334.729 47.9C333.196 49.5667 331.596 50.4 329.929 50.4C329.463 50.4 328.929 50.2833 328.329 50.05C327.763 49.85 327.279 49.5 326.879 49C326.479 48.5 326.279 47.85 326.279 47.05C326.279 46.1167 326.546 45.2333 327.079 44.4C327.613 43.5667 328.263 42.7667 329.029 42C329.829 41.2 330.629 40.45 331.429 39.75C332.229 39.0167 332.896 38.3167 333.429 37.65C333.963 36.95 334.229 36.2667 334.229 35.6C334.229 35.0333 334.079 34.5833 333.779 34.25C333.479 33.8833 332.946 33.7 332.179 33.7C330.979 33.7 329.846 34.3833 328.779 35.75C327.713 37.0833 326.729 38.7667 325.829 40.8L325.229 40.35ZM339.956 50C338.689 50 337.756 49.5833 337.156 48.75C336.556 47.8833 336.256 46.8333 336.256 45.6C336.256 44.3 336.556 42.9 337.156 41.4C337.756 39.8667 338.556 38.4333 339.556 37.1C340.556 35.7333 341.673 34.6167 342.906 33.75C344.139 32.8833 345.373 32.45 346.606 32.45C347.573 32.45 348.389 32.7667 349.056 33.4C349.723 34.0333 350.039 34.7833 350.006 35.65C351.006 33.3833 351.823 31.1167 352.456 28.85C353.123 26.55 353.456 24.2333 353.456 21.9C353.456 20.1 353.189 18.7333 352.656 17.8C352.123 16.8333 351.473 16.1667 350.706 15.8C349.939 15.4333 349.206 15.25 348.506 15.25C347.073 15.25 345.623 15.8833 344.156 17.15C342.689 18.4167 341.439 20.3667 340.406 23C340.306 23.2333 340.223 23.45 340.156 23.65C340.123 23.8167 340.073 24.1 340.006 24.5C338.739 24.5 338.106 24.1333 338.106 23.4C338.106 22.9667 338.273 22.45 338.606 21.85C338.939 21.2167 339.223 20.7167 339.456 20.35C340.689 18.4833 342.206 17.0167 344.006 15.95C345.806 14.8833 347.573 14.35 349.306 14.35C350.506 14.35 351.623 14.6333 352.656 15.2C353.689 15.7333 354.523 16.5667 355.156 17.7C355.789 18.8333 356.106 20.3 356.106 22.1C356.106 24.0333 355.806 26.1833 355.206 28.55C354.639 30.8833 353.856 33.25 352.856 35.65C351.889 38.0167 350.756 40.2167 349.456 42.25C348.189 44.2833 346.856 45.9667 345.456 47.3C344.689 48.0333 343.839 48.6667 342.906 49.2C342.006 49.7333 341.023 50 339.956 50ZM340.656 48.9C341.589 48.9 342.539 48.4 343.506 47.4C344.473 46.3667 345.373 45.15 346.206 43.75C346.573 43.15 346.973 42.4333 347.406 41.6C347.839 40.7333 348.256 39.8833 348.656 39.05C349.056 38.1833 349.323 37.4667 349.456 36.9C349.356 35.8 349.123 35.05 348.756 34.65C348.423 34.25 348.006 34.05 347.506 34.05C346.606 34.05 345.656 34.4833 344.656 35.35C343.689 36.1833 342.773 37.2667 341.906 38.6C341.073 39.9333 340.389 41.3167 339.856 42.75C339.323 44.1833 339.056 45.5 339.056 46.7C339.056 47.3 339.173 47.8167 339.406 48.25C339.639 48.6833 340.056 48.9 340.656 48.9ZM364.595 50.15C363.828 50.15 363.145 49.9333 362.545 49.5C361.978 49.0667 361.695 48.1833 361.695 46.85C361.695 46.2833 361.728 45.75 361.795 45.25C361.895 44.75 362.012 44.2167 362.145 43.65C361.845 44.15 361.428 44.7667 360.895 45.5C360.362 46.2333 359.762 46.95 359.095 47.65C358.462 48.35 357.795 48.9333 357.095 49.4C356.428 49.8667 355.795 50.1 355.195 50.1C354.328 50.1 353.628 49.7167 353.095 48.95C352.562 48.15 352.295 47.1167 352.295 45.85C352.295 44.4833 352.612 43.0167 353.245 41.45C353.878 39.8833 354.745 38.3833 355.845 36.95C356.945 35.5167 358.212 34.35 359.645 33.45C361.078 32.55 362.578 32.1 364.145 32.1C364.912 32.1 365.645 32.2333 366.345 32.5C367.045 32.7333 367.662 33.1333 368.195 33.7C368.428 33.9333 368.545 34.2 368.545 34.5C368.545 34.7 368.462 34.8667 368.295 35C368.128 35.1333 367.912 35.1667 367.645 35.1C367.278 33.9333 366.495 33.35 365.295 33.35C364.728 33.35 364.078 33.5333 363.345 33.9C362.445 34.3667 361.478 35.1167 360.445 36.15C359.445 37.15 358.495 38.3 357.595 39.6C356.728 40.8667 356.012 42.15 355.445 43.45C354.878 44.75 354.595 45.9333 354.595 47C354.595 48.1 355.012 48.65 355.845 48.65C356.578 48.65 357.328 48.3 358.095 47.6C358.895 46.9 359.645 46.0333 360.345 45C361.078 43.9333 361.745 42.8833 362.345 41.85C362.945 40.8167 363.412 39.9833 363.745 39.35C364.245 38.45 364.712 37.7 365.145 37.1C365.578 36.5 366.195 36.2 366.995 36.2C367.362 36.2 367.728 36.25 368.095 36.35C368.462 36.45 368.845 36.4667 369.245 36.4C368.245 37.4 367.362 38.5833 366.595 39.95C365.862 41.3167 365.295 42.6667 364.895 44C364.495 45.3 364.295 46.4 364.295 47.3C364.295 48.3 364.628 48.8 365.295 48.8C365.828 48.8 366.395 48.5 366.995 47.9C367.628 47.3 368.228 46.55 368.795 45.65C369.395 44.7167 369.945 43.7833 370.445 42.85C370.945 41.8833 371.345 41.05 371.645 40.35C371.812 40.35 371.945 40.3667 372.045 40.4C372.178 40.4333 372.245 40.5667 372.245 40.8C372.212 40.9333 372.145 41.0833 372.045 41.25C371.978 41.3833 371.862 41.6333 371.695 42C371.428 42.5333 371.062 43.25 370.595 44.15C370.128 45.05 369.578 45.9667 368.945 46.9C368.312 47.8 367.628 48.5667 366.895 49.2C366.162 49.8333 365.395 50.15 364.595 50.15ZM374.015 50.75C373.482 50.75 373.048 50.5833 372.715 50.25C372.382 49.9167 372.215 49.5 372.215 49C372.215 48.3333 372.465 47.7667 372.965 47.3C373.498 46.8333 374.065 46.6 374.665 46.6C375.198 46.6 375.632 46.7667 375.965 47.1C376.298 47.4 376.465 47.8 376.465 48.3C376.465 48.9333 376.215 49.5 375.715 50C375.215 50.5 374.648 50.75 374.015 50.75Z" fill="#3E2723"/>
<path d="M92.614 77.716C91.998 77.464 91.312 77.268 90.556 77.128C89.828 76.988 89.128 76.918 88.456 76.918C87.392 76.918 86.482 77.072 85.726 77.38C84.998 77.688 84.424 78.178 84.004 78.85C83.612 79.494 83.416 80.348 83.416 81.412V95.188C83.416 96.252 83.598 97.106 83.962 97.75C84.326 98.394 84.844 98.87 85.516 99.178C86.216 99.458 87.084 99.598 88.12 99.598C88.876 99.598 89.632 99.528 90.388 99.388C91.172 99.248 91.886 99.08 92.53 98.884C93.202 98.688 93.72 98.548 94.084 98.464L94.714 102.034C93.51 102.482 92.334 102.832 91.186 103.084C90.038 103.336 88.932 103.462 87.868 103.462C86.132 103.462 84.634 103.168 83.374 102.58C82.142 101.964 81.19 101.04 80.518 99.808C79.846 98.576 79.51 97.064 79.51 95.272V81.538C79.51 79.662 79.874 78.108 80.602 76.876C81.33 75.616 82.296 74.678 83.5 74.062C84.732 73.446 86.118 73.138 87.658 73.138C88.694 73.138 89.716 73.25 90.724 73.474C91.732 73.698 92.712 74.062 93.664 74.566L92.614 77.716ZM124.536 73.6H129.954V103.042H126.048V76.96H125.082C124.522 76.96 124.018 77.044 123.57 77.212C123.122 77.352 122.744 77.604 122.436 77.968C122.156 78.304 121.918 78.808 121.722 79.48L116.43 97.414C116.01 98.814 115.576 99.934 115.128 100.774C114.68 101.586 114.12 102.23 113.448 102.706C112.776 103.182 111.894 103.546 110.802 103.798L108.702 101.866C109.346 101.586 109.892 101.264 110.34 100.9C110.788 100.536 111.166 100.102 111.474 99.598C111.782 99.066 112.048 98.422 112.272 97.666L117.774 79.648C117.942 79.032 118.152 78.374 118.404 77.674C118.684 76.974 119.062 76.316 119.538 75.7C120.014 75.084 120.644 74.58 121.428 74.188C122.24 73.796 123.276 73.6 124.536 73.6ZM144.548 86.494V89.896H136.274V86.494H144.548ZM142.7 81.664C142.7 78.808 143.498 76.638 145.094 75.154C146.69 73.642 148.874 72.886 151.646 72.886C154.418 72.886 156.574 73.67 158.114 75.238C159.654 76.806 160.424 78.962 160.424 81.706V95.188C160.424 96.896 160.06 98.38 159.332 99.64C158.604 100.872 157.568 101.824 156.224 102.496C154.908 103.14 153.368 103.462 151.604 103.462C149.952 103.462 148.454 103.154 147.11 102.538C145.766 101.922 144.688 100.998 143.876 99.766C143.092 98.534 142.7 97.008 142.7 95.188V81.664ZM146.606 94.6C146.606 95.664 146.802 96.56 147.194 97.288C147.614 98.016 148.188 98.576 148.916 98.968C149.672 99.36 150.554 99.556 151.562 99.556C152.57 99.556 153.438 99.36 154.166 98.968C154.922 98.576 155.496 98.016 155.888 97.288C156.308 96.532 156.518 95.636 156.518 94.6V82.42C156.518 81.16 156.35 80.138 156.014 79.354C155.678 78.542 155.132 77.94 154.376 77.548C153.648 77.128 152.71 76.918 151.562 76.918C150.47 76.918 149.56 77.114 148.832 77.506C148.104 77.898 147.544 78.5 147.152 79.312C146.788 80.124 146.606 81.16 146.606 82.42V94.6ZM132.074 77.212V73.6H138.794V103H134.888V77.296L132.074 77.212ZM163.64 77.422V73.6H177.668V77.422H163.64ZM173.594 85.738C174.406 85.738 175.176 85.864 175.904 86.116C176.632 86.34 177.29 86.718 177.878 87.25C178.494 87.754 178.97 88.412 179.306 89.224C179.67 90.036 179.852 90.988 179.852 92.08V96.28C179.852 97.708 179.614 98.884 179.138 99.808C178.69 100.732 178.06 101.474 177.248 102.034C176.436 102.566 175.484 102.93 174.392 103.126C173.3 103.35 172.124 103.462 170.864 103.462C170.36 103.462 169.786 103.448 169.142 103.42C168.498 103.392 167.854 103.35 167.21 103.294C166.566 103.238 165.978 103.182 165.446 103.126C164.914 103.098 164.48 103.07 164.144 103.042C163.808 103.014 163.64 103 163.64 103V73.6H167.546V85.738H173.594ZM175.946 95.692V92.5C175.946 91.912 175.862 91.436 175.694 91.072C175.554 90.708 175.344 90.428 175.064 90.232C174.812 90.008 174.518 89.854 174.182 89.77C173.874 89.686 173.552 89.644 173.216 89.644H167.546V99.724C167.574 99.724 167.658 99.738 167.798 99.766C167.938 99.766 168.106 99.78 168.302 99.808C168.526 99.808 168.764 99.822 169.016 99.85C169.296 99.878 169.576 99.906 169.856 99.934C170.136 99.934 170.416 99.934 170.696 99.934C171.704 99.934 172.544 99.864 173.216 99.724C173.888 99.556 174.42 99.304 174.812 98.968C175.232 98.632 175.526 98.198 175.694 97.666C175.862 97.134 175.946 96.476 175.946 95.692ZM182.582 81.664C182.582 78.808 183.38 76.638 184.976 75.154C186.572 73.642 188.756 72.886 191.528 72.886C194.3 72.886 196.456 73.67 197.996 75.238C199.536 76.806 200.306 78.962 200.306 81.706V95.188C200.306 96.896 199.942 98.38 199.214 99.64C198.486 100.872 197.45 101.824 196.106 102.496C194.79 103.14 193.25 103.462 191.486 103.462C189.834 103.462 188.336 103.154 186.992 102.538C185.648 101.922 184.57 100.998 183.758 99.766C182.974 98.534 182.582 97.008 182.582 95.188V81.664ZM186.488 94.6C186.488 95.664 186.684 96.56 187.076 97.288C187.496 98.016 188.07 98.576 188.798 98.968C189.554 99.36 190.436 99.556 191.444 99.556C192.48 99.556 193.362 99.36 194.09 98.968C194.818 98.576 195.392 98.016 195.812 97.288C196.232 96.532 196.442 95.636 196.442 94.6V82.42C196.442 81.16 196.26 80.138 195.896 79.354C195.56 78.542 195.014 77.94 194.258 77.548C193.53 77.128 192.592 76.918 191.444 76.918C190.352 76.918 189.442 77.114 188.714 77.506C187.986 77.898 187.426 78.5 187.034 79.312C186.67 80.124 186.488 81.16 186.488 82.42V94.6ZM212.408 73.6C214.032 73.6 215.432 73.88 216.608 74.44C217.784 75 218.694 75.826 219.338 76.918C219.982 78.01 220.304 79.354 220.304 80.95C220.304 81.79 220.192 82.574 219.968 83.302C219.772 84.03 219.464 84.688 219.044 85.276C218.624 85.864 218.106 86.368 217.49 86.788C218.302 87.152 219.044 87.684 219.716 88.384C220.388 89.056 220.906 89.882 221.27 90.862C221.662 91.842 221.858 92.99 221.858 94.306C221.858 96.07 221.508 97.61 220.808 98.926C220.136 100.214 219.142 101.222 217.826 101.95C216.538 102.65 214.928 103 212.996 103H203.588V73.6H212.408ZM211.106 85.654C212.226 85.654 213.136 85.514 213.836 85.234C214.536 84.926 215.054 84.45 215.39 83.806C215.726 83.162 215.894 82.35 215.894 81.37C215.894 80.446 215.726 79.69 215.39 79.102C215.054 78.514 214.536 78.094 213.836 77.842C213.164 77.562 212.324 77.422 211.316 77.422H207.494V85.654H211.106ZM212.156 99.388C213.052 99.388 213.906 99.234 214.718 98.926C215.53 98.59 216.188 98.044 216.692 97.288C217.196 96.532 217.448 95.496 217.448 94.18C217.448 93.2 217.252 92.346 216.86 91.618C216.468 90.89 215.866 90.344 215.054 89.98C214.27 89.588 213.276 89.392 212.072 89.392H207.494V99.388H212.156ZM234.83 85.738C235.642 85.738 236.412 85.864 237.14 86.116C237.868 86.34 238.526 86.718 239.114 87.25C239.73 87.754 240.206 88.412 240.542 89.224C240.906 90.036 241.088 90.988 241.088 92.08V96.28C241.088 97.708 240.85 98.884 240.374 99.808C239.926 100.732 239.296 101.474 238.484 102.034C237.672 102.566 236.72 102.93 235.628 103.126C234.536 103.35 233.36 103.462 232.1 103.462C231.596 103.462 231.022 103.448 230.378 103.42C229.734 103.392 229.09 103.35 228.446 103.294C227.802 103.238 227.214 103.182 226.682 103.126C226.15 103.098 225.716 103.07 225.38 103.042C225.044 103.014 224.876 103 224.876 103V73.6H228.782V85.738H234.83ZM237.182 95.692V92.5C237.182 91.912 237.098 91.436 236.93 91.072C236.79 90.708 236.58 90.428 236.3 90.232C236.048 90.008 235.754 89.854 235.418 89.77C235.11 89.686 234.788 89.644 234.452 89.644H228.782V99.724C228.81 99.724 228.894 99.738 229.034 99.766C229.174 99.766 229.342 99.78 229.538 99.808C229.762 99.808 230 99.822 230.252 99.85C230.532 99.878 230.812 99.906 231.092 99.934C231.372 99.934 231.652 99.934 231.932 99.934C232.94 99.934 233.78 99.864 234.452 99.724C235.124 99.556 235.656 99.304 236.048 98.968C236.468 98.632 236.762 98.198 236.93 97.666C237.098 97.134 237.182 96.476 237.182 95.692ZM255.414 86.494V89.896H247.14V86.494H255.414ZM253.566 81.664C253.566 78.808 254.364 76.638 255.96 75.154C257.556 73.642 259.74 72.886 262.512 72.886C265.284 72.886 267.44 73.67 268.98 75.238C270.52 76.806 271.29 78.962 271.29 81.706V95.188C271.29 96.896 270.926 98.38 270.198 99.64C269.47 100.872 268.434 101.824 267.09 102.496C265.774 103.14 264.234 103.462 262.47 103.462C260.818 103.462 259.32 103.154 257.976 102.538C256.632 101.922 255.554 100.998 254.742 99.766C253.958 98.534 253.566 97.008 253.566 95.188V81.664ZM257.472 94.6C257.472 95.664 257.668 96.56 258.06 97.288C258.48 98.016 259.054 98.576 259.782 98.968C260.538 99.36 261.42 99.556 262.428 99.556C263.436 99.556 264.304 99.36 265.032 98.968C265.788 98.576 266.362 98.016 266.754 97.288C267.174 96.532 267.384 95.636 267.384 94.6V82.42C267.384 81.16 267.216 80.138 266.88 79.354C266.544 78.542 265.998 77.94 265.242 77.548C264.514 77.128 263.576 76.918 262.428 76.918C261.336 76.918 260.426 77.114 259.698 77.506C258.97 77.898 258.41 78.5 258.018 79.312C257.654 80.124 257.472 81.16 257.472 82.42V94.6ZM242.94 77.212V73.6H249.66V103H245.754V77.296L242.94 77.212ZM276.353 99.304C276.941 99.304 277.445 99.514 277.865 99.934C278.313 100.326 278.537 100.83 278.537 101.446C278.537 102.034 278.313 102.538 277.865 102.958C277.445 103.378 276.941 103.588 276.353 103.588C275.765 103.588 275.261 103.378 274.841 102.958C274.421 102.538 274.211 102.034 274.211 101.446C274.211 100.83 274.421 100.326 274.841 99.934C275.261 99.514 275.765 99.304 276.353 99.304Z" fill="#3E2723"/>
</svg>
