<svg width="254" height="45" viewBox="0 0 254 45" fill="none" xmlns="http://www.w3.org/2000/svg">
<path d="M23.126 43.3999V3.5339H3.534V43.3999H2.5332e-07V-0.000100613H26.722V43.3999H23.126ZM54.1042 31.9299C54.1042 35.5672 53.1742 38.5019 51.3142 40.7339C49.4542 42.9246 46.6435 44.0199 42.8822 44.0199C40.3195 44.0199 38.1495 43.4826 36.3722 42.4079C34.6362 41.2919 33.3342 39.8246 32.4662 38.0059C31.5982 36.1872 31.1642 34.1619 31.1642 31.9299V23.8079C31.1642 21.1626 31.6189 18.9512 32.5282 17.1739C33.4375 15.3552 34.7602 13.9912 36.4962 13.0819C38.2322 12.1312 40.3195 11.6559 42.7582 11.6559C46.4369 11.6559 49.2475 12.7306 51.1902 14.8799C53.1329 17.0292 54.1042 20.0052 54.1042 23.8079V31.9299ZM50.6322 23.8079C50.6322 21.8239 50.3635 20.1706 49.8262 18.8479C49.2889 17.4839 48.4415 16.4712 47.2842 15.8099C46.1682 15.1072 44.7009 14.7559 42.8822 14.7559C41.0635 14.7559 39.5342 15.1072 38.2942 15.8099C37.0955 16.4712 36.1862 17.4839 35.5662 18.8479C34.9462 20.1706 34.6362 21.8239 34.6362 23.8079V32.5499C34.6362 34.2032 34.9669 35.6706 35.6282 36.9519C36.3309 38.1919 37.3022 39.1632 38.5422 39.8659C39.7822 40.5686 41.2289 40.9199 42.8822 40.9199C44.6182 40.9199 46.0649 40.5892 47.2222 39.9279C48.3795 39.2252 49.2269 38.2539 49.7642 37.0139C50.3429 35.7326 50.6322 34.2446 50.6322 32.5499V23.8079ZM87.9988 12.3999L78.5128 27.8999L87.8748 43.3999H83.7208L75.4748 29.5739H74.2968V43.3999H70.7628V29.5739H69.8328L61.2148 43.3999H57.0608L66.9808 27.8999L57.4948 12.3999H61.5248L69.7088 26.1639H70.7628V12.3999H74.2968V26.1639H75.5368L84.0928 12.3999H87.9988ZM94.4594 35.0919C94.4594 36.2079 94.6248 37.1586 94.9554 37.9439C95.3274 38.6879 95.8234 39.3079 96.4434 39.8039C97.0634 40.2586 97.7868 40.6099 98.6134 40.8579C99.4814 41.0646 100.411 41.1679 101.403 41.1679C102.933 41.1679 104.441 40.9406 105.929 40.4859C107.417 39.9899 108.926 39.3492 110.455 38.5639L111.819 41.2299C110.29 42.1392 108.616 42.8626 106.797 43.3999C104.979 43.8959 103.284 44.1439 101.713 44.1439C100.143 44.1439 98.6961 43.9992 97.3734 43.7099C96.0508 43.4206 94.9141 42.9246 93.9634 42.2219C93.0128 41.5192 92.2688 40.5892 91.7314 39.4319C91.2354 38.2746 90.9874 36.8279 90.9874 35.0919V22.3819C90.9874 20.0259 91.4834 18.0626 92.4754 16.4919C93.4674 14.9212 94.8314 13.7432 96.5674 12.9579C98.3034 12.1726 100.267 11.7799 102.457 11.7799C104.689 11.7799 106.611 12.1726 108.223 12.9579C109.877 13.7432 111.137 14.9006 112.005 16.4299C112.915 17.9592 113.369 19.8812 113.369 22.1959V30.2559L94.4594 31.2479V35.0919ZM109.897 21.7619C109.897 20.3152 109.567 19.0752 108.905 18.0419C108.244 16.9672 107.355 16.1406 106.239 15.5619C105.123 14.9832 103.842 14.6939 102.395 14.6939C100.783 14.6939 99.3781 15.0039 98.1794 15.6239C96.9808 16.2026 96.0508 17.0706 95.3894 18.2279C94.7694 19.3852 94.4594 20.7906 94.4594 22.4439V27.8379L109.897 27.1559V21.7619ZM134.442 12.3999H142.44V43.3999H138.906V15.6859H134.814C133.739 15.6859 132.788 15.8719 131.962 16.2439C131.176 16.5746 130.536 17.0499 130.04 17.6699C129.544 18.2899 129.151 19.0546 128.862 19.9639L123.84 36.4559C123.385 37.9439 122.889 39.2046 122.352 40.2379C121.856 41.2299 121.215 42.0359 120.43 42.6559C119.686 43.2759 118.694 43.7512 117.454 44.0819L115.16 42.1599C116.358 41.7879 117.33 41.1886 118.074 40.3619C118.818 39.4939 119.396 38.6259 119.81 37.7579C120.223 36.8486 120.492 36.1666 120.616 35.7119L124.894 21.2659C125.1 20.6046 125.369 19.7779 125.7 18.7859C126.03 17.7939 126.526 16.8226 127.188 15.8719C127.849 14.8799 128.758 14.0532 129.916 13.3919C131.073 12.7306 132.582 12.3999 134.442 12.3999ZM169.997 13.2059C169.997 13.2059 169.914 13.7226 169.749 14.7559C169.625 15.7892 169.563 17.0706 169.563 18.5999V43.1519C169.604 43.1519 169.356 43.1726 168.819 43.2139C168.281 43.2139 167.579 43.2552 166.711 43.3379C165.843 43.3792 164.913 43.4206 163.921 43.4619C162.97 43.5032 162.04 43.5446 161.131 43.5859C160.263 43.6272 159.56 43.6479 159.023 43.6479C157.535 43.6892 156.067 43.5859 154.621 43.3379C153.215 43.0899 151.913 42.5939 150.715 41.8499C149.557 41.1059 148.627 40.0106 147.925 38.5639C147.263 37.1172 146.933 35.2366 146.933 32.9219V21.4519C146.933 19.5919 147.181 18.0626 147.677 16.8639C148.214 15.6239 148.917 14.6526 149.785 13.9499C150.653 13.2059 151.624 12.6892 152.699 12.3999C153.815 12.0692 154.951 11.9039 156.109 11.9039C157.225 11.9039 158.361 12.0279 159.519 12.2759C160.717 12.4826 161.895 12.7926 163.053 13.2059C164.251 13.5779 165.388 14.0326 166.463 14.5699C166.463 14.5699 166.525 14.2599 166.649 13.6399C166.814 13.0199 167.021 12.4412 167.269 11.9039L169.997 13.2059ZM150.343 33.2939C150.343 34.8232 150.611 36.1459 151.149 37.2619C151.727 38.3366 152.575 39.1632 153.691 39.7419C154.807 40.2792 156.171 40.5479 157.783 40.5479C158.899 40.5479 159.953 40.5272 160.945 40.4859C161.937 40.4446 162.805 40.4032 163.549 40.3619C164.334 40.3206 164.954 40.2792 165.409 40.2379C165.863 40.1966 166.091 40.1759 166.091 40.1759V17.6699C165.057 17.2152 164.065 16.8432 163.115 16.5539C162.164 16.2232 161.255 15.9546 160.387 15.7479C159.56 15.5412 158.775 15.3966 158.031 15.3139C157.287 15.1899 156.605 15.1279 155.985 15.1279C155.489 15.1279 154.91 15.1899 154.249 15.3139C153.629 15.4379 153.009 15.7066 152.389 16.1199C151.81 16.5332 151.314 17.1739 150.901 18.0419C150.529 18.9099 150.343 20.1086 150.343 21.6379V33.2939ZM194.379 24.8619V12.3999H197.913V43.3999H194.379V28.2099H178.569V43.3999H175.035V12.3999H178.569V24.8619H194.379ZM206.119 12.3999V38.1299L221.185 12.3999H225.463V43.3999H221.929V17.6699L206.863 43.3999H202.585V12.3999H206.119ZM240.8 11.7799C241.916 11.7799 243.052 11.8006 244.21 11.8419C245.408 11.8832 246.524 11.9452 247.558 12.0279C248.632 12.0692 249.583 12.1312 250.41 12.2139C251.236 12.2966 251.898 12.3586 252.394 12.3999C252.89 12.4412 253.138 12.4619 253.138 12.4619V43.3999H249.728V31.1859H240.118C240.035 31.1859 239.828 31.1859 239.498 31.1859C239.167 31.1859 238.836 31.1859 238.506 31.1859C238.216 31.1446 238.01 31.1239 237.886 31.1239L233.298 43.3999H229.764L234.662 30.2559C233.67 29.8012 232.76 29.1812 231.934 28.3959C231.148 27.6106 230.528 26.6599 230.074 25.5439C229.619 24.3866 229.392 23.1052 229.392 21.6999C229.392 19.9639 229.784 18.3519 230.57 16.8639C231.396 15.3346 232.657 14.1152 234.352 13.2059C236.046 12.2552 238.196 11.7799 240.8 11.7799ZM238.568 27.7139H249.728V15.3139C249.728 15.3139 249.48 15.3139 248.984 15.3139C248.529 15.2726 247.888 15.2312 247.062 15.1899C246.276 15.1486 245.388 15.1279 244.396 15.1279C243.404 15.0866 242.412 15.0659 241.42 15.0659C238.816 15.0659 236.728 15.6859 235.158 16.9259C233.628 18.1659 232.864 19.6952 232.864 21.5139C232.864 22.7126 233.05 23.7252 233.422 24.5519C233.794 25.3372 234.269 25.9779 234.848 26.4739C235.468 26.9286 236.108 27.2592 236.77 27.4659C237.431 27.6312 238.03 27.7139 238.568 27.7139Z" fill="#FFF5D1"/>
</svg>
