<svg width="315" height="99" viewBox="0 0 315 99" fill="none" xmlns="http://www.w3.org/2000/svg">
<path d="M7.106 1.40799C6.666 1.21733 6.23333 1.08533 5.808 1.01199C5.39733 0.923995 4.98667 0.879995 4.576 0.879995C3.81333 0.879995 3.16067 0.997328 2.618 1.23199C2.09 1.46666 1.67933 1.84066 1.386 2.35399C1.10733 2.85266 0.967999 3.50533 0.967999 4.312V11.528C0.967999 12.3493 1.10733 13.0167 1.386 13.53C1.66467 14.0433 2.068 14.4173 2.596 14.652C3.124 14.872 3.762 14.982 4.51 14.982C4.80333 14.982 5.11867 14.96 5.456 14.916C5.79333 14.8573 6.15267 14.7767 6.534 14.674C6.93 14.5713 7.33333 14.4467 7.744 14.3L7.964 15.114C7.348 15.3487 6.73933 15.5247 6.138 15.642C5.55133 15.774 4.97933 15.84 4.422 15.84C3.498 15.84 2.706 15.6933 2.046 15.4C1.386 15.092 0.879999 14.6227 0.527999 13.992C0.175999 13.3613 -1.05798e-06 12.5547 -1.05798e-06 11.572V4.37799C-1.05798e-06 3.33666 0.190666 2.49333 0.571999 1.84799C0.967999 1.20266 1.48867 0.733328 2.134 0.439994C2.794 0.146661 3.51267 -5.72205e-06 4.29 -5.72205e-06C4.87667 -5.72205e-06 5.42667 0.0586611 5.94 0.175995C6.468 0.293328 6.95933 0.476661 7.414 0.725994L7.106 1.40799ZM19.6053 4.35599C20.4413 4.35599 21.1453 4.51733 21.7173 4.83999C22.2893 5.16266 22.7219 5.63933 23.0153 6.26999C23.3086 6.88599 23.4553 7.64866 23.4553 8.55799V11.506C23.4553 12.826 23.1106 13.8747 22.4213 14.652C21.7319 15.4293 20.7273 15.818 19.4073 15.818C18.5126 15.818 17.7573 15.642 17.1413 15.29C16.5253 14.938 16.0633 14.4393 15.7553 13.794C15.4473 13.1487 15.2933 12.386 15.2933 11.506V5.23599C15.2933 4.57599 15.3886 3.96733 15.5793 3.40999C15.7699 2.83799 16.0706 2.32466 16.4813 1.87C16.8479 1.45933 17.3246 1.09999 17.9113 0.791995C18.4979 0.483994 19.1506 0.278661 19.8693 0.175995L20.0013 0.681995C19.2973 0.843328 18.7179 1.07799 18.2633 1.38599C17.8086 1.67933 17.4639 1.96533 17.2293 2.24399C16.9506 2.58133 16.7233 2.97733 16.5473 3.43199C16.3713 3.88666 16.2833 4.42933 16.2833 5.05999V6.13799C16.4593 5.77133 16.7086 5.45599 17.0313 5.19199C17.3686 4.92799 17.7573 4.72266 18.1973 4.57599C18.6373 4.42933 19.1066 4.35599 19.6053 4.35599ZM19.5393 5.25799C19.0406 5.25799 18.5933 5.33133 18.1973 5.47799C17.8013 5.62466 17.4566 5.83733 17.1633 6.11599C16.8846 6.37999 16.6646 6.71733 16.5033 7.12799C16.3566 7.52399 16.2833 7.97866 16.2833 8.492V11.506C16.2833 12.2247 16.4006 12.8407 16.6353 13.354C16.8699 13.8527 17.2219 14.2413 17.6913 14.52C18.1606 14.784 18.7473 14.916 19.4513 14.916C20.1406 14.916 20.7053 14.784 21.1453 14.52C21.5999 14.256 21.9373 13.8673 22.1573 13.354C22.3773 12.8407 22.4873 12.2247 22.4873 11.506V8.40399C22.4873 7.71466 22.3699 7.13533 22.1353 6.666C21.9006 6.19666 21.5633 5.84466 21.1233 5.60999C20.6833 5.37533 20.1553 5.25799 19.5393 5.25799ZM32.8439 11.55C32.8439 12.8407 32.5139 13.882 31.8539 14.674C31.1939 15.4513 30.1966 15.84 28.8619 15.84C27.9379 15.84 27.1679 15.6493 26.5519 15.268C25.9359 14.872 25.4739 14.3513 25.1659 13.706C24.8579 13.0607 24.7039 12.342 24.7039 11.55V8.66799C24.7039 7.72933 24.8653 6.94466 25.1879 6.31399C25.5106 5.66866 25.9799 5.18466 26.5959 4.86199C27.2266 4.52466 27.9746 4.35599 28.8399 4.35599C30.1453 4.35599 31.1353 4.73733 31.8099 5.49999C32.4993 6.26266 32.8439 7.31866 32.8439 8.66799V11.55ZM31.8979 8.646C31.8979 7.88333 31.7806 7.25266 31.5459 6.75399C31.3259 6.24066 30.9886 5.85933 30.5339 5.60999C30.0939 5.34599 29.5366 5.21399 28.8619 5.21399C28.1579 5.21399 27.5713 5.34599 27.1019 5.60999C26.6326 5.87399 26.2733 6.26266 26.0239 6.77599C25.7893 7.27466 25.6719 7.89799 25.6719 8.646V11.704C25.6719 12.3347 25.7966 12.8993 26.0459 13.398C26.2953 13.882 26.6546 14.2707 27.1239 14.564C27.6079 14.8427 28.1873 14.982 28.8619 14.982C29.5513 14.982 30.1159 14.8427 30.5559 14.564C31.0106 14.2853 31.3479 13.904 31.5679 13.42C31.7879 12.9213 31.8979 12.3493 31.8979 11.704V8.646ZM40.3616 4.62H43.1996V15.62H42.2096V5.52199H40.4496C39.9656 5.52199 39.5622 5.60999 39.2396 5.78599C38.9316 5.94733 38.6896 6.15999 38.5136 6.42399C38.3376 6.68799 38.1982 6.98133 38.0956 7.30399L36.3136 13.156C36.1669 13.6547 36.0056 14.08 35.8296 14.432C35.6536 14.784 35.4336 15.07 35.1696 15.29C34.9056 15.51 34.5609 15.6933 34.1356 15.84L33.5196 15.29C33.9449 15.1287 34.2822 14.9013 34.5316 14.608C34.7956 14.3147 34.9936 14.014 35.1256 13.706C35.2722 13.398 35.3749 13.1413 35.4336 12.936L37.0396 7.52399C37.1129 7.27466 37.2082 6.98866 37.3256 6.666C37.4576 6.34333 37.6409 6.02799 37.8756 5.71999C38.1249 5.39733 38.4476 5.13333 38.8436 4.92799C39.2396 4.72266 39.7456 4.62 40.3616 4.62ZM50.0299 8.954C50.6459 8.954 51.2106 9.08599 51.7239 9.34999C52.2372 9.61399 52.6479 9.99533 52.9559 10.494C53.2639 10.978 53.4179 11.5647 53.4179 12.254C53.4179 12.8407 53.2786 13.4127 52.9999 13.97C52.7359 14.5127 52.3106 14.9527 51.7239 15.29C51.1372 15.6273 50.3672 15.796 49.4139 15.796C49.0472 15.796 48.6659 15.7887 48.2699 15.774C47.8739 15.7593 47.4926 15.7373 47.1259 15.708C46.7592 15.6933 46.4219 15.6713 46.1139 15.642C45.8206 15.6273 45.5712 15.6127 45.3659 15.598C45.1606 15.5687 45.0286 15.554 44.9699 15.554V4.62H45.9379V8.954H50.0299ZM49.2819 14.872C49.9419 14.872 50.5066 14.762 50.9759 14.542C51.4452 14.322 51.8119 14.0213 52.0759 13.64C52.3399 13.244 52.4719 12.804 52.4719 12.32C52.4719 11.8947 52.4059 11.528 52.2739 11.22C52.1419 10.912 51.9586 10.6627 51.7239 10.472C51.5039 10.2667 51.2472 10.12 50.9539 10.032C50.6752 9.94399 50.3819 9.89999 50.0739 9.89999H45.9379V14.74C45.9966 14.7547 46.1212 14.7693 46.3119 14.784C46.5172 14.784 46.7739 14.7987 47.0819 14.828C47.3899 14.8427 47.7346 14.8573 48.1159 14.872C48.4972 14.872 48.8859 14.872 49.2819 14.872ZM65.6951 4.62H66.6631V15.62H55.0911V4.62H56.0811V14.652H60.3711V4.62H61.3611V14.652H65.6951V4.62ZM69.4622 4.62V14.146L75.4682 4.62H76.6122V15.62H75.6442V6.09399L69.6382 15.62H68.4942V4.62H69.4622ZM88.3456 4.62H89.5336V15.62H88.5656V6.31399L84.3856 15.62H83.4176L79.1936 6.31399V15.62H78.2256V4.62H79.4136L83.9016 14.52L88.3456 4.62ZM100.801 12.694C100.801 13.09 100.845 13.4493 100.933 13.772C101.021 14.0947 101.167 14.3733 101.373 14.608C101.593 14.8427 101.901 15.026 102.297 15.158L102.011 15.906C101.6 15.7887 101.255 15.6347 100.977 15.444C100.698 15.2387 100.471 15.0113 100.295 14.762C100.133 14.498 100.016 14.1973 99.9427 13.86C99.8694 13.508 99.8327 13.1193 99.8327 12.694V5.54399H97.0167V4.62H103.705V5.54399H100.801V12.694ZM113.113 11.858C113.113 12.7527 112.967 13.5153 112.673 14.146C112.395 14.762 111.977 15.2313 111.419 15.554C110.862 15.862 110.173 16.016 109.351 16.016C108.999 16.016 108.647 15.972 108.295 15.884C107.958 15.8107 107.635 15.6933 107.327 15.532C107.034 15.356 106.763 15.1653 106.513 14.96C106.279 14.74 106.095 14.498 105.963 14.234V20.284L104.973 19.888V8.77799C104.973 7.38466 105.333 6.31399 106.051 5.56599C106.785 4.81799 107.797 4.44399 109.087 4.44399C110.393 4.44399 111.39 4.83266 112.079 5.60999C112.769 6.37266 113.113 7.42866 113.113 8.77799V11.858ZM112.145 8.73399C112.145 7.97133 112.028 7.34066 111.793 6.84199C111.559 6.34333 111.214 5.96933 110.759 5.71999C110.319 5.47066 109.777 5.34599 109.131 5.34599C108.427 5.34599 107.841 5.47799 107.371 5.74199C106.902 5.99133 106.55 6.37266 106.315 6.88599C106.081 7.38466 105.963 8.00066 105.963 8.73399V12.1C105.963 12.5987 106.059 13.0387 106.249 13.42C106.455 13.8013 106.719 14.124 107.041 14.388C107.364 14.6373 107.731 14.828 108.141 14.96C108.552 15.0773 108.97 15.1287 109.395 15.114C109.982 15.0993 110.481 14.9747 110.891 14.74C111.302 14.4907 111.61 14.146 111.815 13.706C112.035 13.2513 112.145 12.6867 112.145 12.012V8.73399ZM115.521 12.672C115.521 13.112 115.594 13.486 115.741 13.794C115.887 14.0873 116.085 14.3293 116.335 14.52C116.584 14.696 116.877 14.828 117.215 14.916C117.552 15.004 117.911 15.048 118.293 15.048C118.865 15.048 119.407 14.9673 119.921 14.806C120.449 14.63 120.999 14.3953 121.571 14.102L121.945 14.85C121.402 15.1727 120.815 15.4293 120.185 15.62C119.569 15.796 118.967 15.884 118.381 15.884C117.838 15.884 117.332 15.8327 116.863 15.73C116.393 15.6273 115.983 15.4513 115.631 15.202C115.293 14.9527 115.029 14.6227 114.839 14.212C114.663 13.8013 114.575 13.288 114.575 12.672V8.16199C114.575 7.32599 114.751 6.62933 115.103 6.07199C115.455 5.51466 115.939 5.09666 116.555 4.81799C117.171 4.53933 117.867 4.39999 118.645 4.39999C119.422 4.39999 120.097 4.53933 120.669 4.81799C121.255 5.09666 121.71 5.50733 122.033 6.04999C122.355 6.59266 122.517 7.27466 122.517 8.09599V10.692L115.521 11.066V12.672ZM121.549 7.986C121.549 7.39933 121.417 6.90066 121.153 6.48999C120.903 6.07933 120.559 5.76399 120.119 5.54399C119.693 5.32399 119.195 5.21399 118.623 5.21399C117.992 5.21399 117.442 5.33133 116.973 5.56599C116.503 5.80066 116.144 6.14533 115.895 6.59999C115.645 7.03999 115.521 7.58266 115.521 8.22799V10.12L121.549 9.83399V7.986ZM132.282 14.036C132.282 14.256 132.341 14.454 132.458 14.63C132.576 14.806 132.722 14.96 132.898 15.092L132.414 15.686C132.385 15.6567 132.312 15.6053 132.194 15.532C132.092 15.4587 131.974 15.356 131.842 15.224C131.71 15.0773 131.593 14.9013 131.49 14.696C131.402 14.476 131.358 14.212 131.358 13.904V5.52199H124.978V15.62H124.01V4.62H132.282V14.036ZM135.179 12.672C135.179 13.112 135.252 13.486 135.399 13.794C135.545 14.0873 135.743 14.3293 135.993 14.52C136.242 14.696 136.535 14.828 136.873 14.916C137.21 15.004 137.569 15.048 137.951 15.048C138.523 15.048 139.065 14.9673 139.579 14.806C140.107 14.63 140.657 14.3953 141.229 14.102L141.603 14.85C141.06 15.1727 140.473 15.4293 139.843 15.62C139.227 15.796 138.625 15.884 138.039 15.884C137.496 15.884 136.99 15.8327 136.521 15.73C136.051 15.6273 135.641 15.4513 135.289 15.202C134.951 14.9527 134.687 14.6227 134.497 14.212C134.321 13.8013 134.233 13.288 134.233 12.672V8.16199C134.233 7.32599 134.409 6.62933 134.761 6.07199C135.113 5.51466 135.597 5.09666 136.213 4.81799C136.829 4.53933 137.525 4.39999 138.303 4.39999C139.08 4.39999 139.755 4.53933 140.327 4.81799C140.913 5.09666 141.368 5.50733 141.691 6.04999C142.013 6.59266 142.175 7.27466 142.175 8.09599V10.692L135.179 11.066V12.672ZM141.207 7.986C141.207 7.39933 141.075 6.90066 140.811 6.48999C140.561 6.07933 140.217 5.76399 139.777 5.54399C139.351 5.32399 138.853 5.21399 138.281 5.21399C137.65 5.21399 137.1 5.33133 136.631 5.56599C136.161 5.80066 135.802 6.14533 135.553 6.59999C135.303 7.03999 135.179 7.58266 135.179 8.22799V10.12L141.207 9.83399V7.986ZM147.057 12.694C147.057 13.09 147.101 13.4493 147.189 13.772C147.277 14.0947 147.423 14.3733 147.629 14.608C147.849 14.8427 148.157 15.026 148.553 15.158L148.267 15.906C147.856 15.7887 147.511 15.6347 147.233 15.444C146.954 15.2387 146.727 15.0113 146.551 14.762C146.389 14.498 146.272 14.1973 146.199 13.86C146.125 13.508 146.089 13.1193 146.089 12.694V5.54399H143.273V4.62H149.961V5.54399H147.057V12.694ZM159.215 11.55C159.215 12.8407 158.885 13.882 158.225 14.674C157.565 15.4513 156.568 15.84 155.233 15.84C154.309 15.84 153.539 15.6493 152.923 15.268C152.307 14.872 151.845 14.3513 151.537 13.706C151.229 13.0607 151.075 12.342 151.075 11.55V8.66799C151.075 7.72933 151.236 6.94466 151.559 6.31399C151.882 5.66866 152.351 5.18466 152.967 4.86199C153.598 4.52466 154.346 4.35599 155.211 4.35599C156.516 4.35599 157.506 4.73733 158.181 5.49999C158.87 6.26266 159.215 7.31866 159.215 8.66799V11.55ZM158.269 8.646C158.269 7.88333 158.152 7.25266 157.917 6.75399C157.697 6.24066 157.36 5.85933 156.905 5.60999C156.465 5.34599 155.908 5.21399 155.233 5.21399C154.529 5.21399 153.942 5.34599 153.473 5.60999C153.004 5.87399 152.644 6.26266 152.395 6.77599C152.16 7.27466 152.043 7.89799 152.043 8.646V11.704C152.043 12.3347 152.168 12.8993 152.417 13.398C152.666 13.882 153.026 14.2707 153.495 14.564C153.979 14.8427 154.558 14.982 155.233 14.982C155.922 14.982 156.487 14.8427 156.927 14.564C157.382 14.2853 157.719 13.904 157.939 13.42C158.159 12.9213 158.269 12.3493 158.269 11.704V8.646ZM170.803 4.62H171.991V15.62H171.023V6.31399L166.843 15.62H165.875L161.651 6.31399V15.62H160.683V4.62H161.871L166.359 14.52L170.803 4.62ZM183.698 9.28399L186.58 4.62H187.658L184.248 10.142L187.636 15.62H186.514L183.698 11L180.816 15.62H179.672L183.126 10.12L179.716 4.62H180.838L183.698 9.28399ZM197.049 11.55C197.049 12.8407 196.719 13.882 196.059 14.674C195.399 15.4513 194.402 15.84 193.067 15.84C192.143 15.84 191.373 15.6493 190.757 15.268C190.141 14.872 189.679 14.3513 189.371 13.706C189.063 13.0607 188.909 12.342 188.909 11.55V8.66799C188.909 7.72933 189.07 6.94466 189.393 6.31399C189.716 5.66866 190.185 5.18466 190.801 4.86199C191.432 4.52466 192.18 4.35599 193.045 4.35599C194.35 4.35599 195.34 4.73733 196.015 5.49999C196.704 6.26266 197.049 7.31866 197.049 8.66799V11.55ZM196.103 8.646C196.103 7.88333 195.986 7.25266 195.751 6.75399C195.531 6.24066 195.194 5.85933 194.739 5.60999C194.299 5.34599 193.742 5.21399 193.067 5.21399C192.363 5.21399 191.776 5.34599 191.307 5.60999C190.838 5.87399 190.478 6.26266 190.229 6.77599C189.994 7.27466 189.877 7.89799 189.877 8.646V11.704C189.877 12.3347 190.002 12.8993 190.251 13.398C190.5 13.882 190.86 14.2707 191.329 14.564C191.813 14.8427 192.392 14.982 193.067 14.982C193.756 14.982 194.321 14.8427 194.761 14.564C195.216 14.2853 195.553 13.904 195.773 13.42C195.993 12.9213 196.103 12.3493 196.103 11.704V8.646ZM201.971 12.694C201.971 13.09 202.015 13.4493 202.103 13.772C202.191 14.0947 202.337 14.3733 202.543 14.608C202.763 14.8427 203.071 15.026 203.467 15.158L203.181 15.906C202.77 15.7887 202.425 15.6347 202.147 15.444C201.868 15.2387 201.641 15.0113 201.465 14.762C201.303 14.498 201.186 14.1973 201.113 13.86C201.039 13.508 201.003 13.1193 201.003 12.694V5.54399H198.187V4.62H204.875V5.54399H201.971V12.694ZM207.177 4.62V14.146L213.183 4.62H214.327V15.62H213.359V6.09399L207.353 15.62H206.209V4.62H207.177ZM226.06 4.62H227.248V15.62H226.28V6.31399L222.1 15.62H221.132L216.908 6.31399V15.62H215.94V4.62H217.128L221.616 14.52L226.06 4.62ZM243.026 11.55C243.026 12.8407 242.696 13.882 242.036 14.674C241.376 15.4513 240.378 15.84 239.044 15.84C238.12 15.84 237.35 15.6493 236.734 15.268C236.118 14.872 235.656 14.3513 235.348 13.706C235.04 13.0607 234.886 12.342 234.886 11.55V8.66799C234.886 7.72933 235.047 6.94466 235.37 6.31399C235.692 5.66866 236.162 5.18466 236.778 4.86199C237.408 4.52466 238.156 4.35599 239.022 4.35599C240.327 4.35599 241.317 4.73733 241.992 5.49999C242.681 6.26266 243.026 7.31866 243.026 8.66799V11.55ZM242.08 8.646C242.08 7.88333 241.962 7.25266 241.728 6.75399C241.508 6.24066 241.17 5.85933 240.716 5.60999C240.276 5.34599 239.718 5.21399 239.044 5.21399C238.34 5.21399 237.753 5.34599 237.284 5.60999C236.814 5.87399 236.455 6.26266 236.206 6.77599C235.971 7.27466 235.854 7.89799 235.854 8.646V11.704C235.854 12.3347 235.978 12.8993 236.228 13.398C236.477 13.882 236.836 14.2707 237.306 14.564C237.79 14.8427 238.369 14.982 239.044 14.982C239.733 14.982 240.298 14.8427 240.738 14.564C241.192 14.2853 241.53 13.904 241.75 13.42C241.97 12.9213 242.08 12.3493 242.08 11.704V8.646ZM248.607 4.35599C249.443 4.35599 250.147 4.51733 250.719 4.83999C251.291 5.16266 251.724 5.63933 252.017 6.26999C252.311 6.88599 252.457 7.64866 252.457 8.55799V11.506C252.457 12.826 252.113 13.8747 251.423 14.652C250.734 15.4293 249.729 15.818 248.409 15.818C247.515 15.818 246.759 15.642 246.143 15.29C245.527 14.938 245.065 14.4393 244.757 13.794C244.449 13.1487 244.295 12.386 244.295 11.506V5.23599C244.295 4.57599 244.391 3.96733 244.581 3.40999C244.772 2.83799 245.073 2.32466 245.483 1.87C245.85 1.45933 246.327 1.09999 246.913 0.791995C247.5 0.483994 248.153 0.278661 248.871 0.175995L249.003 0.681995C248.299 0.843328 247.72 1.07799 247.265 1.38599C246.811 1.67933 246.466 1.96533 246.231 2.24399C245.953 2.58133 245.725 2.97733 245.549 3.43199C245.373 3.88666 245.285 4.42933 245.285 5.05999V6.13799C245.461 5.77133 245.711 5.45599 246.033 5.19199C246.371 4.92799 246.759 4.72266 247.199 4.57599C247.639 4.42933 248.109 4.35599 248.607 4.35599ZM248.541 5.25799C248.043 5.25799 247.595 5.33133 247.199 5.47799C246.803 5.62466 246.459 5.83733 246.165 6.11599C245.887 6.37999 245.667 6.71733 245.505 7.12799C245.359 7.52399 245.285 7.97866 245.285 8.492V11.506C245.285 12.2247 245.403 12.8407 245.637 13.354C245.872 13.8527 246.224 14.2413 246.693 14.52C247.163 14.784 247.749 14.916 248.453 14.916C249.143 14.916 249.707 14.784 250.147 14.52C250.602 14.256 250.939 13.8673 251.159 13.354C251.379 12.8407 251.489 12.2247 251.489 11.506V8.40399C251.489 7.71466 251.372 7.13533 251.137 6.666C250.903 6.19666 250.565 5.84466 250.125 5.60999C249.685 5.37533 249.157 5.25799 248.541 5.25799ZM253.09 4.62H255.796V5.52199H255.312L253.09 5.45599V4.62ZM260.372 8.954C260.988 8.954 261.553 9.08599 262.066 9.34999C262.579 9.61399 262.99 9.99533 263.298 10.494C263.606 10.978 263.76 11.5647 263.76 12.254C263.76 12.8407 263.621 13.4127 263.342 13.97C263.078 14.5127 262.645 14.9527 262.044 15.29C261.457 15.6273 260.687 15.796 259.734 15.796C259.382 15.796 259.008 15.7887 258.612 15.774C258.216 15.7593 257.835 15.7373 257.468 15.708C257.101 15.6933 256.764 15.6713 256.456 15.642C256.148 15.6273 255.891 15.6127 255.686 15.598C255.481 15.5687 255.356 15.554 255.312 15.554V4.62H256.28V8.954H260.372ZM259.624 14.872C260.269 14.872 260.827 14.762 261.296 14.542C261.78 14.322 262.147 14.0213 262.396 13.64C262.66 13.244 262.792 12.804 262.792 12.32C262.792 11.8947 262.726 11.528 262.594 11.22C262.462 10.912 262.279 10.6627 262.044 10.472C261.824 10.2667 261.575 10.12 261.296 10.032C261.017 9.94399 260.724 9.89999 260.416 9.89999H256.28V14.74C256.324 14.7547 256.441 14.7693 256.632 14.784C256.837 14.784 257.094 14.7987 257.402 14.828C257.725 14.8427 258.069 14.8573 258.436 14.872C258.817 14.872 259.213 14.872 259.624 14.872ZM269.075 4.39999C269.5 4.39999 269.918 4.40733 270.329 4.422C270.754 4.43666 271.15 4.45866 271.517 4.48799C271.884 4.50266 272.206 4.52466 272.485 4.55399C272.778 4.58333 273.013 4.60533 273.189 4.62C273.365 4.63466 273.46 4.64199 273.475 4.64199V15.62H272.529V11.286H268.899C268.855 11.286 268.767 11.286 268.635 11.286C268.503 11.286 268.371 11.286 268.239 11.286C268.122 11.2713 268.034 11.264 267.975 11.264L266.193 15.62H265.203L267.095 11.022C266.684 10.8753 266.325 10.6627 266.017 10.384C265.709 10.0907 265.467 9.73866 265.291 9.32799C265.13 8.91733 265.049 8.45533 265.049 7.94199C265.049 7.34066 265.181 6.76866 265.445 6.22599C265.724 5.68333 266.164 5.24333 266.765 4.90599C267.366 4.56866 268.136 4.39999 269.075 4.39999ZM268.415 10.34H272.529V5.45599C272.485 5.45599 272.36 5.44866 272.155 5.43399C271.964 5.41933 271.715 5.40466 271.407 5.38999C271.099 5.36066 270.754 5.34599 270.373 5.34599C269.992 5.33133 269.603 5.32399 269.207 5.32399C268.224 5.32399 267.447 5.56599 266.875 6.04999C266.303 6.53399 266.017 7.14266 266.017 7.87599C266.017 8.30133 266.083 8.66799 266.215 8.97599C266.347 9.28399 266.523 9.54066 266.743 9.74599C266.978 9.95133 267.234 10.1053 267.513 10.208C267.806 10.296 268.107 10.34 268.415 10.34ZM281.574 9.37199C282.219 9.59199 282.718 9.97333 283.07 10.516C283.437 11.0587 283.62 11.66 283.62 12.32C283.62 12.9067 283.481 13.4787 283.202 14.036C282.938 14.5787 282.513 15.0187 281.926 15.356C281.339 15.6933 280.569 15.862 279.616 15.862C279.235 15.862 278.839 15.8547 278.428 15.84C278.017 15.8253 277.621 15.8033 277.24 15.774C276.873 15.7447 276.536 15.7153 276.228 15.686C275.92 15.6713 275.671 15.6567 275.48 15.642C275.304 15.6273 275.209 15.62 275.194 15.62V4.59799C275.194 4.59799 275.311 4.59066 275.546 4.57599C275.781 4.54666 276.103 4.51733 276.514 4.48799C276.939 4.45866 277.409 4.43666 277.922 4.422C278.45 4.39266 279 4.37799 279.572 4.37799C280.159 4.37799 280.665 4.45133 281.09 4.59799C281.53 4.74466 281.889 4.94999 282.168 5.21399C282.447 5.47799 282.652 5.77866 282.784 6.11599C282.931 6.43866 283.004 6.79066 283.004 7.172C283.004 7.59733 282.872 8.02266 282.608 8.448C282.359 8.87333 282.014 9.18133 281.574 9.37199ZM279.462 5.23599C279.11 5.23599 278.751 5.24333 278.384 5.25799C278.032 5.27266 277.695 5.28733 277.372 5.30199C277.064 5.31666 276.8 5.33133 276.58 5.34599C276.36 5.36066 276.221 5.37533 276.162 5.38999V8.99799H280.078C280.43 8.99799 280.753 8.90999 281.046 8.73399C281.339 8.55799 281.574 8.33066 281.75 8.05199C281.926 7.75866 282.014 7.45066 282.014 7.12799C282.014 6.76133 281.941 6.45333 281.794 6.20399C281.647 5.95466 281.449 5.76399 281.2 5.63199C280.951 5.48533 280.672 5.38266 280.364 5.32399C280.071 5.26533 279.77 5.23599 279.462 5.23599ZM279.484 14.938C280.144 14.938 280.709 14.828 281.178 14.608C281.647 14.388 282.014 14.0873 282.278 13.706C282.542 13.31 282.674 12.87 282.674 12.386C282.674 11.9607 282.593 11.6013 282.432 11.308C282.285 11 282.087 10.7433 281.838 10.538C281.589 10.3327 281.303 10.1787 280.98 10.076C280.672 9.97333 280.357 9.922 280.034 9.922H276.162V14.806C276.221 14.806 276.345 14.8133 276.536 14.828C276.741 14.8427 276.991 14.8647 277.284 14.894C277.592 14.9087 277.937 14.9233 278.318 14.938C278.699 14.938 279.088 14.938 279.484 14.938ZM286.089 4.62V14.146L292.095 4.62H293.239V15.62H292.271V6.09399L286.265 15.62H285.121V4.62H286.089ZM298.307 12.694C298.307 13.09 298.351 13.4493 298.439 13.772C298.527 14.0947 298.673 14.3733 298.879 14.608C299.099 14.8427 299.407 15.026 299.803 15.158L299.517 15.906C299.106 15.7887 298.761 15.6347 298.483 15.444C298.204 15.2387 297.977 15.0113 297.801 14.762C297.639 14.498 297.522 14.1973 297.449 13.86C297.375 13.508 297.339 13.1193 297.339 12.694V5.54399H294.523V4.62H301.211V5.54399H298.307V12.694ZM307.649 8.954C308.265 8.954 308.83 9.08599 309.343 9.34999C309.856 9.61399 310.267 9.99533 310.575 10.494C310.883 10.978 311.037 11.5647 311.037 12.254C311.037 12.8407 310.898 13.4127 310.619 13.97C310.355 14.5127 309.93 14.9527 309.343 15.29C308.756 15.6273 307.986 15.796 307.033 15.796C306.666 15.796 306.285 15.7887 305.889 15.774C305.493 15.7593 305.112 15.7373 304.745 15.708C304.378 15.6933 304.041 15.6713 303.733 15.642C303.44 15.6273 303.19 15.6127 302.985 15.598C302.78 15.5687 302.648 15.554 302.589 15.554V4.62H303.557V8.954H307.649ZM306.901 14.872C307.561 14.872 308.126 14.762 308.595 14.542C309.064 14.322 309.431 14.0213 309.695 13.64C309.959 13.244 310.091 12.804 310.091 12.32C310.091 11.8947 310.025 11.528 309.893 11.22C309.761 10.912 309.578 10.6627 309.343 10.472C309.123 10.2667 308.866 10.12 308.573 10.032C308.294 9.94399 308.001 9.89999 307.693 9.89999H303.557V14.74C303.616 14.7547 303.74 14.7693 303.931 14.784C304.136 14.784 304.393 14.7987 304.701 14.828C305.009 14.8427 305.354 14.8573 305.735 14.872C306.116 14.872 306.505 14.872 306.901 14.872ZM313.414 17.292C313.634 17.028 313.788 16.764 313.876 16.5C313.979 16.236 314.038 16.0013 314.052 15.796C313.92 15.7667 313.803 15.6933 313.7 15.576C313.612 15.4587 313.568 15.3267 313.568 15.18C313.568 15.004 313.627 14.8647 313.744 14.762C313.862 14.6447 314.001 14.586 314.162 14.586C314.338 14.586 314.485 14.6447 314.602 14.762C314.72 14.8647 314.786 15.004 314.8 15.18C314.8 15.5173 314.756 15.8107 314.668 16.06C314.595 16.324 314.492 16.5513 314.36 16.742C314.243 16.9327 314.126 17.094 314.008 17.226C313.891 17.358 313.796 17.4607 313.722 17.534L313.414 17.292ZM10.0616 41.62V37.572C9.84165 37.9387 9.54831 38.2467 9.18165 38.496C8.82965 38.7307 8.43365 38.914 7.99365 39.046C7.56831 39.178 7.13565 39.244 6.69565 39.244C6.15298 39.244 5.64698 39.178 5.17765 39.046C4.72298 38.914 4.31965 38.7087 3.96765 38.43C3.61565 38.1367 3.33698 37.7553 3.13165 37.286C2.94098 36.8167 2.84565 36.2447 2.84565 35.57V30.62H3.83565V35.526C3.83565 36.0687 3.91631 36.5233 4.07765 36.89C4.23898 37.242 4.45898 37.528 4.73765 37.748C5.03098 37.9533 5.36098 38.1073 5.72765 38.21C6.09431 38.298 6.47565 38.342 6.87165 38.342C7.31165 38.342 7.72231 38.2687 8.10365 38.122C8.48498 37.9607 8.81498 37.7407 9.09365 37.462C9.38698 37.1833 9.61431 36.8533 9.77565 36.472C9.95165 36.0907 10.0396 35.68 10.0396 35.24V32.556C10.0396 32.3067 10.0616 32.072 10.1056 31.852C10.1643 31.6173 10.245 31.412 10.3476 31.236C10.4503 31.0453 10.575 30.8767 10.7216 30.73C10.883 30.5833 11.0736 30.4587 11.2936 30.356L11.6896 31.06C11.4843 31.1773 11.3156 31.3387 11.1836 31.544C11.0663 31.7493 11.0076 32.094 11.0076 32.578V41.62H10.0616ZM16.0556 38.694C16.0556 39.09 16.0996 39.4493 16.1876 39.772C16.2756 40.0947 16.4223 40.3733 16.6276 40.608C16.8476 40.8427 17.1556 41.026 17.5516 41.158L17.2656 41.906C16.8549 41.7887 16.5103 41.6347 16.2316 41.444C15.9529 41.2387 15.7256 41.0113 15.5496 40.762C15.3883 40.498 15.2709 40.1973 15.1976 39.86C15.1243 39.508 15.0876 39.1193 15.0876 38.694V31.544H12.2716V30.62H18.9596V31.544H16.0556V38.694ZM28.2141 37.55C28.2141 38.8407 27.8841 39.882 27.2241 40.674C26.5641 41.4513 25.5667 41.84 24.2321 41.84C23.3081 41.84 22.5381 41.6493 21.9221 41.268C21.3061 40.872 20.8441 40.3513 20.5361 39.706C20.2281 39.0607 20.0741 38.342 20.0741 37.55V34.668C20.0741 33.7293 20.2354 32.9447 20.5581 32.314C20.8807 31.6687 21.3501 31.1847 21.9661 30.862C22.5967 30.5247 23.3447 30.356 24.2101 30.356C25.5154 30.356 26.5054 30.7373 27.1801 31.5C27.8694 32.2627 28.2141 33.3187 28.2141 34.668V37.55ZM27.2681 34.646C27.2681 33.8833 27.1507 33.2527 26.9161 32.754C26.6961 32.2407 26.3587 31.8593 25.9041 31.61C25.4641 31.346 24.9067 31.214 24.2321 31.214C23.5281 31.214 22.9414 31.346 22.4721 31.61C22.0027 31.874 21.6434 32.2627 21.3941 32.776C21.1594 33.2747 21.0421 33.898 21.0421 34.646V37.704C21.0421 38.3347 21.1667 38.8993 21.4161 39.398C21.6654 39.882 22.0247 40.2707 22.4941 40.564C22.9781 40.8427 23.5574 40.982 24.2321 40.982C24.9214 40.982 25.4861 40.8427 25.9261 40.564C26.3807 40.2853 26.7181 39.904 26.9381 39.42C27.1581 38.9213 27.2681 38.3493 27.2681 37.704V34.646ZM42.2057 35.372C42.851 35.592 43.3497 35.9733 43.7017 36.516C44.0684 37.0587 44.2517 37.66 44.2517 38.32C44.2517 38.9067 44.1124 39.4787 43.8337 40.036C43.5697 40.5787 43.1444 41.0187 42.5577 41.356C41.971 41.6933 41.201 41.862 40.2477 41.862C39.8664 41.862 39.4704 41.8547 39.0597 41.84C38.649 41.8253 38.253 41.8033 37.8717 41.774C37.505 41.7447 37.1677 41.7153 36.8597 41.686C36.5517 41.6713 36.3024 41.6567 36.1117 41.642C35.9357 41.6273 35.8404 41.62 35.8257 41.62V30.598C35.8257 30.598 35.943 30.5907 36.1777 30.576C36.4124 30.5467 36.735 30.5173 37.1457 30.488C37.571 30.4587 38.0404 30.4367 38.5537 30.422C39.0817 30.3927 39.6317 30.378 40.2037 30.378C40.7904 30.378 41.2964 30.4513 41.7217 30.598C42.1617 30.7447 42.521 30.95 42.7997 31.214C43.0784 31.478 43.2837 31.7787 43.4157 32.116C43.5624 32.4387 43.6357 32.7907 43.6357 33.172C43.6357 33.5973 43.5037 34.0227 43.2397 34.448C42.9904 34.8733 42.6457 35.1813 42.2057 35.372ZM40.0937 31.236C39.7417 31.236 39.3824 31.2433 39.0157 31.258C38.6637 31.2727 38.3264 31.2873 38.0037 31.302C37.6957 31.3167 37.4317 31.3313 37.2117 31.346C36.9917 31.3607 36.8524 31.3753 36.7937 31.39V34.998H40.7097C41.0617 34.998 41.3844 34.91 41.6777 34.734C41.971 34.558 42.2057 34.3307 42.3817 34.052C42.5577 33.7587 42.6457 33.4507 42.6457 33.128C42.6457 32.7613 42.5724 32.4533 42.4257 32.204C42.279 31.9547 42.081 31.764 41.8317 31.632C41.5824 31.4853 41.3037 31.3827 40.9957 31.324C40.7024 31.2653 40.4017 31.236 40.0937 31.236ZM40.1157 40.938C40.7757 40.938 41.3404 40.828 41.8097 40.608C42.279 40.388 42.6457 40.0873 42.9097 39.706C43.1737 39.31 43.3057 38.87 43.3057 38.386C43.3057 37.9607 43.225 37.6013 43.0637 37.308C42.917 37 42.719 36.7433 42.4697 36.538C42.2204 36.3327 41.9344 36.1787 41.6117 36.076C41.3037 35.9733 40.9884 35.922 40.6657 35.922H36.7937V40.806C36.8524 40.806 36.977 40.8133 37.1677 40.828C37.373 40.8427 37.6224 40.8647 37.9157 40.894C38.2237 40.9087 38.5684 40.9233 38.9497 40.938C39.331 40.938 39.7197 40.938 40.1157 40.938ZM51.9191 31.896L51.6771 31.104C52.1464 30.884 52.6304 30.7153 53.1291 30.598C53.6424 30.466 54.1484 30.4 54.6471 30.4C55.5417 30.4 56.2897 30.5833 56.8911 30.95C57.5071 31.302 57.9617 31.7933 58.2551 32.424C58.5631 33.0547 58.7171 33.7953 58.7171 34.646V37.792C58.7171 38.7307 58.5411 39.5007 58.1891 40.102C57.8371 40.6887 57.3457 41.1287 56.7151 41.422C56.0844 41.7007 55.3437 41.8473 54.4931 41.862C54.0091 41.8767 53.5177 41.8473 53.0191 41.774C52.5351 41.7153 52.0731 41.6273 51.6331 41.51L51.8091 40.63C51.8091 40.63 51.8751 40.6447 52.0071 40.674C52.1537 40.7033 52.3517 40.74 52.6011 40.784C52.8651 40.828 53.1511 40.872 53.4591 40.916C53.7817 40.9453 54.1117 40.96 54.4491 40.96C55.1824 40.96 55.7911 40.85 56.2751 40.63C56.7737 40.3953 57.1477 40.036 57.3971 39.552C57.6464 39.0533 57.7711 38.4007 57.7711 37.594V36.362H52.9751L52.6231 35.438H57.7491V34.756C57.7491 34.0667 57.6317 33.4653 57.3971 32.952C57.1771 32.424 56.8324 32.0133 56.3631 31.72C55.9084 31.4267 55.3217 31.28 54.6031 31.28C54.1777 31.28 53.7231 31.3387 53.2391 31.456C52.7697 31.5587 52.3297 31.7053 51.9191 31.896ZM63.6435 38.694C63.6435 39.09 63.6875 39.4493 63.7755 39.772C63.8635 40.0947 64.0102 40.3733 64.2155 40.608C64.4355 40.8427 64.7435 41.026 65.1395 41.158L64.8535 41.906C64.4428 41.7887 64.0982 41.6347 63.8195 41.444C63.5408 41.2387 63.3135 41.0113 63.1375 40.762C62.9762 40.498 62.8588 40.1973 62.7855 39.86C62.7122 39.508 62.6755 39.1193 62.6755 38.694V31.544H59.8595V30.62H66.5475V31.544H63.6435V38.694ZM75.8019 37.55C75.8019 38.8407 75.4719 39.882 74.8119 40.674C74.1519 41.4513 73.1546 41.84 71.8199 41.84C70.8959 41.84 70.1259 41.6493 69.5099 41.268C68.8939 40.872 68.4319 40.3513 68.1239 39.706C67.8159 39.0607 67.6619 38.342 67.6619 37.55V34.668C67.6619 33.7293 67.8233 32.9447 68.1459 32.314C68.4686 31.6687 68.9379 31.1847 69.5539 30.862C70.1846 30.5247 70.9326 30.356 71.7979 30.356C73.1033 30.356 74.0933 30.7373 74.7679 31.5C75.4573 32.2627 75.8019 33.3187 75.8019 34.668V37.55ZM74.8559 34.646C74.8559 33.8833 74.7386 33.2527 74.5039 32.754C74.2839 32.2407 73.9466 31.8593 73.4919 31.61C73.0519 31.346 72.4946 31.214 71.8199 31.214C71.1159 31.214 70.5293 31.346 70.0599 31.61C69.5906 31.874 69.2313 32.2627 68.9819 32.776C68.7473 33.2747 68.6299 33.898 68.6299 34.646V37.704C68.6299 38.3347 68.7546 38.8993 69.0039 39.398C69.2533 39.882 69.6126 40.2707 70.0819 40.564C70.5659 40.8427 71.1453 40.982 71.8199 40.982C72.5093 40.982 73.0739 40.8427 73.5139 40.564C73.9686 40.2853 74.3059 39.904 74.5259 39.42C74.7459 38.9213 74.8559 38.3493 74.8559 37.704V34.646ZM80.7236 38.694C80.7236 39.09 80.7676 39.4493 80.8556 39.772C80.9436 40.0947 81.0903 40.3733 81.2956 40.608C81.5156 40.8427 81.8236 41.026 82.2196 41.158L81.9336 41.906C81.5229 41.7887 81.1783 41.6347 80.8996 41.444C80.6209 41.2387 80.3936 41.0113 80.2176 40.762C80.0563 40.498 79.9389 40.1973 79.8656 39.86C79.7923 39.508 79.7556 39.1193 79.7556 38.694V31.544H76.9396V30.62H83.6276V31.544H80.7236V38.694ZM98.212 41.62V37.572C97.992 37.9387 97.6987 38.2467 97.332 38.496C96.98 38.7307 96.584 38.914 96.144 39.046C95.7187 39.178 95.286 39.244 94.846 39.244C94.3034 39.244 93.7974 39.178 93.328 39.046C92.8734 38.914 92.47 38.7087 92.118 38.43C91.766 38.1367 91.4874 37.7553 91.282 37.286C91.0914 36.8167 90.996 36.2447 90.996 35.57V30.62H91.986V35.526C91.986 36.0687 92.0667 36.5233 92.228 36.89C92.3894 37.242 92.6094 37.528 92.888 37.748C93.1814 37.9533 93.5114 38.1073 93.878 38.21C94.2447 38.298 94.626 38.342 95.022 38.342C95.462 38.342 95.8727 38.2687 96.254 38.122C96.6354 37.9607 96.9654 37.7407 97.244 37.462C97.5374 37.1833 97.7647 36.8533 97.926 36.472C98.102 36.0907 98.19 35.68 98.19 35.24V32.556C98.19 32.3067 98.212 32.072 98.256 31.852C98.3147 31.6173 98.3954 31.412 98.498 31.236C98.6007 31.0453 98.7254 30.8767 98.872 30.73C99.0334 30.5833 99.224 30.4587 99.444 30.356L99.84 31.06C99.6347 31.1773 99.466 31.3387 99.334 31.544C99.2167 31.7493 99.158 32.094 99.158 32.578V41.62H98.212ZM102.468 46.218L104.712 40.96L100.312 30.62H101.412L105.24 39.794L109.134 30.62H110.212L103.48 46.218H102.468ZM120.361 40.652H121.593V43.798H120.801L120.625 41.62H111.825L111.649 43.798H110.879V40.652H112.023L114.179 33.524C114.253 33.2893 114.348 33.0107 114.465 32.688C114.597 32.3507 114.781 32.028 115.015 31.72C115.265 31.412 115.587 31.1553 115.983 30.95C116.379 30.73 116.885 30.62 117.501 30.62H120.361V40.652ZM112.991 40.652H119.393V31.522H117.611C117.23 31.522 116.9 31.5733 116.621 31.676C116.357 31.764 116.13 31.896 115.939 32.072C115.763 32.2333 115.617 32.424 115.499 32.644C115.397 32.8493 115.309 33.0693 115.235 33.304L112.991 40.652ZM123.438 38.672C123.438 39.112 123.511 39.486 123.658 39.794C123.804 40.0873 124.002 40.3293 124.252 40.52C124.501 40.696 124.794 40.828 125.132 40.916C125.469 41.004 125.828 41.048 126.21 41.048C126.782 41.048 127.324 40.9673 127.838 40.806C128.366 40.63 128.916 40.3953 129.488 40.102L129.862 40.85C129.319 41.1727 128.732 41.4293 128.102 41.62C127.486 41.796 126.884 41.884 126.298 41.884C125.755 41.884 125.249 41.8327 124.78 41.73C124.31 41.6273 123.9 41.4513 123.548 41.202C123.21 40.9527 122.946 40.6227 122.756 40.212C122.58 39.8013 122.492 39.288 122.492 38.672V34.162C122.492 33.326 122.668 32.6293 123.02 32.072C123.372 31.5147 123.856 31.0967 124.472 30.818C125.088 30.5393 125.784 30.4 126.562 30.4C127.339 30.4 128.014 30.5393 128.586 30.818C129.172 31.0967 129.627 31.5073 129.95 32.05C130.272 32.5927 130.434 33.2747 130.434 34.096V36.692L123.438 37.066V38.672ZM129.466 33.986C129.466 33.3993 129.334 32.9007 129.07 32.49C128.82 32.0793 128.476 31.764 128.036 31.544C127.61 31.324 127.112 31.214 126.54 31.214C125.909 31.214 125.359 31.3313 124.89 31.566C124.42 31.8007 124.061 32.1453 123.812 32.6C123.562 33.04 123.438 33.5827 123.438 34.228V36.12L129.466 35.834V33.986ZM138.483 31.896C138.073 31.7053 137.633 31.5587 137.163 31.456C136.694 31.3533 136.239 31.2947 135.799 31.28C135.081 31.28 134.487 31.4267 134.017 31.72C133.563 32.0133 133.225 32.424 133.005 32.952C132.785 33.4653 132.668 34.0667 132.653 34.756V37.594C132.653 38.1953 132.719 38.7087 132.851 39.134C132.983 39.5593 133.189 39.904 133.467 40.168C133.761 40.432 134.113 40.63 134.523 40.762C134.934 40.8793 135.411 40.9453 135.953 40.96C136.291 40.96 136.613 40.9453 136.921 40.916C137.229 40.8867 137.508 40.85 137.757 40.806C138.007 40.762 138.205 40.7253 138.351 40.696C138.498 40.652 138.579 40.63 138.593 40.63L138.791 41.51C138.337 41.6273 137.86 41.7153 137.361 41.774C136.877 41.8473 136.393 41.8767 135.909 41.862C135.073 41.8473 134.333 41.7007 133.687 41.422C133.057 41.1287 132.565 40.6887 132.213 40.102C131.876 39.5007 131.707 38.7307 131.707 37.792V34.646C131.707 33.7953 131.854 33.0547 132.147 32.424C132.441 31.7933 132.888 31.302 133.489 30.95C134.105 30.5833 134.868 30.4 135.777 30.4C136.276 30.4 136.775 30.466 137.273 30.598C137.787 30.7153 138.278 30.884 138.747 31.104L138.483 31.896ZM147.391 35.174V30.62H148.359V41.62H147.391V36.098H141.209V41.62H140.241V30.62H141.209V35.174H147.391ZM159.851 41.62V30.62H160.819V41.62H159.851ZM155.121 34.954C155.737 34.954 156.301 35.086 156.815 35.35C157.328 35.614 157.739 35.9953 158.047 36.494C158.355 36.978 158.509 37.5647 158.509 38.254C158.509 38.8407 158.369 39.4127 158.091 39.97C157.827 40.5127 157.401 40.9527 156.815 41.29C156.228 41.6273 155.458 41.796 154.505 41.796C154.138 41.796 153.757 41.7887 153.361 41.774C152.965 41.7593 152.583 41.7373 152.217 41.708C151.85 41.6933 151.513 41.6713 151.205 41.642C150.911 41.6273 150.662 41.6127 150.457 41.598C150.251 41.5687 150.119 41.554 150.061 41.554V30.62H151.029V34.954H155.121ZM154.373 40.872C155.033 40.872 155.597 40.762 156.067 40.542C156.536 40.322 156.903 40.0213 157.167 39.64C157.431 39.244 157.563 38.804 157.563 38.32C157.563 37.8947 157.497 37.528 157.365 37.22C157.233 36.912 157.049 36.6627 156.815 36.472C156.595 36.2667 156.338 36.12 156.045 36.032C155.766 35.944 155.473 35.9 155.165 35.9H151.029V40.74C151.087 40.7547 151.212 40.7693 151.403 40.784C151.608 40.784 151.865 40.7987 152.173 40.828C152.481 40.8427 152.825 40.8573 153.207 40.872C153.588 40.872 153.977 40.872 154.373 40.872ZM169.141 26.924V27.078C169.141 27.5327 169.031 27.9507 168.811 28.332C168.591 28.6987 168.29 28.9993 167.909 29.234C167.542 29.454 167.132 29.564 166.677 29.564C166.222 29.564 165.804 29.454 165.423 29.234C165.042 28.9993 164.734 28.6987 164.499 28.332C164.279 27.9507 164.169 27.5327 164.169 27.078V26.924H164.983V27.078C164.983 27.5327 165.152 27.9287 165.489 28.266C165.826 28.5887 166.222 28.75 166.677 28.75C167.146 28.75 167.535 28.5887 167.843 28.266C168.166 27.9287 168.327 27.5327 168.327 27.078V26.924H169.141ZM163.553 30.62V40.146L169.559 30.62H170.703V41.62H169.735V32.094L163.729 41.62H162.585V30.62H163.553ZM187.435 40.652H188.667V43.798H187.875L187.699 41.62H178.899L178.723 43.798H177.953V40.652H179.097L181.253 33.524C181.327 33.2893 181.422 33.0107 181.539 32.688C181.671 32.3507 181.855 32.028 182.089 31.72C182.339 31.412 182.661 31.1553 183.057 30.95C183.453 30.73 183.959 30.62 184.575 30.62H187.435V40.652ZM180.065 40.652H186.467V31.522H184.685C184.304 31.522 183.974 31.5733 183.695 31.676C183.431 31.764 183.204 31.896 183.013 32.072C182.837 32.2333 182.691 32.424 182.573 32.644C182.471 32.8493 182.383 33.0693 182.309 33.304L180.065 40.652ZM190.512 38.672C190.512 39.112 190.585 39.486 190.732 39.794C190.879 40.0873 191.077 40.3293 191.326 40.52C191.575 40.696 191.869 40.828 192.206 40.916C192.543 41.004 192.903 41.048 193.284 41.048C193.856 41.048 194.399 40.9673 194.912 40.806C195.44 40.63 195.99 40.3953 196.562 40.102L196.936 40.85C196.393 41.1727 195.807 41.4293 195.176 41.62C194.56 41.796 193.959 41.884 193.372 41.884C192.829 41.884 192.323 41.8327 191.854 41.73C191.385 41.6273 190.974 41.4513 190.622 41.202C190.285 40.9527 190.021 40.6227 189.83 40.212C189.654 39.8013 189.566 39.288 189.566 38.672V34.162C189.566 33.326 189.742 32.6293 190.094 32.072C190.446 31.5147 190.93 31.0967 191.546 30.818C192.162 30.5393 192.859 30.4 193.636 30.4C194.413 30.4 195.088 30.5393 195.66 30.818C196.247 31.0967 196.701 31.5073 197.024 32.05C197.347 32.5927 197.508 33.2747 197.508 34.096V36.692L190.512 37.066V38.672ZM196.54 33.986C196.54 33.3993 196.408 32.9007 196.144 32.49C195.895 32.0793 195.55 31.764 195.11 31.544C194.685 31.324 194.186 31.214 193.614 31.214C192.983 31.214 192.433 31.3313 191.964 31.566C191.495 31.8007 191.135 32.1453 190.886 32.6C190.637 33.04 190.512 33.5827 190.512 34.228V36.12L196.54 35.834V33.986ZM206.108 35.174V30.62H207.076V41.62H206.108V36.098H199.926V41.62H198.958V30.62H199.926V35.174H206.108ZM213.838 34.954C214.454 34.954 215.018 35.086 215.532 35.35C216.045 35.614 216.456 35.9953 216.764 36.494C217.072 36.978 217.226 37.5647 217.226 38.254C217.226 38.8407 217.086 39.4127 216.808 39.97C216.544 40.5127 216.118 40.9527 215.532 41.29C214.945 41.6273 214.175 41.796 213.222 41.796C212.855 41.796 212.474 41.7887 212.078 41.774C211.682 41.7593 211.3 41.7373 210.934 41.708C210.567 41.6933 210.23 41.6713 209.922 41.642C209.628 41.6273 209.379 41.6127 209.174 41.598C208.968 41.5687 208.836 41.554 208.778 41.554V30.62H209.746V34.954H213.838ZM213.09 40.872C213.75 40.872 214.314 40.762 214.784 40.542C215.253 40.322 215.62 40.0213 215.884 39.64C216.148 39.244 216.28 38.804 216.28 38.32C216.28 37.8947 216.214 37.528 216.082 37.22C215.95 36.912 215.766 36.6627 215.532 36.472C215.312 36.2667 215.055 36.12 214.762 36.032C214.483 35.944 214.19 35.9 213.882 35.9H209.746V40.74C209.804 40.7547 209.929 40.7693 210.12 40.784C210.325 40.784 210.582 40.7987 210.89 40.828C211.198 40.8427 211.542 40.8573 211.924 40.872C212.305 40.872 212.694 40.872 213.09 40.872ZM235.009 30.62H236.197V41.62H235.229V32.314L231.049 41.62H230.081L225.857 32.314V41.62H224.889V30.62H226.077L230.565 40.52L235.009 30.62ZM247.722 41.62V30.62H248.69V41.62H247.722ZM242.992 34.954C243.608 34.954 244.172 35.086 244.686 35.35C245.199 35.614 245.61 35.9953 245.918 36.494C246.226 36.978 246.38 37.5647 246.38 38.254C246.38 38.8407 246.24 39.4127 245.962 39.97C245.698 40.5127 245.272 40.9527 244.686 41.29C244.099 41.6273 243.329 41.796 242.376 41.796C242.009 41.796 241.628 41.7887 241.232 41.774C240.836 41.7593 240.454 41.7373 240.088 41.708C239.721 41.6933 239.384 41.6713 239.076 41.642C238.782 41.6273 238.533 41.6127 238.328 41.598C238.122 41.5687 237.99 41.554 237.932 41.554V30.62H238.9V34.954H242.992ZM242.244 40.872C242.904 40.872 243.468 40.762 243.938 40.542C244.407 40.322 244.774 40.0213 245.038 39.64C245.302 39.244 245.434 38.804 245.434 38.32C245.434 37.8947 245.368 37.528 245.236 37.22C245.104 36.912 244.92 36.6627 244.686 36.472C244.466 36.2667 244.209 36.12 243.916 36.032C243.637 35.944 243.344 35.9 243.036 35.9H238.9V40.74C238.958 40.7547 239.083 40.7693 239.274 40.784C239.479 40.784 239.736 40.7987 240.044 40.828C240.352 40.8427 240.696 40.8573 241.078 40.872C241.459 40.872 241.848 40.872 242.244 40.872ZM263.2 31.896C262.79 31.7053 262.35 31.5587 261.88 31.456C261.411 31.3533 260.956 31.2947 260.516 31.28C259.798 31.28 259.204 31.4267 258.734 31.72C258.28 32.0133 257.942 32.424 257.722 32.952C257.502 33.4653 257.385 34.0667 257.37 34.756V37.594C257.37 38.1953 257.436 38.7087 257.568 39.134C257.7 39.5593 257.906 39.904 258.184 40.168C258.478 40.432 258.83 40.63 259.24 40.762C259.651 40.8793 260.128 40.9453 260.67 40.96C261.008 40.96 261.33 40.9453 261.638 40.916C261.946 40.8867 262.225 40.85 262.474 40.806C262.724 40.762 262.922 40.7253 263.068 40.696C263.215 40.652 263.296 40.63 263.31 40.63L263.508 41.51C263.054 41.6273 262.577 41.7153 262.078 41.774C261.594 41.8473 261.11 41.8767 260.626 41.862C259.79 41.8473 259.05 41.7007 258.404 41.422C257.774 41.1287 257.282 40.6887 256.93 40.102C256.593 39.5007 256.424 38.7307 256.424 37.792V34.646C256.424 33.7953 256.571 33.0547 256.864 32.424C257.158 31.7933 257.605 31.302 258.206 30.95C258.822 30.5833 259.585 30.4 260.494 30.4C260.993 30.4 261.492 30.466 261.99 30.598C262.504 30.7153 262.995 30.884 263.464 31.104L263.2 31.896ZM268.39 38.694C268.39 39.09 268.434 39.4493 268.522 39.772C268.61 40.0947 268.756 40.3733 268.962 40.608C269.182 40.8427 269.49 41.026 269.886 41.158L269.6 41.906C269.189 41.7887 268.844 41.6347 268.566 41.444C268.287 41.2387 268.06 41.0113 267.884 40.762C267.722 40.498 267.605 40.1973 267.532 39.86C267.458 39.508 267.422 39.1193 267.422 38.694V31.544H264.606V30.62H271.294V31.544H268.39V38.694ZM280.658 30.906C280.658 30.906 280.629 31.0747 280.57 31.412C280.526 31.7347 280.504 32.1233 280.504 32.578V41.532C280.519 41.532 280.431 41.5393 280.24 41.554C280.049 41.554 279.8 41.5687 279.492 41.598C279.199 41.6127 278.876 41.6273 278.524 41.642C278.172 41.6567 277.827 41.6713 277.49 41.686C277.153 41.7007 276.867 41.708 276.632 41.708C276.031 41.7227 275.473 41.6713 274.96 41.554C274.461 41.422 274.021 41.2093 273.64 40.916C273.259 40.6227 272.965 40.234 272.76 39.75C272.569 39.266 272.474 38.6793 272.474 37.99V33.832C272.474 33.172 272.562 32.622 272.738 32.182C272.929 31.742 273.178 31.3973 273.486 31.148C273.809 30.8987 274.168 30.7227 274.564 30.62C274.96 30.5027 275.371 30.444 275.796 30.444C276.207 30.444 276.632 30.488 277.072 30.576C277.512 30.664 277.945 30.7887 278.37 30.95C278.81 31.0967 279.235 31.2653 279.646 31.456C279.646 31.3973 279.668 31.2727 279.712 31.082C279.771 30.8767 279.829 30.708 279.888 30.576L280.658 30.906ZM273.42 38.034C273.42 38.6353 273.523 39.1487 273.728 39.574C273.948 39.9847 274.278 40.3 274.718 40.52C275.158 40.74 275.693 40.85 276.324 40.85C276.72 40.85 277.109 40.8427 277.49 40.828C277.871 40.7987 278.216 40.7767 278.524 40.762C278.832 40.7473 279.074 40.7327 279.25 40.718C279.441 40.7033 279.536 40.696 279.536 40.696V32.358C279.184 32.182 278.832 32.0353 278.48 31.918C278.143 31.786 277.813 31.6833 277.49 31.61C277.167 31.522 276.852 31.456 276.544 31.412C276.251 31.368 275.979 31.346 275.73 31.346C275.451 31.346 275.173 31.3827 274.894 31.456C274.615 31.5293 274.366 31.6613 274.146 31.852C273.926 32.028 273.75 32.2847 273.618 32.622C273.486 32.9447 273.42 33.37 273.42 33.898V38.034ZM289.574 35.174V30.62H290.542V41.62H289.574V36.098H283.392V41.62H282.424V30.62H283.392V35.174H289.574ZM292.992 38.672C292.992 39.112 293.066 39.486 293.212 39.794C293.359 40.0873 293.557 40.3293 293.806 40.52C294.056 40.696 294.349 40.828 294.686 40.916C295.024 41.004 295.383 41.048 295.764 41.048C296.336 41.048 296.879 40.9673 297.392 40.806C297.92 40.63 298.47 40.3953 299.042 40.102L299.416 40.85C298.874 41.1727 298.287 41.4293 297.656 41.62C297.04 41.796 296.439 41.884 295.852 41.884C295.31 41.884 294.804 41.8327 294.334 41.73C293.865 41.6273 293.454 41.4513 293.102 41.202C292.765 40.9527 292.501 40.6227 292.31 40.212C292.134 39.8013 292.046 39.288 292.046 38.672V34.162C292.046 33.326 292.222 32.6293 292.574 32.072C292.926 31.5147 293.41 31.0967 294.026 30.818C294.642 30.5393 295.339 30.4 296.116 30.4C296.894 30.4 297.568 30.5393 298.14 30.818C298.727 31.0967 299.182 31.5073 299.504 32.05C299.827 32.5927 299.988 33.2747 299.988 34.096V36.692L292.992 37.066V38.672ZM299.02 33.986C299.02 33.3993 298.888 32.9007 298.624 32.49C298.375 32.0793 298.03 31.764 297.59 31.544C297.165 31.324 296.666 31.214 296.094 31.214C295.464 31.214 294.914 31.3313 294.444 31.566C293.975 31.8007 293.616 32.1453 293.366 32.6C293.117 33.04 292.992 33.5827 292.992 34.228V36.12L299.02 35.834V33.986ZM311.536 30.62H312.724V41.62H311.756V32.314L307.576 41.62H306.608L302.384 32.314V41.62H301.416V30.62H302.604L307.092 40.52L311.536 30.62ZM14.9482 57.896C14.5376 57.7053 14.0976 57.5587 13.6282 57.456C13.1589 57.3533 12.7042 57.2947 12.2642 57.28C11.5456 57.28 10.9516 57.4267 10.4822 57.72C10.0276 58.0133 9.69023 58.424 9.47023 58.952C9.25023 59.4653 9.13289 60.0667 9.11823 60.756V63.594C9.11823 64.1953 9.18423 64.7087 9.31623 65.134C9.44823 65.5593 9.65356 65.904 9.93223 66.168C10.2256 66.432 10.5776 66.63 10.9882 66.762C11.3989 66.8793 11.8756 66.9453 12.4182 66.96C12.7556 66.96 13.0782 66.9453 13.3862 66.916C13.6942 66.8867 13.9729 66.85 14.2222 66.806C14.4716 66.762 14.6696 66.7253 14.8162 66.696C14.9629 66.652 15.0436 66.63 15.0582 66.63L15.2562 67.51C14.8016 67.6273 14.3249 67.7153 13.8262 67.774C13.3422 67.8473 12.8582 67.8767 12.3742 67.862C11.5382 67.8473 10.7976 67.7007 10.1522 67.422C9.52156 67.1287 9.03023 66.6887 8.67823 66.102C8.34089 65.5007 8.17223 64.7307 8.17223 63.792V60.646C8.17223 59.7953 8.31889 59.0547 8.61223 58.424C8.90556 57.7933 9.35289 57.302 9.95423 56.95C10.5702 56.5833 11.3329 56.4 12.2422 56.4C12.7409 56.4 13.2396 56.466 13.7382 56.598C14.2516 56.7153 14.7429 56.884 15.2122 57.104L14.9482 57.896ZM17.5196 64.672C17.5196 65.112 17.593 65.486 17.7396 65.794C17.8863 66.0873 18.0843 66.3293 18.3336 66.52C18.583 66.696 18.8763 66.828 19.2136 66.916C19.551 67.004 19.9103 67.048 20.2916 67.048C20.8636 67.048 21.4063 66.9673 21.9196 66.806C22.4476 66.63 22.9976 66.3953 23.5696 66.102L23.9436 66.85C23.401 67.1727 22.8143 67.4293 22.1836 67.62C21.5676 67.796 20.9663 67.884 20.3796 67.884C19.837 67.884 19.331 67.8327 18.8616 67.73C18.3923 67.6273 17.9816 67.4513 17.6296 67.202C17.2923 66.9527 17.0283 66.6227 16.8376 66.212C16.6616 65.8013 16.5736 65.288 16.5736 64.672V60.162C16.5736 59.326 16.7496 58.6293 17.1016 58.072C17.4536 57.5147 17.9376 57.0967 18.5536 56.818C19.1696 56.5393 19.8663 56.4 20.6436 56.4C21.421 56.4 22.0956 56.5393 22.6676 56.818C23.2543 57.0967 23.709 57.5073 24.0316 58.05C24.3543 58.5927 24.5156 59.2747 24.5156 60.096V62.692L17.5196 63.066V64.672ZM23.5476 59.986C23.5476 59.3993 23.4156 58.9007 23.1516 58.49C22.9023 58.0793 22.5576 57.764 22.1176 57.544C21.6923 57.324 21.1936 57.214 20.6216 57.214C19.991 57.214 19.441 57.3313 18.9716 57.566C18.5023 57.8007 18.143 58.1453 17.8936 58.6C17.6443 59.04 17.5196 59.5827 17.5196 60.228V62.12L23.5476 61.834V59.986ZM36.0634 56.62H37.2514V67.62H36.2834V58.314L32.1034 67.62H31.1354L26.9114 58.314V67.62H25.9434V56.62H27.1314L31.6194 66.52L36.0634 56.62ZM44.0465 60.954C44.6625 60.954 45.2272 61.086 45.7405 61.35C46.2538 61.614 46.6645 61.9953 46.9725 62.494C47.2805 62.978 47.4345 63.5647 47.4345 64.254C47.4345 64.8407 47.2952 65.4127 47.0165 65.97C46.7525 66.5127 46.3272 66.9527 45.7405 67.29C45.1538 67.6273 44.3838 67.796 43.4305 67.796C43.0638 67.796 42.6825 67.7887 42.2865 67.774C41.8905 67.7593 41.5092 67.7373 41.1425 67.708C40.7758 67.6933 40.4385 67.6713 40.1305 67.642C39.8372 67.6273 39.5878 67.6127 39.3825 67.598C39.1772 67.5687 39.0452 67.554 38.9865 67.554V56.62H39.9545V60.954H44.0465ZM43.2985 66.872C43.9585 66.872 44.5232 66.762 44.9925 66.542C45.4618 66.322 45.8285 66.0213 46.0925 65.64C46.3565 65.244 46.4885 64.804 46.4885 64.32C46.4885 63.8947 46.4225 63.528 46.2905 63.22C46.1585 62.912 45.9752 62.6627 45.7405 62.472C45.5205 62.2667 45.2638 62.12 44.9705 62.032C44.6918 61.944 44.3985 61.9 44.0905 61.9H39.9545V66.74C40.0132 66.7547 40.1378 66.7693 40.3285 66.784C40.5338 66.784 40.7905 66.7987 41.0985 66.828C41.4065 66.8427 41.7512 66.8573 42.1325 66.872C42.5138 66.872 42.9025 66.872 43.2985 66.872ZM51.0217 53.298C51.1977 53.298 51.3444 53.3567 51.4617 53.474C51.579 53.5913 51.6377 53.738 51.6377 53.914C51.6377 54.0753 51.579 54.2147 51.4617 54.332C51.3444 54.4493 51.1977 54.508 51.0217 54.508C50.8604 54.508 50.721 54.4493 50.6037 54.332C50.4864 54.2147 50.4277 54.0753 50.4277 53.914C50.4277 53.738 50.4864 53.5913 50.6037 53.474C50.721 53.3567 50.8604 53.298 51.0217 53.298ZM54.5197 53.298C54.6957 53.298 54.8424 53.3567 54.9597 53.474C55.077 53.5913 55.1357 53.738 55.1357 53.914C55.1357 54.0753 55.077 54.2147 54.9597 54.332C54.8424 54.4493 54.6957 54.508 54.5197 54.508C54.3437 54.508 54.197 54.4493 54.0797 54.332C53.977 54.2147 53.9257 54.0753 53.9257 53.914C53.9257 53.738 53.977 53.5913 54.0797 53.474C54.197 53.3567 54.3437 53.298 54.5197 53.298ZM49.7677 64.672C49.7677 65.112 49.841 65.486 49.9877 65.794C50.1344 66.0873 50.3324 66.3293 50.5817 66.52C50.831 66.696 51.1244 66.828 51.4617 66.916C51.799 67.004 52.1584 67.048 52.5397 67.048C53.1117 67.048 53.6544 66.9673 54.1677 66.806C54.6957 66.63 55.2457 66.3953 55.8177 66.102L56.1917 66.85C55.649 67.1727 55.0624 67.4293 54.4317 67.62C53.8157 67.796 53.2144 67.884 52.6277 67.884C52.085 67.884 51.579 67.8327 51.1097 67.73C50.6404 67.6273 50.2297 67.4513 49.8777 67.202C49.5404 66.9527 49.2764 66.6227 49.0857 66.212C48.9097 65.8013 48.8217 65.288 48.8217 64.672V60.162C48.8217 59.326 48.9977 58.6293 49.3497 58.072C49.7017 57.5147 50.1857 57.0967 50.8017 56.818C51.4177 56.5393 52.1144 56.4 52.8917 56.4C53.669 56.4 54.3437 56.5393 54.9157 56.818C55.5024 57.0967 55.957 57.5073 56.2797 58.05C56.6024 58.5927 56.7637 59.2747 56.7637 60.096V62.692L49.7677 63.066V64.672ZM55.7957 59.986C55.7957 59.3993 55.6637 58.9007 55.3997 58.49C55.1504 58.0793 54.8057 57.764 54.3657 57.544C53.9404 57.324 53.4417 57.214 52.8697 57.214C52.239 57.214 51.689 57.3313 51.2197 57.566C50.7504 57.8007 50.391 58.1453 50.1417 58.6C49.8924 59.04 49.7677 59.5827 49.7677 60.228V62.12L55.7957 61.834V59.986ZM64.7915 52.924V53.078C64.7915 53.5327 64.6815 53.9507 64.4615 54.332C64.2415 54.6987 63.9408 54.9993 63.5595 55.234C63.1928 55.454 62.7821 55.564 62.3275 55.564C61.8728 55.564 61.4548 55.454 61.0735 55.234C60.6921 54.9993 60.3841 54.6987 60.1495 54.332C59.9295 53.9507 59.8195 53.5327 59.8195 53.078V52.924H60.6335V53.078C60.6335 53.5327 60.8021 53.9287 61.1395 54.266C61.4768 54.5887 61.8728 54.75 62.3275 54.75C62.7968 54.75 63.1855 54.5887 63.4935 54.266C63.8161 53.9287 63.9775 53.5327 63.9775 53.078V52.924H64.7915ZM59.2035 56.62V66.146L65.2095 56.62H66.3535V67.62H65.3855V58.094L59.3795 67.62H58.2355V56.62H59.2035ZM68.4718 66.696C68.6038 66.652 68.7285 66.6667 68.8458 66.74C68.9778 66.8133 69.0658 66.916 69.1098 67.048C69.1392 67.18 69.1098 67.3047 69.0218 67.422C68.9485 67.5393 68.8458 67.62 68.7138 67.664C68.5818 67.6933 68.4572 67.6713 68.3398 67.598C68.2225 67.5247 68.1418 67.422 68.0978 67.29C68.0685 67.158 68.0905 67.0333 68.1638 66.916C68.2372 66.7987 68.3398 66.7253 68.4718 66.696ZM85.5493 67.62V53.21H78.0473V67.62H77.0573V52.22H86.5393V67.62H85.5493ZM96.3876 63.858C96.3876 64.7527 96.2409 65.5153 95.9476 66.146C95.6689 66.762 95.2509 67.2313 94.6936 67.554C94.1363 67.862 93.4469 68.016 92.6256 68.016C92.2736 68.016 91.9216 67.972 91.5696 67.884C91.2323 67.8107 90.9096 67.6933 90.6016 67.532C90.3083 67.356 90.0369 67.1653 89.7876 66.96C89.5529 66.74 89.3696 66.498 89.2376 66.234V72.284L88.2476 71.888V60.778C88.2476 59.3847 88.6069 58.314 89.3256 57.566C90.0589 56.818 91.0709 56.444 92.3616 56.444C93.6669 56.444 94.6643 56.8327 95.3536 57.61C96.0429 58.3727 96.3876 59.4287 96.3876 60.778V63.858ZM95.4196 60.734C95.4196 59.9713 95.3023 59.3407 95.0676 58.842C94.8329 58.3433 94.4883 57.9693 94.0336 57.72C93.5936 57.4707 93.0509 57.346 92.4056 57.346C91.7016 57.346 91.1149 57.478 90.6456 57.742C90.1763 57.9913 89.8243 58.3727 89.5896 58.886C89.3549 59.3847 89.2376 60.0007 89.2376 60.734V64.1C89.2376 64.5987 89.3329 65.0387 89.5236 65.42C89.7289 65.8013 89.9929 66.124 90.3156 66.388C90.6383 66.6373 91.0049 66.828 91.4156 66.96C91.8263 67.0773 92.2443 67.1287 92.6696 67.114C93.2563 67.0993 93.7549 66.9747 94.1656 66.74C94.5763 66.4907 94.8843 66.146 95.0896 65.706C95.3096 65.2513 95.4196 64.6867 95.4196 64.012V60.734ZM98.971 56.62V66.146L104.977 56.62H106.121V67.62H105.153V58.094L99.147 67.62H98.003V56.62H98.971ZM107.668 56.62H113.718V57.522H108.636V67.62H107.668V56.62ZM120.767 56.62H123.605V67.62H122.615V57.522H120.855C120.371 57.522 119.968 57.61 119.645 57.786C119.337 57.9473 119.095 58.16 118.919 58.424C118.743 58.688 118.604 58.9813 118.501 59.304L116.719 65.156C116.572 65.6547 116.411 66.08 116.235 66.432C116.059 66.784 115.839 67.07 115.575 67.29C115.311 67.51 114.966 67.6933 114.541 67.84L113.925 67.29C114.35 67.1287 114.688 66.9013 114.937 66.608C115.201 66.3147 115.399 66.014 115.531 65.706C115.678 65.398 115.78 65.1413 115.839 64.936L117.445 59.524C117.518 59.2747 117.614 58.9887 117.731 58.666C117.863 58.3433 118.046 58.028 118.281 57.72C118.53 57.3973 118.853 57.1333 119.249 56.928C119.645 56.7227 120.151 56.62 120.767 56.62ZM133.361 56.906C133.361 56.906 133.332 57.0747 133.273 57.412C133.229 57.7347 133.207 58.1233 133.207 58.578V67.532C133.222 67.532 133.134 67.5393 132.943 67.554C132.752 67.554 132.503 67.5687 132.195 67.598C131.902 67.6127 131.579 67.6273 131.227 67.642C130.875 67.6567 130.53 67.6713 130.193 67.686C129.856 67.7007 129.57 67.708 129.335 67.708C128.734 67.7227 128.176 67.6713 127.663 67.554C127.164 67.422 126.724 67.2093 126.343 66.916C125.962 66.6227 125.668 66.234 125.463 65.75C125.272 65.266 125.177 64.6793 125.177 63.99V59.832C125.177 59.172 125.265 58.622 125.441 58.182C125.632 57.742 125.881 57.3973 126.189 57.148C126.512 56.8987 126.871 56.7227 127.267 56.62C127.663 56.5027 128.074 56.444 128.499 56.444C128.91 56.444 129.335 56.488 129.775 56.576C130.215 56.664 130.648 56.7887 131.073 56.95C131.513 57.0967 131.938 57.2653 132.349 57.456C132.349 57.3973 132.371 57.2727 132.415 57.082C132.474 56.8767 132.532 56.708 132.591 56.576L133.361 56.906ZM126.123 64.034C126.123 64.6353 126.226 65.1487 126.431 65.574C126.651 65.9847 126.981 66.3 127.421 66.52C127.861 66.74 128.396 66.85 129.027 66.85C129.423 66.85 129.812 66.8427 130.193 66.828C130.574 66.7987 130.919 66.7767 131.227 66.762C131.535 66.7473 131.777 66.7327 131.953 66.718C132.144 66.7033 132.239 66.696 132.239 66.696V58.358C131.887 58.182 131.535 58.0353 131.183 57.918C130.846 57.786 130.516 57.6833 130.193 57.61C129.87 57.522 129.555 57.456 129.247 57.412C128.954 57.368 128.682 57.346 128.433 57.346C128.154 57.346 127.876 57.3827 127.597 57.456C127.318 57.5293 127.069 57.6613 126.849 57.852C126.629 58.028 126.453 58.2847 126.321 58.622C126.189 58.9447 126.123 59.37 126.123 59.898V64.034ZM145.886 56.62H146.854V67.62H135.282V56.62H136.272V66.652H140.562V56.62H141.552V66.652H145.886V56.62ZM156.715 56.906C156.715 56.906 156.685 57.0747 156.627 57.412C156.583 57.7347 156.561 58.1233 156.561 58.578V67.532C156.575 67.532 156.487 67.5393 156.297 67.554C156.106 67.554 155.857 67.5687 155.549 67.598C155.255 67.6127 154.933 67.6273 154.581 67.642C154.229 67.6567 153.884 67.6713 153.547 67.686C153.209 67.7007 152.923 67.708 152.689 67.708C152.087 67.7227 151.53 67.6713 151.017 67.554C150.518 67.422 150.078 67.2093 149.697 66.916C149.315 66.6227 149.022 66.234 148.817 65.75C148.626 65.266 148.531 64.6793 148.531 63.99V59.832C148.531 59.172 148.619 58.622 148.795 58.182C148.985 57.742 149.235 57.3973 149.543 57.148C149.865 56.8987 150.225 56.7227 150.621 56.62C151.017 56.5027 151.427 56.444 151.853 56.444C152.263 56.444 152.689 56.488 153.129 56.576C153.569 56.664 154.001 56.7887 154.427 56.95C154.867 57.0967 155.292 57.2653 155.703 57.456C155.703 57.3973 155.725 57.2727 155.769 57.082C155.827 56.8767 155.886 56.708 155.945 56.576L156.715 56.906ZM149.477 64.034C149.477 64.6353 149.579 65.1487 149.785 65.574C150.005 65.9847 150.335 66.3 150.775 66.52C151.215 66.74 151.75 66.85 152.381 66.85C152.777 66.85 153.165 66.8427 153.547 66.828C153.928 66.7987 154.273 66.7767 154.581 66.762C154.889 66.7473 155.131 66.7327 155.307 66.718C155.497 66.7033 155.593 66.696 155.593 66.696V58.358C155.241 58.182 154.889 58.0353 154.537 57.918C154.199 57.786 153.869 57.6833 153.547 57.61C153.224 57.522 152.909 57.456 152.601 57.412C152.307 57.368 152.036 57.346 151.787 57.346C151.508 57.346 151.229 57.3827 150.951 57.456C150.672 57.5293 150.423 57.6613 150.203 57.852C149.983 58.028 149.807 58.2847 149.675 58.622C149.543 58.9447 149.477 59.37 149.477 59.898V64.034ZM159.295 64.672C159.295 65.112 159.368 65.486 159.515 65.794C159.662 66.0873 159.86 66.3293 160.109 66.52C160.358 66.696 160.652 66.828 160.989 66.916C161.326 67.004 161.686 67.048 162.067 67.048C162.639 67.048 163.182 66.9673 163.695 66.806C164.223 66.63 164.773 66.3953 165.345 66.102L165.719 66.85C165.176 67.1727 164.59 67.4293 163.959 67.62C163.343 67.796 162.742 67.884 162.155 67.884C161.612 67.884 161.106 67.8327 160.637 67.73C160.168 67.6273 159.757 67.4513 159.405 67.202C159.068 66.9527 158.804 66.6227 158.613 66.212C158.437 65.8013 158.349 65.288 158.349 64.672V60.162C158.349 59.326 158.525 58.6293 158.877 58.072C159.229 57.5147 159.713 57.0967 160.329 56.818C160.945 56.5393 161.642 56.4 162.419 56.4C163.196 56.4 163.871 56.5393 164.443 56.818C165.03 57.0967 165.484 57.5073 165.807 58.05C166.13 58.5927 166.291 59.2747 166.291 60.096V62.692L159.295 63.066V64.672ZM165.323 59.986C165.323 59.3993 165.191 58.9007 164.927 58.49C164.678 58.0793 164.333 57.764 163.893 57.544C163.468 57.324 162.969 57.214 162.397 57.214C161.766 57.214 161.216 57.3313 160.747 57.566C160.278 57.8007 159.918 58.1453 159.669 58.6C159.42 59.04 159.295 59.5827 159.295 60.228V62.12L165.323 61.834V59.986ZM177.839 56.62H179.027V67.62H178.059V58.314L173.879 67.62H172.911L168.687 58.314V67.62H167.719V56.62H168.907L173.395 66.52L177.839 56.62ZM191.79 52.22C192.611 52.22 193.308 52.3593 193.88 52.638C194.467 52.902 194.914 53.3053 195.222 53.848C195.545 54.376 195.706 55.058 195.706 55.894C195.706 56.3193 195.633 56.73 195.486 57.126C195.354 57.5073 195.156 57.852 194.892 58.16C194.643 58.468 194.335 58.7173 193.968 58.908C194.481 59.084 194.929 59.37 195.31 59.766C195.691 60.1473 195.985 60.6167 196.19 61.174C196.41 61.7167 196.52 62.3327 196.52 63.022C196.52 63.9607 196.344 64.7747 195.992 65.464C195.655 66.1533 195.149 66.6887 194.474 67.07C193.814 67.4367 192.993 67.62 192.01 67.62H186.95V52.22H191.79ZM192.054 58.556C192.626 58.556 193.103 58.446 193.484 58.226C193.88 57.9913 194.181 57.676 194.386 57.28C194.591 56.8693 194.694 56.4 194.694 55.872C194.694 55.2853 194.584 54.794 194.364 54.398C194.144 53.9873 193.807 53.6793 193.352 53.474C192.912 53.254 192.347 53.144 191.658 53.144H187.918V58.556H192.054ZM191.988 66.696C192.765 66.696 193.411 66.5567 193.924 66.278C194.437 65.9847 194.826 65.5593 195.09 65.002C195.354 64.4447 195.486 63.7627 195.486 62.956C195.486 62.3107 195.361 61.724 195.112 61.196C194.863 60.668 194.496 60.2573 194.012 59.964C193.528 59.656 192.941 59.502 192.252 59.502H187.918V66.696H191.988ZM206.021 56.906C206.021 56.906 205.992 57.0747 205.933 57.412C205.889 57.7347 205.867 58.1233 205.867 58.578V67.532C205.882 67.532 205.794 67.5393 205.603 67.554C205.413 67.554 205.163 67.5687 204.855 67.598C204.562 67.6127 204.239 67.6273 203.887 67.642C203.535 67.6567 203.191 67.6713 202.853 67.686C202.516 67.7007 202.23 67.708 201.995 67.708C201.394 67.7227 200.837 67.6713 200.323 67.554C199.825 67.422 199.385 67.2093 199.003 66.916C198.622 66.6227 198.329 66.234 198.123 65.75C197.933 65.266 197.837 64.6793 197.837 63.99V59.832C197.837 59.172 197.925 58.622 198.101 58.182C198.292 57.742 198.541 57.3973 198.849 57.148C199.172 56.8987 199.531 56.7227 199.927 56.62C200.323 56.5027 200.734 56.444 201.159 56.444C201.57 56.444 201.995 56.488 202.435 56.576C202.875 56.664 203.308 56.7887 203.733 56.95C204.173 57.0967 204.599 57.2653 205.009 57.456C205.009 57.3973 205.031 57.2727 205.075 57.082C205.134 56.8767 205.193 56.708 205.251 56.576L206.021 56.906ZM198.783 64.034C198.783 64.6353 198.886 65.1487 199.091 65.574C199.311 65.9847 199.641 66.3 200.081 66.52C200.521 66.74 201.057 66.85 201.687 66.85C202.083 66.85 202.472 66.8427 202.853 66.828C203.235 66.7987 203.579 66.7767 203.887 66.762C204.195 66.7473 204.437 66.7327 204.613 66.718C204.804 66.7033 204.899 66.696 204.899 66.696V58.358C204.547 58.182 204.195 58.0353 203.843 57.918C203.506 57.786 203.176 57.6833 202.853 57.61C202.531 57.522 202.215 57.456 201.907 57.412C201.614 57.368 201.343 57.346 201.093 57.346C200.815 57.346 200.536 57.3827 200.257 57.456C199.979 57.5293 199.729 57.6613 199.509 57.852C199.289 58.028 199.113 58.2847 198.981 58.622C198.849 58.9447 198.783 59.37 198.783 59.898V64.034ZM214.388 57.896C213.977 57.7053 213.537 57.5587 213.068 57.456C212.598 57.3533 212.144 57.2947 211.704 57.28C210.985 57.28 210.391 57.4267 209.922 57.72C209.467 58.0133 209.13 58.424 208.91 58.952C208.69 59.4653 208.572 60.0667 208.558 60.756V63.594C208.558 64.1953 208.624 64.7087 208.756 65.134C208.888 65.5593 209.093 65.904 209.372 66.168C209.665 66.432 210.017 66.63 210.428 66.762C210.838 66.8793 211.315 66.9453 211.858 66.96C212.195 66.96 212.518 66.9453 212.826 66.916C213.134 66.8867 213.412 66.85 213.662 66.806C213.911 66.762 214.109 66.7253 214.256 66.696C214.402 66.652 214.483 66.63 214.498 66.63L214.696 67.51C214.241 67.6273 213.764 67.7153 213.266 67.774C212.782 67.8473 212.298 67.8767 211.814 67.862C210.978 67.8473 210.237 67.7007 209.592 67.422C208.961 67.1287 208.47 66.6887 208.118 66.102C207.78 65.5007 207.612 64.7307 207.612 63.792V60.646C207.612 59.7953 207.758 59.0547 208.052 58.424C208.345 57.7933 208.792 57.302 209.394 56.95C210.01 56.5833 210.772 56.4 211.682 56.4C212.18 56.4 212.679 56.466 213.178 56.598C213.691 56.7153 214.182 56.884 214.652 57.104L214.388 57.896ZM230.407 63.858C230.407 64.7527 230.26 65.5153 229.967 66.146C229.688 66.762 229.27 67.2313 228.713 67.554C228.156 67.862 227.466 68.016 226.645 68.016C226.293 68.016 225.941 67.972 225.589 67.884C225.252 67.8107 224.929 67.6933 224.621 67.532C224.328 67.356 224.056 67.1653 223.807 66.96C223.572 66.74 223.389 66.498 223.257 66.234V72.284L222.267 71.888V60.778C222.267 59.3847 222.626 58.314 223.345 57.566C224.078 56.818 225.09 56.444 226.381 56.444C227.686 56.444 228.684 56.8327 229.373 57.61C230.062 58.3727 230.407 59.4287 230.407 60.778V63.858ZM229.439 60.734C229.439 59.9713 229.322 59.3407 229.087 58.842C228.852 58.3433 228.508 57.9693 228.053 57.72C227.613 57.4707 227.07 57.346 226.425 57.346C225.721 57.346 225.134 57.478 224.665 57.742C224.196 57.9913 223.844 58.3727 223.609 58.886C223.374 59.3847 223.257 60.0007 223.257 60.734V64.1C223.257 64.5987 223.352 65.0387 223.543 65.42C223.748 65.8013 224.012 66.124 224.335 66.388C224.658 66.6373 225.024 66.828 225.435 66.96C225.846 67.0773 226.264 67.1287 226.689 67.114C227.276 67.0993 227.774 66.9747 228.185 66.74C228.596 66.4907 228.904 66.146 229.109 65.706C229.329 65.2513 229.439 64.6867 229.439 64.012V60.734ZM240.053 56.906C240.053 56.906 240.023 57.0747 239.965 57.412C239.921 57.7347 239.899 58.1233 239.899 58.578V67.532C239.913 67.532 239.825 67.5393 239.635 67.554C239.444 67.554 239.195 67.5687 238.887 67.598C238.593 67.6127 238.271 67.6273 237.919 67.642C237.567 67.6567 237.222 67.6713 236.885 67.686C236.547 67.7007 236.261 67.708 236.027 67.708C235.425 67.7227 234.868 67.6713 234.355 67.554C233.856 67.422 233.416 67.2093 233.035 66.916C232.653 66.6227 232.36 66.234 232.155 65.75C231.964 65.266 231.869 64.6793 231.869 63.99V59.832C231.869 59.172 231.957 58.622 232.133 58.182C232.323 57.742 232.573 57.3973 232.881 57.148C233.203 56.8987 233.563 56.7227 233.959 56.62C234.355 56.5027 234.765 56.444 235.191 56.444C235.601 56.444 236.027 56.488 236.467 56.576C236.907 56.664 237.339 56.7887 237.765 56.95C238.205 57.0967 238.63 57.2653 239.041 57.456C239.041 57.3973 239.063 57.2727 239.107 57.082C239.165 56.8767 239.224 56.708 239.283 56.576L240.053 56.906ZM232.815 64.034C232.815 64.6353 232.917 65.1487 233.123 65.574C233.343 65.9847 233.673 66.3 234.113 66.52C234.553 66.74 235.088 66.85 235.719 66.85C236.115 66.85 236.503 66.8427 236.885 66.828C237.266 66.7987 237.611 66.7767 237.919 66.762C238.227 66.7473 238.469 66.7327 238.645 66.718C238.835 66.7033 238.931 66.696 238.931 66.696V58.358C238.579 58.182 238.227 58.0353 237.875 57.918C237.537 57.786 237.207 57.6833 236.885 57.61C236.562 57.522 236.247 57.456 235.939 57.412C235.645 57.368 235.374 57.346 235.125 57.346C234.846 57.346 234.567 57.3827 234.289 57.456C234.01 57.5293 233.761 57.6613 233.541 57.852C233.321 58.028 233.145 58.2847 233.013 58.622C232.881 58.9447 232.815 59.37 232.815 59.898V64.034ZM243.029 57.61V56.686C243.44 56.5687 243.828 56.488 244.195 56.444C244.562 56.4 244.914 56.378 245.251 56.378C246.028 56.378 246.666 56.5247 247.165 56.818C247.664 57.0967 248.03 57.456 248.265 57.896C248.514 58.3213 248.639 58.7687 248.639 59.238C248.639 59.5167 248.588 59.8027 248.485 60.096C248.382 60.3747 248.228 60.6313 248.023 60.866C247.818 61.1007 247.554 61.284 247.231 61.416C247.847 61.636 248.324 62.01 248.661 62.538C249.013 63.066 249.189 63.66 249.189 64.32C249.189 64.9067 249.05 65.4787 248.771 66.036C248.492 66.5787 248.06 67.0187 247.473 67.356C246.886 67.6933 246.116 67.862 245.163 67.862C244.532 67.862 243.88 67.7887 243.205 67.642C242.545 67.4953 241.973 67.3193 241.489 67.114L241.775 66.212C242.01 66.3 242.296 66.4027 242.633 66.52C242.97 66.6227 243.344 66.718 243.755 66.806C244.166 66.894 244.591 66.938 245.031 66.938C245.691 66.938 246.256 66.828 246.725 66.608C247.194 66.388 247.561 66.0873 247.825 65.706C248.089 65.31 248.221 64.87 248.221 64.386C248.221 63.9607 248.14 63.594 247.979 63.286C247.832 62.978 247.634 62.7213 247.385 62.516C247.136 62.3107 246.85 62.164 246.527 62.076C246.219 61.9733 245.904 61.922 245.581 61.922H243.381L243.029 60.998H245.867C246.204 60.998 246.505 60.9173 246.769 60.756C247.048 60.58 247.26 60.36 247.407 60.096C247.554 59.8173 247.627 59.5167 247.627 59.194C247.627 58.9153 247.576 58.666 247.473 58.446C247.385 58.226 247.246 58.0353 247.055 57.874C246.879 57.698 246.659 57.5587 246.395 57.456C246.146 57.3533 245.867 57.2873 245.559 57.258C245.354 57.2433 245.112 57.2433 244.833 57.258C244.569 57.258 244.283 57.2873 243.975 57.346C243.682 57.4047 243.366 57.4927 243.029 57.61ZM259.451 66.652H260.683V69.798H259.891L259.715 67.62H250.915L250.739 69.798H249.969V66.652H251.113L253.269 59.524C253.342 59.2893 253.438 59.0107 253.555 58.688C253.687 58.3507 253.87 58.028 254.105 57.72C254.354 57.412 254.677 57.1553 255.073 56.95C255.469 56.73 255.975 56.62 256.591 56.62H259.451V66.652ZM252.081 66.652H258.483V57.522H256.701C256.32 57.522 255.99 57.5733 255.711 57.676C255.447 57.764 255.22 57.896 255.029 58.072C254.853 58.2333 254.706 58.424 254.589 58.644C254.486 58.8493 254.398 59.0693 254.325 59.304L252.081 66.652ZM262.527 64.672C262.527 65.112 262.601 65.486 262.747 65.794C262.894 66.0873 263.092 66.3293 263.341 66.52C263.591 66.696 263.884 66.828 264.221 66.916C264.559 67.004 264.918 67.048 265.299 67.048C265.871 67.048 266.414 66.9673 266.927 66.806C267.455 66.63 268.005 66.3953 268.577 66.102L268.951 66.85C268.409 67.1727 267.822 67.4293 267.191 67.62C266.575 67.796 265.974 67.884 265.387 67.884C264.845 67.884 264.339 67.8327 263.869 67.73C263.4 67.6273 262.989 67.4513 262.637 67.202C262.3 66.9527 262.036 66.6227 261.845 66.212C261.669 65.8013 261.581 65.288 261.581 64.672V60.162C261.581 59.326 261.757 58.6293 262.109 58.072C262.461 57.5147 262.945 57.0967 263.561 56.818C264.177 56.5393 264.874 56.4 265.651 56.4C266.429 56.4 267.103 56.5393 267.675 56.818C268.262 57.0967 268.717 57.5073 269.039 58.05C269.362 58.5927 269.523 59.2747 269.523 60.096V62.692L262.527 63.066V64.672ZM268.555 59.986C268.555 59.3993 268.423 58.9007 268.159 58.49C267.91 58.0793 267.565 57.764 267.125 57.544C266.7 57.324 266.201 57.214 265.629 57.214C264.999 57.214 264.449 57.3313 263.979 57.566C263.51 57.8007 263.151 58.1453 262.901 58.6C262.652 59.04 262.527 59.5827 262.527 60.228V62.12L268.555 61.834V59.986ZM277.001 56.62H279.839V67.62H278.849V57.522H277.089C276.605 57.522 276.202 57.61 275.879 57.786C275.571 57.9473 275.329 58.16 275.153 58.424C274.977 58.688 274.838 58.9813 274.735 59.304L272.953 65.156C272.807 65.6547 272.645 66.08 272.469 66.432C272.293 66.784 272.073 67.07 271.809 67.29C271.545 67.51 271.201 67.6933 270.775 67.84L270.159 67.29C270.585 67.1287 270.922 66.9013 271.171 66.608C271.435 66.3147 271.633 66.014 271.765 65.706C271.912 65.398 272.015 65.1413 272.073 64.936L273.679 59.524C273.753 59.2747 273.848 58.9887 273.965 58.666C274.097 58.3433 274.281 58.028 274.515 57.72C274.765 57.3973 275.087 57.1333 275.483 56.928C275.879 56.7227 276.385 56.62 277.001 56.62ZM282.534 56.62V66.146L288.54 56.62H289.684V67.62H288.716V58.094L282.71 67.62H281.566V56.62H282.534ZM294.751 64.694C294.751 65.09 294.795 65.4493 294.883 65.772C294.971 66.0947 295.118 66.3733 295.323 66.608C295.543 66.8427 295.851 67.026 296.247 67.158L295.961 67.906C295.55 67.7887 295.206 67.6347 294.927 67.444C294.648 67.2387 294.421 67.0113 294.245 66.762C294.084 66.498 293.966 66.1973 293.893 65.86C293.82 65.508 293.783 65.1193 293.783 64.694V57.544H290.967V56.62H297.655V57.544H294.751V64.694ZM304.093 60.954C304.709 60.954 305.274 61.086 305.787 61.35C306.301 61.614 306.711 61.9953 307.019 62.494C307.327 62.978 307.481 63.5647 307.481 64.254C307.481 64.8407 307.342 65.4127 307.063 65.97C306.799 66.5127 306.374 66.9527 305.787 67.29C305.201 67.6273 304.431 67.796 303.477 67.796C303.111 67.796 302.729 67.7887 302.333 67.774C301.937 67.7593 301.556 67.7373 301.189 67.708C300.823 67.6933 300.485 67.6713 300.177 67.642C299.884 67.6273 299.635 67.6127 299.429 67.598C299.224 67.5687 299.092 67.554 299.033 67.554V56.62H300.001V60.954H304.093ZM303.345 66.872C304.005 66.872 304.57 66.762 305.039 66.542C305.509 66.322 305.875 66.0213 306.139 65.64C306.403 65.244 306.535 64.804 306.535 64.32C306.535 63.8947 306.469 63.528 306.337 63.22C306.205 62.912 306.022 62.6627 305.787 62.472C305.567 62.2667 305.311 62.12 305.017 62.032C304.739 61.944 304.445 61.9 304.137 61.9H300.001V66.74C300.06 66.7547 300.185 66.7693 300.375 66.784C300.581 66.784 300.837 66.7987 301.145 66.828C301.453 66.8427 301.798 66.8573 302.179 66.872C302.561 66.872 302.949 66.872 303.345 66.872ZM77.457 83.896C77.0463 83.7053 76.6063 83.5587 76.137 83.456C75.6677 83.3533 75.213 83.2947 74.773 83.28C74.0543 83.28 73.4603 83.4267 72.991 83.72C72.5363 84.0133 72.199 84.424 71.979 84.952C71.759 85.4653 71.6417 86.0667 71.627 86.756V89.594C71.627 90.1953 71.693 90.7087 71.825 91.134C71.957 91.5593 72.1623 91.904 72.441 92.168C72.7343 92.432 73.0863 92.63 73.497 92.762C73.9077 92.8793 74.3843 92.9453 74.927 92.96C75.2643 92.96 75.587 92.9453 75.895 92.916C76.203 92.8867 76.4817 92.85 76.731 92.806C76.9803 92.762 77.1783 92.7253 77.325 92.696C77.4717 92.652 77.5523 92.63 77.567 92.63L77.765 93.51C77.3103 93.6273 76.8337 93.7153 76.335 93.774C75.851 93.8473 75.367 93.8767 74.883 93.862C74.047 93.8473 73.3063 93.7007 72.661 93.422C72.0303 93.1287 71.539 92.6887 71.187 92.102C70.8497 91.5007 70.681 90.7307 70.681 89.792V86.646C70.681 85.7953 70.8277 85.0547 71.121 84.424C71.4143 83.7933 71.8617 83.302 72.463 82.95C73.079 82.5833 73.8417 82.4 74.751 82.4C75.2497 82.4 75.7483 82.466 76.247 82.598C76.7603 82.7153 77.2517 82.884 77.721 83.104L77.457 83.896ZM92.5305 87.174V82.62H93.4985V93.62H92.5305V88.098H86.3485V93.62H85.3805V82.62H86.3485V87.174H92.5305ZM103.186 82.906C103.186 82.906 103.157 83.0747 103.098 83.412C103.054 83.7347 103.032 84.1233 103.032 84.578V93.532C103.047 93.532 102.959 93.5393 102.768 93.554C102.578 93.554 102.328 93.5687 102.02 93.598C101.727 93.6127 101.404 93.6273 101.052 93.642C100.7 93.6567 100.356 93.6713 100.018 93.686C99.681 93.7007 99.395 93.708 99.1604 93.708C98.559 93.7227 98.0017 93.6713 97.4884 93.554C96.9897 93.422 96.5497 93.2093 96.1684 92.916C95.787 92.6227 95.4937 92.234 95.2884 91.75C95.0977 91.266 95.0024 90.6793 95.0024 89.99V85.832C95.0024 85.172 95.0904 84.622 95.2664 84.182C95.457 83.742 95.7064 83.3973 96.0144 83.148C96.337 82.8987 96.6964 82.7227 97.0924 82.62C97.4884 82.5027 97.899 82.444 98.3244 82.444C98.735 82.444 99.1604 82.488 99.6004 82.576C100.04 82.664 100.473 82.7887 100.898 82.95C101.338 83.0967 101.764 83.2653 102.174 83.456C102.174 83.3973 102.196 83.2727 102.24 83.082C102.299 82.8767 102.358 82.708 102.416 82.576L103.186 82.906ZM95.9484 90.034C95.9484 90.6353 96.051 91.1487 96.2564 91.574C96.4764 91.9847 96.8064 92.3 97.2464 92.52C97.6864 92.74 98.2217 92.85 98.8524 92.85C99.2484 92.85 99.637 92.8427 100.018 92.828C100.4 92.7987 100.744 92.7767 101.052 92.762C101.36 92.7473 101.602 92.7327 101.778 92.718C101.969 92.7033 102.064 92.696 102.064 92.696V84.358C101.712 84.182 101.36 84.0353 101.008 83.918C100.671 83.786 100.341 83.6833 100.018 83.61C99.6957 83.522 99.3804 83.456 99.0724 83.412C98.779 83.368 98.5077 83.346 98.2584 83.346C97.9797 83.346 97.701 83.3827 97.4224 83.456C97.1437 83.5293 96.8944 83.6613 96.6744 83.852C96.4544 84.028 96.2784 84.2847 96.1464 84.622C96.0144 84.9447 95.9484 85.37 95.9484 85.898V90.034ZM115.051 82.62H116.239V93.62H115.271V84.314L111.091 93.62H110.123L105.899 84.314V93.62H104.931V82.62H106.119L110.607 92.52L115.051 82.62ZM118.898 82.62V92.146L124.904 82.62H126.048V93.62H125.08V84.094L119.074 93.62H117.93V82.62H118.898ZM140.999 87.174V82.62H141.967V93.62H140.999V88.098H134.817V93.62H133.849V82.62H134.817V87.174H140.999ZM151.655 82.906C151.655 82.906 151.626 83.0747 151.567 83.412C151.523 83.7347 151.501 84.1233 151.501 84.578V93.532C151.516 93.532 151.428 93.5393 151.237 93.554C151.046 93.554 150.797 93.5687 150.489 93.598C150.196 93.6127 149.873 93.6273 149.521 93.642C149.169 93.6567 148.824 93.6713 148.487 93.686C148.15 93.7007 147.864 93.708 147.629 93.708C147.028 93.7227 146.47 93.6713 145.957 93.554C145.458 93.422 145.018 93.2093 144.637 92.916C144.256 92.6227 143.962 92.234 143.757 91.75C143.566 91.266 143.471 90.6793 143.471 89.99V85.832C143.471 85.172 143.559 84.622 143.735 84.182C143.926 83.742 144.175 83.3973 144.483 83.148C144.806 82.8987 145.165 82.7227 145.561 82.62C145.957 82.5027 146.368 82.444 146.793 82.444C147.204 82.444 147.629 82.488 148.069 82.576C148.509 82.664 148.942 82.7887 149.367 82.95C149.807 83.0967 150.232 83.2653 150.643 83.456C150.643 83.3973 150.665 83.2727 150.709 83.082C150.768 82.8767 150.826 82.708 150.885 82.576L151.655 82.906ZM144.417 90.034C144.417 90.6353 144.52 91.1487 144.725 91.574C144.945 91.9847 145.275 92.3 145.715 92.52C146.155 92.74 146.69 92.85 147.321 92.85C147.717 92.85 148.106 92.8427 148.487 92.828C148.868 92.7987 149.213 92.7767 149.521 92.762C149.829 92.7473 150.071 92.7327 150.247 92.718C150.438 92.7033 150.533 92.696 150.533 92.696V84.358C150.181 84.182 149.829 84.0353 149.477 83.918C149.14 83.786 148.81 83.6833 148.487 83.61C148.164 83.522 147.849 83.456 147.541 83.412C147.248 83.368 146.976 83.346 146.727 83.346C146.448 83.346 146.17 83.3827 145.891 83.456C145.612 83.5293 145.363 83.6613 145.143 83.852C144.923 84.028 144.747 84.2847 144.615 84.622C144.483 84.9447 144.417 85.37 144.417 85.898V90.034ZM164.179 82.62H165.147V93.62H153.575V82.62H154.565V92.652H158.855V82.62H159.845V92.652H164.179V82.62ZM168.651 98.218L170.895 92.96L166.495 82.62H167.595L171.423 91.794L175.317 82.62H176.395L169.663 98.218H168.651ZM189.85 82.62H192.688V93.62H191.698V83.522H189.938C189.454 83.522 189.051 83.61 188.728 83.786C188.42 83.9473 188.178 84.16 188.002 84.424C187.826 84.688 187.687 84.9813 187.584 85.304L185.802 91.156C185.655 91.6547 185.494 92.08 185.318 92.432C185.142 92.784 184.922 93.07 184.658 93.29C184.394 93.51 184.049 93.6933 183.624 93.84L183.008 93.29C183.433 93.1287 183.771 92.9013 184.02 92.608C184.284 92.3147 184.482 92.014 184.614 91.706C184.761 91.398 184.863 91.1413 184.922 90.936L186.528 85.524C186.601 85.2747 186.697 84.9887 186.814 84.666C186.946 84.3433 187.129 84.028 187.364 83.72C187.613 83.3973 187.936 83.1333 188.332 82.928C188.728 82.7227 189.234 82.62 189.85 82.62ZM194.92 87.614H198.594V88.604H194.92V87.614ZM206.228 89.55C206.228 90.8407 205.898 91.882 205.238 92.674C204.578 93.4513 203.581 93.84 202.246 93.84C201.322 93.84 200.545 93.6493 199.914 93.268C199.298 92.872 198.836 92.3513 198.528 91.706C198.235 91.0607 198.088 90.342 198.088 89.55V86.668C198.088 85.7293 198.25 84.9447 198.572 84.314C198.895 83.6687 199.364 83.1847 199.98 82.862C200.596 82.5247 201.337 82.356 202.202 82.356C203.508 82.356 204.505 82.7373 205.194 83.5C205.884 84.2627 206.228 85.3187 206.228 86.668V89.55ZM205.26 86.646C205.26 85.898 205.143 85.2747 204.908 84.776C204.688 84.2627 204.351 83.8813 203.896 83.632C203.456 83.368 202.906 83.236 202.246 83.236C201.542 83.236 200.956 83.368 200.486 83.632C200.017 83.896 199.658 84.2847 199.408 84.798C199.174 85.2967 199.056 85.9127 199.056 86.646V89.704C199.056 90.3347 199.181 90.8993 199.43 91.398C199.68 91.8967 200.039 92.2853 200.508 92.564C200.992 92.8427 201.572 92.982 202.246 92.982C202.936 92.982 203.5 92.85 203.94 92.586C204.395 92.3073 204.725 91.9187 204.93 91.42C205.15 90.9213 205.26 90.3493 205.26 89.704V86.646ZM194.414 93.62V82.62H195.382V93.62H194.414ZM211.869 82.356C212.705 82.356 213.409 82.5173 213.981 82.84C214.553 83.1627 214.986 83.6393 215.279 84.27C215.572 84.886 215.719 85.6487 215.719 86.558V89.506C215.719 90.826 215.374 91.8747 214.685 92.652C213.996 93.4293 212.991 93.818 211.671 93.818C210.776 93.818 210.021 93.642 209.405 93.29C208.789 92.938 208.327 92.4393 208.019 91.794C207.711 91.1487 207.557 90.386 207.557 89.506V83.236C207.557 82.576 207.652 81.9673 207.843 81.41C208.034 80.838 208.334 80.3247 208.745 79.87C209.112 79.4593 209.588 79.1 210.175 78.792C210.762 78.484 211.414 78.2787 212.133 78.176L212.265 78.682C211.561 78.8433 210.982 79.078 210.527 79.386C210.072 79.6793 209.728 79.9653 209.493 80.244C209.214 80.5813 208.987 80.9773 208.811 81.432C208.635 81.8867 208.547 82.4293 208.547 83.06V84.138C208.723 83.7713 208.972 83.456 209.295 83.192C209.632 82.928 210.021 82.7227 210.461 82.576C210.901 82.4293 211.37 82.356 211.869 82.356ZM211.803 83.258C211.304 83.258 210.857 83.3313 210.461 83.478C210.065 83.6247 209.72 83.8373 209.427 84.116C209.148 84.38 208.928 84.7173 208.767 85.128C208.62 85.524 208.547 85.9787 208.547 86.492V89.506C208.547 90.2247 208.664 90.8407 208.899 91.354C209.134 91.8527 209.486 92.2413 209.955 92.52C210.424 92.784 211.011 92.916 211.715 92.916C212.404 92.916 212.969 92.784 213.409 92.52C213.864 92.256 214.201 91.8673 214.421 91.354C214.641 90.8407 214.751 90.2247 214.751 89.506V86.404C214.751 85.7147 214.634 85.1353 214.399 84.666C214.164 84.1967 213.827 83.8447 213.387 83.61C212.947 83.3753 212.419 83.258 211.803 83.258ZM225.108 89.55C225.108 90.8407 224.778 91.882 224.118 92.674C223.458 93.4513 222.46 93.84 221.126 93.84C220.202 93.84 219.432 93.6493 218.816 93.268C218.2 92.872 217.738 92.3513 217.43 91.706C217.122 91.0607 216.968 90.342 216.968 89.55V86.668C216.968 85.7293 217.129 84.9447 217.452 84.314C217.774 83.6687 218.244 83.1847 218.86 82.862C219.49 82.5247 220.238 82.356 221.104 82.356C222.409 82.356 223.399 82.7373 224.074 83.5C224.763 84.2627 225.108 85.3187 225.108 86.668V89.55ZM224.162 86.646C224.162 85.8833 224.044 85.2527 223.81 84.754C223.59 84.2407 223.252 83.8593 222.798 83.61C222.358 83.346 221.8 83.214 221.126 83.214C220.422 83.214 219.835 83.346 219.366 83.61C218.896 83.874 218.537 84.2627 218.288 84.776C218.053 85.2747 217.936 85.898 217.936 86.646V89.704C217.936 90.3347 218.06 90.8993 218.31 91.398C218.559 91.882 218.918 92.2707 219.388 92.564C219.872 92.8427 220.451 92.982 221.126 92.982C221.815 92.982 222.38 92.8427 222.82 92.564C223.274 92.2853 223.612 91.904 223.832 91.42C224.052 90.9213 224.162 90.3493 224.162 89.704V86.646ZM232.933 87.372C233.579 87.592 234.077 87.9733 234.429 88.516C234.796 89.0587 234.979 89.66 234.979 90.32C234.979 90.9067 234.84 91.4787 234.561 92.036C234.297 92.5787 233.872 93.0187 233.285 93.356C232.699 93.6933 231.929 93.862 230.975 93.862C230.594 93.862 230.198 93.8547 229.787 93.84C229.377 93.8253 228.981 93.8033 228.599 93.774C228.233 93.7447 227.895 93.7153 227.587 93.686C227.279 93.6713 227.03 93.6567 226.839 93.642C226.663 93.6273 226.568 93.62 226.553 93.62V82.598C226.553 82.598 226.671 82.5907 226.905 82.576C227.14 82.5467 227.463 82.5173 227.873 82.488C228.299 82.4587 228.768 82.4367 229.281 82.422C229.809 82.3927 230.359 82.378 230.931 82.378C231.518 82.378 232.024 82.4513 232.449 82.598C232.889 82.7447 233.249 82.95 233.527 83.214C233.806 83.478 234.011 83.7787 234.143 84.116C234.29 84.4387 234.363 84.7907 234.363 85.172C234.363 85.5973 234.231 86.0227 233.967 86.448C233.718 86.8733 233.373 87.1813 232.933 87.372ZM230.821 83.236C230.469 83.236 230.11 83.2433 229.743 83.258C229.391 83.2727 229.054 83.2873 228.731 83.302C228.423 83.3167 228.159 83.3313 227.939 83.346C227.719 83.3607 227.58 83.3753 227.521 83.39V86.998H231.437C231.789 86.998 232.112 86.91 232.405 86.734C232.699 86.558 232.933 86.3307 233.109 86.052C233.285 85.7587 233.373 85.4507 233.373 85.128C233.373 84.7613 233.3 84.4533 233.153 84.204C233.007 83.9547 232.809 83.764 232.559 83.632C232.31 83.4853 232.031 83.3827 231.723 83.324C231.43 83.2653 231.129 83.236 230.821 83.236ZM230.843 92.938C231.503 92.938 232.068 92.828 232.537 92.608C233.007 92.388 233.373 92.0873 233.637 91.706C233.901 91.31 234.033 90.87 234.033 90.386C234.033 89.9607 233.953 89.6013 233.791 89.308C233.645 89 233.447 88.7433 233.197 88.538C232.948 88.3327 232.662 88.1787 232.339 88.076C232.031 87.9733 231.716 87.922 231.393 87.922H227.521V92.806C227.58 92.806 227.705 92.8133 227.895 92.828C228.101 92.8427 228.35 92.8647 228.643 92.894C228.951 92.9087 229.296 92.9233 229.677 92.938C230.059 92.938 230.447 92.938 230.843 92.938ZM241.585 86.954C242.201 86.954 242.765 87.086 243.279 87.35C243.792 87.614 244.203 87.9953 244.511 88.494C244.819 88.978 244.973 89.5647 244.973 90.254C244.973 90.8407 244.833 91.4127 244.555 91.97C244.291 92.5127 243.865 92.9527 243.279 93.29C242.692 93.6273 241.922 93.796 240.969 93.796C240.602 93.796 240.221 93.7887 239.825 93.774C239.429 93.7593 239.047 93.7373 238.681 93.708C238.314 93.6933 237.977 93.6713 237.669 93.642C237.375 93.6273 237.126 93.6127 236.921 93.598C236.715 93.5687 236.583 93.554 236.525 93.554V82.62H237.493V86.954H241.585ZM240.837 92.872C241.497 92.872 242.061 92.762 242.531 92.542C243 92.322 243.367 92.0213 243.631 91.64C243.895 91.244 244.027 90.804 244.027 90.32C244.027 89.8947 243.961 89.528 243.829 89.22C243.697 88.912 243.513 88.6627 243.279 88.472C243.059 88.2667 242.802 88.12 242.509 88.032C242.23 87.944 241.937 87.9 241.629 87.9H237.493V92.74C237.551 92.7547 237.676 92.7693 237.867 92.784C238.072 92.784 238.329 92.7987 238.637 92.828C238.945 92.8427 239.289 92.8573 239.671 92.872C240.052 92.872 240.441 92.872 240.837 92.872Z" fill="#FFF5D1"/>
</svg>
