<svg width="402" height="650" viewBox="0 0 402 650" fill="none" xmlns="http://www.w3.org/2000/svg">
<path d="M44.7841 279.539C94.6302 215.864 153.842 -33.4907 94.6465 10.1009C35.4512 53.6926 54.5606 241.942 155.204 272.651C250.873 301.843 445.614 123.741 355.716 113.289C265.817 102.837 187.446 278.411 229.432 329.417C271.418 380.423 488.769 469.219 489.523 391.182C490.278 313.145 249.227 350.584 235.103 420.328C220.979 490.073 289.803 653.375 326.146 643.641C362.488 633.906 252.38 489.178 168.969 493.317C89.6884 497.251 -41.4272 635.873 27.3068 643.2C96.0407 650.527 92.6463 520.77 79.6646 478.146C66.6829 435.522 -147.491 389.984 -155.578 492.821C-163.664 595.657 14.889 475.622 12.0463 398.566C9.16714 320.526 -152.746 267.8 -166.353 320.089C-179.959 372.379 -5.06208 343.214 44.7841 279.539Z" stroke="#3E2723" stroke-opacity="0.2" stroke-width="10"/>
</svg>
